<?xml version="1.0" encoding="UTF-8"?>
<svg width="311px" height="311px" viewBox="0 0 311 311" version="1.1" xmlns="http://www.w3.org/2000/svg" xmlns:xlink="http://www.w3.org/1999/xlink">
    <!-- Generator: Sketch 52.2 (67145) - http://www.bohemiancoding.com/sketch -->
    <title>comp/dots</title>
    <desc>Created with Sketch.</desc>
    <g id="comp/dots" stroke="none" stroke-width="1" fill="none" fill-rule="evenodd">
        <circle id="Oval" fill="#000000" cx="16" cy="16" r="4"></circle>
        <circle id="Oval-Copy-11" fill="#000000" cx="16" cy="44" r="4"></circle>
        <circle id="Oval-Copy" fill="#000000" cx="44" cy="16" r="4"></circle>
        <circle id="Oval-Copy-12" fill="#000000" cx="44" cy="44" r="4"></circle>
        <circle id="Oval-Copy-2" fill="#000000" cx="72" cy="16" r="4"></circle>
        <circle id="Oval-Copy-13" fill="#000000" cx="72" cy="44" r="4"></circle>
        <circle id="Oval-Copy-3" fill="#000000" cx="100" cy="16" r="4"></circle>
        <circle id="Oval-Copy-14" fill="#000000" cx="100" cy="44" r="4"></circle>
        <circle id="Oval-Copy-4" fill="#000000" cx="128" cy="16" r="4"></circle>
        <circle id="Oval-Copy-15" fill="#000000" cx="128" cy="44" r="4"></circle>
        <circle id="Oval-Copy-5" fill="#000000" cx="156" cy="16" r="4"></circle>
        <circle id="Oval-Copy-16" fill="#000000" cx="156" cy="44" r="4"></circle>
        <circle id="Oval-Copy-6" fill="#000000" cx="184" cy="16" r="4"></circle>
        <circle id="Oval-Copy-17" fill="#000000" cx="184" cy="44" r="4"></circle>
        <circle id="Oval-Copy-7" fill="#000000" cx="212" cy="16" r="4"></circle>
        <circle id="Oval-Copy-18" fill="#000000" cx="212" cy="44" r="4"></circle>
        <circle id="Oval-Copy-8" fill="#000000" cx="240" cy="16" r="4"></circle>
        <circle id="Oval-Copy-19" fill="#000000" cx="240" cy="44" r="4"></circle>
        <circle id="Oval-Copy-9" fill="#000000" cx="268" cy="16" r="4"></circle>
        <circle id="Oval-Copy-20" fill="#000000" cx="268" cy="44" r="4"></circle>
        <circle id="Oval-Copy-10" fill="#000000" cx="296" cy="16" r="4"></circle>
        <circle id="Oval-Copy-21" fill="#000000" cx="296" cy="44" r="4"></circle>
        <circle id="Oval-Copy-32" fill="#000000" cx="16" cy="72" r="4"></circle>
        <circle id="Oval-Copy-31" fill="#000000" cx="44" cy="72" r="4"></circle>
        <circle id="Oval-Copy-30" fill="#000000" cx="72" cy="72" r="4"></circle>
        <circle id="Oval-Copy-29" fill="#000000" cx="100" cy="72" r="4"></circle>
        <circle id="Oval-Copy-28" fill="#000000" cx="128" cy="72" r="4"></circle>
        <circle id="Oval-Copy-27" fill="#000000" cx="156" cy="72" r="4"></circle>
        <circle id="Oval-Copy-26" fill="#000000" cx="184" cy="72" r="4"></circle>
        <circle id="Oval-Copy-25" fill="#000000" cx="212" cy="72" r="4"></circle>
        <circle id="Oval-Copy-24" fill="#000000" cx="240" cy="72" r="4"></circle>
        <circle id="Oval-Copy-23" fill="#000000" cx="268" cy="72" r="4"></circle>
        <circle id="Oval-Copy-22" fill="#000000" cx="296" cy="72" r="4"></circle>
        <circle id="Oval-Copy-43" fill="#000000" cx="16" cy="100" r="4"></circle>
        <circle id="Oval-Copy-42" fill="#000000" cx="44" cy="100" r="4"></circle>
        <circle id="Oval-Copy-41" fill="#000000" cx="72" cy="100" r="4"></circle>
        <circle id="Oval-Copy-40" fill="#000000" cx="100" cy="100" r="4"></circle>
        <circle id="Oval-Copy-39" fill="#000000" cx="128" cy="100" r="4"></circle>
        <circle id="Oval-Copy-38" fill="#000000" cx="156" cy="100" r="4"></circle>
        <circle id="Oval-Copy-37" fill="#000000" cx="184" cy="100" r="4"></circle>
        <circle id="Oval-Copy-36" fill="#000000" cx="212" cy="100" r="4"></circle>
        <circle id="Oval-Copy-35" fill="#000000" cx="240" cy="100" r="4"></circle>
        <circle id="Oval-Copy-34" fill="#000000" cx="268" cy="100" r="4"></circle>
        <circle id="Oval-Copy-33" fill="#000000" cx="296" cy="100" r="4"></circle>
        <circle id="Oval-Copy-54" fill="#000000" cx="16" cy="128" r="4"></circle>
        <circle id="Oval-Copy-53" fill="#000000" cx="44" cy="128" r="4"></circle>
        <circle id="Oval-Copy-52" fill="#000000" cx="72" cy="128" r="4"></circle>
        <circle id="Oval-Copy-51" fill="#000000" cx="100" cy="128" r="4"></circle>
        <circle id="Oval-Copy-50" fill="#000000" cx="128" cy="128" r="4"></circle>
        <circle id="Oval-Copy-49" fill="#000000" cx="156" cy="128" r="4"></circle>
        <circle id="Oval-Copy-48" fill="#000000" cx="184" cy="128" r="4"></circle>
        <circle id="Oval-Copy-47" fill="#000000" cx="212" cy="128" r="4"></circle>
        <circle id="Oval-Copy-46" fill="#000000" cx="240" cy="128" r="4"></circle>
        <circle id="Oval-Copy-45" fill="#000000" cx="268" cy="128" r="4"></circle>
        <circle id="Oval-Copy-44" fill="#000000" cx="296" cy="128" r="4"></circle>
        <circle id="Oval-Copy-65" fill="#000000" cx="16" cy="156" r="4"></circle>
        <circle id="Oval-Copy-64" fill="#000000" cx="44" cy="156" r="4"></circle>
        <circle id="Oval-Copy-63" fill="#000000" cx="72" cy="156" r="4"></circle>
        <circle id="Oval-Copy-62" fill="#000000" cx="100" cy="156" r="4"></circle>
        <circle id="Oval-Copy-61" fill="#000000" cx="128" cy="156" r="4"></circle>
        <circle id="Oval-Copy-60" fill="#000000" cx="156" cy="156" r="4"></circle>
        <circle id="Oval-Copy-59" fill="#000000" cx="184" cy="156" r="4"></circle>
        <circle id="Oval-Copy-58" fill="#000000" cx="212" cy="156" r="4"></circle>
        <circle id="Oval-Copy-57" fill="#000000" cx="240" cy="156" r="4"></circle>
        <circle id="Oval-Copy-56" fill="#000000" cx="268" cy="156" r="4"></circle>
        <circle id="Oval-Copy-55" fill="#000000" cx="296" cy="156" r="4"></circle>
        <circle id="Oval-Copy-76" fill="#000000" cx="16" cy="184" r="4"></circle>
        <circle id="Oval-Copy-75" fill="#000000" cx="44" cy="184" r="4"></circle>
        <circle id="Oval-Copy-74" fill="#000000" cx="72" cy="184" r="4"></circle>
        <circle id="Oval-Copy-73" fill="#000000" cx="100" cy="184" r="4"></circle>
        <circle id="Oval-Copy-72" fill="#000000" cx="128" cy="184" r="4"></circle>
        <circle id="Oval-Copy-71" fill="#000000" cx="156" cy="184" r="4"></circle>
        <circle id="Oval-Copy-70" fill="#000000" cx="184" cy="184" r="4"></circle>
        <circle id="Oval-Copy-69" fill="#000000" cx="212" cy="184" r="4"></circle>
        <circle id="Oval-Copy-68" fill="#000000" cx="240" cy="184" r="4"></circle>
        <circle id="Oval-Copy-67" fill="#000000" cx="268" cy="184" r="4"></circle>
        <circle id="Oval-Copy-66" fill="#000000" cx="296" cy="184" r="4"></circle>
        <circle id="Oval" fill="#000000" cx="16" cy="184" r="4"></circle>
        <circle id="Oval-Copy-11" fill="#000000" cx="16" cy="212" r="4"></circle>
        <circle id="Oval-Copy" fill="#000000" cx="44" cy="184" r="4"></circle>
        <circle id="Oval-Copy-12" fill="#000000" cx="44" cy="212" r="4"></circle>
        <circle id="Oval-Copy-2" fill="#000000" cx="72" cy="184" r="4"></circle>
        <circle id="Oval-Copy-13" fill="#000000" cx="72" cy="212" r="4"></circle>
        <circle id="Oval-Copy-3" fill="#000000" cx="100" cy="184" r="4"></circle>
        <circle id="Oval-Copy-14" fill="#000000" cx="100" cy="212" r="4"></circle>
        <circle id="Oval-Copy-4" fill="#000000" cx="128" cy="184" r="4"></circle>
        <circle id="Oval-Copy-15" fill="#000000" cx="128" cy="212" r="4"></circle>
        <circle id="Oval-Copy-5" fill="#000000" cx="156" cy="184" r="4"></circle>
        <circle id="Oval-Copy-16" fill="#000000" cx="156" cy="212" r="4"></circle>
        <circle id="Oval-Copy-6" fill="#000000" cx="184" cy="184" r="4"></circle>
        <circle id="Oval-Copy-17" fill="#000000" cx="184" cy="212" r="4"></circle>
        <circle id="Oval-Copy-7" fill="#000000" cx="212" cy="184" r="4"></circle>
        <circle id="Oval-Copy-18" fill="#000000" cx="212" cy="212" r="4"></circle>
        <circle id="Oval-Copy-8" fill="#000000" cx="240" cy="184" r="4"></circle>
        <circle id="Oval-Copy-19" fill="#000000" cx="240" cy="212" r="4"></circle>
        <circle id="Oval-Copy-9" fill="#000000" cx="268" cy="184" r="4"></circle>
        <circle id="Oval-Copy-20" fill="#000000" cx="268" cy="212" r="4"></circle>
        <circle id="Oval-Copy-10" fill="#000000" cx="296" cy="184" r="4"></circle>
        <circle id="Oval-Copy-21" fill="#000000" cx="296" cy="212" r="4"></circle>
        <circle id="Oval-Copy-32" fill="#000000" cx="16" cy="240" r="4"></circle>
        <circle id="Oval-Copy-31" fill="#000000" cx="44" cy="240" r="4"></circle>
        <circle id="Oval-Copy-30" fill="#000000" cx="72" cy="240" r="4"></circle>
        <circle id="Oval-Copy-29" fill="#000000" cx="100" cy="240" r="4"></circle>
        <circle id="Oval-Copy-28" fill="#000000" cx="128" cy="240" r="4"></circle>
        <circle id="Oval-Copy-27" fill="#000000" cx="156" cy="240" r="4"></circle>
        <circle id="Oval-Copy-26" fill="#000000" cx="184" cy="240" r="4"></circle>
        <circle id="Oval-Copy-25" fill="#000000" cx="212" cy="240" r="4"></circle>
        <circle id="Oval-Copy-24" fill="#000000" cx="240" cy="240" r="4"></circle>
        <circle id="Oval-Copy-23" fill="#000000" cx="268" cy="240" r="4"></circle>
        <circle id="Oval-Copy-22" fill="#000000" cx="296" cy="240" r="4"></circle>
        <circle id="Oval-Copy-43" fill="#000000" cx="16" cy="268" r="4"></circle>
        <circle id="Oval-Copy-42" fill="#000000" cx="44" cy="268" r="4"></circle>
        <circle id="Oval-Copy-41" fill="#000000" cx="72" cy="268" r="4"></circle>
        <circle id="Oval-Copy-40" fill="#000000" cx="100" cy="268" r="4"></circle>
        <circle id="Oval-Copy-39" fill="#000000" cx="128" cy="268" r="4"></circle>
        <circle id="Oval-Copy-38" fill="#000000" cx="156" cy="268" r="4"></circle>
        <circle id="Oval-Copy-37" fill="#000000" cx="184" cy="268" r="4"></circle>
        <circle id="Oval-Copy-36" fill="#000000" cx="212" cy="268" r="4"></circle>
        <circle id="Oval-Copy-35" fill="#000000" cx="240" cy="268" r="4"></circle>
        <circle id="Oval-Copy-34" fill="#000000" cx="268" cy="268" r="4"></circle>
        <circle id="Oval-Copy-33" fill="#000000" cx="296" cy="268" r="4"></circle>
        <circle id="Oval-Copy-54" fill="#000000" cx="16" cy="296" r="4"></circle>
        <circle id="Oval-Copy-53" fill="#000000" cx="44" cy="296" r="4"></circle>
        <circle id="Oval-Copy-52" fill="#000000" cx="72" cy="296" r="4"></circle>
        <circle id="Oval-Copy-51" fill="#000000" cx="100" cy="296" r="4"></circle>
        <circle id="Oval-Copy-50" fill="#000000" cx="128" cy="296" r="4"></circle>
        <circle id="Oval-Copy-49" fill="#000000" cx="156" cy="296" r="4"></circle>
        <circle id="Oval-Copy-48" fill="#000000" cx="184" cy="296" r="4"></circle>
        <circle id="Oval-Copy-47" fill="#000000" cx="212" cy="296" r="4"></circle>
        <circle id="Oval-Copy-46" fill="#000000" cx="240" cy="296" r="4"></circle>
        <circle id="Oval-Copy-45" fill="#000000" cx="268" cy="296" r="4"></circle>
        <circle id="Oval-Copy-44" fill="#000000" cx="296" cy="296" r="4"></circle>
    </g>
</svg>