<?xml version="1.0" encoding="UTF-8"?>
<svg width="290px" height="220px" viewBox="0 0 290 220" version="1.1" xmlns="http://www.w3.org/2000/svg" xmlns:xlink="http://www.w3.org/1999/xlink">
    <!-- Generator: Sketch 52.2 (67145) - http://www.bohemiancoding.com/sketch -->
    <title>img/boy_swim</title>
    <desc>Created with Sketch.</desc>
    <defs>
        <linearGradient x1="51.7668476%" y1="92.2309164%" x2="48.4783547%" y2="16.6314708%" id="linearGradient-1">
            <stop stop-color="#808080" stop-opacity="0.25" offset="0%"></stop>
            <stop stop-color="#808080" stop-opacity="0.12" offset="54%"></stop>
            <stop stop-color="#808080" stop-opacity="0.1" offset="100%"></stop>
        </linearGradient>
        <linearGradient x1="-4.52905442%" y1="-25.4187544%" x2="96.7464467%" y2="-25.4187544%" id="linearGradient-2">
            <stop stop-color="#808080" stop-opacity="0.25" offset="0%"></stop>
            <stop stop-color="#808080" stop-opacity="0.12" offset="54%"></stop>
            <stop stop-color="#808080" stop-opacity="0.1" offset="100%"></stop>
        </linearGradient>
    </defs>
    <g id="img/boy_swim" stroke="none" stroke-width="1" fill="none" fill-rule="evenodd">
        <g id="undraw_instant_support_elxh" transform="translate(12.000000, 6.000000)">
            <path d="M38.5051846,128.824787 C38.5038409,129.396603 38.0417604,129.859817 37.4713429,129.861164 L36.0049006,129.861164 C36.5758757,129.861164 37.0387424,130.325166 37.0387424,130.897542 C37.0387424,131.469917 36.5758757,131.933919 36.0049006,131.933919 L38.0701401,131.933919 C38.6411151,131.933919 39.1039819,132.397921 39.1039819,132.970296 C39.1039819,133.542672 38.6411151,134.006674 38.0701401,134.006674 L28.3647366,134.006674 C34.9954996,152.627167 47.4284856,168.905398 63.7744283,181.172874 C63.9449383,181.055441 64.1468003,180.992257 64.353673,180.991569 L76.3125093,180.991569 C76.8834844,180.991569 77.3463511,181.455571 77.3463511,182.027946 C77.3463511,182.600322 76.8834844,183.064324 76.3125093,183.064324 L74.8460671,183.064324 C75.4170421,183.064324 75.8799089,183.528326 75.8799089,184.100701 C75.8799089,184.673077 75.4170421,185.137079 74.8460671,185.137079 L76.9137506,185.137079 C77.4847257,185.137079 77.9475924,185.601081 77.9475924,186.173456 C77.9475924,186.745831 77.4847257,187.209833 76.9137506,187.209833 L72.6635122,187.209833 C90.9769316,198.431131 113.137318,204.999755 137.010997,204.999755 C151.164216,205.027724 165.220809,202.662923 178.589522,198.004819 C180.365547,197.379236 182.121204,196.717719 183.856494,196.020267 C186.877365,194.796868 189.827358,193.463216 192.706473,192.019311 C193.948061,191.396994 195.175799,190.753444 196.389687,190.08866 L196.445901,190.059259 L196.719637,189.907355 L197.430861,189.512894 C198.866345,188.709273 200.279832,187.877884 201.671323,187.018728 L202.526748,186.487064 C203.250193,186.031352 203.966305,185.56829 204.675086,185.097877 C206.089388,184.165219 207.479249,183.201527 208.84467,182.206801 L209.333484,181.844191 L209.726979,181.552634 C211.56492,180.190397 213.35235,178.778343 215.089269,177.316471 L215.162592,177.25522 C216.013128,176.538167 216.851444,175.808865 217.67754,175.067312 L217.750862,175.00116 C220.445129,172.585155 223.015515,170.033815 225.452128,167.356957 C229.105354,163.349312 232.436432,159.058099 235.414159,154.523517 L230.648222,154.523517 C230.077246,154.523517 229.61438,154.059515 229.61438,153.48714 C229.61438,152.914765 230.077246,152.450763 230.648222,152.450763 L228.582982,152.450763 C228.012007,152.450763 227.54914,151.986761 227.54914,151.414385 C227.54914,150.84201 228.012007,150.378008 228.582982,150.378008 L230.049424,150.378008 C229.668519,150.39659 229.308341,150.203456 229.112335,149.875523 C228.916329,149.547591 228.916329,149.13812 229.112335,148.810187 C229.308341,148.482255 229.668519,148.289121 230.049424,148.307703 L239.163363,148.307703 C246.739981,134.655941 250.999996,119.274434 250.999996,102.998652 C251.003186,92.7319228 249.289783,82.5372642 245.930994,72.8383533 L225.647654,72.8383533 C224.470013,72.7988539 223.535722,71.8304099 223.535722,70.6492203 C223.535722,69.4680307 224.470013,68.4995867 225.647654,68.4600873 L221.282544,68.4600873 C220.077152,68.4600873 219.099989,67.4805275 219.099989,66.2721793 C219.099989,65.0638311 220.077152,64.0842714 221.282544,64.0842714 L224.401178,64.0842714 C223.223537,64.044772 222.289246,63.076328 222.289246,61.8951384 C222.289246,60.7139487 223.223537,59.7455047 224.401178,59.7060054 L240.265638,59.7060054 C222.069534,25.0204364 182.676008,1 137.010997,1 C110.336413,1 85.8052787,9.19546713 66.3773632,22.9231808 L71.4610296,22.9231808 C72.6386702,22.9626802 73.5729615,23.9311242 73.5729615,25.1123138 C73.5729615,26.2935035 72.6386702,27.2619475 71.4610296,27.3014468 L68.349728,27.3014468 C69.5551198,27.3014468 70.5322829,28.2810066 70.5322829,29.4893548 C70.5322829,30.697703 69.5551198,31.6772628 68.349728,31.6772628 L72.7148377,31.6772628 C73.5124487,31.65051 74.2611628,32.0618065 74.6678719,32.7501369 C75.074581,33.4384674 75.074581,34.2943242 74.6678719,34.9826546 C74.2611628,35.670985 73.5124487,36.0822815 72.7148377,36.0555288 L50.9919402,36.0555288 C33.5583862,53.9704034 23.0000022,77.3807736 23.0000022,102.998652 C22.998191,111.37846 24.1403929,119.719097 26.3948159,127.788409 L37.4713429,127.788409 C38.041206,127.791091 38.5025092,128.253526 38.5051846,128.824787 Z" id="Path" fill="#6C63FF" opacity="0.1"></path>
            <path d="M199.997621,85.5906256 C198.983049,85.5030575 195.447863,82.6546609 193.399255,81.8154664 C192.455241,81.4287072 191.864015,82.2460097 191.499062,83.2384484 C190.24362,82.4187135 188.866528,81.5114104 187.849523,81.0978943 C187.583065,80.9735808 187.276519,80.9673984 187.005263,81.0808671 C185.686563,81.6524924 185.404332,85.0992711 185.404332,85.0992711 L185.450559,85.315759 C184.803374,85.8241406 182.86182,86.1427913 182.019993,86.1987376 C181.029751,86.2619812 179.720783,86.4079281 179.258508,86.6365782 C178.796233,86.8652283 173.419246,88.1592906 170.32687,89.1030804 C167.234494,90.0468702 159.24687,94.748792 159.24687,94.748792 L151.675293,96.4515055 L150.612061,96.2471799 C150.273871,95.030956 148.726466,95.0431182 146.913862,95.5344727 C143.9699,94.9944692 141.033238,94.5736558 140.084358,95.004199 C142.797182,93.6225686 146.13286,91.430933 146.093932,89.0130798 C146.040405,85.7146804 139.510164,90.3411964 137.03821,92.2117488 L136.826536,92.3722904 L136.770577,92.1630999 C136.770577,92.1630999 134.967705,92.8660773 131.123524,92.7736443 C127.279343,92.6812113 125.568925,94.4885201 125.223436,94.6685212 C124.877946,94.8485224 121.359791,96.0331245 121.087292,96.079341 C120.875619,96.1133953 114.807652,96.6631285 111.744472,96.9379951 C107.508574,96.5561008 101.391947,97.2225915 101.056189,97.855028 C100.671771,98.5847624 96.0149598,101.240995 96.0149598,101.240995 L94.4188948,101.659377 C94.4188948,101.659377 94.2291188,102.145866 94.0101464,102.768573 C93.8544475,102.531547 93.7224294,102.279795 93.6159962,102.016946 C93.3749462,101.371511 93.1861843,100.707748 93.0515342,100.032069 C93.03207,99.9420683 93.0101728,99.8520677 92.9882756,99.7620672 C92.9882756,99.7401751 92.9761104,99.7182831 92.9712444,99.6963911 L92.9128517,99.4701734 L92.8982536,99.4142271 C92.8190551,99.1227564 92.7231987,98.8360674 92.6111565,98.555573 C92.5002997,98.2741588 92.3617476,98.0044538 92.1975421,97.7504327 C91.9654026,97.3789208 91.6506848,97.0659425 91.2778583,96.8358323 C90.6671688,96.4636678 89.929962,96.3760997 89.2195184,96.2958289 C88.621083,96.209251 88.0154451,96.1831732 87.4117802,96.2179905 C86.8935457,96.2666395 86.3850432,96.4077215 85.8668087,96.4393433 C85.0322808,96.4879923 84.2123511,96.2520448 83.3851223,96.1255575 C82.5578935,95.9990702 81.6576739,96.0015027 80.9520964,96.4636678 C80.3584381,96.8577243 80.0153814,97.5217826 79.6333963,98.1225973 C78.9166746,99.2509722 77.9958649,100.235906 76.9181394,101.02694 C76.1882317,101.554781 75.3585698,102.063163 75.09337,102.91452 C74.8281702,103.765876 75.1955571,104.590476 75.3585698,105.429671 C75.7186577,107.278331 75.1371645,109.306993 75.7843494,111.024301 C75.7989475,111.06322 75.8135457,111.099707 75.8305768,111.138626 C75.8670722,111.231059 75.9060006,111.325925 75.9522281,111.415925 C75.9931291,111.499454 76.0386149,111.580659 76.0884776,111.65917 C76.1364279,111.736841 76.1901032,111.81083 76.2490573,111.880523 C76.3062934,111.950331 76.3707178,112.013925 76.4412663,112.070254 C76.5106976,112.128294 76.5866289,112.178087 76.6675378,112.218633 C76.9656448,112.346418 77.2945699,112.384459 77.6139848,112.328093 L77.7891627,112.303769 L77.9497424,112.274579 C78.1387231,112.240926 78.3255739,112.196255 78.5093384,112.140795 C78.6923156,112.087027 78.8673861,112.009327 79.0300059,111.909712 C79.3279745,111.723593 79.5270163,111.413947 79.5725707,111.065653 C79.5963621,110.913584 79.6077537,110.759834 79.6066331,110.60592 L79.6066331,110.498892 L79.6431284,110.610785 C80.6032287,113.298538 83.0546813,115.170363 85.9009788,115.389014 C88.7472764,115.607666 91.4559855,114.132242 92.8155307,111.622683 L93.0904626,111.53025 C93.9737107,111.247769 94.8785603,111.03788 95.7959874,110.902679 C95.8958752,111.105515 96.0080011,111.302095 96.131745,111.491331 C99.1267999,116.159199 108.486651,116.31974 108.486651,116.31974 C108.486651,116.31974 118.829444,115.918386 119.629909,115.709196 C120.430375,115.500005 122.817173,115.864872 123.50572,116.504606 C124.194266,117.14434 127.228249,117.409477 128.213625,115.755412 C129.199,114.101348 130.330357,114.419998 130.330357,114.419998 C130.534522,114.143089 130.709035,113.845509 130.851025,113.532155 L131.510375,113.563777 C133.249988,113.65621 136.043102,113.836211 136.646492,114.079456 C137.53698,114.437025 141.361697,114.410269 143.429769,113.539452 C145.497841,112.668636 151.945359,108.97618 151.945359,108.97618 C151.945359,108.97618 155.954986,107.759956 156.667863,107.516711 C157.380739,107.273466 159.24687,105.492914 159.24687,105.492914 L163.091051,104.004256 C163.091051,104.004256 167.151771,101.815053 168.864622,101.586403 C170.577472,101.357753 172.129742,99.8593651 172.129742,99.8593651 L183.017533,94.7901436 C183.747594,94.6834497 184.491483,94.7206353 185.207257,94.8996038 C186.180467,95.2036598 192.518499,94.2744647 194.438157,92.2239111 C194.438157,92.2239111 194.508715,91.9587742 194.603603,91.5257985 C194.691192,91.5257985 194.781214,91.5087714 194.876102,91.5063389 C195.28485,91.5963395 195.535452,91.6571507 195.535452,91.6571507 C196.344208,92.262586 197.205715,92.794184 198.109593,93.2455392 C199.40153,93.8658134 200.785921,94.2063561 201.272527,93.1433764 C201.345255,92.9792214 201.394402,92.8056101 201.418508,92.6276974 C202.669084,93.5155409 206.878218,96.2520448 206.997437,92.9925646 C207.143418,89.1638916 201.00976,85.6781937 199.997621,85.5906256 Z" id="Path" fill="url(#linearGradient-1)"></path>
            <path d="M97.9999978,109.984558 C97.9999978,109.984558 95.8934439,109.864352 92.9578255,110.712865 C91.9847726,110.990025 91.0386578,111.339256 90.129099,111.757006 C85.8117064,113.722727 89.396498,103.116321 89.396498,103.116321 C89.396498,103.116321 90.5983808,103.116321 92.042726,103.005543 C93.7686402,102.880624 95.8386944,102.621356 96.605188,102.079251 C98.0130334,101.072821 97.9999978,109.984558 97.9999978,109.984558 Z" id="Path" fill="#EFB7B9"></path>
            <path d="M145.99967,88.2022447 C146.049039,91.4301408 140.53947,94.2705867 137.922919,95.438069 C137.108332,95.7998602 136.570211,96 136.570211,96 L136,92.2845839 C136,92.2845839 136.357925,91.9843741 136.935541,91.5302107 C139.421265,89.5826963 145.945365,84.769077 145.99967,88.2022447 Z" id="Path" fill="#EFB7B9"></path>
            <path d="M138,95.4971297 C137.15276,95.8208955 136.593068,96 136.593068,96 L136,92.6750861 C136,92.6750861 136.372272,92.4064294 136.973042,92 L138,95.4971297 Z" id="Path" fill="#000000" opacity="0.1"></path>
            <path d="M110,97.0946161 C110,97.0946161 120.777377,96.0930233 121.060603,96.0446002 C121.34383,95.9961771 124.855836,94.770309 125.200633,94.5893597 C125.545431,94.4084103 127.252177,92.5326537 131.091741,92.6294998 C134.931304,92.726346 136.731639,92 136.731639,92 L138,96.9952214 L112.401267,100 L110,97.0946161 Z" id="Path" fill="#E1E7EF"></path>
            <path d="M110,97.0946161 C110,97.0946161 120.777377,96.0930233 121.060603,96.0446002 C121.34383,95.9961771 124.855836,94.770309 125.200633,94.5893597 C125.545431,94.4084103 127.252177,92.5326537 131.091741,92.6294998 C134.931304,92.726346 136.731639,92 136.731639,92 L138,96.9952214 L112.401267,100 L110,97.0946161 Z" id="Path" fill="#000000" opacity="0.05"></path>
            <path d="M184,84.155342 C184,84.155342 184.393421,79.2491122 186.43429,80.0988922 C188.475159,80.9486722 192.00119,83.8479216 193.011789,83.9279009 C194.022388,84.0078802 200.142536,87.5494633 199.997463,91.4259597 C199.852389,95.3024561 194.096155,90.7986221 194.096155,90.7986221 C194.096155,90.7986221 188.740717,89.4614683 187.009667,90.0638124 C185.278617,90.6661564 184,84.155342 184,84.155342 Z" id="Path" fill="#B07473"></path>
            <path d="M199.997705,91.4257239 C199.857461,95.3028011 194.092677,90.7982923 194.092677,90.7982923 C194.092677,90.7982923 188.736325,89.4609381 187.001723,90.0633724 C186.509637,90.2383534 186.017551,89.8133997 185.623883,89.1109763 C184.848848,87.7811213 184.28787,85.4763727 184.083655,84.5514735 C184.027065,84.3015008 184,84.1540169 184,84.1540169 C184,84.1540169 184.393669,79.247052 186.435824,80.099459 C188.47798,80.9518661 192.003774,83.8365515 193.01501,83.9265417 C194.026246,84.0165319 200.135489,87.5486467 199.997705,91.4257239 Z" id="Path" fill="#000000" opacity="0.1"></path>
            <path d="M188.869345,88.0574014 C188.694825,88.4864705 187.458439,89.1677945 185.538723,90 C184.764445,88.745798 184.204016,86.5721622 184,85.6998789 C184.361329,85.5513549 184.616964,85.3792558 184.65875,85.185939 C184.801316,84.5399778 189.86976,85.5961479 188.869345,88.0574014 Z" id="Path" fill="#000000" opacity="0.1"></path>
            <path d="M147,96.6033998 L158.637512,93.9259197 C158.637512,93.9259197 166.517458,89.2156295 169.581881,88.2720894 C172.646305,87.3285494 177.931219,86.0317993 178.38845,85.8020893 C178.845682,85.5723793 180.134685,85.4241793 181.10995,85.3624293 C182.085215,85.3006793 184.563506,84.8684293 184.704567,84.1941192 C184.845628,83.5198092 189.860581,84.6214293 188.870724,87.2001094 C187.880866,89.7787895 152.51353,101 152.51353,101 L147,96.6033998 Z" id="Path" fill="#444053"></path>
            <path d="M147,96.6033998 L158.637512,93.9259197 C158.637512,93.9259197 166.517458,89.2156295 169.581881,88.2720894 C172.646305,87.3285494 177.931219,86.0317993 178.38845,85.8020893 C178.845682,85.5723793 180.134685,85.4241793 181.10995,85.3624293 C182.085215,85.3006793 184.563506,84.8684293 184.704567,84.1941192 C184.845628,83.5198092 189.860581,84.6214293 188.870724,87.2001094 C187.880866,89.7787895 152.51353,101 152.51353,101 L147,96.6033998 Z" id="Path" fill="#000000" opacity="0.1"></path>
            <path d="M205.997706,92.425012 C205.857483,96.3036262 200.093585,91.7977361 200.093585,91.7977361 C200.093585,91.7977361 196.346929,90.86307 194.108284,90.908054 C193.734496,90.9025663 193.362057,90.9548109 193.003721,91.0629986 C191.281686,91.6652834 190,85.1551095 190,85.1551095 C190,85.1551095 190.024601,84.840222 190.095942,84.3853845 C190.305046,83.0358667 190.910219,80.4642855 192.43791,81.0990587 C194.479751,81.9512542 198.005003,84.8477193 199.016084,84.9251916 C200.027164,85.0026639 206.135468,88.5563942 205.997706,92.425012 Z" id="Path" fill="#B07473"></path>
            <path d="M193.597002,90.8139224 C193.269733,90.808667 192.943645,90.858701 192.629904,90.9623113 C191.122178,91.5391133 190,85.3043863 190,85.3043863 C190,85.3043863 190.021539,85.0028217 190.084002,84.5672285 C191.341876,84.2680574 192.395129,84 192.395129,84 C194.704103,84.1124884 193.945933,89.0308623 193.597002,90.8139224 Z" id="Path" fill="#000000" opacity="0.1"></path>
            <path d="M193.384398,92.4727511 C191.462537,94.4749389 185.117187,95.3786875 184.150088,95.0854499 C183.436639,94.9103791 182.694951,94.8728203 181.966716,94.9748849 L171.07699,99.9142557 C171.07699,99.9142557 169.522725,101.370829 167.810566,101.596766 C166.098407,101.822704 162.035114,103.952281 162.035114,103.952281 L158.191391,105.394433 C158.191391,105.394433 156.313937,107.156262 155.603416,107.396621 C154.892894,107.63698 150.878943,108.817141 150.878943,108.817141 C150.878943,108.817141 144.432442,112.422521 142.362556,113.26618 C140.292669,114.109839 136.47115,114.138682 135.578064,113.790162 C134.976095,113.549803 132.180884,113.379149 130.444055,113.287812 C129.620047,113.246951 129.03288,113.225319 129.03288,113.225319 L127,98.2485701 C127,98.2485701 128.680087,97.8856285 130.801782,97.3977004 C133.883175,96.6910459 137.897127,95.7151896 139.009783,95.2056293 C140.892171,94.3427416 150.925817,96.88814 152.766265,96.9241938 C154.606712,96.9602476 163.993981,94.0398897 163.993981,94.0398897 C163.993981,94.0398897 175.722517,87.5934701 178.095855,87.5910665 C180.469193,87.5886629 183.550586,86.5815601 185.465046,86.3243763 C187.379506,86.0671925 192.160722,85 192.160722,85 C195.39014,85.1442152 193.384398,92.4727511 193.384398,92.4727511 Z" id="Path" fill="#444053"></path>
            <path d="M93.9007024,106.749906 C94.1716889,108.400724 93.8844532,110.093134 93.0828114,111.568968 C92.085228,111.877114 91.1152618,112.265387 90.1827733,112.729841 C85.7565399,114.915321 89.4317035,103.123163 89.4317035,103.123163 C89.4317035,103.123163 90.6638856,103.123163 92.1446424,103 C93.0695468,104.068514 93.6770348,105.365749 93.9007024,106.749906 Z" id="Path" fill="#000000" opacity="0.1"></path>
            <path d="M92.9054925,107.312381 C93.5156873,111.139304 91.1135277,114.801726 87.3622693,115.763785 C83.6110109,116.725844 79.7447514,114.671039 78.4404891,111.022119 C78.3944711,110.894197 78.3535662,110.766275 78.3126613,110.635794 C78.2180785,110.32212 78.1446256,110.00245 78.0927973,109.678938 C77.4697773,105.731792 80.0460228,101.988138 83.9531218,101.163048 C87.8602208,100.337957 91.7283215,102.72071 92.752099,106.583225 C92.8166288,106.82326 92.8678382,107.066684 92.9054925,107.312381 Z" id="Path" fill="#EFB7B9"></path>
            <path d="M131.129315,105.585978 C132.609622,108.521003 131.873033,110.875793 131.317027,112 C130.523411,111.9589 129.957901,111.937141 129.957901,111.937141 L128,96.8727712 C128,96.8727712 129.61812,96.5077063 131.66156,96.0169235 L131.873033,96 C131.873033,96 129.035977,101.437292 131.129315,105.585978 Z" id="Path" fill="#000000" opacity="0.1"></path>
            <path d="M130.097289,106.739349 C132.26304,111.144339 129.851461,114.315317 129.851461,114.315317 C129.851461,114.315317 128.723107,113.984365 127.74225,115.705826 C126.761394,117.427287 123.730326,117.152777 123.04938,116.475481 C122.368435,115.798185 119.983896,115.426185 119.187411,115.646819 C118.390926,115.867453 108.083328,116.280501 108.083328,116.280501 C108.083328,116.280501 98.7565872,116.116308 95.7697684,111.259788 C95.6469066,111.063302 95.53527,110.859416 95.4354414,110.649195 C95.4354414,110.649195 93.077944,106.04666 93.0041954,105.020454 C92.9722377,104.620234 93.1271098,103.927545 93.3237727,103.224593 C93.6359752,102.134249 94.0612589,101.028512 94.0612589,101.028512 L95.6517706,100.592374 C95.6517706,100.592374 100.293017,97.8293143 100.674051,97.0724873 C101.055086,96.3156602 108.983062,95.5177849 113.012194,96.3618395 C117.041327,97.2058941 124.6571,97.0981424 124.6571,97.0981424 L130.881483,96.5516876 C130.881483,96.5516876 127.94383,102.336925 130.097289,106.739349 Z" id="Path" fill="#E1E7EF"></path>
            <path d="M121,114 C121.933107,113.51962 122.835632,112.940121 123.698832,112.267115 C125.129213,111.128176 121,114 121,114 Z" id="Path" fill="#000000" opacity="0.1"></path>
            <path d="M99,103.920897 C99,103.920897 102.017799,109.45248 108.469979,107.632503 C114.922158,105.812526 119.754027,107.154819 119.754027,107.154819 C119.754027,107.154819 125.789625,106.813275 126.901318,106.357086 C128.568695,105.735967 130.271914,105.212783 132.002028,104.790282 C132.95387,104.599208 134.28112,104.221838 135.332263,103.899401 C136.383407,103.576964 142,102.411414 142,102.411414 C142,102.411414 140.224682,98.4991801 141.084488,98 C141.084488,98 135.540554,99.1130044 135.477583,98.7165264 C135.414611,98.3200485 129.202208,98.0788179 128.696012,98.4776843 C128.189816,98.8765506 122.641039,99.2706402 122.156641,99.4497718 C121.672243,99.6289034 113.0984,100.371702 113.0984,100.371702 C113.0984,100.371702 100.235215,95.2151007 99,103.920897 Z" id="Path" fill="#000000" opacity="0.1"></path>
            <path d="M140,98.5116378 C140,98.5116378 149.636798,92.2983944 149.990294,96.4011401 C150.343789,100.503886 140.924171,102 140.924171,102 L140,98.5116378 Z" id="Path" fill="#EFB7B9"></path>
            <path d="M99,102.920897 C99,102.920897 102.027316,108.45248 108.469445,106.632503 C114.911574,104.812526 119.75528,106.154819 119.75528,106.154819 C119.75528,106.154819 125.790538,105.813275 126.899747,105.357086 C128.567728,104.735612 130.271679,104.212422 132.002591,103.790282 C132.951957,103.599208 134.281554,103.221838 135.332639,102.899401 C136.383723,102.576964 142,101.411414 142,101.411414 C142,101.411414 140.22236,97.4991801 141.082118,97 C141.082118,97 135.540918,98.1130044 135.475528,97.7165264 C135.410138,97.3200485 129.200507,97.0788179 128.69434,97.4776843 C128.188172,97.8765506 122.639707,98.2706402 122.155337,98.4497718 C121.670966,98.6289034 113.104872,99.369314 113.104872,99.369314 C113.104872,99.369314 100.237567,94.2151007 99,102.920897 Z" id="Path" fill="#000000" opacity="0.1"></path>
            <path d="M98,103.920897 C98,103.920897 101.020051,109.45248 107.469445,107.632503 C113.91884,105.812526 118.75528,107.154819 118.75528,107.154819 C118.75528,107.154819 124.790538,106.813275 125.899747,106.357086 C127.5677,105.734872 129.271647,105.210886 131.002591,104.787894 C131.951957,104.599208 133.281554,104.219449 134.332639,103.897012 C135.383723,103.574575 141,102.411414 141,102.411414 C141,102.411414 139.22236,98.4967916 140.082118,98 C140.082118,98 134.540918,99.1130044 134.475528,98.7165264 C134.410138,98.3200485 128.200507,98.0788179 127.69434,98.4776843 C127.188172,98.8765506 121.651816,99.2706402 121.155337,99.4521602 C120.658857,99.6336802 112.100028,100.366926 112.100028,100.366926 C112.100028,100.366926 99.2375669,95.2151007 98,103.920897 Z" id="Path" fill="#E1E7EF"></path>
            <path d="M119.004073,101.577962 C118.905135,101.344197 120.609914,101.455618 123.973807,100.896331 C127.3377,100.337045 133,99 133,99 C133,99 119.760061,103.34321 119.004073,101.577962 Z" id="Path" fill="#000000" opacity="0.1"></path>
            <path d="M106.994284,100 C106.994284,100 107.209421,100.315789 105,101" id="Path" fill="#000000" opacity="0.1"></path>
            <path d="M110.959152,100 C111.136874,101.282235 110.719623,102.587297 110,103" id="Path" fill="#000000" opacity="0.1"></path>
            <path d="M97,111.22003 L98.2704889,112.431462 C98.2704889,112.431462 99.634541,113.190187 99.7798101,113.594841 C99.9250791,113.999494 102.69504,113.926151 102.69504,113.926151 L105.895885,116 L104.536757,114.052605 C105.629462,114.323668 106.782892,114.07165 107.673584,113.367223 C109.232149,112.173495 112.324657,109.067779 112.324657,109.067779 L117.906437,104.606474 L118,101.730905 L113.607457,101 L103.384453,111.637329 L101.067534,111.973698 L98.6053465,111.692969 L97,111.22003 Z" id="Path" fill="#000000" opacity="0.1"></path>
            <path d="M95,111.215997 L96.2698934,112.428451 C96.2698934,112.428451 97.630845,113.187816 97.778507,113.592811 C97.926169,113.997806 100.694832,113.924401 100.694832,113.924401 L103.894176,116 L102.535685,114.050962 C103.627091,114.322575 104.779372,114.070278 105.668581,113.365002 C107.228876,112.170267 110.319934,109.06193 110.319934,109.06193 L115.906481,104.609517 L116,101.731522 L111.609516,101 L101.378999,111.646304 L99.0631665,111.982956 L96.6021329,111.701991 L95,111.215997 Z" id="Path" fill="#67647E"></path>
            <path d="M99,110.684966 L95.9850391,112 C95.8524959,111.804099 95.7330333,111.600261 95.6273767,111.389722 C95.6273767,111.389722 93.0840002,106.811363 93.0045197,105.787424 C92.9700781,105.389084 93.1369872,104.699649 93.3515846,104 L99,110.684966 Z" id="Path" fill="#000000" opacity="0.1"></path>
            <path d="M99,110.687101 L95.98504,112 C95.8526292,111.804375 95.7323159,111.601382 95.6247284,111.392082 C95.6247284,111.392082 93.084002,106.809706 93.0045215,105.787995 C92.97008,105.389527 93.136989,104.699872 93.348937,104 L99,110.687101 Z" id="Path" fill="#E1E7EF"></path>
            <path d="M93,106.570903 C92.8776586,106.728204 92.7216941,106.857178 92.543118,106.948716 C92.0836402,107.155493 91.5488806,106.948716 91.0452721,106.971692 C90.5416635,106.994667 90.0328632,107.265263 89.5110832,107.306108 C89.143174,107.311411 88.7762817,107.266741 88.4207967,107.173362 C87.7328779,107.032959 86.9852528,106.953822 86.3440605,107.260157 C85.7028682,107.566492 85.3056925,108.393598 85.679505,108.978187 C85.2719455,109.542355 84.4801898,109.723603 83.7818873,109.62915 C82.1464575,109.401951 80.7758117,108.018337 79.1092309,109.09051 C78.3849691,109.562777 78.4316957,110.292876 78.4472712,111 C78.4005447,110.87236 78.3590099,110.744721 78.3174752,110.614528 C78.2214362,110.301546 78.1468524,109.982582 78.0942261,109.659783 C77.4616136,105.721349 80.0775248,101.985958 84.0447802,101.162688 C88.0120357,100.339418 91.9396923,102.716912 92.9792326,106.570903 L93,106.570903 Z" id="Path" fill="url(#linearGradient-2)"></path>
            <path d="M78.0466683,110.565671 C77.7112706,110.751449 77.3426251,110.873032 76.9605213,110.923894 C76.5358191,111.041815 76.083409,111.022283 75.6710317,110.868225 C75.3523782,110.690554 75.1010214,110.417199 74.9543731,110.088846 C74.0368516,108.31225 74.7460709,106.153225 74.3567442,104.199938 C74.1930783,103.376991 73.833509,102.52984 74.0889272,101.731098 C74.3443453,100.932356 75.199872,100.397441 75.9214903,99.8794684 C77.0034614,99.1017536 77.9283438,98.1349967 78.6492567,97.0282009 C79.0336238,96.4376157 79.3783143,95.7865198 79.9734633,95.4016713 C80.6727634,94.9466303 81.5803657,94.9466303 82.4110946,95.0700723 C83.2418235,95.1935143 84.065113,95.4234552 84.905761,95.3750466 C85.4265164,95.3460014 85.9373527,95.2080369 86.4581081,95.1596282 C87.065115,95.1238202 87.6742919,95.1497779 88.2757924,95.237082 C88.9899713,95.3145358 89.728948,95.4016713 90.3439354,95.764736 C91.4276026,96.4037297 91.8491665,97.7010806 92.1318623,98.9112961 C92.4145581,100.121512 92.6997336,101.423703 93.6569317,102.229707 C93.8142228,102.3286 93.9343253,102.47471 93.9991424,102.646021 C94.0091719,102.849849 93.9308686,103.048389 93.7834009,103.193038 L92.6526177,104.659819 C92.5057675,104.886546 92.303906,105.07443 92.064908,105.206837 C91.6284654,105.405312 91.1151493,105.206837 90.6340705,105.2262 C90.1529917,105.245564 89.6694331,105.509391 89.168516,105.545697 C88.8169963,105.551997 88.4663368,105.509621 88.1270052,105.419835 C87.4698614,105.286711 86.7556826,105.211678 86.155574,105.502129 C85.5554654,105.792581 85.1636589,106.576801 85.5207483,107.131079 C85.1289419,107.665995 84.3726066,107.840266 83.7080235,107.748289 C82.1432775,107.535291 80.8339496,106.220997 79.2444057,107.237578 C77.9549162,108.079888 79.2716834,109.808076 78.0466683,110.565671 Z" id="Path" fill="#585268"></path>
            <g id="Group" opacity="0.1" transform="translate(75.000000, 98.000000)" fill="#000000">
                <path d="M16.7857692,1.585 C17.0001282,2.5375 17.2144872,3.555 17.7260256,4.3525 C17.4890648,3.70215501 17.3033405,3.03334145 17.170641,2.3525 C17.0202191,1.53251597 16.7334734,0.745201275 16.3229487,0.025 C16.5189696,0.530977228 16.6737735,1.0527649 16.7857692,1.585 Z" id="Path"></path>
                <path d="M18.6662821,5.77 L18.5907692,5.6975 C18.5441316,5.80977661 18.4826572,5.91493019 18.4080769,6.01 L17.2973077,7.525 C17.1524393,7.75865968 16.9542913,7.95258341 16.72,8.09 C16.2912821,8.295 15.7870513,8.09 15.3144872,8.11 C14.8419231,8.13 14.3669231,8.4025 13.8748718,8.44 C13.5295737,8.44650667 13.1851206,8.40273782 12.8517949,8.31 C12.2062821,8.1725 11.5047436,8.095 10.9030769,8.395 C10.3014103,8.695 9.92871795,9.505 10.2794872,10.0775 C9.89461538,10.63 9.15410256,10.81 8.49884615,10.715 C6.96423077,10.495 5.67807692,9.1375 4.11423077,10.1875 C2.83538462,11.0525 4.12884615,12.8375 2.92307692,13.62 C2.59463034,13.812207 2.23324359,13.9378197 1.85858974,13.99 C1.43474359,14.0725 0.976794872,14.13 0.591923077,13.9325 C0.396415825,13.82632 0.229167137,13.6726932 0.10474359,13.485 C0.15310266,13.6207775 0.209225833,13.7535082 0.272820513,13.8825 C0.416873327,14.2216472 0.66378128,14.5039883 0.976794872,14.6875 C1.38187346,14.8466233 1.82627624,14.8667968 2.24346154,14.745 C2.61880239,14.6924659 2.98092317,14.5668854 3.31038462,14.375 C4.51371795,13.5925 3.22025641,11.8075 4.50153846,10.9425 C6.05320513,9.8925 7.33935897,11.25 8.88615385,11.47 C9.53897436,11.565 10.2819231,11.385 10.6667949,10.8325 C10.3160256,10.26 10.6984615,9.45 11.2903846,9.15 C11.8823077,8.85 12.5814103,8.9275 13.2269231,9.065 C13.5602488,9.15773782 13.9047019,9.20150667 14.25,9.195 C14.7371795,9.1575 15.1975641,8.8875 15.6896154,8.865 C16.1816667,8.8425 16.6639744,9.05 17.0951282,8.845 C17.3298961,8.70824092 17.5281848,8.51417958 17.6724359,8.28 L18.7832051,6.765 C18.9280628,6.61559511 19.0049802,6.41052854 18.9951282,6.2 C18.9333737,6.02412881 18.8180645,5.87335023 18.6662821,5.77 Z" id="Path"></path>
            </g>
            <path d="M151,100 C151,100 153.447684,103.389852 152.927434,103.951598 C152.407183,104.513345 151,100 151,100 Z" id="Path" fill="#000000" opacity="0.1"></path>
            <path d="M158,98 C158,98 159.21358,100.502907 158.966917,101" id="Path" fill="#000000" opacity="0.1"></path>
            <path d="M165,93 C165,93 166.405204,94.2121212 165.884118,95" id="Path" fill="#000000" opacity="0.1"></path>
            <path d="M167,93 C167,93 168.359498,95.3573333 167.908212,96" id="Path" fill="#000000" opacity="0.1"></path>
            <path d="M190,88 C190,88 190.335193,91.2610214 191.660731,90.9832062 C192.986269,90.705391 190,88 190,88 Z" id="Path" fill="#000000" opacity="0.1"></path>
            <path d="M183.29453,177 C183.29453,177 185.086799,171.98845 182.957926,168.299696 C182.050999,166.756255 181.778431,165.011722 182.181374,163.329483 C182.378325,162.533052 182.663973,161.753261 183.034695,161" id="Path" stroke="#535461" stroke-width="2"></path>
            <path d="M181,158.921363 C181,159.453157 182.501639,161 182.501639,161 C182.501639,161 184,159.453157 184,158.921363 C183.962532,158.405691 183.302059,158 182.5,158 C181.697941,158 181.037468,158.405691 181,158.921363 Z" id="Path" fill="#6C63FF"></path>
            <path d="M179.224074,162.648757 C179.640463,163.144369 182,164 182,164 C182,164 181.95474,161.982487 181.541369,161.486875 C181.124765,160.991083 180.268297,160.85083 179.628394,161.173611 C178.988491,161.496393 178.807471,162.159978 179.224074,162.65577 L179.224074,162.648757 Z" id="Path" fill="#6C63FF"></path>
            <path d="M179.529978,167.798648 C180.043997,168.170939 182,167.912947 182,167.912947 C182,167.912947 180.981059,165.502852 180.46704,165.130561 C179.959071,164.804462 179.362294,165.109157 179.111751,165.822527 C178.861207,166.535898 179.045366,167.406046 179.529978,167.798648 Z" id="Path" fill="#6C63FF"></path>
            <path d="M180.444797,172.37279 C180.925098,172.804356 183,173 183,173 C183,173 182.238722,170.698311 181.751217,170.258113 C181.435911,169.978526 181.020055,169.921704 180.660298,170.109053 C180.300541,170.296401 180.051539,170.699456 180.007088,171.166391 C179.962637,171.633326 180.129491,172.093203 180.444797,172.37279 Z" id="Path" fill="#6C63FF"></path>
            <path d="M184.642447,164.060527 C184.175829,164.522391 182,165 182,165 C182,165 182.531067,162.800898 183.000263,162.339035 C183.467265,161.877426 184.213461,161.888588 184.666938,162.363965 C185.120414,162.839342 185.109449,163.598919 184.642447,164.060527 Z" id="Path" fill="#6C63FF"></path>
            <path d="M184.470022,169.79994 C183.956003,170.169136 182,169.914293 182,169.914293 C182,169.914293 183.018941,167.503084 183.53296,167.130621 C184.040929,166.804372 184.637706,167.109207 184.888249,167.822907 C185.138793,168.536607 184.954634,169.407157 184.470022,169.79994 Z" id="Path" fill="#6C63FF"></path>
            <path d="M184.522962,174.380224 C184.048721,174.806675 182,175 182,175 C182,175 182.751672,172.725593 183.233027,172.28777 C183.543596,171.988057 183.966163,171.916463 184.333837,172.101262 C184.701511,172.286061 184.955176,172.697541 184.994649,173.173191 C185.034122,173.648841 184.853056,174.112183 184.522962,174.380224 Z" id="Path" fill="#6C63FF"></path>
            <path d="M218.294295,172 C218.294295,172 220.087161,166.989973 217.957578,163.30234 C217.051365,161.758252 216.778764,160.013761 217.180768,158.331206 C217.377755,157.534221 217.663497,156.753858 218.034373,156" id="Path" stroke="#535461" stroke-width="2"></path>
            <path d="M217.001644,152.982102 C217.001644,153.498356 218.501638,155 218.501638,155 C218.501638,155 219.998356,153.498356 219.998356,152.982102 C220.024172,152.636802 219.744367,152.310591 219.27014,152.133111 C218.795913,151.95563 218.204087,151.95563 217.72986,152.133111 C217.255633,152.310591 216.975828,152.636802 217.001644,152.982102 Z" id="Path" fill="#6C63FF"></path>
            <path d="M215.224074,157.648757 C215.640463,158.144369 218,159 218,159 C218,159 217.957758,156.982487 217.541369,156.486875 C217.124765,155.991083 216.268297,155.85083 215.628394,156.173611 C214.988491,156.496393 214.807471,157.159978 215.224074,157.65577 L215.224074,157.648757 Z" id="Path" fill="#6C63FF"></path>
            <path d="M215.584619,162.800441 C216.085504,163.167144 218,162.916242 218,162.916242 C218,162.916242 217.002681,160.539106 216.49957,160.17562 C216.17371,159.922165 215.778303,159.944381 215.467048,160.233633 C215.155793,160.522885 214.977789,161.033545 215.002228,161.567112 C215.026668,162.100679 215.249696,162.572986 215.584619,162.800441 Z" id="Path" fill="#6C63FF"></path>
            <path d="M217.415064,167.366781 C217.900954,167.802482 220,168 220,168 C220,168 219.229864,165.676261 218.736685,165.228941 C218.242638,164.828893 217.572607,164.965989 217.217939,165.539695 C216.863272,166.1134 216.950238,166.919463 217.415064,167.366781 Z" id="Path" fill="#6C63FF"></path>
            <path d="M220.642447,158.060527 C220.175829,158.522391 218,159 218,159 C218,159 218.533645,156.800898 219.000263,156.339035 C219.467265,155.877426 220.213461,155.888588 220.666938,156.363965 C221.120414,156.839342 221.109449,157.598919 220.642447,158.060527 Z" id="Path" fill="#6C63FF"></path>
            <path d="M221.436517,164.800424 C220.92947,165.169431 219,164.913715 219,164.913715 C219,164.913715 220.007363,162.524879 220.512166,162.159109 C221.017715,161.790844 221.634466,162.083584 221.889718,162.812963 C222.144971,163.542343 221.942066,164.432159 221.436517,164.800424 Z" id="Path" fill="#6C63FF"></path>
            <path d="M221.555157,169.372805 C221.074864,169.804361 219,170 219,170 C219,170 219.761264,167.698368 220.248761,167.258181 C220.736173,166.825988 221.423745,166.949001 221.784497,167.532938 C222.145248,168.116876 222.042569,168.940612 221.555157,169.372805 Z" id="Path" fill="#6C63FF"></path>
            <path d="M189.294342,172 C189.294342,172 191.087088,166.989211 188.957649,163.301018 C188.051289,161.756746 187.778697,160.011934 188.180891,158.329129 C188.377893,157.532819 188.663617,156.753146 189.034438,156" id="Path" stroke="#535461" stroke-width="2"></path>
            <path d="M188,152.921363 C188,153.453157 189.501639,155 189.501639,155 C189.501639,155 191,153.453157 191,152.921363 C190.962532,152.405691 190.302059,152 189.5,152 C188.697941,152 188.037468,152.405691 188,152.921363 Z" id="Path" fill="#6C63FF"></path>
            <path d="M186.223928,156.648703 C186.640338,157.144335 189,158 189,158 C189,158 188.957755,155.982406 188.541345,155.486775 C188.271835,155.166041 187.801949,154.981069 187.308689,155.001538 C186.815428,155.022007 186.373731,155.244806 186.14998,155.586009 C185.926229,155.927212 185.954418,156.334983 186.223928,156.655717 L186.223928,156.648703 Z" id="Path" fill="#6C63FF"></path>
            <path d="M186.565044,162.800558 C187.069989,163.169317 189,162.913773 189,162.913773 C189,162.913773 187.994599,160.526543 187.48741,160.157784 C187.159885,159.920297 186.769338,159.952704 186.462885,160.242799 C186.156432,160.532893 185.98063,161.036603 186.001702,161.564185 C186.022774,162.091768 186.237519,162.56307 186.565044,162.800558 Z" id="Path" fill="#6C63FF"></path>
            <path d="M187.444797,166.37279 C187.925098,166.804356 190,167 190,167 C190,167 189.238722,164.698311 188.751217,164.258113 C188.435911,163.978526 188.020055,163.921704 187.660298,164.109053 C187.300541,164.296401 187.051539,164.699456 187.007088,165.166391 C186.962637,165.633326 187.129491,166.093203 187.444797,166.37279 Z" id="Path" fill="#6C63FF"></path>
            <path d="M190.642447,158.060527 C190.175829,158.522391 188,159 188,159 C188,159 188.533645,156.800898 189.000263,156.339035 C189.467265,155.877426 190.213461,155.888588 190.666938,156.363965 C191.120414,156.839342 191.109449,157.598919 190.642447,158.060527 Z" id="Path" fill="#6C63FF"></path>
            <path d="M192.470022,163.79994 C191.956003,164.169136 190,163.914293 190,163.914293 C190,163.914293 191.021216,161.503084 191.53296,161.130621 C192.040929,160.804372 192.637706,161.109207 192.888249,161.822907 C193.138793,162.536607 192.954634,163.407157 192.470022,163.79994 Z" id="Path" fill="#6C63FF"></path>
            <path d="M192.522962,168.380224 C192.048721,168.806675 190,169 190,169 C190,169 190.751672,166.725593 191.233027,166.28777 C191.543596,165.988057 191.966163,165.916463 192.333837,166.101262 C192.701511,166.286061 192.955176,166.697541 192.994649,167.173191 C193.034122,167.648841 192.853056,168.112183 192.522962,168.380224 Z" id="Path" fill="#6C63FF"></path>
            <path d="M216.000386,177.341102 C216.000386,177.564114 216.000386,177.784591 216.000386,178 L216.071138,177.936644 C216.891861,177.194962 217.700792,176.440609 218.497931,175.673584 L218.568683,175.60516 C221.168509,173.106168 223.648796,170.467192 226,167.698388 C223.483588,162.994872 217.589947,162.96953 216.531026,163.005009 L216.365938,163.005009 C216.365938,163.005009 215.986236,171.471844 216.000386,177.341102 Z" id="Path" fill="#A8A8A8"></path>
            <path d="M216.000386,177.341102 C216.000386,177.564114 216.000386,177.784591 216.000386,178 L216.071138,177.936644 C216.891861,177.194962 217.700792,176.440609 218.497931,175.673584 L218.568683,175.60516 C221.168509,173.106168 223.648796,170.467192 226,167.698388 C223.483588,162.994872 217.589947,162.96953 216.531026,163.005009 L216.365938,163.005009 C216.365938,163.005009 215.986236,171.471844 216.000386,177.341102 Z" id="Path" fill="#FFFFFF" opacity="0.1"></path>
            <path d="M190,167.430235 L190.208027,168.759529 L192.327925,182.266014 L193.021349,186.695393 L193.697438,191 C194.955508,190.390541 196.199545,189.760286 197.429547,189.109236 L197.486507,189.080443 L197.763877,188.931677 L198.484543,188.545366 C199.939083,187.758348 201.371335,186.944135 202.781298,186.102729 L203.648079,185.582049 C204.381127,185.135752 205.106746,184.682257 205.824936,184.221563 C207.258013,183.308174 208.666325,182.364391 210.049872,181.390216 L210.545175,181.035098 L210.943894,180.749564 C212.806234,179.415471 214.617393,178.03259 216.37737,176.60092 L216.451665,176.540934 C217.313493,175.838696 218.162938,175.124461 219,174.398228 L217.761742,168.219653 C217.514091,166.968741 217.309365,165.713031 217.147566,164.452522 C217.058412,163.771079 216.984116,163.088036 216.92468,162.403394 C216.907344,162.240232 216.892485,162.07467 216.880102,161.911508 C216.454142,156.759896 215.146541,146.058363 211.478822,143.541344 C210.770966,143.024096 209.850402,142.866227 209.002306,143.116642 C208.638317,143.215581 208.280316,143.334138 207.929974,143.47176 C205.356874,144.46993 202.922459,146.451873 200.904099,148.510598 C198.009453,151.4784 195.663779,154.906895 193.969855,158.645861 L190.255081,166.75839 L190.242699,166.784784 L190.208027,166.859167 L190,167.430235 Z" id="Path" fill="#A8A8A8"></path>
            <path d="M198,182 L202.490862,167.458682 C202.490862,167.458682 206.695074,178.154423 210.003178,181.755526 L210.418951,181.464602 L204.456099,167.517356 C204.456099,167.517356 202.503774,159.569504 204.06615,156.674931 C205.305721,154.376875 209.375646,146.651494 211,143.551563 C210.261868,143.024551 209.301931,142.863702 208.417561,143.118843 C208.038004,143.21965 207.664691,143.340446 207.299364,143.480665 C205.233413,146.580596 201.411402,152.77068 201.127334,156.611368 C200.906994,159.970558 201.05933,163.342363 201.581843,166.671476 L198,182 Z" id="Path" fill="#FFFFFF" opacity="0.1"></path>
            <path d="M179,198 C180.790309,197.379932 182.560088,196.724247 184.309335,196.032944 C187.354503,194.820331 190.328223,193.498436 193.230495,192.067261 C194.48207,191.450431 195.719682,190.812555 196.943334,190.153631 L197,190.12449 L196.857104,189.233243 L196.701889,188.261858 L196.191897,185.041714 C196.191897,185.041714 193.819327,174.929588 191.311251,169.827384 C190.938916,168.999634 190.448617,168.22851 189.855188,167.537342 C189.818232,167.496058 189.778812,167.459631 189.739392,167.423204 C189.225821,167.10333 188.619992,166.958306 188.014782,167.010365 C187.217087,167.098945 186.47139,167.444687 185.893512,167.993894 C184.661648,169.07456 183.318916,171.238322 182.165891,175.378854 C180.389543,181.72686 179.465645,191.112875 179,198 Z" id="Path" fill="#A8A8A8"></path>
            <path d="M184,196 C187.133385,194.69734 190.193253,193.277284 193.179602,191.739833 C194.467434,191.077198 195.7409,190.391954 197,189.6841 C196.987324,189.360609 196.956903,189.0319 196.911271,188.695366 C196.911271,188.695366 196.589314,186.869207 193.184672,187.007473 C192.951443,187.007473 192.718214,187.03617 192.48752,187.064867 C188.851704,187.532504 185.783711,190.071777 184.560257,193.625994 C184.284558,194.392257 184.096538,195.188962 184,196 Z" id="Path" fill="#FFFFFF" opacity="0.1"></path>
            <path d="M188.048772,172.184466 C188.169862,169.300971 186.434242,168.313107 185,167.98301 C185.63046,167.433179 186.445273,167.087465 187.316852,167 C188.315168,167.753545 189.022723,168.773332 189.337706,169.912621 L193,186 C193,186 187.844265,177.01699 188.048772,172.184466 Z" id="Path" fill="#FFFFFF" opacity="0.1"></path>
            <path d="M202.908055,185.30897 L202,187 L202.854353,186.27907 C203.576892,185.66113 204.292107,185.033223 205,184.395349 L203.611066,184 L202.908055,185.30897 Z" id="Path" fill="#A8A8A8"></path>
            <path d="M203,186 C203.687041,185.577244 204.367118,185.147669 205.040232,184.711275 C206.383366,183.846064 207.703288,182.952063 209,182.029272 C208.087814,181.392864 207.219729,180.951925 206.616248,181.004201 C206.616248,181.004201 203.522244,181.211033 203.051064,185.336318 C203.027853,185.547696 203.009284,185.768166 203,186 Z" id="Path" fill="#FFFFFF" opacity="0.1"></path>
            <path d="M190,168 L190.071556,168.227772 L196.750149,189.252099 L197.305903,191 L198,190.601399 C197.165185,183.505173 194.965434,176.655339 191.531306,170.45845 C190.844365,169.245318 190.322004,168.460495 190.100179,168.151023 C190.047704,168.071798 190.014311,168.024758 190,168.007427 L190,168 Z" id="Path" fill="#000000" opacity="0.1"></path>
            <path d="M215.360336,177.401426 C215.382132,177.600102 215.408771,177.798777 215.435409,178 C216.278164,177.254542 217.108811,176.496349 217.927349,175.72542 L218,175.656648 L216.125597,165.167601 L215.738123,163 C214.903121,167.750848 214.775669,172.60938 215.360336,177.401426 Z" id="Path" fill="#000000" opacity="0.1"></path>
            <path d="M126.187605,18.3341418 L129.313455,18.3341418 C128.13309,18.2950405 127.196637,17.3363565 127.196637,16.1670709 C127.196637,14.9977853 128.13309,14.0391013 129.313455,14 L154.633821,14 C155.814187,14.0391013 156.75064,14.9977853 156.75064,16.1670709 C156.75064,17.3363565 155.814187,18.2950405 154.633821,18.3341418 L151.507971,18.3341418 C152.716152,18.3341418 153.695576,19.3038295 153.695576,20.5 C153.695576,21.6961705 152.716152,22.6658582 151.507971,22.6658582 L155.883181,22.6658582 C157.063547,22.7049595 158,23.6636435 158,24.8329291 C158,26.0022147 157.063547,26.9608987 155.883181,27 L130.562815,27 C129.38245,26.9608987 128.445997,26.0022147 128.445997,24.8329291 C128.445997,23.6636435 129.38245,22.7049595 130.562815,22.6658582 L126.187605,22.6658582 C124.979424,22.6658582 124,21.6961705 124,20.5 C124,19.3038295 124.979424,18.3341418 126.187605,18.3341418 Z" id="Path" fill="#6C63FF" opacity="0.1"></path>
            <path d="M162.187132,52.3325247 L165.312307,52.3325247 C164.104387,52.3325247 163.125175,51.362656 163.125175,50.1662624 C163.125175,48.9698687 164.104387,48 165.312307,48 L190.627201,48 C191.835121,48 192.814333,48.9698687 192.814333,50.1662624 C192.814333,51.362656 191.835121,52.3325247 190.627201,52.3325247 L187.502026,52.3325247 C188.709946,52.3325247 189.689159,53.3023934 189.689159,54.4987871 C189.689159,55.6951808 188.709946,56.6650494 187.502026,56.6650494 L191.883639,56.6650494 C193.063749,56.704158 194,57.6630209 194,58.8325247 C194,60.0020285 193.063749,60.9608914 191.883639,61 L166.561397,61 C165.381287,60.9608914 164.445036,60.0020285 164.445036,58.8325247 C164.445036,57.6630209 165.381287,56.704158 166.561397,56.6650494 L162.187132,56.6650494 C160.979213,56.6650494 160,55.6951808 160,54.4987871 C160,53.3023934 160.979213,52.3325247 162.187132,52.3325247 Z" id="Path" fill="#6C63FF" opacity="0.1"></path>
            <path d="M125.026855,156 L126.483386,156 C125.91627,156 125.456532,155.552285 125.456532,155 C125.456532,154.447715 125.91627,154 126.483386,154 L138.378395,154 C138.945511,154 139.40525,154.447715 139.40525,155 C139.40525,155.552285 138.945511,156 138.378395,156 L136.921863,156 C137.488979,156 137.948718,156.447715 137.948718,157 C137.948718,157.552285 137.488979,158 136.921863,158 L138.973145,158 C139.540261,158 140,158.447715 140,159 C140,159.552285 139.540261,160 138.973145,160 L127.080564,160 C126.513448,160 126.05371,159.552285 126.05371,159 C126.05371,158.447715 126.513448,158 127.080564,158 L125.026855,158 C124.459739,158 124,157.552285 124,157 C124,156.447715 124.459739,156 125.026855,156 Z" id="Path" fill="#6C63FF" opacity="0.1"></path>
            <path d="M92.8904987,174.666254 L94.081527,174.666254 C93.6385587,174.642157 93.2917368,174.276305 93.2917368,173.833127 C93.2917368,173.389949 93.6385587,173.024097 94.081527,173 L103.733304,173 C104.176273,173.024097 104.523094,173.389949 104.523094,173.833127 C104.523094,174.276305 104.176273,174.642157 103.733304,174.666254 L102.542276,174.666254 C102.985244,174.69035 103.332066,175.056203 103.332066,175.499381 C103.332066,175.942558 102.985244,176.308411 102.542276,176.332507 L104.21021,176.332507 C104.653178,176.356604 105,176.722457 105,177.165634 C105,177.608812 104.653178,177.974664 104.21021,177.998761 L94.5485485,177.998761 C94.2397687,178.015558 93.9469698,177.860541 93.7875207,177.595848 C93.6280716,177.331155 93.6280716,177.000113 93.7875207,176.73542 C93.9469698,176.470728 94.2397687,176.31571 94.5485485,176.332507 L92.8806147,176.332507 C92.5718349,176.349304 92.279036,176.194287 92.1195868,175.929594 C91.9601377,175.664902 91.9601377,175.333859 92.1195868,175.069167 C92.279036,174.804474 92.5718349,174.649457 92.8806147,174.666254 L92.8904987,174.666254 Z" id="Path" fill="#6C63FF" opacity="0.1"></path>
            <path d="M52.0270106,143 L53.4959029,143 C52.9287006,143 52.4688923,142.552285 52.4688923,142 C52.4688923,141.447715 52.9287006,141 53.4959029,141 L65.3757208,141 C65.9429231,141 66.4027314,141.447715 66.4027314,142 C66.4027314,142.552285 65.9429231,143 65.3757208,143 L63.9189681,143 C64.4861704,143 64.9459788,143.447715 64.9459788,144 C64.9459788,144.552285 64.4861704,145 63.9189681,145 L65.9729894,145 C66.5401917,145 67,145.447715 67,146 C67,146.552285 66.5401917,147 65.9729894,147 L54.0810319,147 C53.5138296,147 53.0540212,146.552285 53.0540212,146 C53.0540212,145.447715 53.5138296,145 54.0810319,145 L52.0270106,145 C51.4598083,145 51,144.552285 51,144 C51,143.447715 51.4598083,143 52.0270106,143 Z" id="Path" fill="#6C63FF" opacity="0.1"></path>
            <path d="M157.029911,176.000393 L158.490779,176.000393 C157.921974,176.000393 157.460867,175.552589 157.460867,175.000196 C157.460867,174.447803 157.921974,174 158.490779,174 L170.421194,174 C170.989999,174 171.451106,174.447803 171.451106,175.000196 C171.451106,175.552589 170.989999,176.000393 170.421194,176.000393 L168.960327,176.000393 C169.529131,176.000393 169.990238,176.448196 169.990238,177.000589 C169.990238,177.552982 169.529131,178.000785 168.960327,178.000785 L171.02015,178.000785 C171.568844,178.026717 172,178.466305 172,178.999799 C172,179.533293 171.568844,179.972881 171.02015,179.998813 L159.084865,179.998813 C158.705407,180.016747 158.346598,179.830355 158.151338,179.513871 C157.956077,179.197387 157.956077,178.802211 158.151338,178.485727 C158.346598,178.169243 158.705407,177.982852 159.084865,178.000785 L157.029911,178.000785 C156.461107,178.000785 156,177.552982 156,177.000589 C156,176.448196 156.461107,176.000393 157.029911,176.000393 Z" id="Path" fill="#6C63FF" opacity="0.1"></path>
            <path d="M173.472937,75.3564874 C173.680315,74.9615324 173.558032,74.4738783 173.188812,74.2234213 C173.161352,74.2051733 173.136429,74.1833724 173.114692,74.1585864 C172.984108,74.0148288 172.962815,73.8026508 173.06223,73.6358255 C173.161646,73.4690002 173.358427,73.3866992 173.547056,73.4330536 C173.579321,73.441622 173.610431,73.4540619 173.639706,73.470102 C174.034958,73.6784078 174.523621,73.5576068 174.776206,73.189151 C174.794412,73.1607405 174.81621,73.1347981 174.84106,73.1119667 C174.985547,72.9831812 175.197088,72.9634726 175.362891,73.0633493 C175.528695,73.1632261 175.610109,73.3594054 175.563726,73.5472864 C175.554055,73.5791661 175.541656,73.6101543 175.526666,73.6399076 C175.319289,74.0348626 175.441572,74.5225168 175.810791,74.7729738 C175.83862,74.7919642 175.864485,74.8136834 175.887999,74.8378086 C176.016824,74.9822513 176.036539,75.1937276 175.936631,75.3594805 C175.836724,75.5252334 175.640485,75.6066234 175.452547,75.5602541 C175.419859,75.5530071 175.388567,75.5404943 175.359897,75.5232056 C174.963718,75.3169882 174.475894,75.438907 174.223397,75.807244 C174.20629,75.8355728 174.185522,75.8615243 174.161631,75.8844284 C174.017483,76.016098 173.803952,76.0375075 173.636519,75.9370782 C173.469086,75.8366489 173.387497,75.6382214 173.435877,75.4491087 C173.445549,75.4172289 173.457948,75.3862408 173.472937,75.3564874 Z" id="Path" fill="#6C63FF" opacity="0.3"></path>
            <path d="M250.473707,33.3564874 C250.682521,32.9617127 250.560013,32.473012 250.189669,32.2234213 C250.162833,32.2043806 250.138006,32.182657 250.115572,32.1585864 C249.983902,32.0144825 249.962492,31.8010164 250.062922,31.6336342 C250.163351,31.466252 250.361779,31.3846881 250.550891,31.4330536 C250.581965,31.4421948 250.611978,31.4546141 250.640425,31.470102 C251.036128,31.6792917 251.525871,31.5568559 251.776579,31.1860637 C251.795619,31.1592281 251.817343,31.134401 251.841414,31.1119667 C251.985856,30.9831812 252.197333,30.9634726 252.363085,31.0633493 C252.528838,31.1632261 252.610228,31.3594054 252.563859,31.5472864 C252.556299,31.578895 252.543796,31.6091117 252.526811,31.6368202 C252.320593,32.0328787 252.442512,32.520554 252.810849,32.7729738 C252.83867,32.7919642 252.864526,32.8136834 252.888033,32.8378086 C253.016819,32.9822513 253.036527,33.1937276 252.936651,33.3594805 C252.836774,33.5252334 252.640595,33.6066234 252.452714,33.5602541 C252.420367,33.5519637 252.389233,33.5395102 252.360092,33.5232056 C251.964962,33.3173735 251.478337,33.439361 251.227026,33.807244 C251.207106,33.8343466 251.185449,33.8601288 251.162191,33.8844284 C251.018087,34.016098 250.804621,34.0375075 250.637239,33.9370782 C250.469857,33.8366489 250.388293,33.6382214 250.436659,33.4491087 C250.446327,33.4172289 250.458722,33.3862408 250.473707,33.3564874 Z" id="Path" fill="#6C63FF" opacity="0.3"></path>
            <path d="M251.477336,144.369848 C251.685543,143.97326 251.562771,143.48359 251.192074,143.232098 C251.164504,143.213775 251.139481,143.191884 251.117657,143.166995 C250.984441,143.023558 250.961953,142.809404 251.062467,142.641431 C251.162981,142.473457 251.362352,142.392017 251.551752,142.441564 C251.584571,142.448841 251.615988,142.461405 251.644772,142.478765 C252.042537,142.685835 252.532314,142.563412 252.785821,142.193553 C252.802998,142.165107 252.823848,142.139048 252.847835,142.116049 C252.99256,141.983835 253.206945,141.962337 253.375049,142.063182 C253.543152,142.164026 253.625068,142.363274 253.576494,142.553168 C253.566783,142.58518 253.554335,142.616296 253.539286,142.646173 C253.331078,143.04276 253.45385,143.53243 253.824548,143.783922 C253.852117,143.802246 253.87714,143.824137 253.898964,143.849025 C254.017295,143.992047 254.033189,144.193911 253.938698,144.353684 C253.844207,144.513456 253.659636,144.596806 253.477272,144.562056 C253.444638,144.555748 253.41323,144.544233 253.384252,144.527955 C252.987418,144.318788 252.496799,144.440088 252.243203,144.810067 C252.224924,144.838595 252.203038,144.864645 252.178089,144.88757 C252.033024,145.016888 251.820636,145.036678 251.654169,144.936389 C251.487702,144.836099 251.405961,144.639109 251.45253,144.450451 C251.458841,144.42302 251.467131,144.396082 251.477336,144.369848 Z" id="Path" fill="#6C63FF" opacity="0.3"></path>
            <path d="M11.4744677,9.36029406 C11.6818044,8.96429056 11.5598399,8.47544037 11.1909195,8.22379418 C11.1635156,8.2055407 11.1386433,8.18373314 11.1169504,8.15893957 C10.9845348,8.01604907 10.9621813,7.80271158 11.0620917,7.63537883 C11.1620021,7.46804608 11.3601752,7.38691595 11.5484368,7.43627388 C11.5806362,7.44484491 11.6116823,7.45728861 11.6408982,7.47333366 C12.0360979,7.68109206 12.5239558,7.55887952 12.7750912,7.18920869 C12.7940488,7.16137953 12.8157306,7.13551544 12.8398142,7.11200082 C12.9840075,6.98317606 13.1951189,6.96346146 13.3605858,7.06336864 C13.5260526,7.16327581 13.6073022,7.35951494 13.561013,7.54745322 C13.5524593,7.57971812 13.5400409,7.61082737 13.5240284,7.64010266 C13.3166917,8.03610616 13.4386562,8.52495635 13.8075767,8.77660254 C13.8352937,8.79450661 13.8611116,8.81520296 13.8846278,8.83836884 C14.0160703,8.9825167 14.0374428,9.19604788 13.9371868,9.3634811 C13.8369308,9.53091431 13.6388457,9.61250309 13.4500593,9.56412284 C13.4178599,9.55555181 13.3868138,9.54310811 13.3575979,9.52706306 C12.9623982,9.31930466 12.4745403,9.44151721 12.2234049,9.81118803 C12.2062874,9.83856668 12.1855524,9.86349926 12.161764,9.88530759 C12.0182545,10.0158919 11.8064426,10.0371851 11.6399052,9.93776956 C11.4733678,9.83835399 11.3912088,9.64157295 11.4374832,9.45294351 C11.4460368,9.4206786 11.4584552,9.38956936 11.4744677,9.36029406 Z" id="Path" fill="#6C63FF" opacity="0.3"></path>
            <path d="M0.471227065,2.35937633 C0.677854892,1.96397935 0.556014002,1.47577948 0.188129329,1.22504222 C0.160768996,1.20677389 0.135936179,1.18494858 0.114277746,1.16013482 C-0.0158344281,1.01621637 -0.03705069,0.803800916 0.0620054514,0.636788949 C0.161061593,0.469776983 0.357131185,0.387383872 0.545078648,0.433790093 C0.577226899,0.442368102 0.608223673,0.454821929 0.637393127,0.470880036 C1.03121593,0.679418872 1.51811203,0.558482699 1.76978407,0.189614631 C1.78781779,0.161959591 1.80842456,0.136086619 1.83132706,0.112343916 C1.9735302,-0.0152276713 2.18134934,-0.0362984469 2.34606573,0.0601545799 C2.51078211,0.156607607 2.59491748,0.348638279 2.55445714,0.535787437 C2.54534618,0.566895578 2.532968,0.596942487 2.51753135,0.625421467 C2.30489948,1.02398306 2.42723912,1.51952409 2.80062909,1.77211889 C2.82798942,1.79038722 2.85282224,1.81221253 2.87448067,1.83702629 C3.01526549,1.98072568 3.04047803,2.20228326 2.93560777,2.3741865 C2.83073751,2.54608974 2.62275963,2.62412095 2.43137117,2.56337101 C2.39880146,2.55611584 2.36762308,2.54358905 2.33905669,2.52628107 C1.94430986,2.31983284 1.45824964,2.44188808 1.20666575,2.8106373 C1.18852534,2.83907962 1.16680586,2.86505109 1.14204561,2.88790802 C0.998081334,3.01683763 0.787305365,3.03656828 0.622101415,2.93657979 C0.456897465,2.83659129 0.375777003,2.64019243 0.421992676,2.45210118 C0.435582213,2.41976267 0.452061048,2.3887275 0.471227065,2.35937633 Z" id="Path" fill="#6C63FF" opacity="0.3"></path>
            <path d="M93.4726063,55.3600924 C93.6798388,54.9651374 93.5576413,54.4774832 93.1886799,54.2270262 C93.1612395,54.2087783 93.136334,54.1869774 93.1146122,54.1621914 C92.9841192,54.0184338 92.9628409,53.8062557 93.0621869,53.6394305 C93.161533,53.4726052 93.3581764,53.3903042 93.546674,53.4366585 C93.5789163,53.4452269 93.6100038,53.4576668 93.6392586,53.473707 C94.0342341,53.6820127 94.5225552,53.5612117 94.7749639,53.192756 C94.7920598,53.1644272 94.8128128,53.1384757 94.836687,53.1155716 C94.9807341,52.983902 95.1941159,52.9624925 95.3614321,53.0629218 C95.5287482,53.1633511 95.6102799,53.3617786 95.5619335,53.5508913 C95.5527959,53.5819647 95.5403815,53.611978 95.5248997,53.6404252 C95.3172865,54.036308 95.4394136,54.5250092 95.808826,54.7765787 C95.8362664,54.7948267 95.8611719,54.8166276 95.8828937,54.8414136 C96.0154858,54.9842605 96.0378692,55.197533 95.9378255,55.3648148 C95.8377819,55.5320965 95.6393446,55.6132019 95.4508319,55.5638591 C95.4181669,55.556612 95.3868973,55.5440992 95.3582473,55.5268106 C94.9623451,55.3205931 94.4748623,55.4425119 94.222542,55.810849 C94.2043485,55.8392595 94.1825655,55.8652019 94.1577328,55.8880333 C94.0133471,56.0168188 93.8019543,56.0365274 93.6362668,55.9366507 C93.4705793,55.8367739 93.3892214,55.6405946 93.4355724,55.4527136 C93.4452372,55.4208339 93.4576275,55.3898457 93.4726063,55.3600924 Z" id="Path" fill="#6C63FF" opacity="0.3"></path>
            <path d="M49.4747057,84.3572598 C49.6817661,83.9627788 49.5596701,83.4757099 49.1910152,83.2255535 C49.1635976,83.2073275 49.1387128,83.1855528 49.117009,83.1607965 C48.984527,83.018121 48.9621623,82.8051045 49.0621228,82.6380235 C49.1620833,82.4709425 49.3603558,82.3899344 49.5487119,82.4392181 C49.5813498,82.4464565 49.6125935,82.4589542 49.6412197,82.4762221 C50.036793,82.6821921 50.5238708,82.5604196 50.7759815,82.1925246 C50.794053,82.1649337 50.8147029,82.1391206 50.8376533,82.1154329 C50.9815807,81.9839213 51.1947854,81.9625375 51.3619625,82.0628463 C51.5291397,82.163155 51.6106037,82.3613444 51.5622974,82.5502302 C51.5526407,82.5820716 51.5402606,82.6130226 51.5252943,82.6427402 C51.3182339,83.0372212 51.4403299,83.5242901 51.8089848,83.7744465 C51.8364024,83.7926725 51.8612872,83.8144472 51.882991,83.8392035 C52.015473,83.981879 52.0378377,84.1948955 51.9378772,84.3619765 C51.8379167,84.5290575 51.6396442,84.6100656 51.4512881,84.5607819 C51.4186502,84.5535435 51.3874065,84.5410458 51.3587803,84.5237779 C50.963207,84.3178079 50.4761292,84.4395804 50.2240185,84.8074754 C50.205947,84.8350663 50.1852971,84.8608794 50.1623467,84.8845671 C50.0184193,85.0160787 49.8052146,85.0374625 49.6380375,84.9371537 C49.4708603,84.836845 49.3893963,84.6386556 49.4377026,84.4497698 C49.4473593,84.4179284 49.4597394,84.3869774 49.4747057,84.3572598 Z" id="Path" fill="#6C63FF" opacity="0.3"></path>
            <path d="M117.624382,47.4313242 C117.777811,47.0324617 117.607401,46.5818947 117.228533,46.3846932 C117.199781,46.3704401 117.172976,46.3525547 117.148772,46.3314747 C117.005777,46.2105521 116.960148,46.0094352 117.036941,45.8385634 C117.113734,45.6676917 117.29436,45.5684296 117.479631,45.595285 C117.511153,45.598615 117.542012,45.6065852 117.571208,45.6189377 C117.970581,45.7713939 118.420807,45.6013063 118.619913,45.2227553 C118.634871,45.1944007 118.652688,45.1676522 118.673086,45.1429275 C118.795962,45.0036892 118.995255,44.9610395 119.16428,45.03781 C119.333305,45.1145805 119.432456,45.2927833 119.408657,45.4770216 C119.40254,45.5083045 119.393642,45.5389779 119.38207,45.5686758 C119.230532,45.9682905 119.401947,46.4181578 119.780873,46.6153068 C119.808266,46.6303069 119.834009,46.6481442 119.85768,46.6685253 C119.996042,46.7912136 120.038632,46.9896888 119.962802,47.1584167 C119.886972,47.3271446 119.710338,47.4269302 119.526821,47.404715 C119.495569,47.3999745 119.464884,47.3920491 119.435244,47.3810623 C119.036717,47.2275035 118.586529,47.3980572 118.389493,47.7772447 C118.373842,47.8051806 118.356065,47.8318688 118.336319,47.8570725 C118.213444,47.9963108 118.01415,48.0389605 117.845126,47.96219 C117.676101,47.8854195 117.576949,47.7072167 117.600749,47.5229784 C117.60443,47.4914943 117.61238,47.4606592 117.624382,47.4313242 Z" id="Path" fill="#6C63FF" opacity="0.3"></path>
            <path d="M228.237169,122.523854 C228.623657,122.3563 228.822533,121.925016 228.699053,121.522211 C228.690243,121.492084 228.684614,121.461117 228.682257,121.429816 C228.678063,121.25039 228.788327,121.088127 228.956671,121.025994 C229.125014,120.96386 229.314229,121.015589 229.427568,121.154732 C229.446188,121.180081 229.461696,121.207577 229.473757,121.236627 C229.641277,121.62319 230.072477,121.822105 230.475203,121.698601 C230.505252,121.689093 230.536213,121.682759 230.56758,121.679702 C230.748069,121.674325 230.911785,121.784964 230.974143,121.954458 C231.036501,122.123952 230.983535,122.314341 230.84261,122.42726 C230.817266,122.445883 230.789776,122.461394 230.760731,122.473457 C230.378445,122.645282 230.181343,123.072718 230.298848,123.4751 C230.309353,123.504886 230.315711,123.535976 230.317743,123.567495 C230.323119,123.74802 230.212502,123.911768 230.043041,123.974138 C229.873581,124.036508 229.683229,123.983532 229.570332,123.84258 C229.551585,123.817665 229.53672,123.790053 229.526243,123.760684 C229.358723,123.374121 228.927523,123.175206 228.524797,123.29871 C228.494698,123.308022 228.463757,123.314352 228.43242,123.317609 C228.251931,123.322987 228.088215,123.212347 228.025857,123.042853 C227.963499,122.87336 228.016465,122.682971 228.15739,122.570052 C228.182279,122.55188 228.209021,122.536395 228.237169,122.523854 Z" id="Path" fill="#6C63FF" opacity="0.3"></path>
            <path d="M79.2394834,131.526587 C79.6221129,131.354767 79.8193913,130.927343 79.7017809,130.524973 C79.6914774,130.495852 79.6851169,130.465486 79.6828687,130.434681 C79.6765311,130.253768 79.7869163,130.089155 79.9567717,130.026221 C80.1266271,129.963287 80.3177249,130.016195 80.43095,130.157504 C80.4491575,130.183128 80.4646506,130.210573 80.4771798,130.239397 C80.6441147,130.626667 81.0763688,130.825884 81.4795247,130.701358 C81.5087052,130.691546 81.5391235,130.685891 81.5698829,130.684559 C81.7494346,130.680364 81.9118112,130.790647 81.9739882,130.959019 C82.0361651,131.127391 81.9843997,131.316637 81.84516,131.429995 C81.8205409,131.44861 81.7937221,131.464125 81.7653086,131.476191 C81.3784746,131.64374 81.17942,132.075011 81.3030111,132.477805 C81.3118285,132.507931 81.3174629,132.538897 81.319822,132.570197 C81.3240199,132.749617 81.2136567,132.911876 81.045162,132.974007 C80.8766672,133.036139 80.6872825,132.984411 80.573842,132.845273 C80.5552053,132.819924 80.5396841,132.792429 80.5276122,132.76338 C80.3556668,132.38103 79.9279313,132.183895 79.5252673,132.30142 C79.4951922,132.310927 79.4642033,132.317261 79.4328078,132.320318 C79.2521565,132.325695 79.0882939,132.215059 79.0258803,132.04557 C78.9634667,131.876082 79.01648,131.685698 79.1575307,131.572783 C79.182898,131.554159 79.2104128,131.53865 79.2394834,131.526587 Z" id="Path" fill="#6C63FF" opacity="0.3"></path>
            <path d="M126.236839,134.526243 C126.623749,134.358723 126.822843,133.927523 126.699228,133.524797 C126.689907,133.494698 126.683572,133.463757 126.680312,133.43242 C126.67493,133.251931 126.785668,133.088215 126.955314,133.025857 C127.12496,132.963499 127.31552,133.016465 127.42854,133.15739 C127.44718,133.182734 127.462705,133.210224 127.474779,133.239269 C127.643247,133.624934 128.07471,133.822811 128.477321,133.699053 C128.507475,133.690243 128.53847,133.684614 128.569798,133.682257 C128.749385,133.678063 128.911794,133.788327 128.973983,133.956671 C129.036172,134.125014 128.984397,134.314229 128.84513,134.427568 C128.819757,134.446188 128.792237,134.461696 128.763161,134.473757 C128.376251,134.641277 128.177157,135.072477 128.300772,135.475203 C128.310093,135.505302 128.316428,135.536243 128.319688,135.56758 C128.32507,135.748069 128.214332,135.911785 128.044686,135.974143 C127.87504,136.036501 127.68448,135.983535 127.57146,135.84261 C127.55282,135.817266 127.537295,135.789776 127.525221,135.760731 C127.353242,135.378445 126.925422,135.181343 126.522679,135.298848 C126.492867,135.309353 126.461749,135.315711 126.430202,135.317743 C126.250615,135.321937 126.088206,135.211673 126.026017,135.043329 C125.963828,134.874986 126.015603,134.685771 126.15487,134.572432 C126.180243,134.553812 126.207763,134.538304 126.236839,134.526243 Z" id="Path" fill="#6C63FF" opacity="0.3"></path>
            <circle id="Oval" fill="#6C63FF" opacity="0.1" cx="30" cy="26" r="4"></circle>
            <circle id="Oval" fill="#6C63FF" opacity="0.1" cx="231" cy="29" r="4"></circle>
            <circle id="Oval" fill="#6C63FF" opacity="0.1" cx="48" cy="6" r="2"></circle>
            <circle id="Oval" fill="#6C63FF" opacity="0.1" cx="260" cy="70" r="2"></circle>
            <circle id="Oval" fill="#6C63FF" opacity="0.1" cx="33" cy="181" r="2"></circle>
            <circle id="Oval" fill="#6C63FF" opacity="0.1" cx="42" cy="192" r="2"></circle>
            <circle id="Oval" fill="#6C63FF" opacity="0.1" cx="26" cy="198" r="2"></circle>
        </g>
    </g>
</svg>