<?xml version="1.0" encoding="UTF-8"?>
<svg width="64px" height="64px" viewBox="0 0 64 64" version="1.1" xmlns="http://www.w3.org/2000/svg" xmlns:xlink="http://www.w3.org/1999/xlink">
    <!-- Generator: Sketch 52.2 (67145) - http://www.bohemiancoding.com/sketch -->
    <title>icon/document</title>
    <desc>Created with Sketch.</desc>
    <g id="icon/document" stroke="none" stroke-width="1" fill="none" fill-rule="evenodd">
        <g id="文档表单" transform="translate(11.000000, 5.000000)" fill="#000000">
            <polygon id="Path" points="12.5642409 32.2563977 14.7387666 32.2563977 14.7387666 38.7799747 12.5642409 38.7799747"></polygon>
            <polygon id="Path" points="19.0878179 27.9073463 21.2623436 27.9073463 21.2623436 38.7799747 19.0878179 38.7799747"></polygon>
            <polygon id="Path" points="25.6753516 31.1691348 27.8498773 31.1691348 27.8498773 38.7799747 25.6753516 38.7799747 25.6753516 31.1691348"></polygon>
            <path d="M39.1981511,54.4441704 L3.35282231,54.4441704 C1.52519744,54.4441704 0.089498875,52.9054376 0.089498875,51.0778127 L0.0385254375,3.31915312 C0.0385254375,1.490441 1.47416006,0.0558296875 3.30184887,0.0558296875 L28.5924139,0.0558296875 C29.3758188,0.0558296875 30.136455,0.334680625 30.7334263,0.840321812 L41.3625078,11.68078 C42.0338606,12.2432786 42.4104373,13.2179138 42.4104373,14.194084 L42.4614107,51.180783 C42.4614107,53.0100707 41.025776,54.4441704 39.1981511,54.4441704 Z M3.30184887,2.23137862 C2.6740505,2.23137862 2.16310094,2.74232819 2.16310094,3.37012656 L2.21407437,51.1287862 C2.21407437,51.7576718 2.72502394,52.2686214 3.35282231,52.2686214 L39.1981512,52.2686214 C39.8259496,52.2686214 40.3368991,51.7576718 40.3368991,51.1298734 L40.2859257,14.1431744 C40.2859257,13.8059311 40.1388254,13.4893457 39.8822314,13.2720851 L29.2536615,2.43162687 C29.1224864,2.32699381 28.8616712,2.23137862 28.5924138,2.23137862 L3.30184887,2.23137862 Z" id="Shape" fill-rule="nonzero"></path>
            <polygon id="Path" points="40.8970313 14.8601923 27.8498773 14.8601923 27.8498773 1.81303825 30.0244029 1.81303825 30.0244029 12.6856666 40.8970313 12.6856666"></polygon>
        </g>
    </g>
</svg>