<?xml version="1.0" encoding="UTF-8"?>
<svg width="64px" height="64px" viewBox="0 0 64 64" version="1.1" xmlns="http://www.w3.org/2000/svg" xmlns:xlink="http://www.w3.org/1999/xlink">
    <!-- Generator: Sketch 52.2 (67145) - http://www.bohemiancoding.com/sketch -->
    <title>icon/phone</title>
    <desc>Created with Sketch.</desc>
    <g id="icon/phone" stroke="none" stroke-width="1" fill="none" fill-rule="evenodd">
        <g id="phone" transform="translate(12.000000, 12.000000)" fill="#000000" fill-rule="nonzero">
            <path d="M8.71575862,2.12331602 C9.53195921,2.12331602 10.2749212,2.38873052 10.7675888,3.03497061 C11.3484082,3.79710833 12.8377397,9.16002951 13.3161579,10.9196392 C13.4098856,11.2644568 13.3127504,11.6327637 13.0613054,11.8867211 L10.0037394,14.9753497 C9.58634603,15.3969606 9.46004822,16.0271431 9.68432196,16.5762857 C12.2596198,22.8813841 17.5889972,28.0204281 23.310588,30.1113193 C23.4222381,30.1521047 23.538048,30.1719223 23.6529285,30.1719223 C23.9124276,30.1719223 24.1671473,30.0707994 24.3581428,29.8820454 L27.3306547,26.9447474 C27.5199687,26.7576744 27.7737148,26.6553128 28.0350282,26.6553571 C28.095699,26.6553571 28.1568122,26.6608866 28.2175715,26.6721225 C30.0513676,27.011853 36.1933611,28.1844985 37.0183238,28.7971636 C37.7800933,29.3628504 38.0921648,30.7844105 37.7147317,32.1915497 C37.354159,33.5365377 34.9728217,37.8767725 30.1273499,37.8767725 C29.904625,37.8767725 29.6765013,37.8675715 29.4433327,37.8485501 C24.1374979,37.415084 17.9659877,33.7866024 11.5586538,27.5712141 C5.15158537,21.3555604 1.58192475,13.2323726 2.19142003,8.4311128 C2.73918251,4.11463255 6.6139669,2.50272607 7.67665616,2.25164392 C8.02722766,2.16883461 8.37775493,2.12331602 8.71575862,2.12331602 Z M8.71575862,0 C8.22233874,0 7.70838546,0.0623281535 7.18810409,0.185259332 C6.24042813,0.40918072 4.74290979,1.05214734 3.3817347,2.18520181 C1.52466152,3.73106435 0.38439691,5.79846634 0.0842294604,8.1638846 C-0.0984908071,9.60336013 0.0163897652,11.245347 0.425773386,13.0441495 C0.813074798,14.745943 1.45195402,16.5414279 2.3247098,18.3807062 C3.2080863,20.2423235 4.30321295,22.0892103 5.57973225,23.8701415 C6.92156885,25.7421985 8.43546075,27.500083 10.0794119,29.0948702 C13.4190902,32.3344754 16.7066385,34.8986449 19.8508075,36.7161149 C23.1649075,38.6318325 26.3341236,39.7248537 29.2703924,39.9646999 C29.5568414,39.9881006 29.8452376,40 30.1274384,40 C32.7665931,40 35.1809432,38.9748365 37.109529,37.0353201 C38.631298,35.50494 39.4919727,33.7655903 39.7666062,32.7411346 C40.0362392,31.7358772 40.0730134,30.6993009 39.872946,29.7437644 C39.6341573,28.6034552 39.0851115,27.6867136 38.2851517,27.0926717 C37.8130175,26.7420591 37.0881992,26.3608354 33.4543276,25.5588855 C31.5853503,25.1464314 29.6137506,24.771268 28.6048287,24.5843277 C28.4175061,24.5496026 28.2258025,24.5319968 28.0352053,24.5319968 C27.2071449,24.5319526 26.4266122,24.8525291 25.8375175,25.4346715 L23.3822336,27.8608697 C21.0588233,26.9001135 18.7988717,25.3723434 16.8087742,23.4117707 C14.6818911,21.3164559 12.9617364,18.8182862 11.8152321,16.1643181 L14.5713473,13.3802085 C15.3529422,12.5906888 15.6574906,11.4344105 15.3661295,10.362711 C15.1168529,9.44583661 14.6224594,7.65787182 14.1123562,5.98438915 C13.1445894,2.80932396 12.7641915,2.15069786 12.4574745,1.74828528 C11.5977291,0.620804531 10.2690356,0 8.71575862,0 Z" id="Shape"></path>
        </g>
    </g>
</svg>