<?xml version="1.0" standalone="no"?><!DOCTYPE svg PUBLIC "-//W3C//DTD SVG 1.1//EN" "http://www.w3.org/Graphics/SVG/1.1/DTD/svg11.dtd"><svg t="1554348541801" class="icon" style="" viewBox="0 0 8198 1024" version="1.1" xmlns="http://www.w3.org/2000/svg" p-id="2189" xmlns:xlink="http://www.w3.org/1999/xlink" width="1601.171875" height="200"><defs><style type="text/css"></style></defs><path d="M441.6 1024c0-64 83.2-121.6 185.6-121.6h38.4c211.2 0 390.4-172.8 390.4-390.4s-185.6-384-396.8-384H441.6V0h512c281.6 0 512 230.4 512 512s-230.4 512-512 512h-512z" fill="#ffffff" p-id="2190"></path><path d="M441.6 812.8c0 115.2-147.2 211.2-326.4 211.2H0V179.2C0 76.8 64 0 147.2 0h294.4v812.8z" fill="#ffffff" p-id="2191"></path><path d="M550.4 128c-64 0-108.8 38.4-108.8 83.2V128h108.8zM2118.4 812.8c0 115.2-147.2 211.2-326.4 211.2h-108.8V460.8c0-96 64-179.2 147.2-179.2h294.4v531.2z" fill="#ffffff" p-id="2192"></path><path d="M2118.4 390.4c102.4-64 224-96 352-96 83.2 0 160 12.8 236.8 44.8v211.2c-89.6-57.6-192-96-307.2-96-102.4 0-198.4 25.6-275.2 76.8V390.4zM3852.8 6.4c-83.2 0-147.2 64-147.2 140.8V6.4h147.2z" fill="#ffffff" p-id="2193"></path><path d="M4096 812.8c0 115.2-147.2 211.2-326.4 211.2h-108.8V0H4096v812.8z" fill="#ffffff" p-id="2194"></path><path d="M3328 0h1094.4c102.4 0 185.6 51.2 185.6 121.6V128H3142.4v-6.4C3142.4 51.2 3225.6 0 3328 0zM4204.8 128c-57.6 0-108.8 38.4-108.8 83.2V128h108.8zM5337.6 1024C4934.4 1024 4608 857.6 4608 652.8s326.4-371.2 729.6-371.2c403.2 0 729.6 166.4 729.6 371.2S5740.8 1024 5337.6 1024z m0-128c160 0 294.4-108.8 294.4-243.2s-128-243.2-294.4-243.2c-160 0-294.4 108.8-294.4 243.2s134.4 243.2 294.4 243.2z" fill="#ffffff" p-id="2195"></path><path d="M2777.6 902.4a147.2 121.6 0 1 0 294.4 0 147.2 121.6 0 1 0-294.4 0Z" fill="#ffffff" p-id="2196"></path><path d="M6438.4 281.6h294.4v524.8c0 115.2-147.2 211.2-326.4 211.2h-108.8V460.8c-6.4-96 57.6-179.2 140.8-179.2zM7353.6 1024h-217.6c-57.6 0-108.8-32-108.8-70.4V281.6l441.6 339.2v326.4c-6.4 44.8-57.6 76.8-115.2 76.8zM7680 294.4c83.2 0 147.2 64 147.2 140.8V294.4H7680z" fill="#ffffff" p-id="2197"></path><path d="M8083.2 1024c-179.2 0-326.4-96-326.4-211.2V281.6l441.6 345.6V1024h-115.2zM6726.4 371.2c76.8-57.6 179.2-89.6 294.4-89.6 243.2 0 441.6 153.6 441.6 345.6s-198.4 294.4-441.6 294.4v-172.8c0-147.2-96-268.8-217.6-268.8-25.6 0-51.2 6.4-70.4 12.8V371.2z" fill="#ffffff" p-id="2198"></path><path d="M7321.6 691.2c-6.4-19.2-6.4-38.4-6.4-57.6 0-192 198.4-345.6 441.6-345.6 243.2 0 441.6 153.6 441.6 345.6s-198.4 121.6-441.6 121.6c0-147.2-96-268.8-217.6-268.8-108.8 0-192 83.2-217.6 204.8z" fill="#ffffff" p-id="2199"></path></svg>