<?xml version="1.0" encoding="UTF-8"?>
<svg width="290px" height="220px" viewBox="0 0 290 220" version="1.1" xmlns="http://www.w3.org/2000/svg" xmlns:xlink="http://www.w3.org/1999/xlink">
    <!-- Generator: Sketch 52.2 (67145) - http://www.bohemiancoding.com/sketch -->
    <title>img/docor_waixin</title>
    <desc>Created with Sketch.</desc>
    <defs>
        <linearGradient x1="50.0017074%" y1="100.000886%" x2="50.0017074%" y2="0.00277152587%" id="linearGradient-1">
            <stop stop-color="#808080" stop-opacity="0.25" offset="0%"></stop>
            <stop stop-color="#808080" stop-opacity="0.12" offset="54%"></stop>
            <stop stop-color="#808080" stop-opacity="0.1" offset="100%"></stop>
        </linearGradient>
    </defs>
    <g id="img/docor_waixin" stroke="none" stroke-width="1" fill="none" fill-rule="evenodd">
        <g id="undraw_alien_science_nonm" transform="translate(4.000000, 5.000000)">
            <ellipse id="Oval" fill="#4385EB" opacity="0.1" cx="128.5" cy="196" rx="29.5" ry="4"></ellipse>
            <path d="M26.4584799,86 L49,86 L49,116.479566 L28.1036137,116.479566 C28.0496749,116.795744 27.9957361,117.10949 27.9368937,117.423236 L48.9975482,117.423236 L48.9975482,142 L48.8921224,141.961086 C48.2938919,141.717872 47.7030167,141.474658 47.1194969,141.216851 L46.7394734,141.046602 C46.1412429,140.769338 45.5503678,140.475049 44.9668479,140.163735 C44.7608997,140.056721 44.5549515,139.944843 44.3514551,139.8281 C41.0619443,138.008255 38.0722167,135.700249 35.4858757,132.984061 C35.409871,132.911097 35.3387699,132.833268 35.2676687,132.760304 C34.9097111,132.373594 34.5566571,131.979587 34.2134101,131.578284 L33.8333866,131.130771 C33.4312973,130.644343 33.039015,130.133594 32.6614433,129.622845 C32.6050528,129.547448 32.551114,129.472052 32.4947234,129.399088 C30.9475967,127.276463 29.6649971,124.975974 28.6748747,122.547752 C28.6430018,122.474788 28.6160324,122.394528 28.5866112,122.321564 C28.2776889,121.550575 28.0006396,120.769859 27.7603667,119.972117 C27.6598444,119.638914 27.559322,119.300847 27.4759621,118.965212 C27.4440891,118.863062 27.4195715,118.763344 27.3926021,118.666059 C26.1446541,113.784756 26,108.711314 26,103.664625 C26,103.076048 26,102.485038 26,101.898893 C26,99.86076 26.0245176,97.8104669 26.0588423,95.7601737 C26.0702839,95.2299674 26.0817255,94.6989504 26.093167,94.1671227 C26.12504,92.8148534 26.16672,91.460152 26.2255623,90.1078827 C26.2402729,89.7333333 26.2574352,89.3563518 26.2770494,88.9842345 C26.2770494,88.7677742 26.2966635,88.5513138 26.3113741,88.3348534 C26.3579576,87.5541368 26.4045411,86.7734202 26.4584799,86 Z" id="Path" fill="#4385EB" opacity="0.1"></path>
            <path d="M49,52 L37,52 C38.9506007,48.9805308 41.0820853,46.0792067 43.3830293,43.3115783 C45.1649485,41.1441795 47.0396511,39.0332601 49,37 L49,52 Z" id="Path" fill="#4385EB" opacity="0.1"></path>
            <path d="M49,53.0225222 L49,86 L26,86 C26,85.9049063 26.0150556,85.8073102 26.0250927,85.7122166 C26.0451669,85.4619701 26.0652411,85.191704 26.0878246,84.9339501 C26.110408,84.6311519 26.1405193,84.3233488 26.1681213,84.0180481 C26.1957233,83.7127474 26.2308532,83.3573974 26.2634737,83.0170623 C26.2960943,82.6767271 26.3312241,82.3564116 26.3688632,82.0285888 C26.4065023,81.7007659 26.4416321,81.3704406 26.4817805,81.0451202 C26.5219289,80.7197998 26.559568,80.386972 26.6022256,80.0591492 C26.6373554,79.788883 26.6724853,79.5186168 26.7101244,79.2458482 C26.7628191,78.8629711 26.8180231,78.4775916 26.8757364,78.097217 C26.8757364,78.0396603 26.8933013,77.9821036 26.9008292,77.9270494 C27.3157453,75.1384731 27.8811528,72.3742409 28.5945887,69.6463942 C29.3411447,66.7852375 30.2946572,63.9818061 31.4476326,61.258133 C32.6706674,58.4031478 34.1049085,55.6428246 35.7384901,53 L49,53.0225222 Z" id="Path" fill="#4385EB" opacity="0.1"></path>
            <path d="M54.0073052,86.0212626 L54.0073052,116.299424 L101.82711,116.299424 L101.82711,86.0212626 L54.0073052,86.0212626 Z M54.0073052,117.234368 L54.0073052,143.236431 C54.2800325,143.291996 54.5503247,143.347561 54.8206169,143.393463 C55.1858766,143.463523 55.5511364,143.526336 55.9188312,143.581901 C55.9894481,143.581901 56.0625,143.603644 56.1355519,143.610891 C56.2816558,143.63505 56.4301948,143.654377 56.5762987,143.673704 C56.9439935,143.724437 57.3068182,143.765507 57.6842532,143.79933 L58.2102273,143.845231 L58.6363636,143.876638 C58.8676948,143.893549 59.0965909,143.908044 59.325487,143.915292 C59.4667208,143.915292 59.6079545,143.915292 59.7516234,143.932203 L60.0876623,143.932203 L60.5040584,143.932203 C60.6939935,143.932203 60.8839286,143.932203 61.0714286,143.932203 L61.3149351,143.932203 C61.5048701,143.932203 61.6948052,143.932203 61.8823052,143.915292 L61.8944805,143.915292 C62.025974,143.915292 62.1574675,143.915292 62.288961,143.89838 C62.3262594,143.900783 62.3636756,143.900783 62.400974,143.89838 C62.5105519,143.89838 62.6201299,143.89838 62.7272727,143.883885 L62.8027597,143.883885 L63.5332792,143.825904 C63.7767857,143.804161 64.0202922,143.777587 64.2637987,143.751012 L64.7654221,143.690615 C66.8118826,143.4065 68.8355794,142.97944 70.8214286,142.412617 C75.2824675,141.178105 79.6363636,139.450754 84.1047078,138.187252 C89.8685065,136.556536 96.2410714,135.754466 101.80763,137.740315 L101.80763,117.229536 L54.0073052,117.234368 Z M101.82711,52.3125584 L101.82711,12.0036837 C96.5920695,11.9465676 91.3711554,12.553851 86.2913961,13.8107582 C74.174513,16.8281861 63.3092532,23.3752074 54.0073052,31.7365509 L54.0073052,52.3125584 L56.398539,52.3125584 L56.398539,53.2475021 L54,53.2475021 L54,85.0983983 L101.82711,85.0983983 L101.82711,53.2475021 L66.2605519,53.2475021 L66.2605519,52.3125584 L101.82711,52.3125584 Z M163.261364,38.6966868 C160.266234,38.5903883 157.288149,37.6506129 154.592532,36.1962562 C149.44237,33.4179999 145.319805,29.12499 140.729708,25.5035933 C131.176948,17.9588156 119.327922,13.4048912 107.176948,12.2766776 L107.176948,52.3125584 L175.436688,52.3125584 L175.604708,52.1337837 L163.261364,38.6966868 Z M169.480519,37.5926319 L176.074675,44.7726125 L176.074675,35.7130812 C173.856331,35.9909068 171.92289,36.6359454 169.480519,37.5926319 Z M176.074675,149.689233 L176.074675,117.229536 L162.01461,117.229536 C161.978084,117.091831 161.939123,116.95171 161.895292,116.81159 C161.936688,116.95171 161.973214,117.091831 162.012175,117.229536 L107.176948,117.229536 L107.176948,140.702178 C107.698052,141.086302 108.211851,141.489753 108.720779,141.910115 C109.271104,142.354636 109.814123,142.808821 110.359578,143.263005 L110.907468,143.712358 C111.170455,143.929787 111.435877,144.142384 111.701299,144.357397 C112.232143,144.782591 112.767045,145.202953 113.306006,145.618483 C113.573864,145.828665 113.846591,146.034014 114.116883,146.239363 C118.425677,149.506375 122.970353,152.455222 127.714286,155.062139 C128.777597,155.648391 129.850649,156.217732 130.933442,156.770163 C131.654221,157.137376 132.379058,157.498146 133.107955,157.852475 C134.20211,158.382356 135.304383,158.895327 136.414773,159.391387 C146.670826,163.953689 157.515271,167.082274 168.637987,168.687674 C171.107143,169.048445 173.586039,169.332713 176.074675,169.540478 L176.074675,149.689233 L176.293831,149.689233 L176.074675,149.689233 Z M107.176948,53.2475021 L107.176948,85.0983983 L176.074675,85.0983983 L176.074675,53.2475021 L107.176948,53.2475021 Z M107.176948,86.0212626 L107.176948,116.299424 L176.074675,116.299424 L176.074675,86.0212626 L107.176948,86.0212626 Z M181.422078,35.6695954 L181.422078,45.7969435 L189.840097,36.6335295 C187.051136,36.1825662 184.24513,35.8612548 181.422078,35.6695954 Z M181.422078,86.0212626 L181.422078,116.299424 L248.43263,116.299424 L248.43263,86.0212626 L181.422078,86.0212626 Z M248.196429,152.095444 L248.439935,117.234368 L181.422078,117.234368 L181.422078,169.895611 C185.738303,170.074853 190.061127,170.023239 194.371753,169.740995 L194.44724,169.740995 C196.502435,169.610538 198.551948,169.423711 200.595779,169.180512 L200.642045,169.180512 C211.526305,167.919095 222.168216,165.096075 232.234578,160.799842 L248.196429,152.095444 Z M261.36039,90.9955492 C261.107143,90.4060757 260.846591,89.821434 260.578734,89.241624 C260.091721,88.1568961 259.553571,87.0842476 259.010552,86.0212626 L253.782468,86.0212626 L253.782468,116.299424 L267,116.299424 C266.987825,107.723068 264.801136,98.9679368 261.36039,90.9955492 Z M253.782468,117.229536 L253.782468,147.222624 C257.505682,143.683368 260.651786,139.631945 262.916396,135.000713 C265.641234,129.422457 266.883117,123.385186 266.99026,117.234368 L253.782468,117.229536 Z M253.782468,77.1936552 L253.782468,85.0983983 L258.521104,85.0983983 C257.085483,82.3826988 255.503652,79.7455848 253.782468,77.198487 L253.782468,77.1936552 Z M208.346591,41.612648 C207.998377,41.4797748 207.647727,41.3469017 207.297078,41.2188603 C203.598578,39.8600343 199.818572,38.7304508 195.978896,37.8366353 L183.099838,51.8487104 L182.856331,52.1168725 L183.021916,52.2956473 L228.840097,52.2956473 C222.458308,47.9439222 215.579163,44.357913 208.346591,41.612648 Z M230.198864,53.2499179 L182.362013,53.2499179 L181.422078,54.1027218 L181.422078,85.0983983 L189.659903,85.0983983 L248.42776,85.0983983 L248.42776,70.0716557 C243.115296,63.6970443 236.983518,58.0408114 230.189123,53.2475021 L230.198864,53.2499179 Z" id="Shape" fill="#4385EB" fill-rule="nonzero" opacity="0.1"></path>
            <path d="M49,69.0097934 L49,85 L26,85 C26,84.9069625 26.0150556,84.8114767 26.0250927,84.7184392 C26.0451669,84.4736037 26.0652411,84.2091813 26.0878246,83.9570008 C26.110408,83.6607498 26.1405193,83.3596021 26.1681213,83.0609028 C26.1957233,82.7622035 26.2308532,82.4145371 26.2634737,82.0815608 C26.2960943,81.7485845 26.3312241,81.4351951 26.3688632,81.1144606 C26.4065023,80.7937261 26.4416321,80.4705432 26.4817805,80.1522571 C26.5219289,79.8339709 26.559568,79.5083397 26.6022256,79.1876052 C26.6373554,78.9231829 26.6724853,78.6587605 26.7101244,78.3918898 C26.7628191,78.0172915 26.8180231,77.6402448 26.8757364,77.2680949 C26.8757364,77.2117827 26.8933013,77.1554705 26.9008292,77.1016067 C27.3157453,74.3733264 27.8811528,71.6688639 28.5945887,69 L49,69.0097934 Z" id="Path" fill="#4385EB" opacity="0.1"></path>
            <path d="M26.4584799,86 L49,86 L49,116.479566 L28.1036137,116.479566 C28.0496749,116.795744 27.9957361,117.10949 27.9368937,117.423236 L48.9975482,117.423236 L48.9975482,142 L48.8921224,141.961086 C48.2938919,141.717872 47.7030167,141.474658 47.1194969,141.216851 L46.7394734,141.046602 C46.1412429,140.769338 45.5503678,140.475049 44.9668479,140.163735 C44.7608997,140.056721 44.5549515,139.944843 44.3514551,139.8281 C41.0619443,138.008255 38.0722167,135.700249 35.4858757,132.984061 C35.409871,132.911097 35.3387699,132.833268 35.2676687,132.760304 C34.9097111,132.373594 34.5566571,131.979587 34.2134101,131.578284 L33.8333866,131.130771 C33.4312973,130.644343 33.039015,130.133594 32.6614433,129.622845 C32.6050528,129.547448 32.551114,129.472052 32.4947234,129.399088 C30.9475967,127.276463 29.6649971,124.975974 28.6748747,122.547752 C28.6430018,122.474788 28.6160324,122.394528 28.5866112,122.321564 C28.2776889,121.550575 28.0006396,120.769859 27.7603667,119.972117 C27.6598444,119.638914 27.559322,119.300847 27.4759621,118.965212 C27.4440891,118.863062 27.4195715,118.763344 27.3926021,118.666059 C26.1446541,113.784756 26,108.711314 26,103.664625 C26,103.076048 26,102.485038 26,101.898893 C26,99.86076 26.0245176,97.8104669 26.0588423,95.7601737 C26.0702839,95.2299674 26.0817255,94.6989504 26.093167,94.1671227 C26.12504,92.8148534 26.16672,91.460152 26.2255623,90.1078827 C26.2402729,89.7333333 26.2574352,89.3563518 26.2770494,88.9842345 C26.2770494,88.7677742 26.2966635,88.5513138 26.3113741,88.3348534 C26.3579576,87.5541368 26.4045411,86.7734202 26.4584799,86 Z" id="Path" fill="#4385EB" opacity="0.1"></path>
            <polygon id="Path" fill="#4385EB" opacity="0.1" points="70 58.3583196 70 86 54 86 54 58.3583196 56.2797628 58.3583196 56.2797628 49 65.6464632 49 65.6464632 58.3583196"></polygon>
            <rect id="Rectangle" fill="#4385EB" opacity="0.1" x="54" y="87" width="16" height="30"></rect>
            <path d="M54,117 L70,117 L70,142.461051 C68.1129488,143.032224 66.1903126,143.463207 64.2462028,143.750837 L63.7671055,143.814349 L63.0727615,143.890075 L62.3784175,143.948702 L62.3066686,143.948702 C62.2048315,143.948702 62.1006799,143.963358 61.9965283,143.965801 L61.8900622,143.965801 C61.7627658,143.965801 61.6377839,143.980458 61.512802,143.982901 L61.5012296,143.982901 C61.3230146,143.982901 61.1447997,143.997557 60.9619557,144 L60.7305077,144 C60.5522928,144 60.3740778,144 60.1912339,144 L59.7977723,144 C59.6889918,144 59.5825257,144 59.4760596,144 L59.0710256,143.982901 C58.855779,143.982901 58.6359034,143.958473 58.4160278,143.943816 L58.0133083,143.91206 L57.5110661,143.863205 C57.1592652,143.829006 56.8167221,143.787479 56.4602922,143.73618 L56.0413713,143.675111 C55.9719369,143.675111 55.9025025,143.655569 55.8353826,143.643355 C55.4858961,143.587171 55.1410386,143.526102 54.7915521,143.455261 C54.5323304,143.406406 54.2754231,143.350222 54.0162014,143.294038 L54,117 Z" id="Path" fill="#4385EB" opacity="0.1"></path>
            <rect id="Rectangle" fill="#4385EB" opacity="0.1" x="162" y="55" width="14" height="30"></rect>
            <polygon id="Path" fill="#4385EB" opacity="0.1" points="176 87 176 117 108 117 108 104.062156 144.220683 104.062156 144.220683 111.69321 162.298579 111.69321 162.298579 87"></polygon>
            <path d="M177,150.042775 L176.781261,150.042775 L176.781261,170 C174.297358,169.789634 171.823177,169.504023 169.358718,169.143165 C158.255928,167.521292 147.432114,164.368932 137.196795,159.776231 C134.243008,158.446073 131.348362,156.996168 128.512857,155.426517 C123.775431,152.805414 119.236243,149.841876 114.931596,146.559606 C113.849243,145.734326 112.782282,144.888818 111.730715,144.023082 C111.001585,143.421113 110.272455,142.809434 109.543325,142.209892 C109.035365,141.799679 108.522543,141.391894 108,140.996245 L108,117.419922 L162.743079,117.419922 L162.628848,117 C162.670166,117.140783 162.709052,117.279139 162.745509,117.419922 L176.781261,117.419922 L176.781261,150.028212 L177,150.042775 Z" id="Path" fill="#4385EB" opacity="0.1"></path>
            <path d="M212,52 L203,52 L203,49.2356272 L207.03231,49.2356272 L207.03231,41 C207.38126,41.1269599 207.73021,41.2563153 208.076737,41.3904617 L208.076737,49.2356272 L211.997577,49.2356272 L212,52 Z" id="Path" fill="#4385EB" opacity="0.1"></path>
            <polygon id="Path" fill="#4385EB" opacity="0.1" points="233 85.9874839 189.140783 85.9874839 189.155212 86 189.135973 85.9874839 181 85.9874839 181 54.3842828 183.301545 54.3842828 183.301545 77.7418645 193.83526 77.7418645 193.83526 63.9215657 202.541208 63.9215657 202.541208 53 211.470817 53 211.470817 63.9215657 220.171954 63.9215657 220.171954 77.7418645 232.997595 77.7418645"></polygon>
            <path d="M181,85 L181,115.646373 L233.642683,115.646373 L233.642683,85 L181,85 Z M247.92696,151.713876 L248,127.456952 L233.635379,127.456952 L233.635379,116.587796 L181,116.587796 L181,169.894342 C185.315545,170.075763 189.637688,170.023522 193.947636,169.737846 L194.023111,169.737846 C196.077982,169.605802 198.127173,169.416702 200.170682,169.170547 L200.216941,169.170547 C211.099487,167.893789 221.739722,165.036439 231.804499,160.687959 L247.92696,151.713876 Z" id="Shape" fill="#4385EB" fill-rule="nonzero" opacity="0.1"></path>
            <path d="M254.910767,117 L267,117 C266.894543,123.15081 265.669801,129.190446 262.987832,134.770885 C260.761246,139.406348 257.662242,143.471441 254,147 L254,127.740353 L254.910767,127.740353 L254.910767,117 Z" id="Path" fill="#4385EB" opacity="0.1"></path>
            <path d="M267,116 L255,116 L255,91 L261.493362,91 C264.852982,98.8790338 266.990489,107.529024 267,116 Z" id="Path" fill="#4385EB" opacity="0.1"></path>
            <rect id="Rectangle" fill="#4385EB" opacity="0.1" x="168" y="63" width="8" height="10"></rect>
            <rect id="Rectangle" fill="#4385EB" opacity="0.1" x="168" y="84" width="8" height="2"></rect>
            <rect id="Rectangle" fill="#4385EB" opacity="0.1" x="168" y="86" width="8" height="7"></rect>
            <rect id="Rectangle" fill="#4385EB" opacity="0.1" x="168" y="103" width="8" height="10"></rect>
            <rect id="Rectangle" fill="#4385EB" opacity="0.1" x="168" y="122" width="8" height="10"></rect>
            <polygon id="Path" fill="#4385EB" opacity="0.1" points="176.770992 150.663551 177 150.678707 176.770992 150.678707 176.770992 153 169 153 169 143 176.770992 143"></polygon>
            <path d="M176,162 L176,170 C173.322855,169.773198 170.656189,169.465271 168,169.076219 L168,162 L176,162 Z" id="Path" fill="#4385EB" opacity="0.1"></path>
            <rect id="Rectangle" fill="#4385EB" opacity="0.1" x="108" y="116" width="31" height="1"></rect>
            <rect id="Rectangle" fill="#4385EB" opacity="0.1" x="108" y="118" width="31" height="2"></rect>
            <rect id="Rectangle" fill="#4385EB" opacity="0.1" x="108" y="129" width="31" height="4"></rect>
            <path d="M139,142 L139,146 L114.338738,146 C113.266335,145.240648 112.209183,144.462684 111.167282,143.666108 C110.444855,143.112228 109.722427,142.549414 109,142 L139,142 Z" id="Path" fill="#4385EB" opacity="0.1"></path>
            <path d="M139,156 L139,160 L136.446809,160 C133.572104,158.777468 130.756501,157.444135 128,156 L139,156 Z" id="Path" fill="#4385EB" opacity="0.1"></path>
            <rect id="Rectangle" fill="#4385EB" opacity="0.1" x="194" y="89" width="7" height="7"></rect>
            <rect id="Rectangle" fill="#4385EB" opacity="0.1" x="58" y="59" width="7" height="7"></rect>
            <rect id="Rectangle" fill="#4385EB" opacity="0.1" x="58" y="75" width="7" height="7"></rect>
            <rect id="Rectangle" fill="#4385EB" opacity="0.1" x="58" y="89" width="7" height="7"></rect>
            <rect id="Rectangle" fill="#4385EB" opacity="0.1" x="58" y="104" width="7" height="7"></rect>
            <rect id="Rectangle" fill="#4385EB" opacity="0.1" x="58" y="118" width="7" height="7"></rect>
            <rect id="Rectangle" fill="#4385EB" opacity="0.1" x="58" y="132" width="7" height="7"></rect>
            <rect id="Rectangle" fill="#4385EB" opacity="0.1" x="218" y="89" width="7" height="7"></rect>
            <rect id="Rectangle" fill="#4385EB" opacity="0.1" x="194" y="104" width="7" height="7"></rect>
            <rect id="Rectangle" fill="#4385EB" opacity="0.1" x="218" y="104" width="7" height="7"></rect>
            <rect id="Rectangle" fill="#4385EB" opacity="0.1" x="194" y="120" width="7" height="7"></rect>
            <rect id="Rectangle" fill="#4385EB" opacity="0.1" x="218" y="120" width="7" height="7"></rect>
            <rect id="Rectangle" fill="#4385EB" opacity="0.1" x="194" y="135" width="7" height="7"></rect>
            <rect id="Rectangle" fill="#4385EB" opacity="0.1" x="218" y="135" width="7" height="7"></rect>
            <rect id="Rectangle" fill="#4385EB" opacity="0.1" x="194" y="150" width="7" height="7"></rect>
            <rect id="Rectangle" fill="#4385EB" opacity="0.1" x="218" y="150" width="7" height="7"></rect>
            <polygon id="Path" fill="#4385EB" opacity="0.1" points="194 170 194 166 201 166 201 169.431668"></polygon>
            <path d="M27,78 L27,81 L49,81 L49,78 L27,78 Z M29.1907678,80.8127544 L27.3867529,80.8127544 L27.3867529,78.1892809 L29.1907678,78.1892809 L29.1907678,80.8127544 Z M31.3815357,80.8127544 L29.5775207,80.8127544 L29.5775207,78.1892809 L31.3815357,78.1892809 L31.3815357,80.8127544 Z M33.5673131,80.8127544 L31.7632982,80.8127544 L31.7632982,78.1892809 L33.5673131,78.1892809 L33.5673131,80.8127544 Z M35.758081,80.8127544 L33.954066,80.8127544 L33.954066,78.1892809 L35.758081,78.1892809 L35.758081,80.8127544 Z M37.9463536,80.8127544 L36.1423387,80.8127544 L36.1423387,78.1892809 L37.9463536,78.1892809 L37.9463536,80.8127544 Z M40.1371215,80.8127544 L38.3331065,80.8127544 L38.3331065,78.1892809 L40.1371215,78.1892809 L40.1371215,80.8127544 Z M42.3278893,80.8127544 L40.5238743,80.8127544 L40.5238743,78.1892809 L42.3278893,78.1892809 L42.3278893,80.8127544 Z M44.516162,80.8127544 L42.7071566,80.8127544 L42.7071566,78.1892809 L44.5111716,78.1892809 L44.516162,80.8127544 Z M46.7044346,80.8127544 L44.9004196,80.8127544 L44.9004196,78.1892809 L46.6994443,78.1892809 L46.7044346,80.8127544 Z M48.8927073,80.8127544 L47.0886923,80.8127544 L47.0886923,78.1892809 L48.8927073,78.1892809 L48.8927073,80.8127544 Z" id="Shape" fill="#4385EB" fill-rule="nonzero" opacity="0.1"></path>
            <path d="M27,88 L27,91 L49,91 L49,88 L27,88 Z M29.1907678,90.8107191 L27.3867529,90.8107191 L27.3867529,88.1892809 L29.1907678,88.1892809 L29.1907678,90.8107191 Z M31.3815357,90.8107191 L29.5775207,90.8107191 L29.5775207,88.1892809 L31.3815357,88.1892809 L31.3815357,90.8107191 Z M33.5673131,90.8107191 L31.7632982,90.8107191 L31.7632982,88.1892809 L33.5673131,88.1892809 L33.5673131,90.8107191 Z M35.758081,90.8107191 L33.954066,90.8107191 L33.954066,88.1892809 L35.758081,88.1892809 L35.758081,90.8107191 Z M37.9463536,90.8107191 L36.1423387,90.8107191 L36.1423387,88.1892809 L37.9463536,88.1892809 L37.9463536,90.8107191 Z M40.1371215,90.8107191 L38.3331065,90.8107191 L38.3331065,88.1892809 L40.1371215,88.1892809 L40.1371215,90.8107191 Z M42.3278893,90.8107191 L40.5238743,90.8107191 L40.5238743,88.1892809 L42.3278893,88.1892809 L42.3278893,90.8107191 Z M44.516162,90.8107191 L42.7071566,90.8107191 L42.7071566,88.1892809 L44.5111716,88.1892809 L44.516162,90.8107191 Z M46.7044346,90.8107191 L44.9004196,90.8107191 L44.9004196,88.1892809 L46.6994443,88.1892809 L46.7044346,90.8107191 Z M48.8927073,90.8107191 L47.0886923,90.8107191 L47.0886923,88.1892809 L48.8927073,88.1892809 L48.8927073,90.8107191 Z" id="Shape" fill="#4385EB" fill-rule="nonzero" opacity="0.1"></path>
            <path d="M27,99 L27,102 L49,102 L49,99 L27,99 Z M29.1907678,101.810591 L27.3867529,101.810591 L27.3867529,99.1873727 L29.1907678,99.1873727 L29.1907678,101.810591 Z M31.3815357,101.810591 L29.5775207,101.810591 L29.5775207,99.1873727 L31.3815357,99.1873727 L31.3815357,101.810591 Z M33.5673131,101.810591 L31.7632982,101.810591 L31.7632982,99.1873727 L33.5673131,99.1873727 L33.5673131,101.810591 Z M35.758081,101.810591 L33.954066,101.810591 L33.954066,99.1873727 L35.758081,99.1873727 L35.758081,101.810591 Z M37.9463536,101.810591 L36.1423387,101.810591 L36.1423387,99.1873727 L37.9463536,99.1873727 L37.9463536,101.810591 Z M40.1371215,101.810591 L38.3331065,101.810591 L38.3331065,99.1873727 L40.1371215,99.1873727 L40.1371215,101.810591 Z M42.3278893,101.810591 L40.5238743,101.810591 L40.5238743,99.1873727 L42.3278893,99.1873727 L42.3278893,101.810591 Z M44.516162,101.810591 L42.7071566,101.810591 L42.7071566,99.1873727 L44.5111716,99.1873727 L44.516162,101.810591 Z M46.7044346,101.810591 L44.9004196,101.810591 L44.9004196,99.1873727 L46.6994443,99.1873727 L46.7044346,101.810591 Z M48.8927073,101.810591 L47.0886923,101.810591 L47.0886923,99.1873727 L48.8927073,99.1873727 L48.8927073,101.810591 Z" id="Shape" fill="#4385EB" fill-rule="nonzero" opacity="0.1"></path>
            <path d="M27,109 L27,112 L49,112 L49,109 L27,109 Z M29.1907678,111.812627 L27.3867529,111.812627 L27.3867529,109.187373 L29.1907678,109.187373 L29.1907678,111.812627 Z M31.3815357,111.812627 L29.5775207,111.812627 L29.5775207,109.187373 L31.3815357,109.187373 L31.3815357,111.812627 Z M33.5673131,111.812627 L31.7632982,111.812627 L31.7632982,109.187373 L33.5673131,109.187373 L33.5673131,111.812627 Z M35.758081,111.812627 L33.954066,111.812627 L33.954066,109.187373 L35.758081,109.187373 L35.758081,111.812627 Z M37.9463536,111.812627 L36.1423387,111.812627 L36.1423387,109.187373 L37.9463536,109.187373 L37.9463536,111.812627 Z M40.1371215,111.812627 L38.3331065,111.812627 L38.3331065,109.187373 L40.1371215,109.187373 L40.1371215,111.812627 Z M42.3278893,111.812627 L40.5238743,111.812627 L40.5238743,109.187373 L42.3278893,109.187373 L42.3278893,111.812627 Z M44.516162,111.812627 L42.7071566,111.812627 L42.7071566,109.187373 L44.5111716,109.187373 L44.516162,111.812627 Z M46.7044346,111.812627 L44.9004196,111.812627 L44.9004196,109.187373 L46.6994443,109.187373 L46.7044346,111.812627 Z M48.8927073,111.812627 L47.0886923,111.812627 L47.0886923,109.187373 L48.8927073,109.187373 L48.8927073,111.812627 Z" id="Shape" fill="#4385EB" fill-rule="nonzero" opacity="0.1"></path>
            <path d="M27,119 C27.0876793,119.283096 27.1878843,119.564155 27.2930995,119.843177 L27.2930995,119.189409 L29.1043043,119.189409 L29.1043043,121.812627 L28.1448417,121.812627 C28.1723981,121.873727 28.2024596,121.9389 28.2325211,122 L49,122 L49,119 L27,119 Z M31.3038032,121.812627 L29.4925985,121.812627 L29.4925985,119.189409 L31.3038032,119.189409 L31.3038032,121.812627 Z M33.498292,121.812627 L31.6870872,121.812627 L31.6870872,119.189409 L33.498292,119.189409 L33.498292,121.812627 Z M35.6977909,121.812627 L33.8865862,121.812627 L33.8865862,119.189409 L35.6977909,119.189409 L35.6977909,121.812627 Z M37.8947848,121.812627 L36.0835801,121.812627 L36.0835801,119.189409 L37.8947848,119.189409 L37.8947848,121.812627 Z M40.0942838,121.812627 L38.283079,121.812627 L38.283079,119.189409 L40.0942838,119.189409 L40.0942838,121.812627 Z M42.2937827,121.812627 L40.482578,121.812627 L40.482578,119.189409 L42.2937827,119.189409 L42.2937827,121.812627 Z M44.4907766,121.812627 L42.6745616,121.812627 L42.6745616,119.189409 L44.4857663,119.189409 L44.4907766,121.812627 Z M46.6877704,121.812627 L44.8765657,121.812627 L44.8765657,119.189409 L46.6827602,119.189409 L46.6877704,121.812627 Z M48.8847643,121.812627 L47.0735596,121.812627 L47.0735596,119.189409 L48.8847643,119.189409 L48.8847643,121.812627 Z" id="Shape" fill="#4385EB" fill-rule="nonzero" opacity="0.1"></path>
            <path d="M33,130 C33.0546643,130.058903 33.1069519,130.1239 33.1616162,130.186865 L34.3000594,130.186865 L34.3000594,131.444144 L34.6684492,131.819905 L34.6684492,130.19499 L36.3868093,130.19499 L36.3868093,132.813135 L35.6904337,132.813135 C35.7593583,132.874069 35.8259061,132.939066 35.9019608,133 L49,133 L49,130 L33,130 Z M38.466429,132.80501 L36.7480689,132.80501 L36.7480689,130.186865 L38.466429,130.186865 L38.466429,132.80501 Z M40.5531788,132.80501 L38.8348188,132.80501 L38.8348188,130.186865 L40.5531788,130.186865 L40.5531788,132.80501 Z M42.6399287,132.80501 L40.9215686,132.80501 L40.9215686,130.186865 L42.6399287,130.186865 L42.6399287,132.80501 Z M44.7243018,132.80501 L43.0059418,132.80501 L43.0059418,130.186865 L44.7243018,130.186865 L44.7243018,132.80501 Z M46.808675,132.80501 L45.0903149,132.80501 L45.0903149,130.186865 L46.808675,130.186865 L46.808675,132.80501 Z M48.8930481,132.80501 L47.1746881,132.80501 L47.1746881,130.186865 L48.8930481,130.186865 L48.8930481,132.80501 Z" id="Shape" fill="#4385EB" fill-rule="nonzero" opacity="0.1"></path>
            <path d="M45,140 C45.175383,140.105381 45.352879,140.20852 45.5324881,140.307175 L45.5324881,140.206278 L47.0559958,140.206278 L47.0559958,141.121076 L47.3814052,141.280269 L47.3814052,140.206278 L48.9091389,140.206278 L48.9091389,141.964126 C48.9385667,141.978404 48.9689338,141.990394 49,142 L49,140 L45,140 Z" id="Path" fill="#4385EB" opacity="0.1"></path>
            <path d="M175.782481,150 L176,150 L175.782481,150 Z M161.708979,116.932142 C161.750066,117.073167 161.786319,117.214192 161.824989,117.352785 C161.791153,117.202034 161.752483,117.06101 161.708979,116.919985 L161.708979,116.932142 Z M57,52 L57,52.9409751 L66.7883705,52.9409751 L66.7883705,52 L57,52 Z M175.782481,150 L176,150 L175.782481,150 Z M161.708979,116.932142 C161.750066,117.073167 161.786319,117.214192 161.824989,117.352785 C161.791153,117.202034 161.752483,117.06101 161.708979,116.919985 L161.708979,116.932142 Z M175.782481,150 L176,150 L175.782481,150 Z M161.708979,116.932142 C161.750066,117.073167 161.786319,117.214192 161.824989,117.352785 C161.791153,117.202034 161.752483,117.06101 161.708979,116.919985 L161.708979,116.932142 Z" id="Shape" fill="#4385EB" fill-rule="nonzero" opacity="0.1"></path>
            <circle id="Oval" fill="#4385EB" opacity="0.1" cx="224.5" cy="37.5" r="5.5"></circle>
            <circle id="Oval" fill="#4385EB" opacity="0.1" cx="247.5" cy="50.5" r="4.5"></circle>
            <circle id="Oval" fill="#4385EB" opacity="0.1" cx="259.5" cy="30.5" r="1.5"></circle>
            <ellipse id="Oval" fill="#4385EB" opacity="0.1" cx="207.5" cy="201" rx="22.5" ry="5"></ellipse>
            <path d="M219,193.556548 C219,193.556548 203.608685,197.679299 203.452562,197.679299 C203.366094,197.679299 200.447797,197.918854 197.150001,197.981139 C194.368612,198.038632 191.318211,197.981139 189.463951,197.57629 C185.433578,196.687539 190.72014,193.764962 193.391042,192.615095 C196.061944,191.465229 209.24352,192.198268 210.718281,192.198268 C212.193042,192.198268 214.592531,190.475864 213.756673,186.559131 C212.920815,182.642399 213.965637,172.930818 213.965637,172.930818 L217.369116,171 L217.445977,172.070813 L219,193.556548 Z" id="Path" fill="#A1A5CF"></path>
            <path d="M219,193.557221 C219,193.557221 203.503023,197.696919 203.345828,197.696919 C203.258767,197.696919 200.320435,197.93746 197,198 C199.021765,197.598298 201.732769,196.994542 202.344619,196.556758 C203.345828,195.82311 210.620314,193.778518 210.620314,193.778518 C210.620314,193.778518 217.735187,194.144139 216.363966,189.951522 C214.992745,185.758905 215.88029,172.392081 215.88029,172.392081 L217.435308,172 L219,193.557221 Z" id="Path" fill="#000000" opacity="0.1"></path>
            <path d="M216.716528,172.79193 C216.716528,172.79193 215.816289,186.376948 217.201832,190.634793 C218.587376,194.892638 211.436419,194.52356 211.436419,194.52356 C211.436419,194.52356 204.137445,196.601153 203.132865,197.346643 C202.472851,197.835488 199.379037,198.507651 197.328627,198.913393 C195.817147,199.200903 194.586858,200.305711 194.130473,201.785361 C193.836864,202.763052 193.955764,203.701635 195.360719,203.79696 C198.481225,204.009608 198.481225,204.437348 198.481225,204.437348 C198.481225,204.437348 197.845476,206.727589 201.126132,205.659462 C204.406788,204.591334 205.991306,204.11471 205.991306,204.11471 C205.991306,204.11471 203.717656,206.778918 205.093494,206.991566 C206.469331,207.204214 211.545612,203.325224 211.545612,203.325224 C211.545612,203.325224 214.823842,199.116264 221.27596,198.849843 C227.728079,198.583422 220.693596,190.964764 220.693596,190.964764 C220.693596,190.964764 219.900123,180.310375 220.113657,179.032044 C220.327191,177.753712 219.849166,172 219.849166,172 L216.716528,172.79193 Z" id="Path" fill="#A1A5CF"></path>
            <path d="M216,147.957107 C216,147.957107 207.981176,147.957107 205.236429,145.512462 C202.491683,143.067818 197.440284,137.513585 197.440284,137.513585 C197.440284,137.513585 182.879087,120.036819 178.657889,124.833212 C178.657889,124.833212 178.764387,127.177626 182.562013,128.135927 C186.359639,129.094228 186.572635,131.97402 186.572635,131.97402 C186.572635,131.97402 173.48789,130.262768 174.01554,133.785501 C174.01554,133.785501 174.860264,135.809667 179.824528,134.531118 C184.788792,133.252569 186.049826,134.743802 186.049826,134.743802 C186.049826,134.743802 185.943328,136.662848 183.411578,136.555284 C180.879827,136.447719 178.769228,138.046517 178.558652,139.432631 C178.348077,140.818744 184.149803,139.645315 184.149803,139.645315 C184.149803,139.645315 188.264503,139.112382 190.796254,141.669481 C193.328004,144.226579 196.917475,142.950475 196.917475,142.950475 C196.917475,142.950475 205.463948,151.795199 215.59095,150.942018 L216,147.957107 Z" id="Path" fill="#A1A5CF"></path>
            <g id="Group" opacity="0.1" transform="translate(174.000000, 125.000000)" fill="#000000">
                <path d="M12.0624,9.85833333 C12.1246841,9.7044139 12.1642995,9.5422195 12.18,9.37685185 C12.18,9.37685185 10.9248,7.90833333 6.0072,9.16740741 C1.6008,10.2940741 0.4728,8.81351852 0.2856,8.49333333 C0.236534483,8.6604523 0.225058535,8.83641178 0.252,9.00851852 C0.252,9.00851852 1.0896,11.0042593 6.012,9.74518519 C10.1064,8.70037037 11.6592,9.54777778 12.0624,9.85833333 Z" id="Path"></path>
                <path d="M8.7264,3.45462963 C11.4072,4.1262963 12.2856,5.75611111 12.5664,6.63962963 L12.7008,6.65648148 C12.7008,6.65648148 12.492,3.82296296 8.724,2.87685185 C6.024,2.20037037 5.2056,0.820925926 4.9584,0.0962962963 C4.9248,0.13 4.8864,0.163703704 4.8528,0.202222222 C4.8552,0.202222222 4.9608,2.51092593 8.7264,3.45462963 Z" id="Path"></path>
                <path d="M41.472,25.3355556 C31.4304,26.1757407 22.956,17.4705556 22.956,17.4705556 C22.956,17.4705556 19.3992,18.7296296 16.8864,16.2114815 C14.3736,13.6933333 10.2888,14.2109259 10.2888,14.2109259 C10.2888,14.2109259 5.472,15.1738889 4.8144,14.2951852 C4.78358862,14.3878353 4.76031245,14.4828376 4.7448,14.5792593 C4.536,15.9442593 10.2888,14.7887037 10.2888,14.7887037 C10.2888,14.7887037 14.3688,14.2638889 16.8792,16.782037 C19.3896,19.3001852 22.9488,18.0411111 22.9488,18.0411111 C22.9488,18.0411111 31.4232,26.7535185 41.4648,25.9133333 L41.8848,22.9738889 L41.8032,22.9738889 L41.472,25.3355556 Z" id="Path"></path>
            </g>
            <path d="M225.84243,156.200952 C226.175609,159.266066 225.979514,162.36558 225.262692,165.364381 C225.21903,165.54857 225.175368,165.74003 225.131706,165.936338 C224.727723,167.728164 224.451312,169.546337 224.304549,171.377199 C224.139602,173.679568 221.614469,174.106112 219.21062,173.980087 C217.753824,173.884054 216.309597,173.648702 214.897761,173.277259 C211.089443,160.38884 213.944469,161.021386 215.426559,152.14636 C216.520541,145.602785 214.730389,139.846863 213.728583,137.292445 C213.369582,136.386039 213.110035,135.877094 213.110035,135.877094 C213.110035,135.877094 219.242154,130.172066 218.184558,132.602883 C217.94199,133.140911 217.985652,134.025505 218.21124,135.133065 C218.999586,139.010739 222.131139,145.663374 224.105643,149.61133 C225.085618,151.588944 225.592585,153.997949 225.84243,156.200952 Z" id="Path" fill="#A1A5CF"></path>
            <path d="M215.197436,173 C211.596107,160.196626 214.297678,160.824998 215.697812,152.010942 C216.732993,145.510545 215.03906,139.792604 214.0911,137.252634 C213.751396,136.352209 213.505798,135.84903 213.505798,135.84903 C213.505798,135.84903 216.804148,132.618092 218,132.073985 C217.683248,131.375794 213.10412,135.84903 213.10412,135.84903 C213.10412,135.84903 213.349718,136.352209 213.689422,137.252634 C214.646563,139.792604 216.338201,145.500915 215.296134,152.010942 C213.893704,160.824998 211.192134,160.196626 214.795758,173 L215.197436,173 Z" id="Path" fill="#000000" opacity="0.1"></path>
            <path d="M217.905379,134.958989 C216.505176,135.828768 215.492362,136.481102 215.33834,136.659635 C215.104972,136.941169 214.372199,137.012125 213.595086,136.998391 C213.249703,136.142346 213,135.661679 213,135.661679 C213,135.661679 218.899523,130.273628 217.882042,132.569386 C217.653342,133.07752 217.697682,133.912966 217.905379,134.958989 Z" id="Path" fill="#000000" opacity="0.1"></path>
            <path d="M211.64396,136.744119 C211.64396,136.744119 215.352315,137.384568 215.986575,136.639007 C216.620835,135.893447 230.394725,127.594504 231.558749,127.474725 C232.722774,127.354946 234.418994,123.53181 234.418994,123.53181 C234.418994,123.53181 246.326556,103.054565 231.745868,92.8953869 C225.499442,88.5624752 217.468878,87.7893573 210.518817,90.8518179 C204.139766,93.6678364 197.45452,100.077212 198.035318,114.611974 C198.12697,116.626253 198.608202,118.603228 199.452075,120.432234 C200.020722,121.683798 200.577218,123.096696 200.523755,123.7347 C200.41683,125.022931 211.64396,136.744119 211.64396,136.744119 Z" id="Path" fill="#A1A5CF"></path>
            <path d="M218.353597,148.016524 L219.86073,163.463658 C219.86073,163.463658 216.525797,172.90371 218.785264,177.623736 C221.04473,182.343763 221.579997,185.562633 222.978597,184.917875 C224.377198,184.273116 221.688531,177.621276 221.688531,177.621276 C221.688531,177.621276 227.386531,184.809595 229.214331,184.056556 C231.042132,183.303518 229.954332,180.409487 226.747665,177.727095 C223.540997,175.044702 227.285398,175.689461 227.285398,175.689461 C227.285398,175.689461 234.705132,178.585952 233.945399,175.797741 C233.185665,173.00953 225.987931,171.715091 225.987931,171.715091 C225.987931,171.715091 223.836997,164.957431 222.978597,163.456275 C222.120197,161.95512 221.579997,150.152594 220.93373,148.973818 C220.287464,147.795042 218.353597,148.016524 218.353597,148.016524 Z" id="Path" fill="#000000" opacity="0.1"></path>
            <path d="M224,165.865418 C223.660005,167.673004 223.427376,169.507167 223.303859,171.354131 C223.165039,173.676749 221.037826,174.107045 219.01677,173.979912 C218.812623,169.209988 220.539707,163.36188 220.539707,163.36188 L219.29441,148.015487 C219.29441,148.015487 220.894923,147.800339 221.429789,148.973872 C221.964654,150.147405 222.407653,161.86807 223.120126,163.36188 C223.45937,164.172146 223.753308,165.008499 224,165.865418 Z" id="Path" fill="#000000" opacity="0.1"></path>
            <path d="M218.353604,148.016524 L219.860768,163.463658 C219.860768,163.463658 216.525767,172.90371 218.78528,177.623736 C221.044792,182.343763 221.58007,185.562633 222.978699,184.917875 C224.377327,184.273116 221.688606,177.621276 221.688606,177.621276 C221.688606,177.621276 227.386722,184.809595 229.21456,184.056556 C231.042397,183.303518 229.954575,180.409487 226.747843,177.727095 C223.54111,175.044702 227.285587,175.689461 227.285587,175.689461 C227.285587,175.689461 234.703006,178.585952 233.945723,175.797741 C233.188441,173.00953 225.988094,171.715091 225.988094,171.715091 C225.988094,171.715091 223.839583,164.957431 222.978699,163.456275 C222.117814,161.95512 221.58007,150.152594 220.936257,148.973818 C220.292444,147.795042 218.353604,148.016524 218.353604,148.016524 Z" id="Path" fill="#A1A5CF"></path>
            <path d="M189,134 C188.797146,134.418113 188.446744,134.768516 188,135" id="Path" fill="#000000" opacity="0.1"></path>
            <path d="M224,172 C224.458939,173.15739 225.142552,174.18281 226,175" id="Path" fill="#000000" opacity="0.1"></path>
            <path d="M221,175 C221.027447,175.409149 221.108296,175.811261 221.239845,176.192905 C221.375181,176.57872 221.65407,176.87483 222,177" id="Path" fill="#000000" opacity="0.1"></path>
            <path d="M218,107 C218,107 219.310112,105 220,105" id="Path" fill="#000000" opacity="0.2"></path>
            <path d="M218,109 C218,109 222.03975,104 223,104" id="Path" fill="#000000" opacity="0.2"></path>
            <path d="M211,103 C211,103 211.842196,103.067391 212,104" id="Path" fill="#000000" opacity="0.2"></path>
            <path d="M207,103 C207,103 209.920705,105.1149 210,106" id="Path" fill="#000000" opacity="0.2"></path>
            <path d="M215,115 C215,115 215.473413,115.767754 216,116" id="Path" fill="#000000" opacity="0.2"></path>
            <path d="M215,112 C215,112 216.258454,115 217,115" id="Path" fill="#000000" opacity="0.2"></path>
            <path d="M218,123 C218,123 221.165761,126.341758 225,125.971332" id="Path" fill="#000000" opacity="0.2"></path>
            <path d="M213,121 C213,121 210.894737,123 209,123" id="Path" fill="#000000" opacity="0.2"></path>
            <path d="M231,100 C231,100 235.130005,101.69754 234.996848,103" id="Path" fill="#000000" opacity="0.2"></path>
            <path d="M233,100 C233,100 235.614375,102.029851 236,103" id="Path" fill="#000000" opacity="0.2"></path>
            <path d="M200,102.190596 C200,102.190596 204.451161,101.489271 205,101.989177" id="Path" fill="#000000" opacity="0.2"></path>
            <path d="M201,99.9202003 C201,99.9202003 204.333692,99.6192859 205,100.162873" id="Path" fill="#000000" opacity="0.2"></path>
            <path d="M210.812779,136.94366 C210.812779,136.94366 199.336634,125.185732 199.445907,123.914406 C199.49806,123.275069 198.931827,121.859219 198.34821,120.60504 C197.486543,118.772081 196.995584,116.790959 196.902827,114.772618 C196.309276,100.207485 203.138836,93.7847172 209.660446,90.9628146 C213.223586,89.4236328 217.131603,88.8259327 221,89.2285203 C216.857075,88.6366162 212.628886,89.2000311 208.793713,90.8550336 C202.274587,93.6793858 195.442543,100.099704 196.036093,114.667286 C196.129446,116.685033 196.621267,118.665396 197.48396,120.497259 C198.065094,121.753887 198.63381,123.167288 198.579173,123.809075 C198.4699,125.090199 209.946046,136.835879 209.946046,136.835879 C209.946046,136.835879 210.48496,136.926513 211.187784,137 C210.956821,136.968156 210.812779,136.94366 210.812779,136.94366 Z" id="Path" fill="#000000" opacity="0.1"></path>
            <path d="M185.160845,123.085223 L185.160845,115.322019 L186.190249,115.322019 L186.190249,113 L178.81208,113 L178.81208,115.322019 L179.839155,115.322019 L179.839155,123.085223 C176.454642,124.405438 174.470786,128.022287 175.123715,131.682133 C175.776643,135.341979 178.879957,138 182.5,138 C186.120043,138 189.223357,135.341979 189.876285,131.682133 C190.529214,128.022287 188.545358,124.405438 185.160845,123.085223 Z" id="Path" fill="#96B7FE" opacity="0.9"></path>
            <rect id="Rectangle" fill="#000000" opacity="0.1" x="180" y="114.945812" width="5" height="1"></rect>
            <path d="M178,129.579989 C178,129.579989 182.865894,129.507126 185.300096,128.467756 C187.734298,127.428386 189.122044,128.356319 188.99155,128.98637 C188.861057,129.61642 188.165929,130.842234 185.385418,130.990103 C182.604907,131.137972 178,129.579989 178,129.579989 Z" id="Path" fill="#4385EB"></path>
            <path d="M178,129.579989 C178,129.579989 182.865894,129.507126 185.300096,128.467756 C187.734298,127.428386 189.122044,128.356319 188.99155,128.98637 C188.861057,129.61642 188.165929,130.842234 185.385418,130.990103 C182.604907,131.137972 178,129.579989 178,129.579989 Z" id="Path" fill="#000000" opacity="0.1"></path>
            <path d="M176.009138,129.055187 C176.009138,129.055187 175.490501,136.856942 182.26769,136.998151 C189.044878,137.139359 188.999996,129.147516 188.999996,129.147516 C188.999996,129.147516 186.506549,132.110173 180.58212,129.666184 C180.58212,129.666184 177.517673,128.772771 176.009138,129.055187 Z" id="Path" fill="#4385EB"></path>
            <path d="M188.975061,129.024207 C188.840411,130.626735 187.962695,135.642503 182.267514,135.535991 C176.684542,135.43432 176.053683,130.694516 176.003813,129.029049 C175.971397,129.922301 176.003813,135.882156 182.267514,135.998351 C189.044879,136.12423 189,129 189,129 L188.975061,129.024207 Z" id="Path" fill="#000000" opacity="0.1"></path>
            <circle id="Oval" fill="#4385EB" opacity="0.3" cx="182" cy="126" r="1"></circle>
            <circle id="Oval" fill="#4385EB" opacity="0.3" cx="182.5" cy="121.5" r="1"></circle>
            <circle id="Oval" fill="#4385EB" opacity="0.3" cx="181.5" cy="119.5" r="1"></circle>
            <path d="M177.019034,127.136042 C176.975481,127.455706 176.98274,127.857447 177.304547,128 C177.019034,127.894165 178.132049,126.457834 177.986873,126.166248 C177.640871,125.546358 177.055328,126.837976 177.019034,127.136042 Z" id="Path" fill="#FFFFFF" opacity="0.2"></path>
            <circle id="Oval" fill="#4385EB" opacity="0.3" cx="181" cy="109" r="1"></circle>
            <circle id="Oval" fill="#4385EB" opacity="0.3" cx="183.5" cy="107.5" r="1"></circle>
            <circle id="Oval" fill="#4385EB" opacity="0.3" cx="181.5" cy="106.5" r="1"></circle>
            <path d="M99.0473621,141.819851 C101.414991,142.961131 104.32351,143.488062 107.288578,143.65804 C107.271368,143.772168 107.251699,143.883867 107.23203,143.993139 C107.070993,144.910581 106.781375,145.801403 106.371521,146.639936 L106.54854,146.639936 C102.543486,152.598873 105.872426,165.186946 105.872426,165.186946 C105.872426,165.186946 106.742769,169.885619 108.232679,175.065086 C109.058767,177.932855 108.606386,179.545216 108.043367,180.407246 L108.043367,180.424244 C108.006488,180.480094 107.972068,180.538372 107.935189,180.59665 L107.935189,180.511661 C104.520198,184.486714 106.816527,186.504594 106.816527,186.504594 L108.719481,188.857573 L108.554755,192.95161 L109.796346,193.194435 L109.503773,189.828874 L110.666689,191.266401 L110.912549,194.639247 C110.912549,194.639247 116.62141,195.183176 120.410108,195.853374 C124.198805,196.523573 124.754448,194.709666 123.077685,194.168166 C121.400922,193.626665 119.726618,190.312097 119.726618,190.312097 C119.408989,190.201511 119.078619,190.130542 118.743179,190.100839 C118.712037,190.037704 118.680075,189.972142 118.647294,189.90415 C117.39341,187.296205 115.689602,182.490689 115.689602,182.490689 L115.689602,182.449408 C115.510125,180.460668 115.224927,178.479212 114.907768,176.505041 C114.337374,172.954933 115.382278,164.237498 115.382278,164.237498 C115.382278,164.237498 115.755984,153.635738 116.562404,151.224481 C116.927252,149.999406 117.170165,148.742085 117.28769,147.4704 C117.309817,147.285852 117.327027,147.103733 117.344238,146.928899 C123.798054,146.977464 131.358238,146.805058 134.812566,145.862895 C135.806531,145.596795 136.816583,145.393222 137.83664,145.253403 C137.807137,145.428237 137.772716,145.612785 137.735837,145.809473 C137.428403,147.354451 137.032757,148.881023 136.550794,150.381877 C135.060884,155.08055 135.680451,162.972378 137.728462,168.635067 C139.225747,172.7631 138.802868,178.348086 138.466041,181.058019 C138.453748,181.169718 138.438996,181.27899 138.424244,181.380976 L138.384907,181.346981 C138.377025,181.975956 138.104453,182.573316 137.632576,182.995766 C136.573911,183.847242 136.050986,185.188776 136.258221,186.521592 C136.491719,187.806662 137.248952,188.940784 138.352945,189.658897 L138.352945,194.959777 L139.533072,194.959777 L139.533072,189.712318 C143.380775,188.809008 147.973433,195.736818 147.973433,195.736818 C147.973433,195.736818 154.555096,196.037922 159.705856,195.916509 C164.856616,195.795096 161.382619,193.568387 161.382619,193.568387 C155.595083,193.748078 152.986512,190.503929 152.986512,190.503929 L152.917671,190.972582 L152.870958,190.931302 C150.704934,188.925564 147.953765,183.9355 147.953765,183.9355 C147.953765,183.9355 147.766911,181.405259 147.08588,180.200845 C146.404849,178.99643 146.667919,166.337939 146.667919,166.337939 L146.61383,145.712343 L146.61383,145.168414 C147.843128,145.263116 148.718388,145.326251 149.03063,145.192697 C150.014069,144.772609 149.215025,138.20418 148.34714,136.577249 C147.80379,135.562238 145.738569,128.777695 144.263411,123.81677 C144.649255,124.406693 145.07993,124.966804 145.551716,125.492266 C144.617449,124.278139 139.533072,100.134002 139.533072,100.134002 L139.358511,96.9772713 C140.136136,95.9536617 140.795833,94.8476453 141.325388,93.6797014 C143.331603,93.456302 148.332389,92.5918433 151.068807,89.4156862 C151.703124,88.6872097 151.838347,88.155422 151.634284,87.7960403 L167.020181,84.6587352 L170,82.1867719 L160.787639,83.8671242 C162.607,80.5039914 160.377053,79.2825793 158.198737,78.85035 L158.719959,77.2525584 C158.795349,77.0242006 158.755106,76.7739766 158.611781,76.5799318 L158.594571,76.5605058 L158.56015,76.5167972 C158.540888,76.4953859 158.520364,76.4751153 158.498685,76.4560908 L158.456889,76.419667 C158.431651,76.4004824 158.405388,76.3826495 158.378214,76.3662454 L158.336418,76.3419629 C158.292688,76.3196255 158.247516,76.3001573 158.201195,76.2836847 C157.785338,76.1541705 157.341137,76.3778523 157.203005,76.7863335 L156.595732,78.6463766 L156.33512,78.631807 L145.025576,78.1461561 C145.025576,78.1461561 143.225884,75.4969302 142.542394,76.2788282 C141.858904,77.0607262 140.865631,76.1598438 140.865631,76.1598438 C140.865631,76.1598438 140.865631,70.4971538 139.375721,70.737551 C138.834034,70.8264967 138.28002,70.6775086 137.858767,70.3296042 L137.824347,69.7128275 C137.824347,69.7128275 137.578487,66.8207762 137.332628,64.3512412 C137.106437,62.0953925 132.907154,59.0892132 132.169575,58.581708 L127.387605,51.98414 C127.378534,51.9965299 127.37032,52.00951 127.363019,52.022992 L127.20321,51.8020209 L127.225337,51.6636103 C127.247465,51.5494824 127.264675,51.4377827 127.286802,51.3236547 C128.200892,51.6074576 129.153538,51.7515799 130.11173,51.7510275 C135.203483,51.7510275 139.329008,47.7468355 139.329008,42.8053372 C139.330859,41.6620371 139.106184,40.5294266 138.667646,39.4713435 C138.650435,39.4276349 138.630767,39.3863546 138.613556,39.342646 C139.120819,39.439545 139.645726,39.3871956 140.123135,39.1920942 C140.232073,39.1443211 140.332519,39.0795495 140.420625,39.0002621 C141.701554,37.8007043 138.721735,34.8212358 138.183302,33.7528037 C137.738296,32.8737755 137.517022,31.8903323 136.985966,31.0598692 C136.707503,30.632544 136.362306,30.2514485 135.963189,29.9307308 C135.992693,29.9744394 136.024654,30.018148 136.054157,30.0642848 C136.083661,30.1104216 136.073826,30.1007086 136.086119,30.1177064 C135.294588,29.4505962 134.374677,28.9484116 133.381663,28.6413275 C129.728188,27.4272002 122.008195,25.6448612 119.70449,28.6558971 C119.24965,29.2483912 118.873485,29.9307308 118.244084,30.3556754 C117.767116,30.6737767 117.186887,30.8073307 116.663206,31.047728 C115.188048,31.7179262 114.253782,33.1773073 113.74977,34.69011 C113.245757,36.2029127 113.1007,37.77885 112.734369,39.3037939 C112.267236,41.2731085 111.441147,43.1404364 110.622435,44.9980512 C109.653748,47.1834804 108.626054,49.4587551 106.762438,51.0079816 C104.217791,53.1229914 103.642479,56.1073164 101.292061,58.4262997 C98.4917193,61.1799405 98.5876046,65.7110638 100.025884,69.326735 C100.215195,69.812386 100.429093,70.2980369 100.355335,70.7982574 C100.281578,71.2984778 99.8955779,71.7695593 99.5292471,72.1605083 L98,73.836004 C99.9465538,74.2654155 101.983916,74.0076591 103.758033,73.1075276 C104.122816,72.928428 104.475168,72.7256283 104.812771,72.5004639 L104.798019,72.920552 C104.682465,76.562934 104.751306,79.4161333 104.751306,79.4161333 C106.676387,82.4878755 101.648557,107.188082 101.648557,107.188082 C100.473348,111.940177 99.0473621,141.819851 99.0473621,141.819851 Z M139.877275,86.4337894 C139.680587,86.4216481 139.476524,86.4119351 139.267543,86.4046503 L139.267543,86.3463722 L139.877275,86.4337894 Z M145.136213,87.0384248 L144.681373,87.4876519 C143.720061,87.6430602 143.05624,87.783899 143.05624,87.783899 L142.104764,87.9951572 C141.984292,87.3808087 141.807273,86.9315816 141.627796,86.7591755 C141.546985,86.6958462 141.452928,86.6510567 141.352433,86.6280498 C142.589107,86.7810298 143.884787,86.9170121 145.136213,87.0384248 Z" id="Shape" fill="url(#linearGradient-1)" fill-rule="nonzero"></path>
            <polygon id="Path" fill="#1D2366" points="109.700405 189.493506 110 193 109 192.802198 109.149798 189"></polygon>
            <path d="M136.906534,168.467272 C138.340865,172.588582 137.927299,178.130532 137.606966,180.831202 C137.487438,181.827589 137.367911,182.436089 137.367911,182.436089 C137.367911,182.436089 139.4955,187.352569 139.672401,187.527119 C139.849302,187.701668 145.938034,191.483577 145.938034,191.483577 L150.193214,194 C150.193214,194 154.508157,192.082379 152.43794,191.422969 C152.015215,191.251081 151.634911,190.987068 151.323944,190.649617 C149.260899,188.654418 146.645637,183.689452 146.645637,183.689452 C146.645637,183.689452 146.468736,181.173028 145.820897,179.975424 C145.173058,178.77782 145.404941,166.18843 145.404941,166.18843 L145.35474,145.66673 L145.35474,143 L137.255555,143.060608 C137.203921,143.969022 137.087274,144.872432 136.906534,145.763702 C136.615524,147.300912 136.238806,148.820154 135.778194,150.314113 C134.365379,154.980891 134.955845,162.833199 136.906534,168.467272 Z" id="Path" fill="#FFB0B1"></path>
            <path d="M137,182.588517 C137,182.588517 139.177664,187.440191 139.358728,187.61244 C139.539792,187.784689 145.771826,191.516746 145.771826,191.516746 L150.127154,194 C150.127154,194 154.543652,192.107656 152.424712,191.456938 C151.992038,191.287315 151.602783,191.026783 151.284497,190.69378 L151.096092,191.988038 L149.642685,191.930622 L137.232447,181 C137.110107,181.988038 137,182.588517 137,182.588517 Z" id="Path" fill="#000000" opacity="0.1"></path>
            <path d="M138.074826,182 L150.239341,192.741331 L151.653764,192.799708 L151.949529,190.777536 C151.949529,190.777536 154.425366,193.894857 159.911324,193.722061 C159.911324,193.722061 163.212439,195.858652 158.318011,195.973071 C153.423582,196.087489 147.17436,195.800275 147.17436,195.800275 C147.17436,195.800275 142.809446,189.161666 139.152936,190.027977 L139.152936,195.050717 L138.031892,195.050717 L138.031892,189.967266 C136.977846,189.272031 136.259344,188.185722 136.042636,186.959693 C135.845607,185.687703 136.340078,184.407151 137.34734,183.580844 C137.802332,183.174792 138.065619,182.602665 138.074826,182 Z" id="Path" fill="#1D2366"></path>
            <path d="M107.607229,175.340479 C108.420759,178.212677 107.97679,179.831952 107.418729,180.701428 C107.417914,180.707098 107.417914,180.712853 107.418729,180.718524 C106.702043,181.790308 106.203385,182.988859 105.950407,184.247714 L105.900802,184.518814 L111.662475,192.791039 L114.780178,194 C114.780178,194 119.807691,192.309897 118.88751,191.826312 C118.659325,191.706637 118.299685,191.081397 117.895401,190.211922 C116.655264,187.59617 114.968679,182.770094 114.968679,182.770094 L114.968679,182.731017 C114.792579,180.73562 114.509828,178.749993 114.194834,176.771693 C113.631812,173.213196 114.666085,164.474482 114.666085,164.474482 C114.666085,164.474482 115.033166,153.847836 115.831814,151.429914 C116.19043,150.201301 116.429613,148.941897 116.546132,147.668702 C116.714791,146.149563 116.751995,144.908851 116.751995,144.908851 C116.751995,144.908851 113.440831,140.380742 107.369123,145.27276 C106.884914,145.66459 106.45836,146.120788 106.101704,146.628262 C101.910043,152.502104 105.283214,165.434324 105.283214,165.434324 C105.283214,165.434324 106.133947,170.148052 107.607229,175.340479 Z" id="Path" fill="#FFB0B1"></path>
            <path d="M106,184.784149 L111.713714,192.824872 L114.815304,194 C114.815304,194 119.800968,192.357195 118.888446,191.887144 C118.66216,191.770818 118.305514,191.163075 117.904595,190.317933 C115.791776,190.298941 114.70708,192.240869 114.70708,192.240869 L112.031006,191.830168 C112.031006,191.830168 108.5039,185.137874 107.71436,184.729547 C106.92482,184.32122 107.591379,181.674215 107.591379,181.674215 L107.591379,181 L107.527428,181.075968 C107.526621,181.08148 107.526621,181.087074 107.527428,181.092586 C106.816709,182.134376 106.322202,183.299385 106.071329,184.523009 L106,184.784149 Z" id="Path" fill="#000000" opacity="0.1"></path>
            <path d="M115.676689,192.177774 C115.676689,192.177774 117.14977,189.490287 119.967216,190.483026 C119.967216,190.483026 121.559478,193.697611 123.149357,194.222345 C124.739235,194.747079 124.212454,196.503282 120.615562,195.860365 C117.01867,195.217448 111.610223,194.702169 111.610223,194.702169 L111.37186,191.430856 L107.717761,186.814617 C107.717761,186.814617 105.536743,184.855138 108.778475,181 L108.778475,181.671281 C108.778475,181.671281 108.130129,184.299677 108.895273,184.710955 C109.660417,185.122233 113.08092,191.780678 113.08092,191.780678 L115.676689,192.177774 Z" id="Path" fill="#1D2366"></path>
            <path d="M137.371501,143.058047 C137.316542,144.046734 137.192381,145.029973 137,146 C140.562341,145.459103 143.839695,145.736148 146,145.902375 L146,143 L137.371501,143.058047 Z" id="Path" fill="#000000" opacity="0.1"></path>
            <path d="M106,146.757267 C106,146.757267 110.928378,146.96652 116.793719,147 C116.96272,145.698448 117,144.635445 117,144.635445 C117,144.635445 113.682106,140.7559 107.598057,144.947231 C107.112864,145.282939 106.685443,145.673795 106.328061,146.108584 C106.232824,146.329682 106.123307,146.546232 106,146.757267 Z" id="Path" fill="#000000" opacity="0.1"></path>
            <path d="M106,146.716088 C106,146.716088 126.72519,147.721836 133.042098,145.947408 C139.359006,144.17298 145.618597,145.707944 146.564342,145.293671 C147.510087,144.879399 146.741072,138.425844 145.914739,136.828619 C145.088406,135.231394 140.541188,119.067575 140.541188,119.067575 L136.170699,96.2107365 L131.566163,94.9367881 L131.241362,94.8457918 L123.216858,92.6259605 L117.336999,91 C117.336999,91 105.658481,136.768753 106.649603,140.142801 C107.013666,141.435765 107.071728,142.796084 106.819168,144.115509 C106.666012,145.015852 106.390386,145.890871 106,146.716088 Z" id="Path" fill="#1D2366"></path>
            <path d="M152.608571,80 C152.608571,80 157.154119,84.9334608 153.711477,87.6982211 C150.268835,90.4629815 148,87.9643194 148,87.9643194 L152.608571,80 Z" id="Path" fill="#C7DAF5"></path>
            <path d="M152.608571,80 C152.608571,80 157.154119,84.9334608 153.711477,87.6982211 C150.268835,90.4629815 148,87.9643194 148,87.9643194 L152.608571,80 Z" id="Path" fill="#000000" opacity="0.1"></path>
            <path d="M118,50.0765853 C118,50.0765853 118.485306,50.5343771 119.235104,51.2162963 C120.293071,52.1867198 121.858183,53.6006291 123.246158,54.7927955 C125.170396,56.4379851 126.75492,57.6539948 126.189539,56.6144257 C125.624157,55.5748566 125.728498,53.7889914 126.012402,52.1080368 C126.031815,51.9959731 126.0488,51.8862938 126.070639,51.7742302 C126.305111,50.5408825 126.615467,49.3226378 127,48.126201 C127,48.126201 123.894042,44.1801303 122.173632,42.623161 C121.533028,42.0413838 121.086546,41.7934132 121.059854,42.2011341 C121.02831,42.751915 120.606093,43.9607717 120.089242,45.267386 L120.040712,45.388987 C119.688865,46.2664215 119.298194,47.1820053 118.9512,47.9688351 C118.41979,49.1776918 118,50.0765853 118,50.0765853 Z" id="Path" fill="#FFB0B1"></path>
            <path d="M120,45.352408 C120.598245,48.4617824 122.900378,51.0094295 126.006971,52 C126.245641,50.6666735 126.57741,49.3505007 127,48.0605115 C127,48.0605115 121.117463,40.7123039 121.027187,42.1984582 C121.002788,42.7575354 120.544092,44.0077922 120,45.352408 Z" id="Path" fill="#000000" opacity="0.1"></path>
            <path d="M127.952948,54.0532506 L127.209649,53 C127.209649,53 126.716498,56.0253965 124.905896,54.6914389 C123.095295,53.3574814 123,64.7297092 123,64.7297092 L124.944014,94 L139,93.1554801 L138.602144,79.0001756 L137.010721,71.884136 L133.079809,61.5171748 L130.737939,58.0911112 L127.952948,54.0532506 Z" id="Path" fill="#000000" opacity="0.1"></path>
            <path d="M123,64.7410072 L124.758975,91.1966427 L124.944883,94 L132.781618,93.5203837 L133.091464,93.501199 L139,93.146283 L138.601966,78.9976019 L137.009832,71.8848921 L133.077164,61.5227818 L130.734247,58.1007194 L127.950395,54.0527578 L127.206763,53 C127.206763,53 126.713392,56.0239808 124.901981,54.6786571 L124.863846,54.6522782 C123.088187,53.5347722 123,64.7410072 123,64.7410072 Z" id="Path" fill="#1D2366"></path>
            <path d="M135.462709,70 C135.462709,70 136.190613,71.4943579 137.622157,71.2549704 C139.053702,71.015583 139.060981,76.6375605 139.060981,76.6375605 C139.060981,76.6375605 140.03152,77.5322407 140.681781,76.7560451 C141.332042,75.9798495 143.081438,78.6082751 143.081438,78.6082751 L154,79.0918861 C154,79.0918861 149.147306,81.3044062 150.10086,88 C150.10086,88 133.6017,86.984417 133.065478,85.4296077 C132.529255,83.8747985 135.462709,70 135.462709,70 Z" id="Path" fill="#FFFFFF"></path>
            <path d="M135.462709,70 C135.462709,70 136.190613,71.4943579 137.622157,71.2549704 C139.053702,71.015583 139.060981,76.6375605 139.060981,76.6375605 C139.060981,76.6375605 140.03152,77.5322407 140.681781,76.7560451 C141.332042,75.9798495 143.081438,78.6082751 143.081438,78.6082751 L154,79.0918861 C154,79.0918861 149.147306,81.3044062 150.10086,88 C150.10086,88 133.6017,86.984417 133.065478,85.4296077 C132.529255,83.8747985 135.462709,70 135.462709,70 Z" id="Path" fill="#000000" opacity="0.03"></path>
            <polygon id="Path" fill="#FFFFFF" points="168 82 165.073952 84.6457926 141 90 143.987675 86.7749511"></polygon>
            <path d="M126.787816,54.8602698 C127.182211,55.454834 128.311836,58.5695675 129.256437,61.2781378 C130.042793,63.5365031 130.702553,65.5085967 130.702553,65.5085967 C130.702553,65.5085967 132.236312,75.5403386 133.017799,77.3631795 C133.799285,79.1860204 133.380545,86.257175 133.380545,86.257175 L136.301991,103.73932 C136.301991,103.73932 137.623945,112.755654 139.668957,118.13854 C141.684754,123.438236 143.929398,125.92415 144,126 C143.096786,124.776617 138.157109,100.536503 138.157109,100.536503 L136.533272,69.9861791 C136.533272,69.9861791 136.289818,67.0818675 136.046364,64.6032932 C135.80291,62.124719 130.933834,58.7310541 130.933834,58.7310541 L126.225437,52 C125.750702,52.6630737 126.067192,53.7714588 126.787816,54.8602698 Z" id="Path" fill="#FFFFFF"></path>
            <path d="M139.351077,95 C139.351077,95 146.095086,94.6832627 149.380507,90.4532875 C152.665928,86.2233123 141.813364,88.7469932 141.813364,88.7469932 L139,89.4417717 L139.351077,95 Z" id="Path" fill="#FFB0B1"></path>
            <path d="M107.059741,140.067928 C107.424151,141.376331 107.482268,142.752892 107.229468,144.08807 C114.656803,144.623604 122.60288,142.585666 122.60288,142.585666 C124.080219,143.964485 127.981542,146 127.981542,146 L130.109101,119.279022 C131.466915,115.68537 132,96.81324 132,96.81324 C132,96.81324 131.878084,95.8245614 131.689233,94.34639 C131.689233,94.3100415 131.689233,94.2712698 131.67489,94.2349214 C131.144195,90.1033111 130.094758,82.3441227 129.578407,81.2972865 C128.861252,79.8603101 131.763339,76.0267573 131.763339,76.0267573 L130.446164,64.6375676 L130.286,63.2660184 C127.508219,62.0059378 125.38066,57.9906427 125.38066,57.9906427 L123.747937,55.0827645 C121.969393,53.9268829 121.880944,65.2603382 121.880944,65.2603382 L123.645145,91.9934319 L117.759693,90.3480575 C117.759693,90.3480575 106.067677,136.653595 107.059741,140.067928 Z" id="Path" fill="#000000" opacity="0.1"></path>
            <path d="M100,141.276729 C108.29286,145.359455 123.372347,141.577893 123.372347,141.577893 C124.885928,142.957423 128.88296,145 128.88296,145 L131.062713,118.218191 C132.453837,114.616357 133,95.7012639 133,95.7012639 C133,95.7012639 131.243951,81.5902354 130.51655,80.1572739 C130.305923,79.7371004 130.408787,79.1104833 130.658602,78.43772 C131.896583,75.230495 132.352279,71.77843 131.988496,68.3632714 L131.408045,63.452342 L131.243951,62.0752416 C128.398026,60.8147212 126.218272,56.790285 126.218272,56.790285 L124.699792,54.1550929 L121.907748,49.297596 L120.585201,47 L120.362327,47.2015861 L118.647915,48.7438414 C118.647915,48.7438414 117.913166,49.336456 116.830637,50.2520942 C114.45495,52.2388104 110.350156,55.7313507 108.23408,57.8686493 C106.372718,59.7533581 105.784919,67.0760347 105.613478,72.5892937 C105.500816,76.2227014 105.569393,79.0691945 105.569393,79.0691945 C107.4479,82.1318463 102.542229,106.756927 102.542229,106.756927 C101.391124,111.492986 100,141.276729 100,141.276729 Z" id="Path" fill="#FFFFFF"></path>
            <path d="M115.270395,58.4195552 C115.270395,58.4195552 121.01275,69.1020817 120.340667,73.1602348 C119.668584,77.2183878 117.77341,81.8148919 118.690111,82.8891798 C119.32523,83.7162594 120.32016,84.2049771 121.378442,84.2097091 C122.295143,84.2700624 124.738856,85.9406405 124.738856,86.1192862 C124.738856,86.2979318 126.999722,86.2979318 129.015971,87.1332209 C131.032219,87.96851 134.02447,88.4465078 134.02447,88.4465078 C134.02447,88.4465078 139.828596,88.2678621 140.377134,88.8062132 C140.925673,89.3445643 141.476682,92.5650141 140.315362,95.1312346 C139.154043,97.6974551 137.871649,99.6094463 136.895647,99.9594952 C135.919644,100.309544 129.747355,98.288917 124.738856,97.8109192 C119.730356,97.3329214 114.291922,93.453414 114.291922,93.453414 C114.291922,93.453414 108.304949,91.3651913 107.267175,87.8429752 C106.2294,84.3207591 108.549568,64.9835754 108.549568,64.9835754 C108.549568,64.9835754 110.321198,55.9788694 115.270395,58.4195552 Z" id="Path" fill="#000000" opacity="0.03"></path>
            <path d="M115.26032,56.4217798 C115.26032,56.4217798 121.002541,67.1048504 120.332945,71.1632101 C119.663349,75.2215698 117.765747,79.818308 118.682427,80.8926507 C119.320646,81.7190722 120.318541,82.205253 121.378108,82.2060044 C122.294788,82.2663608 124.738444,83.937024 124.738444,84.1156787 C124.738444,84.2943335 126.996788,84.2943335 129.012989,85.1320794 C131.029191,85.9698252 134.023843,86.4454331 134.023843,86.4454331 C134.023843,86.4454331 139.825364,86.2643641 140.376361,86.8027426 C140.927357,87.3411211 141.475882,90.5617349 140.31459,93.1305003 C139.153297,95.6992658 137.870934,97.6065259 136.894954,97.9590068 C135.918974,98.3114878 129.746827,96.2883436 124.738444,95.8103214 C119.730061,95.3322993 114.291753,91.4525943 114.291753,91.4525943 C114.291753,91.4525943 108.304919,89.3642653 107.267168,85.8418698 C106.229418,82.3194743 108.549532,62.9813059 108.549532,62.9813059 C108.549532,62.9813059 110.313708,53.973727 115.26032,56.4217798 Z" id="Path" fill="#000000" opacity="0.03"></path>
            <path d="M115.270641,56.4214967 C115.270641,56.4214967 121.01284,67.1070543 120.340776,71.1654416 C119.668711,75.223829 117.776059,79.8205984 118.690264,80.8949484 C119.326908,81.7193472 120.321568,82.2052936 121.378522,82.2083112 C122.295199,82.2662536 124.738845,83.9369282 124.738845,84.1179985 C124.738845,84.2990687 126.999651,84.2966544 129.015844,85.1319917 C131.032038,85.967329 134.024208,86.4453544 134.024208,86.4453544 C134.024208,86.4453544 139.828177,86.2666985 140.3767,86.8026664 C140.925224,87.3386342 141.476218,90.5640985 140.317401,93.1304672 C139.158583,95.6968359 137.873754,97.6065232 136.895307,97.9590065 C135.91686,98.3114899 129.747209,96.2883319 124.738845,95.8103065 C119.730482,95.3322811 114.292195,91.4646211 114.292195,91.4646211 C114.292195,91.4646211 108.307855,89.3738636 107.267637,85.8538584 C106.22742,82.3338532 108.554937,62.9883102 108.554937,62.9883102 C108.554937,62.9883102 110.32899,53.9734272 115.270641,56.4214967 Z" id="Path" fill="#FFFFFF"></path>
            <path d="M115.119953,86.2214296 C115.119953,86.2214296 119.084824,85.4775449 117.710478,86.7166844 C116.336132,87.9558239 116.336132,89.0465875 114.645451,88.9984655 C112.95477,88.9503436 115.119953,86.2214296 115.119953,86.2214296 Z" id="Path" fill="#000000" opacity="0.1"></path>
            <path d="M107.573809,118 C107.573809,118 109.2053,119.29624 106.084103,122.280554 C102.962905,125.264868 107.573809,118 107.573809,118 Z" id="Path" fill="#000000" opacity="0.1"></path>
            <path d="M111.908293,129 C111.908293,129.192412 112.658423,136.069852 109.867938,137.806763 C107.077454,139.543674 111.908293,129 111.908293,129 Z" id="Path" fill="#000000" opacity="0.1"></path>
            <path d="M154.568456,79 C156.883964,79.0790427 161.859735,79.790427 159.274084,84.7385003 C156.989449,89.106927 153.15085,86.1876165 151,83.971786 C151.525716,81.9085846 152.802529,80.1296525 154.568456,79 Z" id="Path" fill="#FFB0B1"></path>
            <g id="Group"></g>
            <path d="M151.044945,83.0461079 L150.955055,82.9538921 L151.044945,83.0461079 Z" id="Path" fill="#FFB0B1"></path>
            <path d="M116,51.1631478 C118.238399,52.6986564 120.116678,53.997933 120.472091,54.2648752 C121.477135,55.0090063 123.397781,59.3911118 124.619368,61.6235051 C125.603228,63.4235937 128.794889,63.8866086 130,64 L129.8423,62.660564 C127.11197,61.4345194 125.017149,57.5177912 125.017149,57.5177912 L119.603564,48 L117.741762,49.6937841 C117.741762,49.6937841 117.042703,50.2749151 116,51.1631478 Z" id="Path" fill="#000000" opacity="0.1"></path>
            <path d="M116,51.1631478 C118.238399,52.6986564 120.116678,53.997933 120.472091,54.2648752 C121.477135,55.0090063 123.397781,59.3887494 124.619368,61.6235051 C125.603228,63.4235937 128.794889,63.8866086 130,64 L129.8423,62.660564 C127.107263,61.4345194 125.012441,57.5201536 125.012441,57.5201536 L119.598857,48 L117.737054,49.6961465 C117.737054,49.6961465 117.042703,50.2725528 116,51.1631478 Z" id="Path" fill="#DCE7FF"></path>
            <path d="M121.000072,43.4976019 C120.999135,46.9356748 123.069461,50.0357335 126.245559,51.3520758 C129.421658,52.6684182 133.07797,51.9417798 135.509387,49.5110262 C137.940804,47.0802725 138.668439,43.4241603 137.352961,40.2477054 C136.037483,37.0712505 132.937987,35.0000816 129.499912,35.0000815 C127.242996,34.9901852 125.075626,35.8822044 123.479513,37.4778816 C121.8834,39.0735589 120.99079,41.2406851 121.000072,43.4976019 Z" id="Path" fill="#FFB0B1"></path>
            <path d="M105,74 C106.228848,73.2475699 107.228808,72.1774387 107.892976,70.9040116 C108.399614,69.9093067 108.734925,68.7638153 109.606245,68.0560913 C110.382111,67.4261927 111.4321,67.2729741 112.393978,66.9884252 C115.575762,66.0520894 118.253356,63.1603924 118.356152,59.8576805 C118.402655,58.3060382 117.915597,56.7543959 118.135875,55.2173459 C118.262138,54.3454944 118.611914,53.5205565 119.151598,52.8217853 C119.417599,52.4873081 119.709763,52.1742232 120.025365,51.8854494 C120.451235,51.4865947 120.894237,51.1023322 121.280946,50.6694288 C121.526823,50.4083931 121.741962,50.1203647 121.922198,49.8109183 C122.065609,49.5568777 122.182083,49.2887258 122.269747,49.0107767 C122.862049,47.1697216 122.323593,44.9833165 122.98932,43.1179409 L123.026033,43.0157952 C123.270785,42.35428 123.789661,41.6927648 124.494549,41.6392599 C125.199436,41.585755 125.818661,42.1743089 126.499073,42.4394014 C127.918638,42.9866107 129.453237,42.0551389 130.63784,41.1017788 C131.822443,40.1484186 133.16124,39.0612962 134.666469,39.2753158 C135.662612,39.4163742 136.450716,40.0900496 137.358748,40.4402636 C137.567275,40.5179197 137.781706,40.5789144 138,40.6226667 C136.268388,36.3102257 131.500056,34.0356847 127.030712,35.3902098 C122.561369,36.7447349 119.88215,41.2764077 120.867314,45.8150746 L120.818364,45.9391087 C120.463473,46.8340999 120.069421,47.7680037 119.719424,48.5705773 L118.006156,50.1149234 C118.006156,50.1149234 117.271898,50.7083415 116.190091,51.625221 C113.815991,53.6146307 109.713936,57.111906 107.599273,59.2521022 C105.758733,61.1466623 105.171327,68.4792665 105,74 Z" id="Path" fill="#000000" opacity="0.1"></path>
            <path d="M137.540711,34.770133 C137.11358,33.8910565 136.901222,32.9097052 136.38963,32.0768959 C135.639135,30.8593384 134.328784,30.0971474 132.987063,29.6417809 C129.475903,28.4242235 122.05541,26.6465896 119.840122,29.6563916 C119.403338,30.2505597 119.043776,30.9299567 118.438071,31.3463614 C117.979569,31.6653614 117.422127,31.7992928 116.917775,32.037934 C115.503658,32.7075906 114.601133,34.1662245 114.1185,35.6662553 C113.635866,37.1662861 113.495902,38.7515459 113.153232,40.2929736 C112.70197,42.2605465 111.91045,44.1282797 111.121344,45.9838373 C110.192275,48.1754407 109.205289,50.4425327 107.412305,51.9912658 C104.965352,54.1049456 104.41515,57.0903965 102.154011,59.4037557 C99.4633283,62.1578707 99.5502024,66.6944898 100.947427,70.2960248 C101.128414,70.7708722 101.335947,71.2700707 101.263552,71.7570937 C101.191157,72.2441167 100.821942,72.7311397 100.46962,73.118323 L99,74.793682 C102.477376,75.641102 106.415666,73.8074605 108.032489,70.5882386 C108.534428,69.5947117 108.862619,68.4477725 109.721707,67.7391541 C110.486681,67.1060242 111.519517,66.9550471 112.470306,66.6701386 C115.607424,65.7326194 118.24743,62.8348326 118.34637,59.5303816 C118.394634,57.9767783 117.914413,56.423175 118.131598,54.8841823 C118.25632,54.0117235 118.60025,53.1859941 119.13065,52.4855941 C119.95354,51.4044031 121.196322,50.6641282 121.862357,49.4782272 C122.996546,47.461952 122.135045,44.8515088 122.953109,42.6745161 C123.194426,42.0121648 123.706017,41.3473784 124.40101,41.296241 C125.096002,41.2451036 125.706534,41.8344014 126.374981,42.0973938 C127.774619,42.6452947 129.290089,41.7126457 130.455649,40.7580806 C131.621209,39.8035155 132.943626,38.7150192 134.430137,38.9293093 C135.412297,39.0705459 136.189337,39.7450728 137.084622,40.0957293 C137.755483,40.3562866 139.114097,40.5827523 139.700497,40.0178057 C140.92156,38.8148589 138.047477,35.8367133 137.540711,34.770133 Z" id="Path" fill="#591D4B"></path>
            <path d="M107.13732,69.7249737 C107.636853,68.752607 107.967462,67.6352175 108.826562,66.9433869 C109.591547,66.3252565 110.624398,66.1778562 111.5752,65.8996975 C114.712363,64.984389 117.352407,62.1552537 117.451348,58.9290885 C117.499612,57.4122916 117.016972,55.8931173 117.236573,54.3929624 C117.359723,53.5407436 117.703819,52.7341986 118.235639,52.0511991 C119.058541,50.9932452 120.301341,50.2728855 120.967385,49.1127023 C122.10159,47.1465722 121.240077,44.5955956 122.055739,42.4725554 C122.29706,41.8235185 122.811072,41.176859 123.503661,41.1269331 C124.19625,41.0770072 124.809204,41.6499665 125.477661,41.9067283 C126.877318,42.4440263 128.390397,41.5334727 129.558387,40.6015222 C130.726377,39.6695718 132.046399,38.606863 133.532932,38.8136989 C134.515105,38.9515896 135.292157,39.6101362 136.187455,39.9548627 C136.858325,40.2068697 138.214545,40.4303477 138.803367,39.8787852 C140.0341,38.7090922 137.169628,35.8015019 136.653203,34.76019 C136.226066,33.8995623 136.013704,32.9414601 135.502105,32.1307584 C135.473147,32.0855873 135.441775,32.0427936 135.412817,32 C135.797896,32.3134511 136.130202,32.6849614 136.397403,33.1007476 C136.906589,33.9114494 137.121364,34.8695515 137.546088,35.7301792 C138.064927,36.7714912 140.924572,39.6790815 139.696252,40.8487744 C139.109843,41.4050918 137.765689,41.176859 137.082753,40.9224746 C136.177802,40.5801254 135.393511,39.9215788 134.42823,39.7836882 C132.941697,39.5768522 131.619262,40.639561 130.453685,41.5715115 C129.288108,42.5034619 127.772617,43.4140155 126.372959,42.8767176 C125.702089,42.6199557 125.11568,42.044619 124.398959,42.0945449 C123.682238,42.1444708 123.192358,42.7935077 122.951038,43.4425446 C122.135375,45.5560751 122.994475,48.1165614 121.862683,50.0826916 C121.194226,51.2428748 119.95384,51.9632344 119.130938,53.0211884 C118.599386,53.7045904 118.25458,54.5108516 118.129458,55.3629516 C117.91227,56.8631066 118.394911,58.3822809 118.346647,59.8990778 C118.245292,63.125243 115.612488,65.9543783 112.470498,66.8696867 C111.519696,67.145468 110.486845,67.2952457 109.72186,67.9133761 C108.865173,68.6052067 108.534564,69.7225963 108.032618,70.6949629 C106.413359,73.8379183 102.482252,75.6257416 99,74.7983978 L99.6925892,74.0281122 C102.711506,74.0875478 105.761794,72.3948215 107.13732,69.7249737 Z" id="Path" fill="#000000" opacity="0.1"></path>
            <path d="M126.797306,55.7768987 C127.193926,56.3512658 128.339444,59.375 129.295273,62 C130.187052,61.6677215 131,59.5316456 131,59.5316456 L126.23317,53 C125.745401,53.6455696 126.065653,54.7207278 126.797306,55.7768987 Z" id="Path" fill="#000000" opacity="0.1"></path>
            <path d="M126.795308,55.7745253 C127.194581,56.3512658 128.338179,59.3726266 129.294463,62 C130.18913,61.6677215 131,59.5292722 131,59.5292722 L126.233368,53 C125.745367,53.6431962 126.065772,54.7183544 126.795308,55.7745253 Z" id="Path" fill="#DCE7FF"></path>
            <path d="M154.424695,86.6807277 L156.96406,78.0608019 C157.025041,77.8557403 157.007926,77.6329525 156.916485,77.4415043 C156.825044,77.2500561 156.666777,77.1056496 156.47654,77.0400884 C156.286379,76.9729032 156.079178,76.9906945 155.901275,77.0894836 C155.723372,77.1882727 155.589609,77.3598179 155.529899,77.5657558 L153,86.1958888 L153.253227,88 L154.424695,86.6807277 Z" id="Path" fill="#BE8B87"></path>
            <path d="M156.848411,77.2828359 C156.652274,77.2154679 156.438492,77.2329276 156.254755,77.3313199 C156.071019,77.4297123 155.932613,77.6008514 155.870416,77.806559 L153.246944,86.4364948 L153.444988,87.7930655 L153.254279,88 L153,86.1963485 L155.621027,77.5664128 C155.682715,77.3602357 155.820909,77.1884913 156.004704,77.0895875 C156.188499,76.9906837 156.402563,76.9728717 156.599022,77.0401349 C156.761687,77.0940752 156.902683,77.2027726 157,77.3492593 C156.952176,77.320903 156.901287,77.2986046 156.848411,77.2828359 Z" id="Path" fill="#FFFFFF" opacity="0.1"></path>
            <polygon id="Path" fill="#EFC8C4" points="154 86.5403112 153 86 153.145937 87.6407355 153.177446 88 153.46932 87.4823197"></polygon>
            <path d="M153.236874,86.1828089 C153.209973,86.1246067 153.177924,86.0754668 153.142125,86.0375305 C153.098971,85.9874898 153.044368,85.9874898 153.001215,86.0375305 C152.981423,86.0839605 152.964321,86.1341806 152.950196,86.1873488 C152.910877,86.3161212 152.841735,86.4033771 152.763126,86.4234263 L152.809286,87 L153.236874,86.1828089 Z" id="Path" fill="#727A9C"></path>
            <path d="M157,81 C157,81 152.001626,80.9730219 153.179764,82.8691699 C154.357903,84.7653179 156.200632,85 156.200632,85 L157,81 Z" id="Path" fill="#FFB0B1"></path>
            <path d="M47.956789,166 C47.956789,166 49.7579908,168.245487 47.1256594,171.634176 C44.4933281,175.022864 42.325823,177.891697 43.1948461,180 C43.1948461,180 47.1711316,173.703971 50.4047056,173.617329 C53.6382796,173.530686 51.5162466,169.7858 47.956789,166 Z" id="Path" fill="#4385EB"></path>
            <path d="M47.9118882,166 C48.071063,166.216337 48.1966387,166.452981 48.2848137,166.702768 C51.4751145,170.23586 53.1762677,173.533093 50.1085725,173.617329 C47.2503287,173.694344 43.8224795,178.507822 43,179.723225 C43.0280971,179.817088 43.0613028,179.910951 43.0970628,180 C43.0970628,180 47.1175059,173.703971 50.3869895,173.617329 C53.6564731,173.530686 51.5108745,169.7858 47.9118882,166 Z" id="Path" fill="#000000" opacity="0.1"></path>
            <path d="M51.1992175,168.523937 C51.1992175,169.339002 51.1093267,170 51,170 C50.8906733,170 50.8007825,169.339002 50.8007825,168.523937 C50.8007825,167.708872 50.9125387,168.091555 51.0218653,168.091555 C51.131192,168.091555 51.1992175,167.703902 51.1992175,168.523937 Z" id="Path" fill="#FFD037"></path>
            <path d="M52.5167504,169.504713 C51.740232,169.856343 51.0634747,170.069113 51.0041574,169.979525 C50.94484,169.889938 51.5272287,169.531589 52.3064433,169.179958 C53.085658,168.828328 52.7755899,169.083652 52.8456922,169.179958 C52.9157946,169.276265 53.295965,169.153082 52.5167504,169.504713 Z" id="Path" fill="#FFD037"></path>
            <path d="M39.0455254,166 C39.0455254,166 37.2446073,168.245487 39.8765241,171.634176 C42.5084409,175.022864 44.6756046,177.891697 43.8041926,180 C43.8041926,180 39.8310591,173.703971 36.5954685,173.617329 C33.3598779,173.530686 35.4866283,169.7858 39.0455254,166 Z" id="Path" fill="#4385EB"></path>
            <path d="M39.0903585,166 C38.9312566,166.216337 38.8057383,166.452981 38.7176036,166.702768 C35.5287621,170.23586 33.828387,173.533093 36.894679,173.617329 C39.7516155,173.694344 43.1778967,178.507822 44,179.723225 C43.9721918,179.817127 43.9389516,179.909523 43.9004285,180 C43.9004285,180 39.8869306,173.703971 36.6138363,173.617329 C33.3407419,173.530686 35.4930185,169.7858 39.0903585,166 Z" id="Path" fill="#000000" opacity="0.1"></path>
            <path d="M35.8007825,168.523937 C35.8007825,169.339002 35.8906733,170 36,170 C36.1093267,170 36.1992175,169.339002 36.1992175,168.523937 C36.1992175,167.708872 36.0874613,168.091555 35.9781347,168.091555 C35.868808,168.091555 35.8007825,167.703902 35.8007825,168.523937 Z" id="Path" fill="#FFD037"></path>
            <path d="M34.4832496,169.504713 C35.259768,169.856343 35.9365253,170.069113 35.9958426,169.979525 C36.05516,169.889938 35.4727713,169.531589 34.6935567,169.179958 C33.914342,168.828328 34.2244101,169.083652 34.1543078,169.179958 C34.0842054,169.276265 33.704035,169.153082 34.4832496,169.504713 Z" id="Path" fill="#FFD037"></path>
            <ellipse id="Oval" fill="#4385EB" opacity="0.1" cx="43" cy="194.5" rx="18" ry="2.5"></ellipse>
            <path d="M51.9962611,177.015528 L51.9119102,177.693323 L51.7947562,178.65295 L51.7455515,179.051242 L51.6283975,180.01087 L51.5791928,180.411491 L51.4620388,181.368789 L50.12414,192.26941 C50.0046429,193.243012 48.4043191,194 46.4759641,194 L39.524045,194 C37.5933469,194 36.0094247,193.243012 35.8782122,192.26941 L34.5379703,181.368789 L34.4208163,180.411491 L34.3716116,180.01087 L34.2521145,179.051242 L34.2052529,178.65295 L34.0880989,177.693323 L34.003748,177.015528 C33.9357987,176.463509 34.8003953,176 35.8946138,176 L50.1077384,176 C51.1972707,176.002329 52.0642104,176.465839 51.9962611,177.015528 Z" id="Path" fill="#65617D"></path>
            <polygon id="Path" fill="#9D9CB5" points="52 178 51.8817035 179 34.1182965 179 34 178"></polygon>
            <polygon id="Path" fill="#9D9CB5" points="52 179 51.8794535 180 34.1229574 180 34 179"></polygon>
            <polygon id="Path" fill="#9D9CB5" points="52 180 51.8839274 181 35.1160726 181 35 180"></polygon>
        </g>
    </g>
</svg>