<?xml version="1.0" encoding="UTF-8"?>
<svg width="290px" height="220px" viewBox="0 0 290 220" version="1.1" xmlns="http://www.w3.org/2000/svg" xmlns:xlink="http://www.w3.org/1999/xlink">
    <!-- Generator: Sketch 52.2 (67145) - http://www.bohemiancoding.com/sketch -->
    <title>img/database</title>
    <desc>Created with Sketch.</desc>
    <defs>
        <linearGradient x1="50.0011621%" y1="100.00118%" x2="50.0011621%" y2="-0.0158321861%" id="linearGradient-1">
            <stop stop-color="#808080" stop-opacity="0.25" offset="0%"></stop>
            <stop stop-color="#808080" stop-opacity="0.12" offset="54%"></stop>
            <stop stop-color="#808080" stop-opacity="0.1" offset="100%"></stop>
        </linearGradient>
    </defs>
    <g id="img/database" stroke="none" stroke-width="1" fill="none" fill-rule="evenodd">
        <g id="undraw_server_status_5pbv" transform="translate(9.000000, 9.000000)">
            <path d="M90.1295738,127.088241 C99.1546393,123.500642 113.321743,122.769012 126.216909,123.056438 C166.722417,123.952685 203.285436,132.672144 234.910651,142.536082 C246.36067,146.108004 257.632307,149.956899 265.064866,154.874497 C280.193678,164.88476 275.705705,178.751759 254.669624,186.998272 C247.511101,189.804595 238.835042,191.962903 229.926313,193.859914 C214.083975,197.251541 197.000723,199.971636 179.022979,200.755526 C166.205369,201.306861 153.227475,200.857431 140.484837,200.086607 C104.878356,197.925686 69.9311102,193.177931 40.6377797,185.017645 C27.7891474,181.445724 15.6798932,177.003686 10.3904964,171.221197 C5.10109972,165.438709 8.48259088,158.117185 21.6026732,154.694202 C27.0316727,153.280589 33.5154493,152.640413 39.8673788,152.042044 C49.215599,151.158862 58.713763,150.286132 67.1493942,148.491026 C75.8642312,146.635822 86.1819156,143.048223 84.4575619,138.943257 C82.5987758,134.537801 81.1148493,130.670614 90.1295738,127.088241 Z" id="Path" fill="#6C63FF" opacity="0.1"></path>
            <path d="M131.961561,9.31580123 L131,66.1942571 C131,66.1942571 165.807998,66.1942571 195.422054,76 L196,18.524449 C196,18.524449 148.499903,6.96345241 131.961561,9.31580123 Z" id="Path" fill="#000000" opacity="0.1"></path>
            <path d="M131.961561,7.31580123 L131,64.1942571 C131,64.1942571 165.807998,64.1942571 195.422054,74 L196,16.524449 C196,16.524449 148.499903,4.96345241 131.961561,7.31580123 Z" id="Path" fill="#F5F5FB"></path>
            <path d="M115.038439,9.3154327 L116,66.194203 C116,66.194203 81.1920016,66.194203 51.577946,76 L51,18.5395735 C51,18.5395735 98.5000971,6.96307088 115.038439,9.3154327 Z" id="Path" fill="#000000" opacity="0.1"></path>
            <path d="M116.038439,7.3154327 L117,64.194203 C117,64.194203 82.1920016,64.194203 52.577946,74 L52,16.5395735 C52,16.5395735 99.5000971,4.96307088 116.038439,7.3154327 Z" id="Path" fill="#F5F5FB"></path>
            <path d="M205,25 L205,82.0023034 C205,82.0023034 216.871745,80.6130205 241.786579,111 L244,53.9976966 C244,53.9976966 218.066834,26.3918894 205,25 Z" id="Path" fill="#000000" opacity="0.1"></path>
            <path d="M205,25 L205,82.0023034 C205,82.0023034 216.871745,80.6130205 241.786579,111 L244,53.9976966 C244,53.9976966 218.066834,26.3918894 205,25 Z" id="Path" fill="#F5F5FB"></path>
            <path d="M41,28 L41,85.0031823 C41,85.0031823 29.1274523,83.6139415 4.21093221,114 L2,56.9994242 C2,56.9994242 27.9322825,29.3944537 41,28 Z" id="Path" fill="#000000" opacity="0.1"></path>
            <path d="M42,27 L42,84.0031823 C42,84.0031823 30.1274523,82.6139415 5.21093221,113 L3,55.9994242 C3,55.9994242 28.9322825,28.3944537 42,27 Z" id="Path" fill="#F5F5FB"></path>
            <path d="M172,121.415995 C172,123.272447 159.767196,134 131.922118,134 C104.07704,134 89,123.64623 89,121.789777 C89,119.933325 104.594174,124.530848 132.439252,124.530848 C160.28433,124.530848 172,119.557051 172,121.415995 Z" id="Path" fill="#F7F7FD"></path>
            <ellipse id="Oval" fill="#6C63FF" opacity="0.1" cx="82" cy="94.5" rx="3" ry="1"></ellipse>
            <ellipse id="Oval" fill="#6C63FF" opacity="0.1" cx="70" cy="95.5" rx="3" ry="1"></ellipse>
            <ellipse id="Oval" fill="#6C63FF" opacity="0.1" cx="58" cy="94.5" rx="3" ry="1"></ellipse>
            <ellipse id="Oval" fill="#6C63FF" opacity="0.1" cx="75" cy="99.5" rx="2" ry="1"></ellipse>
            <ellipse id="Oval" fill="#6C63FF" opacity="0.1" cx="62" cy="99.5" rx="2" ry="1"></ellipse>
            <path d="M69.4814034,96 C69.4814034,96 73.2650213,82.6800497 68.8877099,77.3465059 C65.612972,73.3558316 61.8906082,73.8236863 60.2414596,74.3294752 C59.3696967,74.5785023 58.6436603,75.2256545 58.2554136,76.0997363 C57.6734997,77.4476637 57.7842283,79.6402585 61.8882522,82.1894345 C68.7652017,86.4633506 69.1916244,92.3279727 69.1916244,92.3279727 L69.4814034,96 Z" id="Path" fill="#6C63FF"></path>
            <path d="M59,77 C59,77 72.6049182,80.5969577 69.5541532,96" id="Path" stroke="#565987"></path>
            <path d="M67,78 C67,78 65.6573162,79.1972727 66.0835977,81" id="Path" stroke="#565987"></path>
            <path d="M61,78 C61,78 62.3590034,76.372176 64,77.2702858" id="Path" stroke="#565987"></path>
            <path d="M66,83.5984778 C66,83.5984778 68.3836549,82.014696 69,84" id="Path" stroke="#565987"></path>
            <path d="M71,86.0124773 C71,86.0124773 70.0168224,85.8140277 70,87" id="Path" stroke="#565987"></path>
            <path d="M71,96 C71,96 65.0389008,84.7572965 63.3981732,85.0040016 C62.6221534,85.1214802 62.2642341,85.8292889 62.0995278,86.5429715 C61.8957994,87.4637407 62.0065102,88.4204896 62.4162706,89.2802232 C63.2746436,91.077646 65.5456893,94.4992107 71,96 Z" id="Path" fill="#6C63FF"></path>
            <path d="M64,87 C64,87 69.0275774,95.6207358 70,96" id="Path" stroke="#565987"></path>
            <path d="M64,89 L65,89" id="Path" stroke="#565987"></path>
            <path d="M64,91.9597481 L66,92.0402519" id="Path" stroke="#565987"></path>
            <path d="M65.1024905,89 L64.8975095,90" id="Path" stroke="#565987"></path>
            <path d="M68.0181629,92 L67.9818371,93" id="Path" stroke="#565987"></path>
            <path d="M69,96 C69,96 74.9585713,84.7572965 76.6026427,85.0040016 C77.3819136,85.1214802 77.7398714,85.8292889 77.9014276,86.5429715 C78.1036968,87.4638057 77.9930227,88.4201346 77.5846508,89.2802232 C76.7261857,91.077646 74.4548962,94.4992107 69,96 Z" id="Path" fill="#6C63FF"></path>
            <path d="M76,87 C76,87 70.9702886,95.6207358 70,96" id="Path" stroke="#565987"></path>
            <path d="M77,89 L76,89" id="Path" stroke="#565987"></path>
            <path d="M76,91.9597481 L74,92.0402519" id="Path" stroke="#565987"></path>
            <path d="M74.8975095,89 L75.1024905,90" id="Path" stroke="#565987"></path>
            <path d="M71.9818371,92 L72.0181629,93" id="Path" stroke="#565987"></path>
            <path d="M61.2915955,98.5034687 C61.1577639,98.3818627 61.060382,98.2177855 61.0124085,98.0330707 C60.9670715,97.8426961 61.0490447,97.6432186 61.2081003,97.5568653 C61.3855276,97.4784656 61.5786102,97.6178428 61.7299452,97.75722 C61.8553623,97.9216566 62.0372247,98.0196877 62.2309162,98.0272633 C62.0321492,97.8265474 61.9421026,97.5248195 61.9934768,97.2316518 C62.0036224,97.1720273 62.0269355,97.1161475 62.0613167,97.0690451 C62.1604672,96.9499937 62.3405037,97.0022602 62.460528,97.0951783 C62.8388655,97.3855475 62.9432345,97.9662858 62.9458437,98.4802392 C62.9662345,98.2873248 62.9662345,98.0924153 62.9458437,97.8995009 C62.9300872,97.7057254 63.0025755,97.5160441 63.1389263,97.3942585 C63.2286156,97.3404694 63.329298,97.3134585 63.4311594,97.3158589 C63.6023544,97.288667 63.7758813,97.3435399 63.9086474,97.4668508 C64.0369387,97.6638535 64.0294302,97.9324346 63.8903828,98.1201814 C63.7495735,98.2964444 63.5828059,98.4447187 63.3972395,98.5586389 C63.2553263,98.6514317 63.134738,98.7796649 63.0449942,98.9332151 C63.0336552,98.9540798 63.0248797,98.9765413 63.018902,99 L61.94912,99 C61.7117405,98.8665118 61.4907565,98.6996352 61.2915955,98.5034687 Z" id="Path" fill="#6C63FF"></path>
            <path d="M81.2916949,93.5008362 C81.1580773,93.3803164 81.0606957,93.2173124 81.0125569,93.0335956 C80.9669112,92.8425096 81.0487843,92.6421346 81.2082143,92.5547466 C81.4023447,92.5127327 81.6017605,92.5903766 81.7299675,92.7578947 C81.8548086,92.922647 82.0372059,93.0198735 82.2308506,93.0248893 C82.031671,92.8246069 81.9415546,92.522756 81.9934529,92.2297097 C82.002391,92.1705616 82.0258664,92.1153181 82.0612808,92.0700934 C82.1604139,91.9511067 82.3404188,92.0004426 82.460422,92.0933103 C82.8386931,92.3835218 82.9430437,92.9639449 82.9456525,93.4805214 C82.9658497,93.2876994 82.9658497,93.0929204 82.9456525,92.9000983 C82.9298988,92.7064281 83.0023744,92.5168498 83.1387012,92.3951303 C83.2281314,92.3409371 83.3291374,92.3148527 83.430883,92.3196753 C83.6021379,92.2909754 83.7761876,92.3459935 83.9082872,92.4705853 C84.03707,92.6662464 84.0295393,92.9343251 83.8900258,93.1206591 C83.7492412,93.2968263 83.5825029,93.4450201 83.396969,93.5588785 C83.2556456,93.6524503 83.1352327,93.7804498 83.0447856,93.9332514 C83.0334486,93.9541047 83.0246747,93.976554 83.0186979,94 L81.9491039,94 C81.7110741,93.8667133 81.4900061,93.6988587 81.2916949,93.5008362 Z" id="Path" fill="#6C63FF"></path>
            <path d="M74.2907943,98.5034687 C74.1571208,98.3818627 74.059854,98.2177855 74.0119372,98.0330707 C73.9677247,97.8427994 74.0493008,97.6440538 74.2073978,97.5568653 C74.3872215,97.4784656 74.5774698,97.6178428 74.728626,97.75722 C74.8540967,97.9213662 75.035622,98.0193313 75.2290052,98.0272633 C75.0309773,97.826259 74.941968,97.5243359 74.9944525,97.2316518 C75.0024317,97.1718363 75.024965,97.115599 75.059606,97.0690451 C75.1586394,96.9499937 75.3384631,97.0022602 75.4583456,97.0951783 C75.8362361,97.3855475 75.9430879,97.9662858 75.9456941,98.4802392 C75.9646976,98.2872387 75.9646976,98.0925013 75.9456941,97.8995009 C75.9299562,97.7057254 76.0023589,97.5160441 76.1385485,97.3942585 C76.3884346,97.2660706 76.6803991,97.2936383 76.9073602,97.4668508 C77.0373833,97.663204 77.0298439,97.9332133 76.8891172,98.1201814 C76.7490129,98.2970758 76.5823375,98.4454434 76.3965565,98.5586389 C76.2558611,98.652972 76.1356985,98.7809036 76.0447274,98.9332151 C76.0344853,98.9546827 76.0257714,98.9770129 76.018666,99 L74.9527542,99 C74.7135465,98.8674839 74.4909911,98.7005467 74.2907943,98.5034687 Z" id="Path" fill="#6C63FF"></path>
            <path d="M56.8958108,89 C56.8958108,89 56.4963239,89.4807692 57.0811936,90.2019231 C57.6660633,90.9230769 58.151714,91.5456731 57.9558871,92 C57.9558871,92 57.0707495,90.6466346 56.3527176,90.6274038 C55.6346856,90.6081731 56.1125032,89.8125 56.8958108,89 Z" id="Path" fill="#6C63FF"></path>
            <path d="M56.9040912,90 C56.8686605,90.0463711 56.8410675,90.0972943 56.8222281,90.1510791 C56.111868,90.9064748 55.7342416,91.6139089 56.4155535,91.6306954 C57.0519729,91.647482 57.8151479,92.6810552 58,92.940048 C57.9945474,92.9604654 57.9874872,92.980501 57.978874,93 C57.978874,93 57.0836618,91.6498801 56.3574572,91.6306954 C55.6312526,91.6115108 56.111868,90.8105516 56.9040912,90 Z" id="Path" fill="#000000" opacity="0.1"></path>
            <path d="M56.9545928,90.2607013 C56.9545928,90.670781 56.9753504,91 57.0012973,91 C57.0272443,91 57.0454072,90.670781 57.0454072,90.2607013 C57.0454072,89.8506215 57.0220549,90.0469978 56.996108,90.0469978 C56.970161,90.0469978 56.9545928,89.8563973 56.9545928,90.2607013 Z" id="Path" fill="#FFD037"></path>
            <path d="M56.2267455,91.001294 C56.6217661,91.0895885 56.9658163,91.1415265 56.9976728,91.1181544 C57.0295293,91.0947823 56.7300782,91.0064878 56.3605428,90.9207901 C55.9910074,90.8350924 56.1184334,90.8948211 56.0929482,90.9207901 C56.067463,90.9467591 55.8317249,90.9259839 56.2267455,91.001294 Z" id="Path" fill="#FFD037"></path>
            <path d="M60.100474,89 C60.100474,89 60.5020503,89.4807692 59.9153316,90.2019231 C59.328613,90.9230769 58.8488075,91.5456731 59.0443804,92 C59.0443804,92 59.9257622,90.6466346 60.6454704,90.6274038 C61.3651786,90.6081731 60.8905884,89.8125 60.100474,89 Z" id="Path" fill="#6C63FF"></path>
            <path d="M60.0942503,90 C60.1296274,90.0463711 60.1571786,90.0972943 60.1759895,90.1510791 C60.8852747,90.9064748 61.2623296,91.6139089 60.5820487,91.6306954 C59.9465925,91.647482 59.1872091,92.6810552 59,92.940048 C59.0054444,92.9604654 59.0124938,92.980501 59.021094,93 C59.021094,93 59.9123147,91.6498801 60.6400571,91.6306954 C61.3677995,91.6115108 60.8931849,90.8105516 60.0942503,90 Z" id="Path" fill="#000000" opacity="0.1"></path>
            <path d="M61.0454072,90.2607013 C61.0454072,90.670781 61.0272443,91 61.0012973,91 C60.9753504,91 60.9545928,90.670781 60.9545928,90.2607013 C60.9545928,89.8506215 60.9805398,90.0469978 61.0064867,90.0469978 C61.0324337,90.0469978 61.0454072,89.8563973 61.0454072,90.2607013 Z" id="Path" fill="#FFD037"></path>
            <path d="M60.7716185,91.001294 C60.3737689,91.0895885 60.0272548,91.1415265 60.0015871,91.1181544 C59.9759194,91.0947823 60.2646812,91.0064878 60.6432799,90.9207901 C61.0218786,90.8350924 60.8871232,90.8948211 60.9192078,90.9207901 C60.9512924,90.9467591 61.1502172,90.9259839 60.7716185,91.001294 Z" id="Path" fill="#FFD037"></path>
            <path d="M60,91.8548985 C60,91.8548985 58.9232387,91.8067476 58.6002104,91.4659872 C58.277182,91.1252269 56.947507,90.7252038 56.867376,91.2622718 C56.7872449,91.7993398 55.2522341,93.9846508 56.4642165,93.9994665 C57.676199,94.0142822 59.2838286,93.7179688 59.6068569,93.4290633 C59.9298853,93.1401577 60,91.8548985 60,91.8548985 Z" id="Path" fill="#A8A8A8"></path>
            <path d="M56.4436183,93.8233752 C57.6557935,93.8233752 59.2636787,93.564373 59.5867585,93.2915574 C59.8372079,93.0843557 59.9298742,92.3418828 59.9624326,92 L60,92 C60,92 59.9298742,93.1948633 59.6067944,93.4676789 C59.2837147,93.7404945 57.6783339,94.0133101 56.4636543,93.9994966 C56.1155296,93.9994966 55.9928094,93.8233752 56.0003229,93.5678264 C56.0479082,93.726681 56.1831509,93.8199218 56.4436183,93.8233752 Z" id="Path" fill="#000000" opacity="0.2"></path>
            <ellipse id="Oval" fill="#6C63FF" opacity="0.1" cx="50" cy="128.5" rx="9" ry="1.5"></ellipse>
            <ellipse id="Oval" fill="#6C63FF" opacity="0.1" cx="74" cy="139.5" rx="9" ry="1.5"></ellipse>
            <ellipse id="Oval" fill="#6C63FF" opacity="0.1" cx="39" cy="152.5" rx="9" ry="1.5"></ellipse>
            <ellipse id="Oval" fill="#6C63FF" opacity="0.1" cx="228" cy="180.5" rx="9" ry="1.5"></ellipse>
            <ellipse id="Oval" fill="#6C63FF" opacity="0.1" cx="128" cy="149.5" rx="6" ry="1"></ellipse>
            <ellipse id="Oval" fill="#6C63FF" opacity="0.1" cx="213" cy="113.5" rx="6" ry="1"></ellipse>
            <ellipse id="Oval" fill="#6C63FF" opacity="0.1" cx="165" cy="165.5" rx="6" ry="1"></ellipse>
            <ellipse id="Oval" fill="#6C63FF" opacity="0.1" cx="115" cy="162.5" rx="6" ry="1"></ellipse>
            <ellipse id="Oval" fill="#6C63FF" opacity="0.1" cx="66" cy="160.5" rx="6" ry="1"></ellipse>
            <ellipse id="Oval" fill="#6C63FF" opacity="0.1" cx="54" cy="171.5" rx="6" ry="1"></ellipse>
            <g id="Group" opacity="0.1" transform="translate(91.000000, 44.000000)" fill="#000000">
                <ellipse id="Oval" cx="40.4477419" cy="17.6710145" rx="39.7474839" ry="17.5136522"></ellipse>
                <path d="M80.8850323,23.931971 C79.1265484,33.0641449 61.7507419,40.2331594 40.5705484,40.2331594 C19.2048387,40.2331594 1.70883871,32.9377391 0.209032258,23.6946377 L0.0600967742,23.6946377 L0.0600967742,38.5769855 C7.047,45.7846957 22.5153871,50.7970725 40.4712581,50.7970725 C58.427129,50.7970725 73.8955161,45.7846957 80.8850323,38.5769855 L80.8850323,23.931971 Z" id="Path"></path>
                <path d="M80.8850323,42.0415362 C79.1265484,51.1711304 61.7507419,58.3427246 40.5705484,58.3427246 C19.2048387,58.3427246 1.70883871,51.0473043 0.209032258,41.8016232 L0.0600967742,41.8016232 L0.0600967742,56.6865507 C7.047,63.8942609 22.5153871,68.904058 40.4712581,68.904058 C58.427129,68.904058 73.8955161,63.8942609 80.8850323,56.6865507 L80.8850323,42.0415362 Z" id="Path"></path>
                <path d="M80.8850323,61.9594783 C79.1265484,71.0916522 61.7507419,78.2606667 40.5705484,78.2606667 C19.2048387,78.2606667 1.70883871,70.9678261 0.209032258,61.7221449 L0.0600922987,61.7221449 L0.0600967742,77.7731014 C0.0587742561,78.4645533 0.350607324,79.1249975 0.864870968,79.5943768 C8.181,86.2268116 23.1764516,88.8245797 40.4712581,88.8245797 C57.7660645,88.8245797 72.7536774,86.2268116 80.0802581,79.5943768 C80.5945217,79.1249975 80.8863548,78.4645533 80.8850323,77.7731014 L80.8850323,61.9594783 Z" id="Path"></path>
            </g>
            <ellipse id="Oval" fill="#6C63FF" cx="130.5" cy="61" rx="39.5" ry="18"></ellipse>
            <path d="M171,66.2364363 C169.259464,75.3340948 152.061003,82.4760137 131.096984,82.4760137 C109.949342,82.4760137 92.6319141,75.2081668 91.1474154,66 L91,66 L91,80.8260994 C97.9155918,88.0065677 113.226102,93 130.998707,93 C148.771312,93 164.081822,88.0065677 171,80.8260994 L171,66.2364363 Z" id="Path" fill="#6C63FF"></path>
            <path d="M171,88.2390063 C169.259464,97.3340948 152.061003,104.478584 131.096984,104.478584 C109.949342,104.478584 92.6319141,97.2107367 91.1474154,88 L91,88 L91,102.828669 C97.9155918,110.009138 113.226102,115 130.998707,115 C148.771312,115 164.081822,110.009138 171,102.828669 L171,88.2390063 Z" id="Path" fill="#6C63FF"></path>
            <path d="M170.999996,106.236436 C169.25946,115.334095 152.061,122.476014 131.096984,122.476014 C109.949344,122.476014 92.6319184,115.210737 91.1474198,106 L91,106 L91.0000044,121.990291 C90.9986954,122.67913 91.2875499,123.337078 91.7965646,123.804683 C99.0380212,130.41205 113.880421,133 130.998707,133 C148.116993,133 162.951634,130.41205 170.203435,123.804683 C170.71245,123.337078 171.001305,122.67913 170.999996,121.990291 L170.999996,106.236436 Z" id="Path" fill="#6C63FF"></path>
            <ellipse id="Oval" fill="#6C63FF" opacity="0.1" cx="191.5" cy="148" rx="14.5" ry="3"></ellipse>
            <path d="M182.400906,115.199584 C183.126543,115.638733 184.26539,115.925471 185.699027,114.980009 L185.686429,117.075009 C185.787212,118.511285 187.520679,123.747492 187.520679,123.747492 L188.742672,128.053737 C189.619732,131.09703 190.071868,134.252365 190.085604,137.425696 C190.085604,138.474488 190.181348,139.559445 190.476138,140.375745 C191.128707,142.184006 190.224181,144.508914 189.828608,145.366546 C189.166983,145.595917 188.494192,145.78992 187.812949,145.947773 C187.752201,145.962796 187.69245,145.981778 187.634059,146.004604 L187.634059,145.991688 C187.634059,145.991688 185.79981,146.738241 184.983468,146.634912 C184.376251,146.559998 183.995796,147.337551 184.479554,147.908445 C184.084713,148.032014 183.672677,148.087874 183.26008,148.073771 C182.443739,147.970442 182.035568,149.406718 183.564949,149.817452 C185.09433,150.228185 193.759142,149.817452 193.759142,149.817452 C194.259658,149.56045 194.527075,148.988724 194.409192,148.427674 L195.492608,148.381176 C195.492608,148.381176 197.021989,147.663038 195.492608,145.712699 L195.409462,145.774696 L195.084437,144.787903 L195.084437,143.457539 C195.084437,143.457539 197.021989,133.899587 196.409733,132.781049 C195.797477,131.66251 195.472452,125.891574 195.472452,125.891574 L195.686615,119.640156 C196.238402,118.472536 196.520594,116.638443 196.66421,115.20475 C196.872895,114.521582 197.00394,113.815992 197.054744,113.102001 C197.079939,112.763598 197.100096,112.412278 197.112694,112.04546 C197.12115,111.240665 196.995026,110.440335 196.739797,109.679221 C197.431434,108.627389 198.204049,107.63398 199.050246,106.708506 C199.764635,106.027169 200.108199,105.03027 199.96989,104.040029 L199.465975,100.550085 L198.241463,94.6086557 C198.395157,92.9579716 198.060053,92.0073429 197.687156,91.470031 C197.775342,90.9353024 197.858487,90.403157 197.921477,89.8658451 C198.191022,87.5370306 198.070017,85.1781023 197.563697,82.8911235 C197.387327,82.0954886 197.145448,81.2766046 196.598701,80.6721288 C195.981405,79.9849895 194.978615,79.5690895 194.746815,78.6727086 C194.714115,78.4442142 194.666983,78.2181369 194.605718,77.9959023 C194.381476,77.409509 193.675996,77.1951009 193.056181,77.117604 C191.952608,76.9806928 190.357718,76.8773636 189.296978,77.3216792 C188.366071,77.7436827 187.599724,78.4730099 187.120066,79.3934298 C186.881263,79.7716082 186.791224,80.2285635 186.868109,80.6721288 C186.905835,80.8260963 186.964351,80.9739071 187.04196,81.1112779 C186.307126,83.1537887 187.311251,85.4223602 189.294458,86.2002414 C189.319654,86.2803216 189.34233,86.3578185 189.359967,86.4327321 C189.406583,86.6168766 189.440264,86.8042104 189.46075,86.9932931 C189.440593,87.3549453 189.417917,87.7191808 189.4028,88.0834162 L189.365006,88.2306604 C188.487869,88.628799 187.632473,89.0754948 186.8026,89.5687736 C187.412337,90.49357 186.699298,94.3942476 186.699298,94.3942476 C185.169917,95.3164608 183.643055,97.6775332 185.273219,100.141935 C186.903383,102.606336 185.986259,105.27223 185.986259,105.27223 L185.734301,109.28657 L185.68391,110.089954 L185.701547,110.089954 L185.68391,110.394776 L185.726742,110.394776 L185.726742,110.722846 C185.011184,110.994085 183.963041,111.536563 183.340707,112.544023 C183.045837,113.038004 182.687348,113.488966 182.274927,113.88472 C182.079904,114.05587 181.978675,114.313868 182.003772,114.575805 C182.028868,114.837741 182.177128,115.070612 182.400906,115.199584 Z M194.709021,104.536009 C194.647576,103.841304 194.773063,103.142621 195.071839,102.515923 L195.792437,102.515923 C195.813678,102.679251 195.843112,102.841348 195.880622,103.001571 C196.087227,103.918617 195.260807,104.350017 194.709021,104.536009 Z" id="Shape" fill="url(#linearGradient-1)" fill-rule="nonzero"></path>
            <path d="M194.585474,143.733572 L195,144.849462 L193.655447,146.058542 L189.207263,147 L186,146.72043 L186.207263,145.69773 C186.331794,145.24911 186.724498,144.900583 187.224978,144.794504 C188.553587,144.517324 191.056687,143.88172 191.585474,143 L194.585474,143.733572 Z" id="Path" fill="#DB8B8B"></path>
            <path d="M194.585474,143.733572 L195,144.849462 L193.655447,146.058542 L189.207263,147 L186,146.72043 L186.207263,145.69773 C186.331794,145.24911 186.724498,144.900583 187.224978,144.794504 C188.553587,144.517324 191.056687,143.88172 191.585474,143 L194.585474,143.733572 Z" id="Path" fill="#000000" opacity="0.1"></path>
            <path d="M187.403366,146.159224 L188.020888,145.297197 L187.403366,144.296581 C187.403366,144.296581 185.556077,145.080998 184.732715,144.972898 C183.909352,144.864798 183.50031,146.375423 185.041476,146.807823 C186.582642,147.240222 195.315037,146.807823 195.315037,146.807823 C195.315037,146.807823 196.856203,146.051124 195.315037,144 L193.979712,145.080998 C193.979712,145.080998 191.718103,146.375423 190.588618,146.159224 L187.403366,146.159224 Z" id="Path" fill="#C17174"></path>
            <path d="M184,147.72043 L187.207263,148 L191.655447,147.0681 L193,145.85902 L192.891054,145.565114 L192.736935,145.149343 L192.585474,144.74313 L189.580159,144 C189.427679,144.222663 189.219268,144.410076 188.971656,144.547192 C187.996457,145.146953 186.248007,145.57945 185.219663,145.794504 C185.176319,145.803919 185.133711,145.815893 185.092117,145.830346 C184.892053,145.887609 184.709928,145.986692 184.560673,146.119474 C184.381132,146.277889 184.254163,146.478111 184.193977,146.69773 L184,147.72043 Z" id="Path" fill="#DB8B8B"></path>
            <path d="M184,147.655545 L187.207263,148 L191.655447,146.851816 L193,145.36212 L192.891054,145 L191.655447,146.05103 C191.655447,146.05103 189.378211,147.425908 188.240921,147.196271 L185.031001,147.196271 L185.65279,146.280667 L185.094774,145.326791 C184.89471,145.397343 184.712586,145.519423 184.56333,145.683023 C184.38379,145.878204 184.25682,146.124896 184.196634,146.395486 L184,147.655545 Z" id="Path" fill="#000000" opacity="0.1"></path>
            <path d="M185.403366,148.158446 L186.020888,147.295623 L185.403366,146.294081 C185.403366,146.294081 183.556077,147.079223 182.732715,146.971023 C181.909352,146.862824 181.50031,148.374846 183.041476,148.807645 C184.582642,149.240444 193.315037,148.807645 193.315037,148.807645 C193.315037,148.807645 194.856203,148.050247 193.315037,146 L191.979712,147.079223 C191.979712,147.079223 189.718103,148.374846 188.588618,148.158446 L185.403366,148.158446 Z" id="Path" fill="#C17174"></path>
            <path d="M188,90.9343372 C188,90.9343372 192.991987,91.5096486 192.273504,89.2544279 C192.068251,88.6192427 192.014972,87.9385849 192.11859,87.2753566 C192.247099,86.4543338 192.548621,85.6759541 193,85 L188.320513,85.7824235 C188.601786,86.2875309 188.815772,86.8326928 188.956197,87.4019251 C189.503739,89.7779612 188,90.9343372 188,90.9343372 Z" id="Path" fill="#DB8B8B"></path>
            <path d="M196,112 C196,112 195.896552,116.343384 194.864721,118.465778 L194.657825,124.627987 C194.657825,124.627987 194.965517,130.284246 195.586207,131.39474 C196.206897,132.505235 194.244032,141.900333 194.244032,141.900333 L194.244032,143.516778 C194.244032,143.516778 190.938992,144.728462 190,143.314398 L190.928382,131.293551 L190.514589,114.628344 L196,112 Z" id="Path" fill="#474463"></path>
            <path d="M196,112 C196,112 195.896552,116.343384 194.864721,118.465778 L194.657825,124.627987 C194.657825,124.627987 194.965517,130.284246 195.586207,131.39474 C196.206897,132.505235 194.244032,141.900333 194.244032,141.900333 L194.244032,143.516778 C194.244032,143.516778 190.938992,144.728462 190,143.314398 L190.928382,131.293551 L190.514589,114.628344 L196,112 Z" id="Path" fill="#000000" opacity="0.1"></path>
            <path d="M198.780203,98 L199.420849,99.6994772 L199.96841,103.308479 C200.113076,104.330012 199.755422,105.358481 199.007441,106.071835 C197.728887,107.34576 196.023236,110 196.023236,110 L194,103.946806 C194,103.946806 196.023236,103.627643 195.702913,102.247329 C195.38259,100.867015 195.492102,98.3191634 195.492102,98.3191634 L198.780203,98 Z" id="Path" fill="#FF748E"></path>
            <path d="M198.785044,98 L199.421411,99.6990909 L199.967649,103.31 C200.114054,104.330165 199.758022,105.35813 199.011732,106.07 C197.733536,107.343636 196.034736,110 196.034736,110 L194,103.94 C194,103.94 196.02108,103.620909 195.701531,102.240909 C195.381982,100.860909 195.488498,98.3109091 195.488498,98.3109091 L198.785044,98 Z" id="Path" fill="#000000" opacity="0.05"></path>
            <path d="M190,144.674825 C191.060071,146.951272 192.70742,145.659547 193,145.404678 L192.879152,144.912317 L190.483392,144 C190.363384,144.273776 190.197762,144.504987 190,144.674825 Z" id="Path" fill="#000000" opacity="0.1"></path>
            <path d="M185,116.999282 C185.107311,118.386602 186.926095,123.439501 186.926095,123.439501 L188.211075,127.598915 C189.130335,130.539877 189.605355,133.584357 189.622628,136.645767 C189.590357,137.609589 189.72885,138.571799 190.032611,139.494227 C190.891099,141.675756 189.176875,144.646402 189.176875,144.646402 C190.676477,147.125759 193.246438,145.440611 193.246438,145.440611 L193.246438,143.854739 C193.246438,143.854739 195.282596,135.232992 194.746041,133.547844 C194.209486,131.862696 193.997615,127.306177 193.997615,127.306177 L193.997615,119.078989 C195.712871,117.497223 196.755918,115.397466 196.936286,113.163152 C196.96105,112.837323 196.983062,112.49622 196.99682,112.144936 C197.082119,109.909951 195.428428,107.288044 194.795569,106.35383 C194.641481,106.127277 194.542425,106 194.542425,106 L185.085298,109.472118 L185.063286,109.472118 L185.063286,109.815766 L185.063286,110.564155 L185,116.999282 Z" id="Path" fill="#474463"></path>
            <path d="M188,85.8736694 C188.300538,86.4376821 188.529181,87.0464206 188.679224,87.6820365 C189.776282,88.1505331 190.995082,88.099556 192.058219,87.5407077 C192.19553,86.6239376 192.517705,85.7547835 193,85 L188,85.8736694 Z" id="Path" fill="#000000" opacity="0.1"></path>
            <circle id="Oval" fill="#DB8B8B" cx="189.5" cy="82.5" r="4.5"></circle>
            <path d="M185,109.880448 L185.045958,109.880448 C189.457962,110.794512 195,106.167064 195,106.167064 C194.851433,105.914758 194.723065,105.65095 194.616112,105.37814 C194.46472,105.136021 194.367397,105 194.367397,105 L185.075696,108.710664 L185.051365,109.080642 L185,109.880448 Z" id="Path" fill="#000000" opacity="0.1"></path>
            <path d="M187.093725,89.3941134 C187.093725,89.3941134 192.469798,85.9130928 194.19606,87.3459902 L196.59803,90.6219356 C196.59803,90.6219356 198.134403,91.1346236 197.848337,94.4210856 L199,100.357751 L195.547476,101.27796 C195.547476,101.27796 193.532682,103.326083 195.165232,106.294416 C195.165232,106.294416 190.075226,110.798183 186.040705,109.875345 L186.329237,105.066593 C186.329237,105.066593 187.192368,102.403245 185.658461,99.9476002 C184.124554,97.4919557 185.562284,95.1362198 187.002479,94.2160104 C186.997547,94.2054937 187.668323,90.3143227 187.093725,89.3941134 Z" id="Path" fill="#FF748E"></path>
            <path d="M187.861101,110 C187.861101,110 185.543459,110.483476 184.441304,112.414282 C184.122544,112.994556 183.733712,113.525168 183.285316,113.991777 C183.081161,114.195002 182.976946,114.491901 183.004302,114.792358 C183.031658,115.092815 183.18736,115.361399 183.424148,115.516587 C184.299639,116.093039 185.72479,116.446349 187.529605,114.825464 C190.632072,112.051674 187.861101,110 187.861101,110 Z" id="Path" fill="#DB8B8B"></path>
            <path d="M189.190921,91.0757574 C189.190921,91.0757574 191.653562,90.8741159 192.270804,96.1064535 C192.888047,101.338791 193.87247,102.54864 193.87247,102.54864 C193.87247,102.54864 194.489713,105.265629 193.00833,106.876176 C191.526948,108.486723 188.697126,111.909457 188.697126,111.909457 C188.697126,111.909457 185.617243,112.612617 185,110.099854 L188.820575,104.262592 C188.820575,104.262592 189.434653,102.248763 187.956435,100.839858 C186.478218,99.4309526 185.370346,90.06755 189.190921,91.0757574 Z" id="Path" fill="#000000" opacity="0.1"></path>
            <path d="M189.179806,91.0754034 C189.179806,91.0754034 191.645226,90.8737586 192.263165,96.1087698 C192.881105,101.343781 193.866639,102.54848 193.866639,102.54848 C193.866639,102.54848 194.500423,105.265515 193.004693,106.876089 C191.508962,108.486663 188.701299,111.909456 188.701299,111.909456 C188.701299,111.909456 185.617939,112.612628 185,110.099822 L188.824887,104.262461 C188.824887,104.262461 189.442826,102.248598 187.959772,100.839669 C186.476717,99.43074 185.354919,90.0697642 189.179806,91.0754034 Z" id="Path" fill="#FF748E"></path>
            <path d="M187.013247,94 C187.013247,94 186.871361,97.4449922 187.516298,99.3344577 C188.161234,101.223923 188.161234,103.667099 187.516298,105" id="Path" fill="#000000" opacity="0.1"></path>
            <path d="M186,90 C186,90 186.873946,89.0590015 189.391811,88.9409985 C191.909675,88.8229955 193,88 193,88" id="Path" fill="#000000" opacity="0.1"></path>
            <path d="M192.857144,78.1097853 C193.454786,78.182214 194.135645,78.3845147 194.349989,78.9389685 C194.409013,79.1500155 194.455325,79.3643489 194.488683,79.5808361 C194.710592,80.4299996 195.676402,80.8296059 196.271523,81.4739711 C196.796036,82.0484052 197.028032,82.8226425 197.199508,83.579397 C197.688376,85.7465594 197.805168,87.9798004 197.54498,90.1853891 C197.353331,91.7963021 196.959946,93.3847373 196.851513,95.0031429 C196.74308,96.6215486 196.942295,98.3273681 197.834976,99.6885271 C198.220795,100.272951 198.727657,100.787445 199,101.436805 C198.437661,101.888859 197.660978,101.953796 196.934729,101.978771 C196.094164,102.007076 195.249395,102.007076 194.400423,101.978771 C193.956023,101.996334 193.514157,101.904517 193.114357,101.711534 C192.831483,101.533081 192.598955,101.286453 192.438542,100.99474 C191.954376,100.18304 191.833335,99.206502 191.853508,98.2649296 C191.873682,97.3233572 192.024984,96.3867798 192.042636,95.4427099 C192.092746,94.9276889 191.977119,94.4101647 191.712293,93.9641665 C191.468591,93.6836282 191.192705,93.4321778 190.89022,93.2149046 C189.838672,92.290815 189.478069,90.8122715 189.442765,89.421142 C189.407461,88.0300125 189.639458,86.6388829 189.520938,85.2527485 C189.475547,84.7107824 189.268768,84.0589246 188.731646,83.9540279 C188.561924,83.9472086 188.393148,83.9254779 188.227307,83.8890919 C187.796096,83.7242543 187.838965,83.1223472 187.722967,82.6802827 C187.584274,82.1807748 187.155585,81.7986513 187.034544,81.2991433 C186.752114,80.1228022 188.265132,78.7166874 189.25616,78.3020959 C190.247187,77.8875043 191.795509,77.9799133 192.857144,78.1097853 Z" id="Path" fill="#000000" opacity="0.1"></path>
            <path d="M192.857144,78.1055698 C193.454786,78.1779923 194.135645,78.3802758 194.349989,78.9371799 C194.409269,79.1473026 194.455585,79.3608023 194.488683,79.5764957 C194.710592,80.4255871 195.676402,80.8251595 196.271523,81.46947 C196.796036,82.0438554 197.028032,82.8180269 197.199508,83.5747172 C197.688388,85.7442587 197.80433,87.9799134 197.542459,90.1876406 C197.353331,91.7984169 196.959946,93.3867172 196.851513,95.0074828 C196.74308,96.6282484 196.942295,98.3289285 197.834976,99.689972 C198.220795,100.276844 198.727657,100.788796 199,101.438101 C198.437661,101.892615 197.660978,101.955048 196.934729,101.980021 C196.094164,102.00666 195.249395,102.00666 194.400423,101.980021 C193.956226,101.998463 193.514346,101.907509 193.114357,101.715305 C192.831378,101.535918 192.598879,101.288483 192.438542,100.996074 C191.954376,100.184443 191.833335,99.2079878 191.853508,98.2664953 C191.873682,97.3250028 192.024984,96.3885049 192.042636,95.4470124 C192.042636,94.932563 192.012375,94.3881456 191.712293,93.9685945 C191.469162,93.6875332 191.193208,93.4360415 190.89022,93.2193963 C189.838672,92.2953851 189.478069,90.8169671 189.442765,89.4259557 C189.407461,88.0349442 189.639458,86.6439328 189.520938,85.257916 C189.475547,84.7159959 189.268768,84.0641934 188.731646,83.9593056 C188.561924,83.9524869 188.393148,83.9307581 188.227307,83.8943751 C187.796096,83.7295515 187.838965,83.1276955 187.722967,82.6856686 C187.584274,82.186203 187.155585,81.8066092 187.034544,81.3046464 C186.752114,80.1284051 188.265132,78.7224097 189.25616,78.3078533 C190.247187,77.8932969 191.803074,77.9757088 192.857144,78.1055698 Z" id="Path" fill="#464353"></path>
            <path d="M33,148.716802 C33,148.716802 35.9583996,148.61901 36.8470233,147.937426 C37.7356471,147.255841 41.3950107,146.440904 41.6157868,147.534402 C41.8365629,148.6279 46.0589056,152.969294 42.7196673,152.998928 C39.3804289,153.028562 34.9649072,152.438844 34.0735237,151.858015 C33.1821403,151.277187 33,148.716802 33,148.716802 Z" id="Path" fill="#A8A8A8"></path>
            <path d="M42.7797084,151.735772 C39.4434591,151.756529 35.0254814,151.345541 34.1369187,150.938704 C33.4608384,150.627349 33.1904063,149.514774 33.0993424,149 L33,149 C33,149 33.1876468,150.793405 34.0762094,151.200242 C34.9647721,151.607079 39.3827499,152.018068 42.7217587,151.999386 C43.6848282,151.999386 44.0159695,151.735772 43.9994125,151.353844 C43.8641964,151.592549 43.4971814,151.735772 42.7797084,151.735772 Z" id="Path" fill="#000000" opacity="0.2"></path>
            <path d="M209,112.858506 C209,112.858506 211.14867,112.808868 211.797656,112.467872 C212.446642,112.126875 215.103977,111.721133 215.264762,112.267159 C215.425546,112.813184 218.497998,114.984337 216.068686,114.999445 C213.639373,115.014552 210.429523,114.718878 209.783461,114.429679 C209.137398,114.140479 209,112.858506 209,112.858506 Z" id="Path" fill="#A8A8A8"></path>
            <path d="M216.113485,114.736363 C213.686772,114.754505 210.47357,114.343294 209.827421,113.938131 C209.333308,113.635771 209.137416,112.514013 209.073094,112 L209,112 C209,112 209.137416,113.792998 209.783565,114.201185 C210.429714,114.609372 213.642916,115.017558 216.069629,114.999417 C216.771329,114.999417 217.014,114.736363 216.999382,114.352365 C216.902898,114.588206 216.636837,114.730316 216.113485,114.736363 Z" id="Path" fill="#000000" opacity="0.2"></path>
            <circle id="Oval" fill="#6C63FF" opacity="0.1" cx="9" cy="6" r="6"></circle>
            <circle id="Oval" fill="#6C63FF" opacity="0.1" cx="250" cy="21" r="6"></circle>
            <circle id="Oval" fill="#6C63FF" opacity="0.1" cx="4.5" cy="27.5" r="4.5"></circle>
            <circle id="Oval" fill="#6C63FF" opacity="0.1" cx="46.5" cy="4.5" r="4.5"></circle>
            <circle id="Oval" fill="#6C63FF" opacity="0.1" cx="215.5" cy="5.5" r="4.5"></circle>
            <path d="M231.30904,167 C231.30904,167 232.510192,168.443968 230.753507,170.623699 C228.996822,172.803429 227.546431,174.641457 228.131993,176 C228.131993,176 230.783536,171.954685 232.936601,171.896816 C235.089666,171.838947 233.681315,169.436007 231.30904,167 Z" id="Path" fill="#FC6681"></path>
            <path d="M231.28172,167 C231.387289,167.140071 231.470105,167.293201 231.527621,167.454685 C233.652694,169.725352 234.794162,171.844458 232.741949,171.896816 C230.835455,171.946418 228.549483,175.041029 228,175.823637 C228.018171,175.883637 228.040477,175.94254 228.066788,176 C228.066788,176 230.747416,171.954685 232.924098,171.896816 C235.10078,171.838947 233.680017,169.436007 231.28172,167 Z" id="Path" fill="#000000" opacity="0.1"></path>
            <path d="M233.119356,169.263493 C233.119356,169.669234 233.064867,170 233,170 C232.935133,170 232.880644,169.669234 232.880644,169.263493 C232.880644,168.857753 232.948106,169.042982 233.012973,169.042982 C233.077841,169.042982 233.119356,168.855548 233.119356,169.263493 Z" id="Path" fill="#FFD037"></path>
            <path d="M233.763948,169.504071 C233.373997,169.856094 233.041816,170.068107 233.003302,169.980102 C232.964789,169.892096 233.268084,169.532072 233.655628,169.180049 C234.043173,168.828026 233.896339,169.084043 233.922817,169.180049 C233.949296,169.276056 234.1539,169.152048 233.763948,169.504071 Z" id="Path" fill="#FFD037"></path>
            <path d="M225.690614,167 C225.690614,167 224.489336,168.443968 226.246205,170.623699 C228.003073,172.803429 229.453616,174.641457 228.867993,176 C228.867993,176 226.213169,171.954685 224.062882,171.896816 C221.912595,171.838947 223.315087,169.436007 225.690614,167 Z" id="Path" fill="#FC6681"></path>
            <path d="M225.719309,167 C225.613287,167.140269 225.529443,167.293317 225.47022,167.454685 C223.343846,169.725352 222.204718,171.844458 224.255149,171.896816 C226.16281,171.946418 228.453218,175.041029 229,175.823637 C228.981774,175.881506 228.96051,175.942131 228.936209,176 C228.936209,176 226.250903,171.954685 224.075926,171.896816 C221.90095,171.838947 223.316507,169.436007 225.719309,167 Z" id="Path" fill="#000000" opacity="0.1"></path>
            <path d="M223.879347,169.263493 C223.879347,169.669234 223.933835,170 224.001297,170 C224.068759,170 224.120653,169.669234 224.120653,169.263493 C224.120653,168.857753 224.053191,169.042982 223.985729,169.042982 C223.918267,169.042982 223.879347,168.855548 223.879347,169.263493 Z" id="Path" fill="#FFD037"></path>
            <path d="M223.23605,169.504071 C223.62741,169.856094 223.960791,170.068107 223.997028,169.980102 C224.033265,169.892096 223.733705,169.532072 223.342345,169.180049 C222.950985,168.828026 223.100765,169.084043 223.076607,169.180049 C223.052449,169.276056 222.84469,169.152048 223.23605,169.504071 Z" id="Path" fill="#FFD037"></path>
            <path d="M223,175.716296 C223,175.716296 225.956785,175.617028 226.84646,174.936329 C227.736135,174.255631 231.395156,173.441628 231.616915,174.533582 C231.838674,175.625537 236.057372,179.970663 232.72043,179.999025 C229.383487,180.027388 224.96415,179.431776 224.077114,178.864528 C223.190079,178.297279 223,175.716296 223,175.716296 Z" id="Path" fill="#A8A8A8"></path>
            <path d="M232.782121,180.648646 C229.442206,180.675163 225.025071,180.11832 224.135307,179.587993 C223.459403,179.174339 223.187458,177.686773 223.097689,177 L223,177 C223,177 223.187458,179.386469 224.077221,179.938009 C224.966985,180.489548 229.384121,181.030481 232.721395,180.998662 C233.685086,180.998662 234.017757,180.645995 233.999275,180.136881 C233.867263,180.449774 233.497628,180.643343 232.782121,180.648646 Z" id="Path" fill="#000000" opacity="0.2"></path>
            <path d="M81.5,32 C78.4624339,32 76,34.6862915 76,38 C76,41.3137085 78.4624339,44 81.5,44 C84.5375661,44 87,41.3137085 87,38 C87,34.6862915 84.5375661,32 81.5,32 Z M81.5,33.1628571 C83.9589821,33.1628571 85.952381,35.3374741 85.952381,38.02 C85.952381,40.7025259 83.9589821,42.8771429 81.5,42.8771429 C79.0410179,42.8771429 77.047619,40.7025259 77.047619,38.02 C77.047619,35.3374741 79.0410179,33.1628571 81.5,33.1628571 Z M84.6140476,36.32 L84.1138095,35.7685714 C84.0644449,35.7126995 83.9963714,35.6811354 83.9252381,35.6811354 C83.8541048,35.6811354 83.7860313,35.7126995 83.7366667,35.7685714 L80.5938095,39.1657143 L79.2685714,37.6971429 C79.2192068,37.6412709 79.1511333,37.6097069 79.08,37.6097069 C79.0088667,37.6097069 78.9407932,37.6412709 78.8914286,37.6971429 L78.3885714,38.2428571 C78.3373555,38.2967095 78.3084218,38.3709715 78.3084218,38.4485714 C78.3084218,38.5261714 78.3373555,38.6004334 78.3885714,38.6542857 L80.4052381,40.8714286 C80.4546028,40.9273005 80.5226762,40.9588646 80.5938095,40.9588646 C80.6649428,40.9588646 80.7330163,40.9273005 80.782381,40.8714286 L84.6140476,36.7228571 C84.6652636,36.6690048 84.6941973,36.5947428 84.6941973,36.5171429 C84.6941973,36.4395429 84.6652636,36.3652809 84.6140476,36.3114286 L84.6140476,36.32 Z" id="Shape" fill="#3ACC6C" fill-rule="nonzero" opacity="0.7"></path>
            <path d="M22.2558006,59.1556141 C19.2995843,59.9048329 17.458692,63.125452 18.1426907,66.3514509 C18.8266894,69.5774498 21.776914,71.5888659 24.7343846,70.8455626 C27.6918551,70.1022593 29.5381572,66.8853286 28.8595817,63.6579667 C28.5329209,62.1043406 27.6529952,60.7564136 26.4140232,59.9117022 C25.1750513,59.0669909 23.6788993,58.7949461 22.2558006,59.1556141 Z M22.4966998,60.2983432 C24.2518856,59.851468 26.0808459,60.6034333 27.1292023,62.202967 C28.1775587,63.8025007 28.2383936,65.9338973 27.2832886,67.6014987 C26.3281836,69.2691 24.545651,70.1437659 22.768381,69.816906 C20.9911111,69.490046 19.5698897,68.0261737 19.1686245,66.1091206 C18.6231232,63.5029762 20.1106064,60.9058492 22.4966998,60.2983432 Z M26.180887,62.6123696 L25.5786389,62.1895598 C25.519221,62.1474304 25.4466895,62.1333745 25.3776082,62.1506018 C25.3085268,62.1678292 25.2487949,62.2148687 25.2120531,62.2809781 L22.8554302,66.360521 L21.260782,65.2606442 C21.2013641,65.2185149 21.1288326,65.2044589 21.0597513,65.2216863 C20.9906699,65.2389136 20.930938,65.2859531 20.8941962,65.3520626 L20.5145181,66.0091318 C20.4759037,66.0739584 20.4630205,66.1530922 20.4788105,66.2284619 C20.4946005,66.3038315 20.5377154,66.3690007 20.5983091,66.409087 L23.0177753,68.0746146 C23.077393,68.1176831 23.1505604,68.132279 23.2202892,68.1150135 C23.2900181,68.097748 23.3502426,68.050123 23.3869796,67.9831963 L26.2672965,63.0037543 C26.3061421,62.9392792 26.3194321,62.8604026 26.3041431,62.7850701 C26.2888541,62.7097376 26.2462861,62.6443555 26.1861239,62.6037991 L26.180887,62.6123696 Z" id="Shape" fill="#3ACC6C" fill-rule="nonzero" opacity="0.7"></path>
            <path d="M161.5,33 C158.462434,33 156,35.6862915 156,39 C156,42.3137085 158.462434,45 161.5,45 C164.537566,45 167,42.3137085 167,39 C167,35.6862915 164.537566,33 161.5,33 Z M161.5,34.1628571 C163.958982,34.1628571 165.952381,36.3374741 165.952381,39.02 C165.952381,41.7025259 163.958982,43.8771429 161.5,43.8771429 C159.041018,43.8771429 157.047619,41.7025259 157.047619,39.02 C157.047619,36.3374741 159.041018,34.1628571 161.5,34.1628571 Z M164.614048,37.32 L164.11381,36.7685714 C164.064445,36.7126995 163.996371,36.6811354 163.925238,36.6811354 C163.854105,36.6811354 163.786031,36.7126995 163.736667,36.7685714 L160.59381,40.1657143 L159.265952,38.7057143 C159.216588,38.6498423 159.148514,38.6182783 159.077381,38.6182783 C159.006248,38.6182783 158.938174,38.6498423 158.88881,38.7057143 L158.388571,39.2571429 C158.337355,39.3109952 158.308422,39.3852572 158.308422,39.4628571 C158.308422,39.5404571 158.337355,39.6147191 158.388571,39.6685714 L160.405238,41.8857143 C160.454603,41.9415862 160.522676,41.9731503 160.59381,41.9731503 C160.664943,41.9731503 160.733016,41.9415862 160.782381,41.8857143 L164.614048,37.7371429 C164.665264,37.6832905 164.694197,37.6090285 164.694197,37.5314286 C164.694197,37.4538286 164.665264,37.3795666 164.614048,37.3257143 L164.614048,37.32 Z" id="Shape" fill="#3ACC6C" fill-rule="nonzero" opacity="0.7"></path>
            <path d="M223.925674,59.0182816 C220.898251,58.761982 218.253254,61.2306519 218.016952,64.5331017 C217.78065,67.8355515 220.042467,70.7220391 223.069679,70.9812947 C226.09689,71.2405503 228.743912,68.7744641 228.982923,65.4722463 C229.097837,63.884572 228.629376,62.3122006 227.680762,61.1015982 C226.732149,59.8909957 225.381229,59.1415079 223.925674,59.0182816 Z M223.841867,60.1753669 C225.639444,60.3227211 227.178184,61.637977 227.739312,63.506755 C228.300441,65.3755331 227.773212,67.4290069 226.403905,68.7079623 C225.034598,69.9869178 223.093461,70.2389372 221.487235,69.3462978 C219.881009,68.4536584 218.926701,66.5925337 219.070086,64.6322881 C219.160356,63.3506676 219.714011,62.1607787 220.609066,61.3247825 C221.504121,60.4887863 222.667135,60.0752792 223.841867,60.1753669 Z M226.722744,63.5866258 L226.261803,62.9952266 C226.216905,62.9355 226.151751,62.8981503 226.081192,62.8916912 C226.010634,62.8852321 225.940685,62.9102141 225.887289,62.9609426 L222.516663,66.0836445 L221.296219,64.515151 C221.251272,64.4545488 221.185577,64.4166132 221.114364,64.4101395 C221.043152,64.4036659 220.972607,64.4292162 220.919086,64.480867 L220.376957,64.9836992 C220.322586,65.0330898 220.288847,65.1043774 220.28342,65.1813344 C220.277993,65.2582914 220.301341,65.3343694 220.348148,65.3922503 L222.199766,67.7721319 C222.244665,67.8318585 222.309819,67.8692083 222.380378,67.8756674 C222.450936,67.8821265 222.520885,67.8571445 222.57428,67.8064159 L226.691316,63.9951769 C226.746067,63.9461977 226.780305,63.875122 226.786226,63.7981511 C226.792147,63.7211803 226.769246,63.6448739 226.722744,63.5866258 Z" id="Shape" fill="#3ACC6C" fill-rule="nonzero" opacity="0.7"></path>
        </g>
    </g>
</svg>