<?xml version="1.0" encoding="UTF-8"?>
<svg width="290px" height="220px" viewBox="0 0 290 220" version="1.1" xmlns="http://www.w3.org/2000/svg" xmlns:xlink="http://www.w3.org/1999/xlink">
    <!-- Generator: Sketch 52.2 (67145) - http://www.bohemiancoding.com/sketch -->
    <title>img/man_cart</title>
    <desc>Created with Sketch.</desc>
    <defs>
        <linearGradient x1="49.9909728%" y1="99.9964804%" x2="49.9909728%" y2="0.00175981979%" id="linearGradient-1">
            <stop stop-color="#808080" stop-opacity="0.25" offset="0%"></stop>
            <stop stop-color="#808080" stop-opacity="0.12" offset="54%"></stop>
            <stop stop-color="#808080" stop-opacity="0.1" offset="100%"></stop>
        </linearGradient>
    </defs>
    <g id="img/man_cart" stroke="none" stroke-width="1" fill="none" fill-rule="evenodd">
        <g id="undraw_pie_chart_6efe" transform="translate(29.000000, 11.000000)">
            <path d="M76.3874715,7.49385959 C83.6811704,0.918166698 95.1335573,-0.417108892 105.555158,0.100699954 C138.293866,1.74761976 167.845432,17.7349679 193.406553,35.8199213 C202.65993,42.366847 211.771129,49.4219926 217.778123,58.4380994 C230.005377,76.7939435 226.379854,102.219317 209.375441,117.338856 C203.591192,122.483382 196.579478,126.429278 189.378194,129.924487 C176.582231,136.140591 162.764961,141.129295 148.236804,142.550872 C137.874443,143.562518 127.384123,142.740256 117.085743,141.325871 C88.3090437,137.377579 60.0607706,128.646746 36.3858694,113.709399 C26.0021824,107.157679 16.2132707,99.0141759 11.933732,88.4158754 C7.65419327,77.8175749 10.3934772,64.3857093 20.9951695,58.1120716 C25.3813413,55.5182328 30.6253165,54.3459711 35.7579194,53.2456273 C43.3146464,51.6250774 50.9922242,50.0285001 57.8096289,46.7370578 C64.8521478,43.3353414 73.19322,36.7572512 71.7904033,29.2370366 C70.3022802,21.1558624 69.1008815,14.0623607 76.3874715,7.49385959 Z" id="Path" fill="#6C63FF" opacity="0.1"></path>
            <ellipse id="Oval" fill="#6C63FF" opacity="0.1" cx="230" cy="199" rx="8" ry="1"></ellipse>
            <ellipse id="Oval" fill="#6C63FF" opacity="0.1" cx="93.5" cy="182.5" rx="35.5" ry="6.5"></ellipse>
            <ellipse id="Oval" fill="#6C63FF" opacity="0.1" cx="188" cy="180" rx="18" ry="4"></ellipse>
            <path d="M232.304415,182 C232.304415,182 233.506732,183.918465 231.750253,186.829736 C229.993773,189.741007 228.546684,192.189448 229.132177,194 C229.132177,194 231.781583,188.604317 233.93753,188.527578 C236.093477,188.450839 234.673803,185.239808 232.304415,182 Z" id="Path" fill="#6C63FF"></path>
            <path d="M232.273718,182 C232.380034,182.186133 232.464048,182.38955 232.523258,182.604196 C234.650283,185.632368 235.785093,188.456743 233.739267,188.526274 C231.834054,188.593407 229.54661,192.71968 229,193.76024 C229.017525,193.841771 229.039355,193.921855 229.065356,194 C229.065356,194 231.744933,188.605395 233.925431,188.528671 C236.105929,188.451948 234.670088,185.239161 232.273718,182 Z" id="Path" fill="#000000" opacity="0.1"></path>
            <path d="M235,184.522483 C235,185.340755 234.774648,186 234.5,186 C234.225352,186 234,185.340755 234,184.522483 C234,183.70421 234.28169,184.091661 234.556338,184.091661 C234.830986,184.091661 235,183.707101 235,184.522483 Z" id="Path" fill="#FFD037"></path>
            <path d="M235.52487,184.503143 C234.74387,184.854904 234.060495,185.068567 234.003809,184.979975 C233.947124,184.891383 234.529724,184.531805 235.310725,184.180044 C236.091725,183.828282 235.783104,184.083635 235.842938,184.180044 C235.902773,184.276452 236.30587,184.151381 235.52487,184.503143 Z" id="Path" fill="#FFD037"></path>
            <path d="M223.695267,182 C223.695267,182 222.4935,183.918465 224.249175,186.829736 C226.00485,189.741007 227.453233,192.189448 226.868008,194 C226.868008,194 224.217859,188.604317 222.0629,188.527578 C219.907941,188.450839 221.32305,185.239808 223.695267,182 Z" id="Path" fill="#6C63FF"></path>
            <path d="M223.726788,182 C223.620785,182.185989 223.537425,182.389471 223.479267,182.604196 C221.35059,185.632368 220.215956,188.456743 222.261466,188.526274 C224.168365,188.593407 226.453475,192.71968 227,193.76024 C226.982179,193.841758 226.960397,193.920879 226.936635,194 C226.936635,194 224.255492,188.605395 222.075331,188.528671 C219.895169,188.451948 221.326828,185.239161 223.726788,182 Z" id="Path" fill="#000000" opacity="0.1"></path>
            <path d="M221,184.522483 C221,185.340755 221.225352,186 221.5,186 C221.774648,186 222,185.340755 222,184.522483 C222,183.70421 221.71831,184.091661 221.443662,184.091661 C221.169014,184.091661 221,183.707101 221,184.522483 Z" id="Path" fill="#FFD037"></path>
            <path d="M220.474187,184.503143 C221.255478,184.854904 221.935957,185.068567 221.995813,184.979975 C222.05567,184.891383 221.466552,184.531805 220.685261,184.180044 C219.903971,183.828282 220.212706,184.083635 220.156,184.180044 C220.099293,184.276452 219.692896,184.151381 220.474187,184.503143 Z" id="Path" fill="#FFD037"></path>
            <path d="M222,193.287768 C222,193.287768 226.029892,193.156964 227.244734,192.248739 C228.459577,191.340514 233.448184,190.254592 233.748957,191.713182 C234.04973,193.171772 239.806719,198.961708 235.255173,198.998728 C230.703627,199.035748 224.681112,198.258327 223.46627,197.478438 C222.251428,196.698549 222,193.287768 222,193.287768 Z" id="Path" fill="#A8A8A8"></path>
            <path d="M235.333089,198.55628 C230.781416,198.588655 224.758732,197.908774 223.543856,197.226735 C222.620362,196.708731 222.251435,194.852549 222.133942,194 L222,194 C222,194 222.253785,196.987158 223.466311,197.669197 C224.678837,198.351236 230.70387,199.033275 235.255544,198.998742 C236.569114,198.998742 237.022636,198.567071 236.999137,197.919566 C236.811149,198.308069 236.320029,198.547646 235.333089,198.55628 Z" id="Path" fill="#000000" opacity="0.2"></path>
            <ellipse id="Oval" fill="#6C63FF" opacity="0.1" cx="8" cy="188" rx="8" ry="1"></ellipse>
            <path d="M2,182.57519 C2,182.57519 6.56931523,182.427847 7.94466234,181.406434 C9.32000946,180.385021 14.9723506,179.158826 15.3149894,180.804575 C15.6576281,182.450323 22.1797446,188.953403 17.0233909,188.998355 C11.8670373,189.043307 5.04301539,188.159248 3.6652722,187.287676 C2.28752901,186.416103 2,182.57519 2,182.57519 Z" id="Path" fill="#A8A8A8"></path>
            <path d="M17.1047842,187.471796 C11.9493307,187.511447 5.13206368,186.690444 3.75520082,185.874106 C2.70878505,185.253689 2.29213438,183.028586 2.15325082,182 L2,182 C2,182 2.28973984,185.587222 3.67618087,186.401227 C5.0626219,187.215233 11.8703108,188.033903 17.0257642,187.998917 C18.5127761,187.998917 19.0276031,187.469464 18.9988685,186.706771 C18.7785705,187.180247 18.2110635,187.471796 17.1047842,187.471796 Z" id="Path" fill="#000000" opacity="0.2"></path>
            <ellipse id="Oval" fill="#6C63FF" cx="37.5" cy="195" rx="8.5" ry="1"></ellipse>
            <path d="M40.1341307,190.739217 C40.5352322,190.437539 40.8278205,190.030539 40.9732373,189.571991 C41.0793312,189.108665 40.8671434,188.551782 40.3873094,188.382489 C39.8496061,188.193149 39.2757343,188.538417 38.8417137,188.885911 C38.407693,189.233406 37.906158,189.629907 37.3371087,189.554171 C37.9331683,189.05472 38.2022078,188.303172 38.0460091,187.573896 C38.0210656,187.426046 37.9526747,187.287356 37.8482886,187.17294 C37.5492966,186.876678 37.009182,187.003648 36.6426757,187.235311 C35.5069883,187.974851 35.1959402,189.398244 35.183884,190.681302 C35.0705564,190.217975 35.1670055,189.736828 35.162183,189.262364 C35.1573606,188.7879 35.0199207,188.262203 34.5859,188.006037 C34.3158774,187.871785 34.0123003,187.805707 33.7058026,187.814469 C33.197034,187.798876 32.6279847,187.845654 32.2783569,188.190922 C31.8467475,188.618608 31.9576639,189.3381 32.3338151,189.810337 C32.7099663,190.282573 33.2838381,190.576608 33.8118965,190.901827 C34.2353476,191.134759 34.5963714,191.45305 34.8680135,191.832935 C34.89974,191.886382 34.9263642,191.942282 34.9475839,192 L38.1472806,192 C38.8684045,191.664944 39.5368202,191.240792 40.1341307,190.739217 Z" id="Path" fill="#6C63FF"></path>
            <polygon id="Path" fill="#6C63FF" points="98.3125 112.375385 97 112 97.0617898 112.918974 100 114 99.4673295 112.477949"></polygon>
            <polygon id="Path" fill="#000000" opacity="0.03" points="98.3125 112.375385 97 112 97.0617898 112.918974 100 114 99.4673295 112.477949"></polygon>
            <path d="M144.404008,160 C156.983494,147.106339 164.025948,129.706607 163.999928,111.584517 C163.999928,111.390487 163.999928,111.196456 164,111 L96,111 L144.404008,160 Z" id="Path" fill="#6C63FF"></path>
            <path d="M144.404008,160 C156.983494,147.106339 164.025948,129.706607 163.999928,111.584517 C163.999928,111.390487 163.999928,111.196456 164,111 L96,111 L144.404008,160 Z" id="Path" fill="#000000" opacity="0.03"></path>
            <path d="M144.404008,161 C156.983494,148.106339 164.025948,130.706607 163.999928,112.584517 C163.999928,112.388061 163.999928,112.194031 164,112 L96,112 L144.404008,161 Z" id="Path" fill="#6C63FF"></path>
            <path d="M144.404008,161 C156.983494,148.106339 164.025948,130.706607 163.999928,112.584517 C163.999928,112.388061 163.999928,112.194031 164,112 L96,112 L144.404008,161 Z" id="Path" fill="#FFFFFF" opacity="0.15"></path>
            <path d="M205.821991,101.74238 L204.784911,92.3510137 C204.784911,92.3510137 202.907275,83.8956955 202.639718,79.6692243 C202.372161,75.4427531 200.342989,75.1339047 200.326414,75.1339047 C200.326414,75.1339047 197.823689,73.665687 197.60112,73.1762811 C197.428273,72.8009116 196.038396,72.0026573 195.408571,71.6510453 L195.100762,71.4871181 C195.100762,71.4871181 194.319401,68.2204526 193.38887,68.6884767 L193.313102,68.4675313 C193.068932,67.7647349 192.921559,67.0317736 192.875065,66.2889624 C192.875065,66.1963079 192.875065,66.1060291 192.875065,66.0157504 C193.898754,65.0160054 194.63491,63.7578532 195.006052,62.3737153 C195.13216,61.8867048 195.211448,61.3886856 195.242828,60.8864916 C195.242828,60.7938371 195.242828,60.6988068 195.242828,60.6037766 C195.699806,60.2830494 195.775575,59.603583 195.896331,59.0357771 C196.1189,57.9951957 196.70137,57.0638991 196.978398,56.0375722 C197.002076,55.9496692 197.021018,55.8593904 197.037592,55.7667359 C197.037592,55.7477298 197.037592,55.7287238 197.037592,55.707342 C197.07119,55.5190867 197.089404,55.3283918 197.092051,55.1371604 C197.092051,55.1229058 197.092051,55.111027 197.092051,55.0967725 C197.092051,54.3222758 196.855274,53.5620336 196.215978,53.148652 C196.068347,53.0719648 195.931419,52.9761111 195.808723,52.8635612 C195.717502,52.7510343 195.646949,52.6231282 195.60036,52.4858159 L195.126808,51.3549557 C195.075514,51.2065442 194.994992,51.0700017 194.890031,50.9534528 C194.702193,50.8103745 194.486988,50.7076653 194.257839,50.6517317 C193.54751,50.3785196 193.073958,49.7156835 192.725896,49.0552231 C192.377835,48.3947628 192.058187,47.6820358 191.51597,47.1546178 C190.635162,46.3112241 189.328157,46.1330424 188.115863,46 C188.026158,46.3802516 187.997385,46.7724119 188.030623,47.161745 C186.105632,46.7388603 184.005427,46.3326059 182.231973,47.1855026 C181.916525,47.3162174 181.662534,47.5625708 181.521644,47.8744721 C181.509958,47.9110892 181.50047,47.9483763 181.493231,47.9861326 C181.488482,48.0343222 181.488482,48.0828642 181.493231,48.1310538 C181.51623,48.2347359 181.526566,48.3408413 181.524012,48.4470294 C181.48246,48.594922 181.372197,48.7135238 181.228041,48.7653808 C180.645572,49.0243383 179.942346,48.6893566 179.333831,48.8960474 C178.777407,49.086108 178.469598,49.6729199 178.296751,50.2335985 C178.123905,50.7942771 178.01262,51.3953435 177.636146,51.8443615 C177.446725,52.0819372 177.19811,52.2411129 177.001585,52.4620583 C176.64148,52.8769849 176.478248,53.4281289 176.554078,53.9730396 C176.552945,53.9872714 176.552945,54.0015713 176.554078,54.0158032 C176.554078,54.0870759 176.580123,54.1583486 176.599066,54.2296213 C176.62382,54.3107115 176.653877,54.3900756 176.689041,54.467197 C176.722189,54.5360939 176.757706,54.6026151 176.79559,54.6691363 C177.060779,55.1181543 177.456196,55.5077784 177.555642,56.0161903 C177.555642,56.0161903 177.555642,56.0304449 177.555642,56.0351964 C177.671662,56.6885295 177.257304,57.3109778 177.153122,57.9619351 C177.153122,58.0142017 177.138915,58.0640926 177.136548,58.1163593 C177.136548,58.1163593 177.136548,58.1163593 177.136548,58.1306138 C177.136548,58.1828805 177.136548,58.2375229 177.136548,58.2921653 C177.172064,59.242468 178.041033,59.8720435 178.557205,60.570516 C178.694535,60.755825 178.950254,61.2951218 179.224914,61.4970611 C179.239121,61.5992186 179.255695,61.6990004 179.277005,61.7964064 C179.421338,62.5678539 179.681602,63.3128329 180.048896,64.0058602 C180.945427,65.6964959 182.411444,67.0125351 184.185377,67.719168 C184.185377,67.8118225 184.204319,67.9068527 184.21379,68.001883 C184.21379,68.177689 184.237468,68.3582465 184.237468,68.5340525 C184.237468,68.6195798 184.237468,68.705107 184.237468,68.7906342 L184.159331,68.187192 C183.866099,68.1257864 183.563809,68.121753 183.269053,68.1753132 C170.601805,56.1908737 153.849815,49.5152164 136.439445,49.5137442 L136.439445,82.3205688 C134.483673,81.7313811 132.887801,81.6648599 133.006189,83.0523018 C133.115106,84.4777559 134.663623,85.922216 136.439445,87.1172216 L136.439445,118.261016 L170.592052,118.261016 C170.627568,119.054519 170.698601,119.767246 170.828828,119.940676 C171.195831,120.387319 171.162683,125.737523 171.162683,125.737523 C171.162683,125.737523 171.342633,126.71871 171.38762,126.894516 C171.432608,127.070322 171.967722,131.612769 171.967722,131.833715 C171.967722,132.05466 172.460217,133.615532 172.415229,134.23798 C172.370242,134.860429 173.220268,136.905955 173.220268,136.905955 L173.352863,140.645396 C173.352863,140.645396 174.738004,142.738438 174.827979,142.87148 C174.917954,143.004523 174.872967,145.629734 176.390702,146.877006 C176.630416,147.106257 176.801072,147.398504 176.883197,147.7204 C176.99685,148.171794 180.808947,154.59584 181.988093,156.577221 L181.846027,157.24956 L180.898922,161.694601 L180.853935,163.564321 C180.853935,163.564321 180.271465,165.165581 180.451415,165.833169 C180.560247,166.178389 180.590985,166.543616 180.54139,166.90226 C180.54139,166.90226 179.916301,167.878696 180.318821,168.50352 C180.72134,169.128344 180.496403,169.482331 179.916301,171.083591 C179.660583,171.796318 179.880785,172.216827 180.207536,172.478161 C180.207536,172.556561 180.188594,172.639712 180.179123,172.715736 C180.096251,173.428463 180.003908,174.243348 180.003908,174.459542 C180.003908,174.675736 179.921036,175.64742 179.916301,176.502693 C179.916301,177.179783 179.958921,177.787977 180.138871,177.887759 C180.54139,178.108704 182.776558,178.36291 182.819178,179.132655 C182.861798,179.9024 183.714192,181 185.499485,181 C187.284778,181 190.369973,180.377552 191.127657,180.465455 C191.253148,180.482085 191.326549,180.398934 191.364433,180.251637 C191.371333,180.226617 191.376867,180.201238 191.381007,180.175612 C191.650089,180.481337 192.019949,180.679542 192.422823,180.733915 C195.10313,181.225697 198.363539,180.021188 198.990996,178.821431 C199.069114,178.670573 199.129502,178.511121 199.170946,178.34628 C199.469284,177.158401 198.990996,175.66405 198.990996,175.66405 C198.848176,175.061287 198.828844,174.435699 198.93417,173.825215 C198.988422,173.550419 199.115162,173.295261 199.301173,173.086354 C199.729738,172.634961 200.144097,171.394816 200.423493,170.396998 C200.638959,169.620125 200.776289,168.988174 200.776289,168.988174 C200.776289,168.988174 200.494525,168.555786 200.06596,167.961847 C199.206463,166.752587 197.755024,164.873363 196.848171,164.552636 C196.803478,164.464183 196.771587,164.369786 196.753461,164.272297 C196.710841,163.82803 195.770839,162.371692 195.770839,162.371692 C195.770839,162.371692 194.475673,160.27865 194.475673,160.102844 C194.475673,159.927038 192.69038,157.209172 192.69038,157.209172 C192.69038,157.209172 192.003729,155.714821 191.551486,154.904688 C191.603577,154.762143 191.655668,154.581585 191.710126,154.367767 C192.183679,152.495671 192.657231,148.221684 192.555418,147.642 C192.420455,146.929273 192.318641,146.173782 193.000557,145.149831 C193.682473,144.12588 193.628014,142.481856 193.628014,142.481856 C193.628014,142.481856 193.583026,137.450004 194.073153,136.428428 C194.56328,135.406853 195.948421,127.217619 195.905802,127.037062 C195.863182,126.856504 196.260966,125.737523 196.260966,125.737523 L196.343838,122.508869 L196.343838,122.311682 C196.343838,122.311682 196.656382,119.508289 197.054166,118.883465 C197.137568,118.690901 197.179523,118.482844 197.17729,118.272895 L204.548135,118.272895 C204.548135,117.826253 204.531561,117.381986 204.519722,116.93772 L204.548135,116.93772 C204.52431,113.8231 204.286974,110.713814 203.837806,107.631881 C204.529193,106.790863 205.365013,106.206427 205.391058,106.025869 C205.508904,105.478369 205.672869,104.941896 205.881185,104.422234 C206.179523,103.521822 205.821991,101.74238 205.821991,101.74238 Z M190.945339,171.382937 C190.945339,171.382937 191.13476,171.2689 191.442569,171.109725 C191.461511,171.185749 191.480453,171.266525 191.499395,171.3473 C191.698287,172.207324 191.937432,173.399954 191.882973,173.960633 C191.79063,174.894305 191.646197,176.364899 191.646197,176.364899 C191.395674,176.896059 191.205836,177.453949 191.080301,178.027928 C190.938236,177.441116 190.798538,176.977844 190.798538,176.977844 C190.798538,176.977844 187.758331,174.934693 187.758331,173.908366 C187.737784,173.393643 187.668009,172.88209 187.549967,172.380755 C187.523922,172.252464 187.495509,172.128924 187.467096,172.007761 C187.599237,172.168988 187.712082,172.345205 187.803318,172.532803 C187.803318,172.532803 188.710171,170.325725 188.928005,169.444319 C188.967531,169.33657 188.980527,169.220835 188.965889,169.106962 C188.899528,168.807702 188.881145,168.49974 188.911431,168.194671 C189.12453,168.432247 189.287905,168.669823 189.233447,168.840877 C189.110323,169.247131 190.945339,171.382937 190.945339,171.382937 Z" id="Shape" fill="url(#linearGradient-1)" fill-rule="nonzero"></path>
            <path d="M191.735457,180.455247 C191.009349,180.364862 188.05896,181 186.344793,181 C184.630626,181 183.817201,179.866523 183.778138,179.089701 C183.739076,178.312878 181.597516,178.046609 181.211484,177.819425 C181.041446,177.716826 180.997787,177.086574 181.000085,176.402579 C181.000085,175.530486 181.082806,174.54358 181.082806,174.313953 C181.082806,174.084326 181.170123,173.258647 181.250546,172.533124 C181.319481,171.905315 181.383819,171.360562 181.383819,171.360562 C183.394404,168.768711 187.973941,170.676568 187.973941,170.676568 C187.973941,170.676568 188.169255,171.397205 188.327804,172.203341 C188.440513,172.715815 188.507447,173.23846 188.527713,173.764314 C188.527713,174.812292 191.43904,176.903361 191.43904,176.903361 C191.636085,177.61267 191.797163,178.332715 191.92158,179.060387 C192.038768,179.829881 192.059449,180.496775 191.735457,180.455247 Z" id="Path" fill="#53517C"></path>
            <path d="M191.735457,181.523911 C191.009349,181.447396 188.05896,182 186.347091,182 C184.635222,182 183.819499,181.01169 183.780436,180.337938 C183.741373,179.664187 181.597516,179.428268 181.211484,179.230606 C181.041446,179.143464 180.997787,178.592986 181,178 C181.818106,178.229543 182.95782,178.605739 183.353043,178.994687 C183.994133,179.632306 184.164171,180.337938 184.593861,180.418704 C185.023552,180.499469 185.448647,181.056323 187.500592,180.575983 C188.78277,180.278427 190.676167,180.276302 191.92158,180.316684 C192.038768,180.981934 192.059449,181.560043 191.735457,181.523911 Z" id="Path" fill="#000000" opacity="0.1"></path>
            <path d="M199.637979,173.404568 C198.940413,174.188124 199.353213,175.928319 199.353213,175.928319 C199.353213,175.928319 199.92716,177.846277 199.353213,179.02278 C198.779266,180.199283 195.777081,181.361752 193.311316,180.893957 C192.833229,180.836529 192.413144,180.531613 192.189912,180.079995 C191.587267,178.821628 192.611542,176.625333 192.611542,176.625333 C192.611542,176.625333 192.735162,175.189204 192.819046,174.274666 C192.867611,173.722669 192.646862,172.555522 192.465848,171.713492 C192.344436,171.161494 192.245099,170.747496 192.245099,170.747496 C192.245099,170.747496 195.99783,165.042743 197.136894,165.000641 C197.191205,164.997853 197.24559,165.004168 197.298041,165.019353 C198.123642,165.234539 199.529812,167.16653 200.348791,168.389812 C200.739516,168.974555 201,169.397909 201,169.397909 C201,169.397909 200.339961,172.621013 199.637979,173.404568 Z" id="Path" fill="#53517C"></path>
            <path d="M199.610526,173.168872 C198.897744,173.976508 199.319549,175.770183 199.319549,175.770183 C199.319549,175.770183 199.906015,177.747084 199.319549,178.957333 C198.733083,180.167582 195.665414,181.382652 193.145865,180.886016 C192.657951,180.826922 192.228963,180.513729 192,180.04945 C192.726316,179.885512 193.869925,179.675767 195.665414,179.451558 C199.989474,178.911526 198.854887,175.861796 198.854887,175.861796 C198.854887,175.861796 198.35188,173.706492 198.981203,172.62884 C199.432331,171.864599 200.025564,169.374187 200.334586,168 C200.73609,168.600303 201,169.036667 201,169.036667 C201,169.036667 200.32782,172.361235 199.610526,173.168872 Z" id="Path" fill="#000000" opacity="0.1"></path>
            <path d="M187,171.493361 C186.47987,170.889036 184.940909,169.72509 181.837662,172 C181.53418,171.969292 181.245414,171.871692 181,171.716878 C181.058442,171.291367 181.112987,170.922149 181.112987,170.922149 C182.817532,169.165468 186.7,170.458558 186.7,170.458558 C186.7,170.458558 186.865584,170.946985 187,171.493361 Z" id="Path" fill="#000000" opacity="0.1"></path>
            <path d="M196,121.998711 L196,122.192514 L195.911856,125.390271 C195.911856,125.390271 195.522168,126.491642 195.56624,126.666538 C195.610312,126.841434 194.271918,134.938636 193.794086,135.950196 C193.316253,136.961755 193.360325,141.936831 193.360325,141.936831 C193.360325,141.936831 193.402078,143.562889 192.752597,144.576812 C192.103116,145.590735 192.200539,146.342314 192.330435,147.051351 C192.437135,147.623308 191.970901,151.851532 191.513945,153.702119 C191.464586,153.996329 191.359826,154.27803 191.205441,154.531692 C191.159178,154.592657 191.123842,154.661465 191.101061,154.734949 C190.479415,156.368098 188.87427,166.455331 188.87427,166.455331 C188.87427,166.455331 188.858033,166.649134 188.841796,166.913841 C188.813961,167.400713 188.788446,168.133385 188.87427,168.303554 C188.888232,168.416062 188.875505,168.530341 188.837157,168.636801 C188.628395,169.508917 187.751596,171.692751 187.751596,171.692751 C187.751596,171.692751 186.067586,167.863951 181.358852,172 C181.358852,172 179.544945,171.822741 180.108602,170.239225 C180.672258,168.655709 180.885659,168.303554 180.49597,167.689055 C180.106282,167.074556 180.711691,166.105539 180.711691,166.105539 C180.760446,165.75126 180.731128,165.390363 180.625867,165.049074 C180.451899,164.38967 181.015555,162.806154 181.015555,162.806154 L181.059627,160.95793 L181.9689,156.561901 L182.242609,155.238365 L182.525597,153.869924 L184.03332,127.198315 L184.091309,126.205664 L184.513472,118.71587 L194.703358,117 L195.051294,119.725066 L195.603353,121.062782 L196,121.998711 Z" id="Path" fill="#B3D7F7"></path>
            <path d="M192.068453,121.7042 L185.733249,125.98338 L185.968671,129.72887 C185.968671,129.72887 186.625498,135.754013 186.625498,136.381884 C186.625498,137.009754 186.317095,142.136559 186.317095,142.136559 C186.317095,142.136559 187.896777,144.551447 187.729627,145.150339 C187.562477,145.749231 189.085657,147.396184 189.085657,147.396184 L191.694133,152.515744 C191.694133,152.515744 192.134372,154.186846 192.400398,154.500781 C192.350302,154.801394 192.243978,155.089225 192.087287,155.348407 C191.562296,155.886926 189.721297,167.531512 189.721297,167.531512 C189.721297,167.531512 189.704817,167.729533 189.688338,168 C189.554147,167.876841 189.452916,167.801979 189.452916,167.801979 C189.452916,167.801979 188.181637,165.64307 188.181637,165.420901 C188.181637,165.198731 186.823252,163.397225 186.823252,163.397225 L183.7251,157.328614 L183,156.070458 L183.287215,154.672238 L185.304781,118.753208 L195.646867,117 L196,119.784365 L186.583122,122.245135 L192.068453,121.7042 Z" id="Path" fill="#000000" opacity="0.1"></path>
            <path d="M195.881523,122.898588 L184,127 L184.440056,119.677535 L195.061858,118 L195.424542,120.664185 L196,121.972015 C195.927463,122.501155 195.881523,122.898588 195.881523,122.898588 Z" id="Path" fill="#000000" opacity="0.1"></path>
            <path d="M188.795034,168.670185 C188.808759,168.781534 188.796248,168.894637 188.758551,169 C188.601216,168.731002 188.505447,168.511125 188.53053,168.410543 C188.658221,168.017572 187.511274,167.102978 187.511274,167.102978 C187.511274,167.102978 186.28224,165.01181 186.28224,164.796611 C186.28224,164.581413 184.964277,162.836433 184.964277,162.836433 L182,157.049464 L182.269065,155.73956 L182.547251,154.385212 L184.03623,128 L184.125158,130.229176 C184.125158,130.229176 184.768178,136.053571 184.768178,136.654724 C184.768178,137.255876 184.471751,142.228834 184.471751,142.228834 C184.471751,142.228834 185.999493,144.567948 185.839878,145.148049 C185.680263,145.728149 187.155561,147.323425 187.155561,147.323425 L189.702559,152.289366 C189.702559,152.289366 190.158601,154.076449 190.425386,154.249544 C190.656418,154.551785 190.849472,154.882637 191,155.234311 C190.388903,156.850639 188.810996,166.83398 188.810996,166.83398 C188.810996,166.83398 188.795034,167.025787 188.779073,167.287768 C188.735749,167.776643 188.710666,168.501769 188.795034,168.670185 Z" id="Path" fill="#000000" opacity="0.1"></path>
            <path d="M198,167.222408 C198,167.222408 196.210676,170.900105 194.859075,170.992779 C193.947331,171.053749 192.837011,171.629304 192.213523,172 C192.096085,171.424445 192,170.992779 192,170.992779 C192,170.992779 195.629893,165.044567 196.731673,165.000669 C196.784205,164.997762 196.83681,165.004346 196.887544,165.020179 C196.887544,165.020179 196.887544,165.037251 196.887544,165.042128 C196.925979,165.498182 198,167.222408 198,167.222408 Z" id="Path" fill="#000000" opacity="0.1"></path>
            <path d="M198,166.969179 C198,166.969179 196.021453,170.606033 194.526919,170.697678 C193.032384,170.789323 191.056198,172 191.056198,172 C191.056198,172 189.252368,169.843934 189.382225,169.441179 C189.512082,169.038424 188.329204,168.093035 188.329204,168.093035 C188.329204,168.093035 187.054245,165.936969 187.054245,165.715092 C187.054245,165.493215 185.689568,163.694081 185.689568,163.694081 L182.570642,157.633461 C182.570642,157.633461 177.340951,148.649853 177.208733,148.112042 C177.128424,147.787103 176.959815,147.491975 176.72236,147.26071 C175.230186,146.001799 175.272685,143.353744 175.185327,143.218689 L173.735652,140.973389 L173.603434,137.20148 C173.603434,137.20148 172.767628,135.137059 172.812487,134.507603 C172.857347,133.878147 172.370974,132.308126 172.370974,132.081426 C172.370974,131.854725 171.844463,127.279717 171.801965,127.098839 C171.759466,126.917961 171.580027,125.931573 171.580027,125.931573 C171.580027,125.931573 171.624887,120.543819 171.275454,120.09283 C171.081849,119.85166 171.020462,118.58069 171.006296,117.476128 C170.99213,116.552444 171.006296,115.739699 171.006296,115.739699 L196.895036,113 C196.895036,113 197.055586,114.507317 197.147667,116.017045 C197.230303,117.36519 197.258635,118.720569 197.072114,119.017209 C196.67546,119.646664 196.363803,122.475597 196.363803,122.475597 L184.671962,126.785317 L184.801819,130.062827 C184.801819,130.062827 185.462908,136.080036 185.462908,136.70708 C185.462908,137.334124 185.153613,142.454178 185.153613,142.454178 C185.153613,142.454178 186.735506,144.865885 186.570233,145.463988 C186.404961,146.062091 187.930189,147.706875 187.930189,147.706875 L190.567464,152.826929 C190.567464,152.826929 191.053837,154.669474 191.315912,154.84794 C191.577987,155.026406 192.770309,157.681696 192.770309,157.681696 C192.770309,157.681696 194.526919,160.423806 194.526919,160.602273 C194.526919,160.780739 195.801877,162.893394 195.801877,162.893394 C195.801877,162.893394 196.725042,164.374182 196.76754,164.82276 C196.810039,165.271337 198,166.969179 198,166.969179 Z" id="Path" fill="#B3D7F7"></path>
            <path d="M182,144 C182,144 183.88397,145.963761 184.844548,145.999534 C185.805125,146.035307 182,144 182,144 Z" id="Path" fill="#000000" opacity="0.1"></path>
            <path d="M191,168.595459 C191,168.595459 197.798046,166.180163 196.922073,167.293077 C196.046099,168.405991 193.568699,169 193.568699,169 L191,168.595459 Z" id="Path" fill="#000000" opacity="0.1"></path>
            <path d="M182,168 C182,168 185.53469,168.283887 186,169 C186,169 182.233698,168.046036 182,168 Z" id="Path" fill="#000000" opacity="0.1"></path>
            <path d="M182,169 C182,169 185.019531,169.200717 186,170 C186,170 182.800781,169.799283 182,169 Z" id="Path" fill="#000000" opacity="0.1"></path>
            <path d="M145.491142,92 L144.283476,91.4947789 L142.370926,90.6963491 C142.370926,90.6963491 133.286317,87.3785799 133.00535,84.0630663 C132.724383,80.7475526 143.603239,86.2463433 143.603239,86.2463433 C143.902136,86.6840483 144.239247,87.0989015 144.611271,87.4868416 C144.958783,87.8432029 145.350658,88.1454334 145.668595,88.1770098 C146.506568,88.2604615 145.491142,92 145.491142,92 Z" id="Path" fill="#C37871"></path>
            <path d="M195,72.5500937 L192.02276,76 L184.786344,73.6171004 L183,72.1927819 L184.141685,70.6797516 C184.53291,70.1622657 184.651015,69.3737156 184.633791,68.5605234 C184.633791,68.3781712 184.633791,68.1908906 184.609186,68.0085384 C184.526608,67.0953793 184.355198,66.1924771 184.097396,65.312683 C184.097396,65.312683 194.402091,62.6956827 193.668854,64.8518741 C193.527089,65.2998594 193.468707,65.7701162 193.496617,66.2392293 C193.543537,67.0054292 193.695037,67.7615808 193.946894,68.4865969 C194.156526,69.129194 194.415661,69.7545206 194.72196,70.3569389 L195,72.5500937 Z" id="Path" fill="#C37871"></path>
            <path d="M192.965013,65.7360772 C192.83223,66.1246474 192.777548,66.5325353 192.803689,66.9394313 C190.607837,68.9459327 187.335708,69.5491737 184.479363,68.4740817 C184.402017,67.6820325 184.241468,66.8988797 184,66.1357703 C184,66.1357703 193.651793,63.8722678 192.965013,65.7360772 Z" id="Path" fill="#000000" opacity="0.1"></path>
            <path d="M196,60.9989024 C196,61.1898399 196,61.3807774 195.978517,61.5693282 C195.724577,65.136685 193.132897,68.1018666 189.631296,68.8312848 C186.129694,69.5607031 182.569396,67.8770394 180.911854,64.7078634 C180.547904,64.0150657 180.289639,63.2717325 180.145631,62.5025353 C180.047519,62.0073672 179.998745,61.5036931 180.000025,60.9989024 C180.000212,60.5598437 180.036939,60.1215619 180.109826,59.6885938 C180.78174,55.6343764 184.417927,52.7496712 188.519179,53.0171811 C192.620431,53.2846909 195.850994,56.6172894 195.990452,60.7244298 C195.997613,60.8151251 196,60.9082071 196,60.9989024 Z" id="Path" fill="#C37871"></path>
            <path d="M195,72.7847769 L192.02276,76 L184.786344,73.7791995 L183,72.4517717 L184.141685,71.0416667 C184.53291,70.5593832 184.651015,69.8244751 184.633791,69.066601 L184.963502,71.4251969 L185.042239,71.4986877 L185.514661,71.9396325 L186.110109,71.9396325 L187.256715,73.3933727 C187.256715,73.3933727 188.90527,72.1555118 189.043059,72.4517717 C189.180849,72.7480315 191.424851,71.9396325 191.424851,71.9396325 L191.51097,71.9396325 C193.543367,71.859252 193.897683,69.0344488 193.897683,69.0344488 C193.897683,69.0344488 193.92967,69.0091864 193.946894,69 C194.156526,69.5988839 194.415661,70.181672 194.72196,70.7431102 L195,72.7847769 Z" id="Path" fill="#000000" opacity="0.1"></path>
            <path d="M197,115.92138 C196.950694,116.110535 196.896692,116.295018 196.837994,116.479502 C195.13341,121.869227 182.849132,122 182.849132,122 L182.499293,118.653607 L181.325336,120.914115 C181.325336,120.914115 173.722796,118.826414 171.006261,117.334198 C170.992174,116.439803 171.006261,115.652828 171.006261,115.652828 L196.751121,113 C196.751121,113 196.908431,114.464193 197,115.92138 Z" id="Path" fill="#000000" opacity="0.1"></path>
            <path d="M145.404951,91 L144,90.5522239 C144.323999,89.4887556 144.381344,87.3778111 144.389946,87 C144.794228,87.3158421 145.25012,87.5837081 145.619995,87.6116942 C146.586258,87.6856572 145.404951,91 145.404951,91 Z" id="Path" fill="#000000" opacity="0.1"></path>
            <path d="M197.449844,104.622556 C197.449844,104.622556 199.414168,111.726279 197.675022,117.301568 C195.935877,122.876856 183.402532,123 183.402532,123 L183.0456,119.539893 L181.847842,121.87963 C181.847842,121.87963 172.483766,119.269458 170.655987,117.741023 C168.828207,116.212588 169.762459,113.921142 169.762459,113.921142 C169.762459,113.921142 170.387689,110.956025 170.921889,110.323403 C171.456089,109.69078 171.547119,107.491088 171.367455,107.184436 C171.187791,106.877783 171.992685,103.900593 172.260983,103.451479 C172.529281,103.002366 172.215468,90.9994388 172.215468,90.9994388 C172.215468,90.9994388 168.246097,92.7958938 168.023314,93.3367619 C167.80053,93.8776301 163.117295,96.4757289 163.117295,96.4757289 C163.117295,96.4757289 158.702357,97.0165971 157.899859,97.0165971 C157.097361,97.0165971 152.680027,96.4757289 152.680027,96.4757289 C152.680027,96.4757289 151.482269,96.4298517 151.120546,96.1618322 C150.757647,95.9438652 150.3667,95.7773039 149.95872,95.6668413 C149.95872,95.6668413 148.713051,95.3964072 148.353724,94.9038308 C147.994396,94.4112545 145,92.7451874 145,92.7451874 C145.579715,92.3854135 145.62523,87.6745484 145.62523,87.6745484 L151.288232,89.0677668 C151.288232,89.0677668 151.64756,88.3047564 152.18176,88.6186531 C152.71596,88.9325498 155.973863,89.1957401 155.973863,89.1957401 C155.973863,89.1957401 158.69517,88.6572865 158.829319,88.8794288 C158.963468,89.1015711 159.36352,89.0605231 159.36352,89.0605231 C159.36352,89.0605231 159.900115,89.0146459 159.900115,88.8383808 C159.900115,88.6621157 160.379219,88.8794288 160.379219,88.8794288 L161.272747,89.0146459 C161.272747,89.0146459 161.138598,87.8483989 161.541045,87.7590591 C161.775374,87.7010723 161.950959,87.5049559 161.984215,87.2640681 C161.984215,87.2640681 163.181974,85.6462928 163.768875,85.6462928 C164.355777,85.6462928 164.751037,84.0285175 164.751037,84.0285175 L166.89263,81.8264114 C166.89263,81.8264114 166.624332,80.7012125 166.89263,80.6553353 C167.160927,80.6094581 167.201651,80.1168817 167.201651,80.1168817 C167.201651,80.1168817 167.292681,79.1293144 167.783762,78.9095867 C168.274843,78.689859 168.540745,77.3835659 168.540745,77.3835659 C168.540745,77.3835659 170.814091,74.8216859 170.993755,73.9210438 C171.173418,73.0204017 172.110065,72.8417221 172.110065,72.8417221 C172.616381,72.5109301 173.173165,72.2662134 173.758181,72.1173451 C174.51756,71.982128 176.525003,71.7551566 176.525003,71.7551566 C176.525003,71.7551566 180.180562,71.4436745 180.53989,71.0307796 C180.899217,70.6178847 181.519656,70.6685911 181.919707,70.6685911 C182.006353,70.6623361 182.089441,70.6313486 182.159259,70.5792513 C182.520982,70.3522798 182.952175,69.7196572 183.383368,69.3212499 C183.917569,68.8262589 184.854216,69.0508158 184.854216,69.0508158 L185.256663,72.1535639 L185.330924,72.2284162 L185.790863,72.6920175 L186.370578,72.6920175 L187.486889,74.2228676 C187.486889,74.2228676 189.091885,72.918989 189.226034,73.2328857 C189.360183,73.5467824 191.544895,72.6920175 191.544895,72.6920175 L191.628738,72.6920175 C193.607435,72.6075069 193.952389,69.6399758 193.952389,69.6399758 C194.934551,68.7827963 195.782564,72.38295 195.782564,72.38295 L196.091586,72.5495567 C196.719211,72.9020868 198.108611,73.7085599 198.278693,74.0900651 C198.501476,74.5729831 201,76.0651997 201,76.0651997 L197.449844,104.622556 Z" id="Path" fill="#53517C"></path>
            <path d="M198,115.184804 L196.594087,116.332784 L195.001571,117.628473 C195.001571,117.628473 192.049155,124.625194 188.005238,122.647973 C183.961322,120.670751 193.424393,113.352699 193.424393,113.352699 L194.73317,112.710038 L196.182538,112 L198,115.184804 Z" id="Path" fill="#C37871"></path>
            <path d="M184,72.1160138 C183.133384,72.6739725 182.040693,74 182.040693,74 L182,70.523847 C182.227581,70.3020642 182.49887,69.6927453 182.770158,69.3052091 C183.106255,68.838298 183.695554,69.0460734 183.695554,69.0460734 L183.948757,72.0436426 L184,72.1160138 Z" id="Path" fill="#000000" opacity="0.1"></path>
            <path d="M184,72.1136444 C183.13142,72.6723049 182.036254,74 182.036254,74 L182,70.5288253 C182.228097,70.3091011 182.5,69.6966783 182.771903,69.3109923 C183.108761,68.8318065 183.699396,69.0491932 183.699396,69.0491932 L183.953172,72.0528697 L184,72.1136444 Z" id="Path" fill="#E6EAED"></path>
            <path d="M196,72.8844247 C195.385937,74.6388274 194.621578,76.5810383 194.484165,75.8366768 C194.318841,74.9548947 192.878154,73.7089481 192,73.0195549 C193.773484,72.9416832 194.082662,70.1245613 194.082662,70.1245613 C194.962963,69.3137799 195.723027,72.726391 195.723027,72.726391 L196,72.8844247 Z" id="Path" fill="#000000" opacity="0.1"></path>
            <path d="M196,71.8847275 C195.385937,73.6389597 194.621578,75.5809818 194.484165,74.8366927 C194.318841,73.9549963 192.878154,72.7091708 192,72.0198446 C193.773484,71.9396904 194.082662,69.1251324 194.082662,69.1251324 C194.962963,68.3121397 195.723027,71.7267092 195.723027,71.7267092 L196,71.8847275 Z" id="Path" fill="#E6EAED"></path>
            <path d="M187,142.236924 C187,142.236924 191.177227,141.512726 190.994154,142.596609 C190.81108,143.680492 187,142.236924 187,142.236924 Z" id="Path" fill="#000000" opacity="0.1"></path>
            <path d="M179,125 C179,125 180.588124,123.537902 182,124.149563 L179,125 Z" id="Path" fill="#000000" opacity="0.1"></path>
            <path d="M175,123.079728 C175,123.079728 177.910472,122.589883 179,123.125128 L175,123.079728 Z" id="Path" fill="#000000" opacity="0.1"></path>
            <path d="M189,129 C189,129 186.873596,131.364728 187.00593,132 L189,129 Z" id="Path" fill="#000000" opacity="0.1"></path>
            <path d="M163.023548,90 C163.023548,90 162.63658,91.4120126 165,92 L163.023548,90 Z" id="Path" fill="#000000" opacity="0.1"></path>
            <path d="M161,93 C161,93 164.045159,94.9396436 162.62046,94.9987507 C161.19576,95.0578577 161,93 161,93 Z" id="Path" fill="#000000" opacity="0.1"></path>
            <path d="M168,80 C168,80 171.201162,82.3798941 170.989994,82.939399 C170.778825,83.4989039 168,80 168,80 Z" id="Path" fill="#000000" opacity="0.1"></path>
            <path d="M198,113.941458 L197.137255,115 C196.956863,114.058542 196.583529,112.481481 196,111.654719 L196.889412,111 L198,113.941458 Z" id="Path" fill="#000000" opacity="0.1"></path>
            <path d="M198.319213,77.0978633 L200.160783,76 C200.160783,76 202.276735,76.3069295 202.553588,80.485893 C202.830442,84.6648566 204.763473,93.0133396 204.763473,93.0133396 L205.821449,102.284972 C205.821449,102.284972 206.189763,104.043915 205.868415,104.922205 C205.65651,105.435003 205.491108,105.964237 205.374034,106.504073 C205.327067,106.813363 202.795835,108.307874 202.842801,110.24153 C202.889768,112.175186 199.629323,113.976626 199.629323,113.976626 C199.629323,113.976626 197.510899,115.157124 196.821237,116 C196.821237,116 196.037643,112.482115 194.336971,111.603825 C192.6363,110.725534 197.92618,103.736985 197.92618,103.736985 L198.319213,77.0978633 Z" id="Path" fill="#53517C"></path>
            <path d="M196,104 C196,104 191.660033,105.468962 192.021373,105.939156 C192.382713,106.40935 196,104 196,104 Z" id="Path" fill="#000000" opacity="0.1"></path>
            <path d="M196,107 C196,107 193.830795,107.735356 194.01059,107.96974 C194.190384,108.204123 196,107 196,107 Z" id="Path" fill="#000000" opacity="0.1"></path>
            <path d="M195,109 C195,109 192.830795,109.735356 193.01059,109.96974 C193.190384,110.204123 195,109 195,109 Z" id="Path" fill="#000000" opacity="0.1"></path>
            <path d="M137,52 L137,120 L205,120 C204.690942,82.4432624 174.381672,52.0771631 137,52 Z" id="Path" fill="#6C63FF"></path>
            <path d="M137,52 L137,120 L205,120 C204.690942,82.4432624 174.381672,52.0771631 137,52 Z" id="Path" fill="#000000" opacity="0.1"></path>
            <path d="M137,50 L137,118 L205,118 C204.690942,80.4408511 174.381672,50.0747518 137,50 Z" id="Path" fill="#6C63FF"></path>
            <path d="M189.085911,119.221651 C189.0797,118.970993 189.194186,118.725427 189.413099,118.519852 C189.632631,118.379852 189.904454,118.280131 190.201323,118.230684 C190.464064,118.173825 190.729284,118.120216 190.994505,118.068231 C191.200682,118.023085 191.416627,118.000045 191.634007,118 C192.075214,118.011372 192.456933,118.190071 192.811386,118.360647 C192.881337,118.389304 192.939271,118.42895 192.979937,118.475989 C193.059255,118.596205 192.888226,118.721294 192.732068,118.800897 C192.185991,119.119233 191.59601,119.403664 190.969718,119.650529 C190.52851,119.812983 189.943539,119.996555 189.425492,119.999805 C188.788468,120.011176 189.043774,119.523815 189.085911,119.221651 Z" id="Path" fill="#C37871"></path>
            <path d="M196,60.9536882 C196,61.1434332 196,61.3331781 195.978517,61.5205513 C195.944675,61.5430087 195.909612,61.5635956 195.87349,61.5822184 C195.738299,61.6307279 195.606693,61.6885834 195.479637,61.7553607 C195.090558,62.0186319 195.178876,62.5926105 195.214681,63.0574857 C195.270347,63.7302993 195.129449,64.4047822 194.808893,65 C194.495027,64.9677554 194.24176,64.7306733 194.190664,64.4212778 C194.148077,64.1204452 194.135285,63.8161875 194.152472,63.5128737 C194.11428,62.7017139 193.675074,61.9783111 193.388636,61.2145875 C192.858725,59.7511793 192.975687,58.1312315 192.622413,56.620387 C192.519773,56.1744863 192.352684,55.7001239 191.970766,55.4344809 C191.464724,55.0881963 190.76295,55.2399923 190.218717,55.5222379 C189.674484,55.8044836 189.187538,56.2171789 188.597953,56.3950649 C187.68851,56.6678233 186.721781,56.3381414 185.817112,56.0582675 C184.912444,55.7783937 183.888427,55.5412124 183.043433,55.9705105 C182.155474,56.4235266 181.756847,57.455265 181.484731,58.4134772 C181.395361,58.6761214 181.352556,58.9521876 181.35822,59.2293806 C181.374929,59.4665618 181.468022,59.7156021 181.460861,59.9646424 C181.460861,60.4959284 181.004946,60.9133674 180.828309,61.4161916 C180.718508,61.726899 180.744765,62.4929944 180.291237,62.4882507 C180.239515,62.4864629 180.189226,62.4708988 180.145631,62.4431863 C180.047519,61.9511109 179.998745,61.4505825 180.000025,60.9489445 C180.000212,60.512628 180.036939,60.0770835 180.109826,59.6468196 C180.78174,55.6179231 184.417927,52.7512347 188.519179,53.0170738 C192.620431,53.2829129 195.850994,56.5946973 195.990452,60.6761861 C195.997613,60.7710586 196,60.8635593 196,60.9536882 Z" id="Path" fill="#000000" opacity="0.1"></path>
            <path d="M177.595825,58.2271768 C177.567795,57.4601583 178.140067,56.7430079 178.009262,55.9878628 C177.906487,55.3965699 177.401953,54.9667546 177.156694,54.4205805 C176.86849,53.7508514 176.983844,52.9724136 177.453341,52.4187335 C177.644877,52.2002639 177.885464,52.0292876 178.069993,51.8060686 C178.436713,51.3596306 178.537153,50.7588391 178.712338,50.2031662 C178.887523,49.6474934 179.179498,49.0656992 179.72374,48.8757256 C180.310026,48.671504 180.996752,49.0039578 181.562016,48.7451187 C181.701335,48.6929795 181.807983,48.576623 181.849319,48.4316623 C181.854175,48.3254488 181.843948,48.2190783 181.818954,48.1158311 C181.779245,47.6931398 182.173996,47.3630607 182.552395,47.1778364 C184.280888,46.3300792 186.322379,46.7337731 188.195691,47.1540897 C188.164418,46.767408 188.191993,46.3781358 188.277445,46 C189.45936,46.1329815 190.732372,46.3087071 191.587275,47.144591 C192.117502,47.6646438 192.414149,48.3722955 192.755176,49.0277045 C193.096203,49.6831135 193.563363,50.3408971 194.247753,50.6139842 C194.471504,50.6691234 194.681511,50.771022 194.864404,50.9131926 C194.967329,51.029252 195.046706,51.1648249 195.097984,51.3121372 L195.546458,52.4353562 C195.592909,52.5723846 195.662464,52.7001485 195.752009,52.8129288 C195.871262,52.9237742 196.003912,53.0187329 196.146759,53.0955145 C197.015677,53.6725594 197.144146,54.9430079 196.873193,55.9641161 C196.602241,56.9852243 196.036977,57.908971 195.822083,58.9443272 C195.69595,59.5546174 195.62354,60.3002639 195.074626,60.5781003 C194.942465,60.6279178 194.813711,60.6866228 194.689219,60.7538259 C194.308484,61.0150396 194.392572,61.5897098 194.429945,62.0551451 C194.484599,62.7285052 194.347567,63.4036356 194.035195,64 C193.727704,63.9685067 193.479468,63.7307563 193.430222,63.4205805 C193.387663,63.1194733 193.374363,62.8148382 193.390514,62.5110818 C193.353141,61.6989446 192.923353,60.9746702 192.643057,60.2100264 C192.124509,58.7448549 192.238964,57.1229551 191.895601,55.6102902 C191.792826,55.1614776 191.626984,54.6889182 191.253255,54.4229551 C190.758066,54.0738786 190.07134,54.2234828 189.538777,54.5108179 C189.006215,54.798153 188.532047,55.2042216 187.955104,55.3823219 C187.065164,55.6530343 186.119164,55.3277045 185.23156,55.0427441 C184.343955,54.7577836 183.346568,54.5274406 182.519694,54.9572559 C181.650776,55.4108179 181.263033,56.4461741 180.996752,57.4031662 C180.907987,57.6659115 180.864525,57.9422686 180.868283,58.2200528 C180.886969,58.4575198 180.97573,58.7092348 180.971058,58.9562005 C180.971058,59.4905013 180.52492,59.9060686 180.352071,60.4118734 C180.244624,60.7229551 180.270318,61.4875989 179.826515,61.4852243 C179.49016,61.4852243 179.149133,60.7110818 178.983291,60.4854881 C178.476422,59.7992084 177.630862,59.1651715 177.595825,58.2271768 Z" id="Path" fill="#4B3E3C"></path>
            <g id="Group" opacity="0.1" transform="translate(177.000000, 46.000000)" fill="#000000">
                <path d="M1.08965517,9.1512 C0.988505747,8.5536 0.491954023,8.1216 0.250574713,7.5696 C0.182840413,7.41246141 0.137159806,7.24594863 0.114942529,7.0752 C0.0660379447,7.42488522 0.113065912,7.7818801 0.250574713,8.1048 C0.48045977,8.652 0.974712644,9.0816 1.08505747,9.6672 C1.11418895,9.49667577 1.11574304,9.3222605 1.08965517,9.1512 Z" id="Path"></path>
                <path d="M4.86896552,1.5144 C4.8701794,1.50163137 4.8701794,1.48876863 4.86896552,1.476 C4.85627559,1.51257307 4.84703636,1.55035229 4.84137931,1.5888 C4.85397755,1.56552567 4.86327,1.54046392 4.86896552,1.5144 Z" id="Path"></path>
                <path d="M11.1149425,0.2256 C11.1137962,0.207219459 11.1137962,0.188780541 11.1149425,0.1704 C11.1149425,0.1872 11.1149425,0.2064 11.1149425,0.2232 L11.1149425,0.2256 Z" id="Path"></path>
                <path d="M19.6551724,9.1272 C19.3908046,10.1592 18.8321839,11.0952 18.6206897,12.1392 C18.4965517,12.7584 18.4252874,13.5096 17.8850575,13.7928 C17.7554255,13.8433489 17.628768,13.9018509 17.5057471,13.968 C17.1954023,14.1888 17.2,14.6256 17.2321839,15.0384 C17.2415398,14.8267593 17.3421037,14.6308981 17.5057471,14.5056 C17.6282698,14.4376801 17.7549866,14.3783489 17.8850575,14.328 C18.4252874,14.0472 18.4965517,13.2936 18.6206897,12.6768 C18.8321839,11.6304 19.3908046,10.6968 19.6551724,9.6648 C19.7613932,9.26114842 19.800275,8.84142157 19.7701149,8.424 C19.7531334,8.6616605 19.7146477,8.89711005 19.6551724,9.1272 Z" id="Path"></path>
                <path d="M16.862069,17.2512 C16.5594421,17.2193708 16.3151335,16.9790844 16.2666667,16.6656 C16.2248371,16.3604701 16.2117478,16.0517952 16.2275862,15.744 C16.1908046,14.9256 15.7678161,14.1912 15.491954,13.4208 C14.9816092,11.94 15.0942529,10.3008 14.7563218,8.772 C14.6551724,8.3184 14.491954,7.8408 14.1241379,7.572 C13.6367816,7.2216 12.9609195,7.3728 12.4367816,7.6608 C11.9126437,7.9488 11.445977,8.364 10.8781609,8.5416 C10.0022989,8.8176 9.07126437,8.4864 8.19770115,8.2008 C7.32413793,7.9152 6.34252874,7.6776 5.52873563,8.1144 C4.67356322,8.5728 4.29195402,9.6192 4.02988506,10.584 C3.94248707,10.8503666 3.89971547,11.1304661 3.90344828,11.412 C3.90344828,11.4672 3.91724138,11.5248 3.92643678,11.58 C3.95140106,11.425028 3.98595619,11.2719073 4.02988506,11.1216 C4.29195402,10.1616 4.67356322,9.108 5.52873563,8.6496 C6.34252874,8.2152 7.32643678,8.4504 8.19770115,8.736 C9.06896552,9.0216 10.0022989,9.3528 10.8781609,9.0792 C11.445977,8.8992 11.9126437,8.4864 12.4367816,8.1984 C12.9609195,7.9104 13.6367816,7.7568 14.1241379,8.1096 C14.491954,8.3712 14.6551724,8.8488 14.7563218,9.3096 C15.0942529,10.8432 14.9862069,12.4776 15.491954,13.9584 C15.7563218,14.7312 16.1816092,15.4632 16.2275862,16.284 C16.2116909,16.5909965 16.2247809,16.898881 16.2666667,17.2032 C16.3151335,17.5166844 16.5594421,17.7569708 16.862069,17.7888 C17.1666642,17.1910143 17.3022008,16.515143 17.2528736,15.84 C17.2168967,16.3334427 17.0838592,16.8138426 16.862069,17.2512 Z" id="Path"></path>
                <path d="M3.3954023,13.6296 C3.28965517,13.944 3.31494253,14.7168 2.87816092,14.7144 C2.54712644,14.7144 2.21149425,13.9344 2.04827586,13.7064 C1.58850575,13.056 0.83908046,12.4584 0.703448276,11.6208 C0.686273996,11.7302376 0.679344768,11.8411607 0.682758621,11.952 C0.717241379,12.9 1.54942529,13.5408 2.04827586,14.2416 C2.21149425,14.4816 2.54712644,15.2496 2.87816092,15.252 C3.31494253,15.252 3.28965517,14.4816 3.3954023,14.1672 C3.56551724,13.6584 3.99310345,13.236 4.0045977,12.696 C4.00424664,12.5927034 3.99345897,12.4897336 3.97241379,12.3888 C3.87356322,12.8232 3.54482759,13.1952 3.3954023,13.6296 Z" id="Path"></path>
            </g>
            <rect id="Rectangle" fill="#6C63FF" x="24" y="107" width="1" height="1"></rect>
            <rect id="Rectangle" fill="#000000" opacity="0.25" x="24" y="107" width="1" height="1"></rect>
            <rect id="Rectangle" fill="#6C63FF" x="92" y="39" width="1" height="1"></rect>
            <rect id="Rectangle" fill="#000000" opacity="0.25" x="92" y="39" width="1" height="1"></rect>
            <path d="M92,107.978305 L92,40 L91.859233,40 C54.565524,40 24.3030069,70.3925697 24,108 L92,107.978305 Z" id="Path" fill="#FFFFFF" opacity="0.2"></path>
            <path d="M92,107.978305 L92,40 L91.859233,40 C54.565524,40 24.3030069,70.3925697 24,108 L92,107.978305 Z" id="Path" fill="#6C63FF"></path>
            <path d="M92,107.978305 L92,40 L91.859233,40 C54.565524,40 24.3030069,70.3925697 24,108 L92,107.978305 Z" id="Path" fill="#000000" opacity="0.25"></path>
            <path d="M92,107.978305 L92,40 L91.859233,40 C54.565524,40 24.3030069,70.3925697 24,108 L92,107.978305 Z" id="Path" fill="#6C63FF"></path>
            <path d="M92,107.978305 L92,40 L91.859233,40 C54.565524,40 24.3030069,70.3925697 24,108 L92,107.978305 Z" id="Path" fill="#000000" opacity="0.15"></path>
            <polygon id="Path" fill="#6C63FF" points="142.26362 162 143 162.689384 143 164 142 163.769332"></polygon>
            <polygon id="Path" fill="#000000" opacity="0.1" points="142.26362 162 143 162.689384 143 164 142 163.769332"></polygon>
            <polygon id="Path" fill="#6C63FF" points="46.2951128 162.092869 46 162.170813 46 163 47 162.807629 46.7537594 162"></polygon>
            <polygon id="Path" fill="#000000" opacity="0.1" points="46.2951128 162.092869 46 162.170813 46 163 47 162.807629 46.7537594 162"></polygon>
            <path d="M94.8643742,116 L46,163.641154 C58.6542116,176.6582 75.9440982,183.992789 93.9920637,183.999995 C112.040029,184.0072 129.335634,176.68642 142,163.679481 L94.8643742,116 Z" id="Path" fill="#6C63FF"></path>
            <path d="M94.8643742,115 L46,162.641154 C58.6542116,175.6582 75.9440982,182.992789 93.9920637,182.999995 C112.040029,183.0072 129.335634,175.68642 142,162.679481 L94.8643742,115 Z" id="Path" fill="#6C63FF"></path>
            <path d="M94.8643742,115 L46,162.641154 C58.6542116,175.6582 75.9440982,182.992789 93.9920637,182.999995 C112.040029,183.0072 129.335634,175.68642 142,162.679481 L94.8643742,115 Z" id="Path" fill="#000000" opacity="0.1"></path>
            <path d="M94.8643742,116 L46,163.641154 C58.6542116,176.6582 75.9440982,183.992789 93.9920637,183.999995 C112.040029,184.0072 129.335634,176.68642 142,163.679481 L94.8643742,116 Z" id="Path" fill="#6C63FF"></path>
            <polygon id="Path" fill="#3ACC6C" points="91 113.216041 92.7458704 112 93 112.517464 91.0076239 114"></polygon>
            <polygon id="Path" fill="#000000" opacity="0.1" points="91 113.216041 92.7458704 112 93 112.517464 91.0076239 114"></polygon>
            <polygon id="Path" fill="#FF748E" points="90.6661277 111.432739 91.8383185 111 92 111.324149 90 112"></polygon>
            <polygon id="Path" fill="#000000" opacity="0.1" points="90.6661277 111.432739 91.8383185 111 92 111.324149 90 112"></polygon>
            <polygon id="Path" fill="#5E5A6B" points="90.8096348 110.125373 92 110 92 110.597015 90 111 90.1787102 110.226866"></polygon>
            <polygon id="Path" fill="#000000" opacity="0.1" points="90.8096348 110.125373 92 110 92 110.597015 90 111 90.1787102 110.226866"></polygon>
            <path d="M92,110 L25.5595093,125 C24.5204153,120.259965 23.9975863,115.423039 24.0000084,110.572356 C24.0000084,110.379987 24.0000084,110.189994 24,110 L92,110 Z" id="Path" fill="#5E5A6B"></path>
            <path d="M92,110 L25.5595093,125 C24.5204153,120.259965 23.9975863,115.423039 24.0000084,110.572356 C24.0000084,110.379987 24.0000084,110.189994 24,110 L92,110 Z" id="Path" fill="#000000" opacity="0.1"></path>
            <path d="M92,111 L25.5595093,126 C24.5204153,121.259965 23.9975863,116.423039 24.0000084,111.572356 C24.0000084,111.379987 24.0000084,111.189994 24,111 L92,111 Z" id="Path" fill="#5E5A6B"></path>
            <path d="M26,126.892574 C27.3904205,133.228851 29.7089886,139.329311 32.8819903,145 L92,112 L26,126.892574 Z" id="Path" fill="#FF748E"></path>
            <path d="M26,126.892574 C27.3904205,133.228851 29.7089886,139.329311 32.8819903,145 L92,112 L26,126.892574 Z" id="Path" fill="#000000" opacity="0.1"></path>
            <path d="M26,126.892574 C27.3904205,133.228851 29.7089886,139.329311 32.8819903,145 L92,112 L26,126.892574 Z" id="Path" fill="#FF748E"></path>
            <path d="M91.8765492,112 L33,145.885198 L33.0284887,145.938564 C36.0103614,151.449233 39.7166538,156.516775 44.0441011,161 L92,112 L91.8765492,112 Z" id="Path" fill="#3ACC6C"></path>
            <path d="M91.8765492,112 L33,145.885198 L33.0284887,145.938564 C36.0103614,151.449233 39.7166538,156.516775 44.0441011,161 L92,112 L91.8765492,112 Z" id="Path" fill="#000000" opacity="0.1"></path>
            <path d="M91.8765492,113 L33,146.885198 L33.0284887,146.938564 C36.0103614,152.449233 39.7166538,157.516775 44.0441011,162 L92,113 L91.8765492,113 Z" id="Path" fill="#3ACC6C"></path>
        </g>
    </g>
</svg>