<?xml version="1.0" encoding="UTF-8"?>
<svg width="320px" height="314px" viewBox="0 0 320 314" version="1.1" xmlns="http://www.w3.org/2000/svg" xmlns:xlink="http://www.w3.org/1999/xlink">
    <!-- Generator: Sketch 52.2 (67145) - http://www.bohemiancoding.com/sketch -->
    <title>comp/dots_min</title>
    <desc>Created with Sketch.</desc>
    <g id="comp/dots_min" stroke="none" stroke-width="1" fill="none" fill-rule="evenodd">
        <g id="Group" transform="translate(9.000000, 9.000000)" fill="#000000">
            <circle id="Oval-Copy-44" cx="1.5" cy="1.5" r="1.5"></circle>
            <circle id="Oval-Copy-58" cx="1.5" cy="22.5" r="1.5"></circle>
            <circle id="Oval-Copy-45" cx="24.5" cy="1.5" r="1.5"></circle>
            <circle id="Oval-Copy-59" cx="24.5" cy="22.5" r="1.5"></circle>
            <circle id="Oval-Copy-46" cx="47.5" cy="1.5" r="1.5"></circle>
            <circle id="Oval-Copy-60" cx="47.5" cy="22.5" r="1.5"></circle>
            <circle id="Oval-Copy-47" cx="70.5" cy="1.5" r="1.5"></circle>
            <circle id="Oval-Copy-61" cx="70.5" cy="22.5" r="1.5"></circle>
            <circle id="Oval-Copy-48" cx="93.5" cy="1.5" r="1.5"></circle>
            <circle id="Oval-Copy-62" cx="93.5" cy="22.5" r="1.5"></circle>
            <circle id="Oval-Copy-49" cx="116.5" cy="1.5" r="1.5"></circle>
            <circle id="Oval-Copy-63" cx="116.5" cy="22.5" r="1.5"></circle>
            <circle id="Oval-Copy-50" cx="139.5" cy="1.5" r="1.5"></circle>
            <circle id="Oval-Copy-64" cx="139.5" cy="22.5" r="1.5"></circle>
            <circle id="Oval-Copy-51" cx="162.5" cy="1.5" r="1.5"></circle>
            <circle id="Oval-Copy-65" cx="162.5" cy="22.5" r="1.5"></circle>
            <circle id="Oval-Copy-52" cx="185.5" cy="1.5" r="1.5"></circle>
            <circle id="Oval-Copy-66" cx="185.5" cy="22.5" r="1.5"></circle>
            <circle id="Oval-Copy-53" cx="208.5" cy="1.5" r="1.5"></circle>
            <circle id="Oval-Copy-67" cx="208.5" cy="22.5" r="1.5"></circle>
            <circle id="Oval-Copy-54" cx="231.5" cy="1.5" r="1.5"></circle>
            <circle id="Oval-Copy-68" cx="231.5" cy="22.5" r="1.5"></circle>
            <circle id="Oval-Copy-55" cx="254.5" cy="1.5" r="1.5"></circle>
            <circle id="Oval-Copy-69" cx="254.5" cy="22.5" r="1.5"></circle>
            <circle id="Oval-Copy-56" cx="277.5" cy="1.5" r="1.5"></circle>
            <circle id="Oval-Copy-70" cx="277.5" cy="22.5" r="1.5"></circle>
            <circle id="Oval-Copy-57" cx="300.5" cy="1.5" r="1.5"></circle>
            <circle id="Oval-Copy-71" cx="300.5" cy="22.5" r="1.5"></circle>
            <circle id="Oval-Copy-85" cx="1.5" cy="43.5" r="1.5"></circle>
            <circle id="Oval-Copy-84" cx="24.5" cy="43.5" r="1.5"></circle>
            <circle id="Oval-Copy-83" cx="47.5" cy="43.5" r="1.5"></circle>
            <circle id="Oval-Copy-82" cx="70.5" cy="43.5" r="1.5"></circle>
            <circle id="Oval-Copy-81" cx="93.5" cy="43.5" r="1.5"></circle>
            <circle id="Oval-Copy-80" cx="116.5" cy="43.5" r="1.5"></circle>
            <circle id="Oval-Copy-79" cx="139.5" cy="43.5" r="1.5"></circle>
            <circle id="Oval-Copy-78" cx="162.5" cy="43.5" r="1.5"></circle>
            <circle id="Oval-Copy-77" cx="185.5" cy="43.5" r="1.5"></circle>
            <circle id="Oval-Copy-76" cx="208.5" cy="43.5" r="1.5"></circle>
            <circle id="Oval-Copy-75" cx="231.5" cy="43.5" r="1.5"></circle>
            <circle id="Oval-Copy-74" cx="254.5" cy="43.5" r="1.5"></circle>
            <circle id="Oval-Copy-73" cx="277.5" cy="43.5" r="1.5"></circle>
            <circle id="Oval-Copy-72" cx="300.5" cy="43.5" r="1.5"></circle>
            <circle id="Oval-Copy-99" cx="1.5" cy="64.5" r="1.5"></circle>
            <circle id="Oval-Copy-98" cx="24.5" cy="64.5" r="1.5"></circle>
            <circle id="Oval-Copy-97" cx="47.5" cy="64.5" r="1.5"></circle>
            <circle id="Oval-Copy-96" cx="70.5" cy="64.5" r="1.5"></circle>
            <circle id="Oval-Copy-95" cx="93.5" cy="64.5" r="1.5"></circle>
            <circle id="Oval-Copy-94" cx="116.5" cy="64.5" r="1.5"></circle>
            <circle id="Oval-Copy-93" cx="139.5" cy="64.5" r="1.5"></circle>
            <circle id="Oval-Copy-92" cx="162.5" cy="64.5" r="1.5"></circle>
            <circle id="Oval-Copy-91" cx="185.5" cy="64.5" r="1.5"></circle>
            <circle id="Oval-Copy-90" cx="208.5" cy="64.5" r="1.5"></circle>
            <circle id="Oval-Copy-89" cx="231.5" cy="64.5" r="1.5"></circle>
            <circle id="Oval-Copy-88" cx="254.5" cy="64.5" r="1.5"></circle>
            <circle id="Oval-Copy-87" cx="277.5" cy="64.5" r="1.5"></circle>
            <circle id="Oval-Copy-86" cx="300.5" cy="64.5" r="1.5"></circle>
            <circle id="Oval-Copy-113" cx="1.5" cy="85.5" r="1.5"></circle>
            <circle id="Oval-Copy-112" cx="24.5" cy="85.5" r="1.5"></circle>
            <circle id="Oval-Copy-111" cx="47.5" cy="85.5" r="1.5"></circle>
            <circle id="Oval-Copy-110" cx="70.5" cy="85.5" r="1.5"></circle>
            <circle id="Oval-Copy-109" cx="93.5" cy="85.5" r="1.5"></circle>
            <circle id="Oval-Copy-108" cx="116.5" cy="85.5" r="1.5"></circle>
            <circle id="Oval-Copy-107" cx="139.5" cy="85.5" r="1.5"></circle>
            <circle id="Oval-Copy-106" cx="162.5" cy="85.5" r="1.5"></circle>
            <circle id="Oval-Copy-105" cx="185.5" cy="85.5" r="1.5"></circle>
            <circle id="Oval-Copy-104" cx="208.5" cy="85.5" r="1.5"></circle>
            <circle id="Oval-Copy-103" cx="231.5" cy="85.5" r="1.5"></circle>
            <circle id="Oval-Copy-102" cx="254.5" cy="85.5" r="1.5"></circle>
            <circle id="Oval-Copy-101" cx="277.5" cy="85.5" r="1.5"></circle>
            <circle id="Oval-Copy-100" cx="300.5" cy="85.5" r="1.5"></circle>
            <circle id="Oval-Copy-127" cx="1.5" cy="106.5" r="1.5"></circle>
            <circle id="Oval-Copy-126" cx="24.5" cy="106.5" r="1.5"></circle>
            <circle id="Oval-Copy-125" cx="47.5" cy="106.5" r="1.5"></circle>
            <circle id="Oval-Copy-124" cx="70.5" cy="106.5" r="1.5"></circle>
            <circle id="Oval-Copy-123" cx="93.5" cy="106.5" r="1.5"></circle>
            <circle id="Oval-Copy-122" cx="116.5" cy="106.5" r="1.5"></circle>
            <circle id="Oval-Copy-121" cx="139.5" cy="106.5" r="1.5"></circle>
            <circle id="Oval-Copy-120" cx="162.5" cy="106.5" r="1.5"></circle>
            <circle id="Oval-Copy-119" cx="185.5" cy="106.5" r="1.5"></circle>
            <circle id="Oval-Copy-118" cx="208.5" cy="106.5" r="1.5"></circle>
            <circle id="Oval-Copy-117" cx="231.5" cy="106.5" r="1.5"></circle>
            <circle id="Oval-Copy-116" cx="254.5" cy="106.5" r="1.5"></circle>
            <circle id="Oval-Copy-115" cx="277.5" cy="106.5" r="1.5"></circle>
            <circle id="Oval-Copy-114" cx="300.5" cy="106.5" r="1.5"></circle>
            <circle id="Oval-Copy-141" cx="1.5" cy="127.5" r="1.5"></circle>
            <circle id="Oval-Copy-140" cx="24.5" cy="127.5" r="1.5"></circle>
            <circle id="Oval-Copy-139" cx="47.5" cy="127.5" r="1.5"></circle>
            <circle id="Oval-Copy-138" cx="70.5" cy="127.5" r="1.5"></circle>
            <circle id="Oval-Copy-137" cx="93.5" cy="127.5" r="1.5"></circle>
            <circle id="Oval-Copy-136" cx="116.5" cy="127.5" r="1.5"></circle>
            <circle id="Oval-Copy-135" cx="139.5" cy="127.5" r="1.5"></circle>
            <circle id="Oval-Copy-134" cx="162.5" cy="127.5" r="1.5"></circle>
            <circle id="Oval-Copy-133" cx="185.5" cy="127.5" r="1.5"></circle>
            <circle id="Oval-Copy-132" cx="208.5" cy="127.5" r="1.5"></circle>
            <circle id="Oval-Copy-131" cx="231.5" cy="127.5" r="1.5"></circle>
            <circle id="Oval-Copy-130" cx="254.5" cy="127.5" r="1.5"></circle>
            <circle id="Oval-Copy-129" cx="277.5" cy="127.5" r="1.5"></circle>
            <circle id="Oval-Copy-128" cx="300.5" cy="127.5" r="1.5"></circle>
            <circle id="Oval-Copy-155" cx="1.5" cy="148.5" r="1.5"></circle>
            <circle id="Oval-Copy-154" cx="24.5" cy="148.5" r="1.5"></circle>
            <circle id="Oval-Copy-153" cx="47.5" cy="148.5" r="1.5"></circle>
            <circle id="Oval-Copy-152" cx="70.5" cy="148.5" r="1.5"></circle>
            <circle id="Oval-Copy-151" cx="93.5" cy="148.5" r="1.5"></circle>
            <circle id="Oval-Copy-150" cx="116.5" cy="148.5" r="1.5"></circle>
            <circle id="Oval-Copy-149" cx="139.5" cy="148.5" r="1.5"></circle>
            <circle id="Oval-Copy-148" cx="162.5" cy="148.5" r="1.5"></circle>
            <circle id="Oval-Copy-147" cx="185.5" cy="148.5" r="1.5"></circle>
            <circle id="Oval-Copy-146" cx="208.5" cy="148.5" r="1.5"></circle>
            <circle id="Oval-Copy-145" cx="231.5" cy="148.5" r="1.5"></circle>
            <circle id="Oval-Copy-144" cx="254.5" cy="148.5" r="1.5"></circle>
            <circle id="Oval-Copy-143" cx="277.5" cy="148.5" r="1.5"></circle>
            <circle id="Oval-Copy-142" cx="300.5" cy="148.5" r="1.5"></circle>
            <circle id="Oval-Copy-169" cx="1.5" cy="169.5" r="1.5"></circle>
            <circle id="Oval-Copy-168" cx="24.5" cy="169.5" r="1.5"></circle>
            <circle id="Oval-Copy-167" cx="47.5" cy="169.5" r="1.5"></circle>
            <circle id="Oval-Copy-166" cx="70.5" cy="169.5" r="1.5"></circle>
            <circle id="Oval-Copy-165" cx="93.5" cy="169.5" r="1.5"></circle>
            <circle id="Oval-Copy-164" cx="116.5" cy="169.5" r="1.5"></circle>
            <circle id="Oval-Copy-163" cx="139.5" cy="169.5" r="1.5"></circle>
            <circle id="Oval-Copy-162" cx="162.5" cy="169.5" r="1.5"></circle>
            <circle id="Oval-Copy-161" cx="185.5" cy="169.5" r="1.5"></circle>
            <circle id="Oval-Copy-160" cx="208.5" cy="169.5" r="1.5"></circle>
            <circle id="Oval-Copy-159" cx="231.5" cy="169.5" r="1.5"></circle>
            <circle id="Oval-Copy-158" cx="254.5" cy="169.5" r="1.5"></circle>
            <circle id="Oval-Copy-157" cx="277.5" cy="169.5" r="1.5"></circle>
            <circle id="Oval-Copy-156" cx="300.5" cy="169.5" r="1.5"></circle>
            <circle id="Oval-Copy-183" cx="1.5" cy="190.5" r="1.5"></circle>
            <circle id="Oval-Copy-182" cx="24.5" cy="190.5" r="1.5"></circle>
            <circle id="Oval-Copy-181" cx="47.5" cy="190.5" r="1.5"></circle>
            <circle id="Oval-Copy-180" cx="70.5" cy="190.5" r="1.5"></circle>
            <circle id="Oval-Copy-179" cx="93.5" cy="190.5" r="1.5"></circle>
            <circle id="Oval-Copy-178" cx="116.5" cy="190.5" r="1.5"></circle>
            <circle id="Oval-Copy-177" cx="139.5" cy="190.5" r="1.5"></circle>
            <circle id="Oval-Copy-176" cx="162.5" cy="190.5" r="1.5"></circle>
            <circle id="Oval-Copy-175" cx="185.5" cy="190.5" r="1.5"></circle>
            <circle id="Oval-Copy-174" cx="208.5" cy="190.5" r="1.5"></circle>
            <circle id="Oval-Copy-173" cx="231.5" cy="190.5" r="1.5"></circle>
            <circle id="Oval-Copy-172" cx="254.5" cy="190.5" r="1.5"></circle>
            <circle id="Oval-Copy-171" cx="277.5" cy="190.5" r="1.5"></circle>
            <circle id="Oval-Copy-170" cx="300.5" cy="190.5" r="1.5"></circle>
            <circle id="Oval-Copy-197" cx="1.5" cy="211.5" r="1.5"></circle>
            <circle id="Oval-Copy-196" cx="24.5" cy="211.5" r="1.5"></circle>
            <circle id="Oval-Copy-195" cx="47.5" cy="211.5" r="1.5"></circle>
            <circle id="Oval-Copy-194" cx="70.5" cy="211.5" r="1.5"></circle>
            <circle id="Oval-Copy-193" cx="93.5" cy="211.5" r="1.5"></circle>
            <circle id="Oval-Copy-192" cx="116.5" cy="211.5" r="1.5"></circle>
            <circle id="Oval-Copy-191" cx="139.5" cy="211.5" r="1.5"></circle>
            <circle id="Oval-Copy-190" cx="162.5" cy="211.5" r="1.5"></circle>
            <circle id="Oval-Copy-189" cx="185.5" cy="211.5" r="1.5"></circle>
            <circle id="Oval-Copy-188" cx="208.5" cy="211.5" r="1.5"></circle>
            <circle id="Oval-Copy-187" cx="231.5" cy="211.5" r="1.5"></circle>
            <circle id="Oval-Copy-186" cx="254.5" cy="211.5" r="1.5"></circle>
            <circle id="Oval-Copy-185" cx="277.5" cy="211.5" r="1.5"></circle>
            <circle id="Oval-Copy-184" cx="300.5" cy="211.5" r="1.5"></circle>
            <circle id="Oval-Copy-211" cx="1.5" cy="232.5" r="1.5"></circle>
            <circle id="Oval-Copy-210" cx="24.5" cy="232.5" r="1.5"></circle>
            <circle id="Oval-Copy-209" cx="47.5" cy="232.5" r="1.5"></circle>
            <circle id="Oval-Copy-208" cx="70.5" cy="232.5" r="1.5"></circle>
            <circle id="Oval-Copy-207" cx="93.5" cy="232.5" r="1.5"></circle>
            <circle id="Oval-Copy-206" cx="116.5" cy="232.5" r="1.5"></circle>
            <circle id="Oval-Copy-205" cx="139.5" cy="232.5" r="1.5"></circle>
            <circle id="Oval-Copy-204" cx="162.5" cy="232.5" r="1.5"></circle>
            <circle id="Oval-Copy-203" cx="185.5" cy="232.5" r="1.5"></circle>
            <circle id="Oval-Copy-202" cx="208.5" cy="232.5" r="1.5"></circle>
            <circle id="Oval-Copy-201" cx="231.5" cy="232.5" r="1.5"></circle>
            <circle id="Oval-Copy-200" cx="254.5" cy="232.5" r="1.5"></circle>
            <circle id="Oval-Copy-199" cx="277.5" cy="232.5" r="1.5"></circle>
            <circle id="Oval-Copy-198" cx="300.5" cy="232.5" r="1.5"></circle>
            <circle id="Oval-Copy-225" cx="1.5" cy="253.5" r="1.5"></circle>
            <circle id="Oval-Copy-224" cx="24.5" cy="253.5" r="1.5"></circle>
            <circle id="Oval-Copy-223" cx="47.5" cy="253.5" r="1.5"></circle>
            <circle id="Oval-Copy-222" cx="70.5" cy="253.5" r="1.5"></circle>
            <circle id="Oval-Copy-221" cx="93.5" cy="253.5" r="1.5"></circle>
            <circle id="Oval-Copy-220" cx="116.5" cy="253.5" r="1.5"></circle>
            <circle id="Oval-Copy-219" cx="139.5" cy="253.5" r="1.5"></circle>
            <circle id="Oval-Copy-218" cx="162.5" cy="253.5" r="1.5"></circle>
            <circle id="Oval-Copy-217" cx="185.5" cy="253.5" r="1.5"></circle>
            <circle id="Oval-Copy-216" cx="208.5" cy="253.5" r="1.5"></circle>
            <circle id="Oval-Copy-215" cx="231.5" cy="253.5" r="1.5"></circle>
            <circle id="Oval-Copy-214" cx="254.5" cy="253.5" r="1.5"></circle>
            <circle id="Oval-Copy-213" cx="277.5" cy="253.5" r="1.5"></circle>
            <circle id="Oval-Copy-212" cx="300.5" cy="253.5" r="1.5"></circle>
            <circle id="Oval-Copy-239" cx="1.5" cy="274.5" r="1.5"></circle>
            <circle id="Oval-Copy-238" cx="24.5" cy="274.5" r="1.5"></circle>
            <circle id="Oval-Copy-237" cx="47.5" cy="274.5" r="1.5"></circle>
            <circle id="Oval-Copy-236" cx="70.5" cy="274.5" r="1.5"></circle>
            <circle id="Oval-Copy-235" cx="93.5" cy="274.5" r="1.5"></circle>
            <circle id="Oval-Copy-234" cx="116.5" cy="274.5" r="1.5"></circle>
            <circle id="Oval-Copy-233" cx="139.5" cy="274.5" r="1.5"></circle>
            <circle id="Oval-Copy-232" cx="162.5" cy="274.5" r="1.5"></circle>
            <circle id="Oval-Copy-231" cx="185.5" cy="274.5" r="1.5"></circle>
            <circle id="Oval-Copy-230" cx="208.5" cy="274.5" r="1.5"></circle>
            <circle id="Oval-Copy-229" cx="231.5" cy="274.5" r="1.5"></circle>
            <circle id="Oval-Copy-228" cx="254.5" cy="274.5" r="1.5"></circle>
            <circle id="Oval-Copy-227" cx="277.5" cy="274.5" r="1.5"></circle>
            <circle id="Oval-Copy-226" cx="300.5" cy="274.5" r="1.5"></circle>
            <circle id="Oval-Copy-253" cx="1.5" cy="295.5" r="1.5"></circle>
            <circle id="Oval-Copy-252" cx="24.5" cy="295.5" r="1.5"></circle>
            <circle id="Oval-Copy-251" cx="47.5" cy="295.5" r="1.5"></circle>
            <circle id="Oval-Copy-250" cx="70.5" cy="295.5" r="1.5"></circle>
            <circle id="Oval-Copy-249" cx="93.5" cy="295.5" r="1.5"></circle>
            <circle id="Oval-Copy-248" cx="116.5" cy="295.5" r="1.5"></circle>
            <circle id="Oval-Copy-247" cx="139.5" cy="295.5" r="1.5"></circle>
            <circle id="Oval-Copy-246" cx="162.5" cy="295.5" r="1.5"></circle>
            <circle id="Oval-Copy-245" cx="185.5" cy="295.5" r="1.5"></circle>
            <circle id="Oval-Copy-244" cx="208.5" cy="295.5" r="1.5"></circle>
            <circle id="Oval-Copy-243" cx="231.5" cy="295.5" r="1.5"></circle>
            <circle id="Oval-Copy-242" cx="254.5" cy="295.5" r="1.5"></circle>
            <circle id="Oval-Copy-241" cx="277.5" cy="295.5" r="1.5"></circle>
            <circle id="Oval-Copy-240" cx="300.5" cy="295.5" r="1.5"></circle>
        </g>
    </g>
</svg>