<?xml version="1.0" encoding="UTF-8"?>
<svg width="64px" height="64px" viewBox="0 0 64 64" version="1.1" xmlns="http://www.w3.org/2000/svg" xmlns:xlink="http://www.w3.org/1999/xlink">
    <!-- Generator: Sketch 52.2 (67145) - http://www.bohemiancoding.com/sketch -->
    <title>icon/position_line</title>
    <desc>Created with Sketch.</desc>
    <g id="icon/position_line" stroke="none" stroke-width="1" fill="none" fill-rule="evenodd">
        <g id="iconfont-iconposition(1)" transform="translate(16.000000, 11.000000)" fill="#000000" fill-rule="nonzero">
            <path d="M15.9999296,42 C14.6096372,42 0,25.2756407 0,16.283018 C0,7.29073052 7.16272508,0 15.9999296,0 C24.8370403,0 32,7.28967666 32,16.283018 C31.9999531,25.2765509 17.3192221,42 15.9999296,42 Z M15.9999296,2.10126941 C8.30350905,2.10126941 2.06453277,8.45154485 2.06453277,16.2830179 C2.06453277,24.1167904 15.6098763,39.8990658 15.9999296,39.8990658 C16.1795644,39.8990658 29.9355611,24.1167903 29.9355611,16.2830179 C29.9355141,8.4515449 23.6965848,2.10126941 15.9999296,2.10126941 Z M15.9999296,22.0610299 C12.8650965,22.0610299 10.3224762,19.4735808 10.3224762,16.283018 C10.3224762,13.0927904 12.8650965,10.5052455 15.9999296,10.5052455 C19.1351381,10.5052455 21.6775238,13.0927904 21.6775238,16.283018 C21.6774769,19.4735808 19.1350912,22.0610299 15.9999296,22.0610299 Z M15.9999296,12.6062754 C14.0047542,12.6062754 12.3870089,14.2533652 12.3870089,16.2830179 C12.3870089,18.3148742 14.0047073,19.9598562 15.9999296,19.9598562 C17.9953396,19.9598562 19.6128503,18.3148742 19.6128503,16.2830179 C19.6128033,14.2533652 17.9953396,12.6062754 15.9999296,12.6062754 Z" id="Shape"></path>
        </g>
    </g>
</svg>