<?xml version="1.0" encoding="UTF-8"?>
<svg width="64px" height="64px" viewBox="0 0 64 64" version="1.1" xmlns="http://www.w3.org/2000/svg" xmlns:xlink="http://www.w3.org/1999/xlink">
    <!-- Generator: Sketch 52.2 (67145) - http://www.bohemiancoding.com/sketch -->
    <title>icon/mail_line</title>
    <desc>Created with Sketch.</desc>
    <g id="icon/mail_line" stroke="none" stroke-width="1" fill="none" fill-rule="evenodd">
        <g id="邮件验证" transform="translate(7.000000, 14.000000)" fill="#000000">
            <path d="M33.4375,18.1818182 C33.75,18.8181818 34.375,19.1363636 35,18.8181818 L47.8125,12.1363636 L47.8125,29.9545455 C47.8125,31.8636364 46.25,33.4545455 44.375,33.4545455 L5.9375,33.4545455 C4.0625,33.4545455 2.5,31.8636364 2.5,29.9545455 L2.5,12.1363636 L15.3125,18.8181818 C15.9375,19.1363636 16.5625,18.8181818 16.875,18.1818182 C17.1875,17.5454545 16.875,16.9090909 16.25,16.5909091 L0,8 L0,29.9545455 C0,33.1363636 2.5,36 5.9375,36 L44.0625,36 C47.1875,36 50,33.4545455 50,29.9545455 L50,8 L33.75,16.2727273 C33.125,16.9090909 33.125,17.5454545 33.4375,18.1818182 Z" id="Path"></path>
            <path d="M1.25,7 C1.875,7 2.5,6.39130435 2.5,5.7826087 C2.5,3.95652174 4.0625,2.43478261 5.9375,2.43478261 L44.0625,2.43478261 C45.9375,2.43478261 47.5,3.95652174 47.5,5.7826087 C47.5,6.39130435 48.125,7 48.75,7 C49.375,7 50,6.39130435 50,5.7826087 C50,2.73913043 47.5,0 44.0625,0 L5.9375,1.35157586e-15 C2.5,1.35157586e-15 0,2.43478261 0,5.7826087 C0,6.39130435 0.625,7 1.25,7 Z" id="Path"></path>
            <path d="M26.3846154,14.7692308 C26.3846154,15.3846154 26.3846154,15.6923077 26.3846154,15.6923077 C26.3846154,15.3846154 26.0769231,15.0769231 25.7692308,15.0769231 C25.7692308,14.7692308 25.4615385,14.7692308 24.8461538,14.7692308 C23.9230769,14.7692308 23.3076923,15.0769231 22.6923077,16 C22.0769231,16.6153846 22.0769231,17.5384615 22.0769231,18.4615385 C22.0769231,19.3846154 22.0769231,20 22.6923077,20.6153846 C23,21.2307692 23.6153846,21.2307692 24.2307692,21.2307692 C25.1538462,21.2307692 26.0769231,20.6153846 26.3846154,19.3846154 C26.3846154,20.6153846 27,21.2307692 27.9230769,21.2307692 C28.8461538,21.2307692 29.4615385,20.9230769 30.0769231,20 C30.6923077,19.3846154 31,18.4615385 31,17.2307692 C31,15.6923077 30.3846154,14.4615385 29.4615385,13.5384615 C28.2307692,12.3076923 26.6923077,12 25.1538462,12 C23.3076923,12 21.7692308,12.6153846 20.8461538,13.8461538 C19.6153846,14.7692308 19,16.3076923 19,18.1538462 C19,20 19.6153846,21.2307692 20.5384615,22.4615385 C21.7692308,23.3846154 23,24 24.8461538,24 C26.0769231,24 27.3076923,23.6923077 27.9230769,23.3846154 L27.9230769,22.4615385 C27.3076923,22.7692308 26.0769231,23.0769231 25.1538462,23.0769231 C23.6153846,23.0769231 22.3846154,22.7692308 21.4615385,21.8461538 C20.5384615,20.6153846 20.2307692,19.6923077 20.2307692,18.1538462 C20.2307692,16.6153846 20.8461538,15.3846154 21.7692308,14.4615385 C22.3846154,13.2307692 23.6153846,12.9230769 25.1538462,12.9230769 C26.6923077,12.9230769 27.9230769,13.2307692 28.5384615,14.1538462 C29.4615385,15.0769231 29.7692308,16 29.7692308,17.2307692 C29.7692308,18.1538462 29.4615385,18.7692308 29.1538462,19.3846154 C28.8461538,20 28.5384615,20.3076923 27.9230769,20.3076923 C27.3076923,20.3076923 27.3076923,19.6923077 27.3076923,18.7692308 C27.3076923,18.7692308 27.3076923,17.2307692 27.6153846,14.7692308 L26.3846154,14.7692308 Z M25.7692308,19.3846154 C25.4615385,20 24.8461538,20.3076923 24.2307692,20.3076923 C23.9230769,20.3076923 23.6153846,20 23.3076923,19.6923077 C23,19.3846154 23,19.0769231 23,18.4615385 C23,17.5384615 23.3076923,16.9230769 23.6153846,16.3076923 C23.9230769,15.6923077 24.5384615,15.3846154 25.1538462,15.3846154 C26.0769231,15.3846154 26.3846154,16 26.3846154,16.9230769 C26.3846154,18.1538462 26.0769231,18.7692308 25.7692308,19.3846154 Z" id="Shape" fill-rule="nonzero"></path>
        </g>
    </g>
</svg>