<?xml version="1.0" encoding="UTF-8"?>
<svg width="1166px" height="169px" viewBox="0 0 1166 169" version="1.1" xmlns="http://www.w3.org/2000/svg" xmlns:xlink="http://www.w3.org/1999/xlink">
    <!-- Generator: Sketch 52.1 (67048) - http://www.bohemiancoding.com/sketch -->
    <title>bgi_drtom_blue</title>
    <desc>Created with Sketch.</desc>
    <g id="Page-1" stroke="none" stroke-width="1" fill="none" fill-rule="evenodd">
        <g id="Artboard" transform="translate(-1646.000000, -777.000000)">
            <g id="bgi_drtom_blue" transform="translate(1646.000000, 777.000000)">
                <g id="Dr.Tom" transform="translate(642.000000, 66.000000)">
                    <path d="M28.92,67.82 C28.92,63.44 34.14,59.9 40.57,59.9 L42.2,59.9 C56.2335555,59.9 67.61,48.5235555 67.61,34.49 C67.61,20.4564445 56.2335555,9.08 42.2,9.08 L28.92,9.08 L28.92,0.69 L60.62,0.69 C78.9316024,1.00608159 93.6106253,15.9406698 93.6106253,34.255 C93.6106253,52.5693302 78.9316024,67.5039184 60.62,67.82 L28.92,67.82 Z" id="Combined-Shape" fill="#5378F8"></path>
                    <path d="M28.92,53.82 C28.92,61.56 19.55,67.82 7.92,67.82 L0.92,67.82 L0.92,12.35 C0.92,5.91 5.11,0.69 10.24,0.69 L28.89,0.69 L28.92,53.82 Z" id="Combined-Shape-2" fill="#5378F8"></path>
                    <path d="M35.91,9.08 C32.04,9.08 28.91,11.18 28.91,13.74 L28.91,9.08 L35.91,9.08 Z" id="Combined-Shape-3" fill="#5378F8"></path>
                    <path d="M136.14,53.82 C136.14,61.56 126.77,67.82 115.14,67.82 L108.14,67.82 L108.14,30.99 C108.14,24.56 112.33,19.34 117.46,19.34 L136.11,19.34 L136.14,53.82 Z" id="Combined-Shape-4" fill="#5378F8"></path>
                    <path d="M136.14,26.28 C147.287665,19.2297206 161.106736,17.8474429 173.43,22.55 L173.43,36.31 C162.375062,28.4452268 147.685364,27.9646306 136.14,35.09 L136.14,26.28 Z" id="Combined-Shape-5" fill="#5378F8"></path>
                    <path d="M246.62,1.16 C241.47727,1.17100053 237.311001,5.33726959 237.3,10.48 L237.3,1.16 L246.62,1.16 Z" id="Combined-Shape-6" fill="#000000"></path>
                    <path d="M262,53.82 C262,61.56 252.63,67.82 241,67.82 L234,67.82 L234,0.69 L262,0.69 L262,53.82 Z" id="Combined-Shape-7" fill="#5378F8"></path>
                    <path d="M213.06,0.69 L282.98,0.69 C289.42,0.69 294.64,4.23 294.64,8.62 L294.64,9.08 L201.4,9.08 L201.4,8.62 C201.4,4.23 206.62,0.69 213.06,0.69 Z" id="Combined-Shape-8" fill="#5378F8"></path>
                    <path d="M269,9.08 C265.13,9.08 262,11.18 262,13.74 L262,9.08 L269,9.08 Z" id="Combined-Shape-9" fill="#5378F8"></path>
                    <path d="M341.25,67.82 C315.52,67.82 294.64,56.96 294.64,43.58 C294.64,30.2 315.52,19.34 341.25,19.34 C366.98,19.34 387.87,30.2 387.87,43.58 C387.87,56.96 366.99,67.82 341.25,67.82 Z M341.25,59.43 C351.56,59.43 359.9,52.34 359.9,43.58 C359.9,34.82 351.56,27.73 341.25,27.73 C330.94,27.73 322.61,34.82 322.61,43.58 C322.61,52.34 330.95,59.43 341.25,59.43 Z" id="Combined-Shape-10" fill="#5378F8" fill-rule="nonzero"></path>
                    <ellipse id="Oval-35" fill="#5378F8" cx="187.41" cy="59.89" rx="9.32" ry="7.92"></ellipse>
                    <path d="M411.18,19.34 L429.83,19.34 L429.83,53.82 C429.83,61.56 420.46,67.82 408.83,67.82 L401.83,67.82 L401.83,30.99 C401.86,24.56 406.06,19.34 411.18,19.34 Z" id="Combined-Shape-11" fill="#5378F8"></path>
                    <path d="M469.45,67.82 L455.45,67.82 C451.58,67.82 448.45,65.72 448.45,63.16 L448.45,19.34 L476.45,41.71 L476.45,63.16 C476.44,65.72 473.32,67.82 469.45,67.82 Z" id="Combined-Shape-12" fill="#5378F8"></path>
                    <path d="M490.43,19.82 C495.574348,19.8364943 499.739022,24.0056377 499.75,29.15 L499.75,19.82 L490.43,19.82 Z" id="Combined-Shape-13" fill="#000000"></path>
                    <path d="M516.06,67.82 C504.45,67.82 495.06,61.57 495.06,53.82 L495.06,19.34 L523.06,42.18 L523.06,67.82 L516.06,67.82 Z" id="Combined-Shape-14" fill="#5378F8"></path>
                    <path d="M429.83,25.07 C435.287206,21.2494671 441.809034,19.2446347 448.47,19.34 C463.9,19.34 476.47,29.45 476.47,41.95 C476.47,54.45 463.93,61.29 448.47,61.29 L448.47,50.11 C448.47,40.32 442.23,32.39 434.47,32.39 C432.862911,32.3851394 431.273598,32.7261939 429.81,33.39 L429.83,25.07 Z" id="Combined-Shape-15" fill="#5378F8"></path>
                    <path d="M467.54,45.82 C467.259888,44.5490782 467.119057,43.2514239 467.12,41.95 C467.12,29.45 479.66,19.34 495.12,19.34 C510.58,19.34 523.12,29.45 523.12,41.95 C523.12,54.45 510.58,50.11 495.12,50.11 C495.12,40.32 488.87,32.39 481.12,32.39 C474.53,32.39 469.06,38.12 467.54,45.82 Z" id="Combined-Shape-16" fill="#5378F8"></path>
                </g>
                <path d="M7.97,46.92 L19.97,46.92 L19.97,12.7 C21.39,11.85 22.81,10.98 24.22,10.06 L24.22,0 C16.490645,4.89375926 8.39297463,9.17997455 0,12.82 L0,22.73 C2.57,21.66 5.25,20.46 8,19.15 L7.97,46.92 Z" id="Path" fill="#5378F8"></path>
                <path d="M53.28,2.91 L41.28,2.91 L41.28,19.98 C34.41,21.44 28.91,22.28 25.85,22.69 L25.85,31.44 C28.35,31.22 33.95,30.61 41.28,29.22 L41.28,34.68 C41.28,34.68 41.06,45.91 52.13,45.91 L79.13,45.91 L79.13,37.29 L58.42,37.29 C54.55,37.29 53.28,35.71 53.28,30.29 L53.28,26.49 C62.1803351,24.1997031 70.8504063,21.0932066 79.18,17.21 L79.18,7.98 C70.796582,11.6825846 62.1369493,14.7251582 53.28,17.08 L53.28,2.91 Z" id="Path" fill="#5378F8"></path>
                <polygon id="Path" fill="#5378F8" points="45.54 45.94 33.54 45.94 33.54 54.76 0.12 54.76 0.12 63.38 33.54 63.38 33.54 81.14 45.54 81.14 45.54 63.38 79.17 63.38 79.17 54.76 45.54 54.76"></polygon>
                <path d="M139.23,28.1 L171.75,28.1 L171.75,19.48 L138.87,19.48 L138.87,2.9 L126.87,2.9 L126.87,19.48 L94.12,19.48 L94.12,28.1 L126.49,28.1 C121.31,44.99 108.06,62.17 93.26,71.24 L93.26,81.12 C110.4,72.53 125.01,58.88 132.86,41.33 C140.74,58.88 155.28,72.43 172.42,81.02 L172.42,71.15 C157.66,62.08 144.42,44.99 139.23,28.15" id="Path" fill="#5378F8"></path>
                <path d="M253.2,50.39 L265.83,50.39 L265.83,43.82 L254.92,43.82 L254.92,13.82 L265.83,13.82 L265.83,7.26 L254.92,7.26 L254.92,2.59 L243.34,2.59 L243.34,7.26 L210.96,7.26 L210.96,2.59 L199.38,2.59 L199.38,7.26 L188.48,7.26 L188.48,13.82 L199.38,13.82 L199.38,43.82 L188.48,43.82 L188.48,50.41 L201.25,50.41 C197.5,54.54 193.2,59.08 188.45,62 L188.45,72.16 C198.552902,67.0728706 207.264141,59.6007009 213.83,50.39 L240.62,50.39 C247.183166,59.6031627 255.895075,67.0759076 266,72.16 L266,61.98 C261.25,59.06 256.95,54.52 253.2,50.39 Z M243.34,43.82 L210.96,43.82 L210.96,38.42 L238.79,38.42 L242.36,31.88 L210.96,31.88 L210.96,26.36 L238.79,26.36 L242.36,19.82 L210.96,19.82 L210.96,13.82 L243.34,13.82 L243.34,43.82 Z" id="Shape" fill="#5378F8" fill-rule="nonzero"></path>
                <polygon id="Path" fill="#5378F8" points="232.93 64.96 246.37 64.96 246.37 58.37 232.93 58.37 232.93 52.81 221.36 52.81 221.36 58.37 207.71 58.37 207.71 64.96 221.36 64.96 221.36 73.69 188.48 73.69 188.48 80.28 266 80.28 266 73.69 232.93 73.69"></polygon>
                <path d="M347.43,26.99 L327.56,26.99 L327.56,12.88 L316.56,12.88 L316.56,26.99 L296.56,26.99 L296.56,33.58 L315.56,33.58 C312.82,46.58 304.43,55.46 296.56,62.15 L296.56,71.42 C307.56,64.04 316.37,56.13 321.96,44.05 C327.57,56.13 336.4,64.05 347.37,71.42 L347.37,62.15 C339.54,55.46 332.17,46.52 328.37,33.58 L347.37,33.58 L347.43,26.99 Z" id="Path" fill="#5378F8"></path>
                <path d="M349.71,3.64 L283.06,3.64 L283.06,78.14 L283.06,79.82 L345.15,79.82 L348.72,73.22 L294.65,73.22 L294.65,10.22 L349.49,10.22 L349.49,79.82 L361.06,79.82 L361.06,13.92 C361.06,2.62 349.72,3.64 349.72,3.64" id="Path" fill="#5378F8"></path>
                <path d="M16.93,94.01 C15.8696336,94.0132241 14.8106464,94.0867185 13.76,94.23 C0.06,96.03 0,109.44 0,109.44 L0,168.26 L0.36,168.26 L0.36,158.88 C13.8814377,153.407967 27.7277686,148.775825 41.82,145.01 L41.82,112.74 C41.82,112.74 40.69,106.31 51.7,106.31 L89.79,106.31 C97.42,106.31 101.11,110.53 101.11,115.72 C101.11,120.91 97.42,125.15 89.79,125.15 L67.31,125.15 C50.92,125.16 49.06,137.31 49.06,137.31 L75.7,137.31 C89.56,134.72 104.01,132.67 118.93,131.21 C118.28,131.21 117.64,131.14 116.93,131.14 C117.72,131.14 118.48,131.14 119.23,131.05 L120.3,130.97 C133.39,129.81 141.64,122.03 141.64,112.57 C141.64,103.11 133.56,95.5 120.72,94.22 C119.451439,94.0793382 118.176322,94.0059022 116.9,94 L16.93,94.01 Z" id="Path" fill="#5378F8"></path>
                <path d="M119.27,131.06 C119.63,131.06 119.99,131.01 120.34,130.98 L119.27,131.06" id="Path" fill="#5378F8"></path>
                <rect id="Rectangle" fill="#5378F8" x="119.27" y="130.98" width="1.07" height="1"></rect>
                <path d="M119.27,131.06 C119.63,131.06 119.99,131.01 120.34,130.98 L119.27,131.06" id="Path" fill="#5378F8"></path>
                <rect id="Rectangle" fill="#5378F8" x="119.27" y="130.98" width="1.07" height="1"></rect>
                <path d="M345.37,94.03 C343.73,94.03 342.22,94.11 340.78,94.23 C320.27,95.95 319.45,109.12 319.45,109.12 L319.45,149.2 C331.194358,152.838844 342.720007,157.149276 353.97,162.11 C358.22,159.18 361.4,154.88 361.4,148.53 L361.4,94.03 L345.37,94.03 Z" id="Path" fill="#5378F8"></path>
                <path d="M172.83,94.22 C172.83,94.22 158.56,94.32 158.56,108.56 L158.56,128.82 C163.47,128.69 168.4,128.61 173.37,128.61 C182.5,128.61 191.5,128.85 200.37,129.27 L200.37,113.93 C200.37,113.93 199.46,106.37 211.74,106.37 L303.06,106.37 C303.06,106.37 303.06,94.22 282.82,94.22 L172.83,94.22 Z" id="Path" fill="#5378F8"></path>
                <path d="M237.88,125.27 C228.58,125.27 223.68,127.82 221.06,130.59 C248.667972,132.837432 276.029893,137.468014 302.84,144.43 L302.84,125.27 L237.88,125.27 Z" id="Path" fill="#5378F8"></path>
                <path d="M75.7,137.32 L89.79,137.32 C97.42,137.32 101.11,141.54 101.11,146.74 C101.11,151.94 97.42,156.16 89.79,156.16 L55.11,156.16 C35.96,156.16 34.78,168.32 34.78,168.32 L116.97,168.32 C131.97,168.32 141.68,160 141.68,149.75 C141.68,139.96 132.84,131.96 118.93,131.26 C104.01,132.72 89.55,134.77 75.7,137.36" id="Path" fill="#5378F8"></path>
                <path d="M75.7,137.32 L89.79,137.32 C97.42,137.32 101.11,141.54 101.11,146.74 C101.11,151.94 97.42,156.16 89.79,156.16 L55.11,156.16 C35.96,156.16 34.78,168.32 34.78,168.32 L116.97,168.32 C131.97,168.32 141.68,160 141.68,149.75 C141.68,139.96 132.84,131.96 118.93,131.26 C104.01,132.72 89.55,134.77 75.7,137.36" id="Path" fill="#5378F8"></path>
                <path d="M75.7,137.32 L89.79,137.32 C97.42,137.32 101.11,141.54 101.11,146.74 C101.11,151.94 97.42,156.16 89.79,156.16 L55.11,156.16 C35.96,156.16 34.78,168.32 34.78,168.32 L116.97,168.32 C131.97,168.32 141.68,160 141.68,149.75 C141.68,139.96 132.84,131.96 118.93,131.26 C104.01,132.72 89.55,134.77 75.7,137.36" id="Path" fill="#5378F8"></path>
                <path d="M0.36,158.88 L0.36,168.26 L9.6,168.26 C42.91,168.26 41.82,146.88 41.82,146.88 L41.82,145.01 C27.7277686,148.775825 13.8814377,153.407967 0.36,158.88" id="Path" fill="#5378F8"></path>
                <path d="M0.36,158.88 L0.36,168.26 L9.6,168.26 C42.91,168.26 41.82,146.88 41.82,146.88 L41.82,145.01 C27.7277686,148.775825 13.8814377,153.407967 0.36,158.88" id="Path" fill="#5378F8"></path>
                <path d="M0.36,158.88 L0.36,168.26 L9.6,168.26 C42.91,168.26 41.82,146.88 41.82,146.88 L41.82,145.01 C27.7277686,148.775825 13.8814377,153.407967 0.36,158.88" id="Path" fill="#5378F8"></path>
                <path d="M319.45,168.34 L331.59,168.34 C331.59,168.34 345.14,168.19 353.97,162.11 C342.720007,157.149276 331.194358,152.838844 319.45,149.2 L319.45,168.34 Z" id="Path" fill="#5378F8"></path>
                <path d="M319.45,168.34 L331.59,168.34 C331.59,168.34 345.14,168.19 353.97,162.11 C342.720007,157.149276 331.194358,152.838844 319.45,149.2 L319.45,168.34 Z" id="Path" fill="#5378F8"></path>
                <path d="M158.56,128.82 L158.56,156.38 C158.56,156.38 158.61,168.53 178.12,168.53 L276.22,168.53 C303.07,168.53 302.84,152.14 302.84,152.14 L302.84,144.48 C276.031385,137.501142 248.669443,132.853828 221.06,130.59 C219.256956,132.421578 218.204609,134.861597 218.11,137.43 L247.98,137.43 C255.39,137.62 258.8,141.75 258.8,146.85 C258.8,151.95 255.39,156.08 247.98,156.26 C247.98,156.26 223.72,156.26 211.6,156.26 C199.48,156.26 200.38,148.38 200.38,148.38 L200.38,129.22 C191.5,128.8 182.5,128.56 173.38,128.56 C168.38,128.56 163.48,128.64 158.57,128.77" id="Path" fill="#5378F8"></path>
                <path d="M158.56,128.82 L158.56,156.38 C158.56,156.38 158.61,168.53 178.12,168.53 L276.22,168.53 C303.07,168.53 302.84,152.14 302.84,152.14 L302.84,144.48 C276.031385,137.501142 248.669443,132.853828 221.06,130.59 C219.256956,132.421578 218.204609,134.861597 218.11,137.43 L247.98,137.43 C255.39,137.62 258.8,141.75 258.8,146.85 C258.8,151.95 255.39,156.08 247.98,156.26 C247.98,156.26 223.72,156.26 211.6,156.26 C199.48,156.26 200.38,148.38 200.38,148.38 L200.38,129.22 C191.5,128.8 182.5,128.56 173.38,128.56 C168.38,128.56 163.48,128.64 158.57,128.77" id="Path" fill="#5378F8"></path>
                <rect id="Rectangle" fill="#5378F8" opacity="0.300000012" x="501.06" y="1.82" width="4" height="167"></rect>
            </g>
        </g>
    </g>
</svg>