<?xml version="1.0" encoding="UTF-8"?>
<svg width="290px" height="220px" viewBox="0 0 290 220" version="1.1" xmlns="http://www.w3.org/2000/svg" xmlns:xlink="http://www.w3.org/1999/xlink">
    <!-- Generator: Sketch 52.2 (67145) - http://www.bohemiancoding.com/sketch -->
    <title>img/grid_list</title>
    <desc>Created with Sketch.</desc>
    <defs>
        <linearGradient x1="49.9691814%" y1="100.009159%" x2="49.9691814%" y2="0.032662489%" id="linearGradient-1">
            <stop stop-color="#808080" stop-opacity="0.25" offset="0%"></stop>
            <stop stop-color="#808080" stop-opacity="0.12" offset="54%"></stop>
            <stop stop-color="#808080" stop-opacity="0.1" offset="100%"></stop>
        </linearGradient>
    </defs>
    <g id="img/grid_list" stroke="none" stroke-width="1" fill="none" fill-rule="evenodd">
        <g id="undraw_personal_settings_kihd" transform="translate(8.000000, 27.000000)">
            <path d="M274.999829,99.4134136 C275.014677,107.299453 272.842624,115.037841 268.720989,121.783076 C268.720989,130.032306 264.841185,137.509511 258.547922,142.958959 C256.972591,144.321021 255.276631,145.539586 253.480619,146.599867 C253.408504,146.64514 253.333984,146.68803 253.259465,146.73092 C253.12485,146.809553 252.990235,146.888185 252.853216,146.9692 L252.725812,147.043066 C246.766971,150.333055 240.051355,152.04035 233.230638,151.999276 L52.2043653,151.999276 C50.762059,151.999276 49.3325731,151.942089 47.9159078,151.827715 C42.8814349,151.434669 37.9343242,150.299072 33.2380369,148.458445 C32.3213711,148.099438 31.4223335,147.713425 30.5409241,147.300408 C30.1210527,147.105019 29.7051877,146.90407 29.2933291,146.697561 C29.0361178,146.56889 28.7789065,146.435454 28.524099,146.302018 C25.5625707,144.755058 22.7842052,142.885735 20.240453,140.728664 C12.0673837,133.76376 7.00008075,124.142041 7.00008075,113.514784 C2.41533706,106.516784 -0.0167968548,98.3479265 8.73150505e-05,90.0037634 C8.73150505e-05,66.380752 19.0481464,47.2302433 42.5481243,47.2302433 C43.2692775,47.2302433 43.9904307,47.2516884 44.7115839,47.2898131 C44.8149491,47.2898131 44.9159106,47.2898131 45.0192759,47.3041099 C48.9808106,40.6108439 54.2764787,34.4608547 60.6442612,29.0471486 C78.0096296,14.2976589 103.389413,5 131.661022,5 C155.415807,5 177.129729,11.5645952 193.761925,22.4110697 C200.064464,18.8794995 207.183127,17.0281893 214.422963,17.0378711 C237.918133,17.0378711 256.971,36.1883798 256.971,59.8113912 C256.967502,61.306096 256.88727,62.7996559 256.730616,64.2862768 C268.223964,72.3510025 275.039302,85.4551944 274.999829,99.4134136 Z" id="Path" fill="#6C63FF" opacity="0.1"></path>
            <g id="Group" opacity="0.2" transform="translate(19.000000, 83.000000)">
                <path d="M14.2927778,64.471875 C14.2927778,64.5818015 14.2807407,64.6893382 14.2687037,64.7944853 C13.350679,64.4344363 12.4503086,64.0473039 11.5675926,63.6330882 C11.0960374,63.571531 10.6574719,63.3593129 10.3181481,63.0284926 C10.0605556,62.8994485 9.80296296,62.765625 9.54777778,62.6318015 C9.60556078,62.5116698 9.67068203,62.3951538 9.74277778,62.2829044 C10.2387037,61.5038603 10.9922222,61.0163603 11.8227778,61.0426471 C12.6533333,61.0689338 13.3731481,61.6018382 13.8185185,62.4071691 C14.1591367,63.0411549 14.3228724,63.7539847 14.2927778,64.471875 Z" id="Path" fill="#3F3D56"></path>
                <path d="M14.4227778,60.3806985 C14.4063653,61.097491 14.1977869,61.7969888 13.8185185,62.4071691 C13.3225926,63.1838235 12.5690741,63.6713235 11.7385185,63.6450368 L11.5675926,63.6330882 C11.0960374,63.571531 10.6574719,63.3593129 10.3181481,63.0284926 C10.0880416,62.811554 9.89386336,62.55993 9.74277778,62.2829044 C9.06723658,60.9893493 9.11645391,59.4404511 9.87277778,58.1917279 C10.3687037,57.4126838 11.1222222,56.9251838 11.9527778,56.9514706 C12.7833333,56.9777574 13.5031481,57.5106618 13.9485185,58.3159926 C14.2891367,58.9499785 14.4528724,59.6628083 14.4227778,60.3806985 Z" id="Path" fill="#3F3D56"></path>
                <ellipse id="Oval" fill="#3F3D56" transform="translate(11.978924, 56.215989) rotate(-88.190000) translate(-11.978924, -56.215989) " cx="11.9789235" cy="56.2159889" rx="3.34800274" ry="2.57590715"></ellipse>
                <ellipse id="Oval" fill="#3F3D56" transform="translate(12.107864, 52.124700) rotate(-88.190000) translate(-12.107864, -52.124700) " cx="12.1078637" cy="52.1247003" rx="3.34800274" ry="2.57590715"></ellipse>
                <ellipse id="Oval" fill="#3F3D56" transform="translate(12.257291, 47.767616) rotate(-88.281642) translate(-12.257291, -47.767616) " cx="12.2572907" cy="47.7676158" rx="3.34950655" ry="2.5770679"></ellipse>
                <path d="M3.48351852,19.7270221 C3.14449746,19.2713662 2.83877756,18.7921999 2.5687037,18.2931985 L9.37203704,17.4018382 L2.0487037,17.2273897 C0.727902329,14.1175326 0.754893313,10.6051195 2.12333333,7.515625 L11.7818519,12.8805147 L2.93462963,5.98621324 C5.36743367,2.08036306 9.79594307,-0.14755041 14.4076852,0.214299292 C19.0194274,0.576148995 23.0403305,3.46702611 24.8247446,7.70377057 C26.6091587,11.940515 25.8575733,16.8119976 22.8775926,20.3244485 C23.4043927,21.0335304 23.8523692,21.7971025 24.2137037,22.6018382 L15.2846296,26.8579044 L24.752963,24.0308824 C25.9643618,27.9986059 25.0751005,32.3052496 22.3888889,35.4799632 C26.209485,40.6255315 25.4038935,47.821886 20.5385164,52.009355 C15.6731393,56.196824 8.38247955,55.9686448 3.79251382,51.4852476 C-0.79745192,47.0018503 -1.14474388,39.7694135 2.99481481,34.8729779 C-0.38545423,30.3191039 -0.186489766,24.0602817 3.4762963,19.7270221 L3.48351852,19.7270221 Z" id="Path" fill="#6C63FF"></path>
                <path d="M25.2777778,27.990625 C25.192388,30.7388625 24.1744161,33.3779171 22.3888889,35.4799632 C26.209485,40.6255315 25.4038935,47.821886 20.5385164,52.009355 C15.6731393,56.196824 8.38247955,55.9686448 3.79251382,51.4852476 C-0.79745192,47.0018503 -1.14474388,39.7694135 2.99481481,34.8729779 C1.41314815,32.7389706 25.3211111,26.6141544 25.2777778,27.990625 Z" id="Path" fill="#000000" opacity="0.1"></path>
            </g>
            <path d="M231,33.3884301 L231,147.611567 C231,150.03523 229.014128,151.999997 226.56443,151.999997 L49.4355719,151.999997 C49.0214321,152.000481 48.6093271,151.942693 48.2116341,151.828369 C46.3091226,151.2905 44.9981325,149.569199 45.000002,147.611567 L45.000002,96.6380797 C45.000002,96.3782542 45.000002,96.1208123 45.000002,95.8633705 L45.000002,47.249767 C45.103603,47.249767 45.2047947,47.249767 45.3083958,47.2640693 C49.2789657,40.5681974 54.5867117,34.4158138 60.9690174,29 L226.56443,29 C229.014128,29 231,30.9647671 231,33.3884301 Z" id="Path" fill="#FFFFFF"></path>
            <rect id="Rectangle" fill="#3F3D56" x="171" y="43" width="33" height="9" rx="4.5"></rect>
            <rect id="Rectangle" fill="#000000" opacity="0.1" x="173" y="45" width="29" height="6" rx="3"></rect>
            <rect id="Rectangle" fill="#6C63FF" x="191" y="45" width="10" height="5" rx="2.5"></rect>
            <circle id="Oval" fill="#FFFFFF" cx="195.5" cy="47.5" r="1.5"></circle>
            <rect id="Rectangle" fill="#3F3D56" x="171" y="100" width="33" height="9" rx="4.5"></rect>
            <rect id="Rectangle" fill="#000000" opacity="0.1" x="173" y="102" width="29" height="6" rx="3"></rect>
            <rect id="Rectangle" fill="#6C63FF" x="191" y="102" width="10" height="5" rx="2.5"></rect>
            <circle id="Oval" fill="#FFFFFF" cx="195.5" cy="104.5" r="1.5"></circle>
            <rect id="Rectangle" fill="#3F3D56" x="171" y="129" width="33" height="9" rx="4.5"></rect>
            <rect id="Rectangle" fill="#000000" opacity="0.1" x="173" y="130" width="29" height="6" rx="3"></rect>
            <rect id="Rectangle" fill="#6C63FF" x="191" y="131" width="10" height="5" rx="2.5"></rect>
            <circle id="Oval" fill="#FFFFFF" cx="195.5" cy="133.5" r="1.5"></circle>
            <rect id="Rectangle" fill="#6C63FF" x="70" y="38" width="20" height="5" rx="2.5"></rect>
            <rect id="Rectangle" fill="#6C63FF" x="71" y="45" width="53" height="5" rx="2.5"></rect>
            <rect id="Rectangle" fill="#6C63FF" x="71" y="53" width="53" height="5" rx="2.5"></rect>
            <g id="Group" opacity="0.5" transform="translate(71.000000, 66.000000)" fill="#6C63FF">
                <rect id="Rectangle" x="0" y="0.0268292683" width="19.423125" height="5.19756098" rx="2.59878049"></rect>
                <rect id="Rectangle" x="0" y="7.33658537" width="40.2589286" height="5.19756098" rx="2.59878049"></rect>
                <rect id="Rectangle" x="0" y="14.6439024" width="53.9349107" height="5.19756098" rx="2.59878049"></rect>
            </g>
            <rect id="Rectangle" fill="#6C63FF" x="70" y="95" width="20" height="5" rx="2.5"></rect>
            <rect id="Rectangle" fill="#6C63FF" x="71" y="102" width="53" height="5" rx="2.5"></rect>
            <rect id="Rectangle" fill="#6C63FF" x="70" y="109" width="34" height="5" rx="2.5"></rect>
            <rect id="Rectangle" fill="#6C63FF" x="70" y="123" width="20" height="5" rx="2.5"></rect>
            <rect id="Rectangle" fill="#6C63FF" x="71" y="131" width="53" height="5" rx="2.5"></rect>
            <rect id="Rectangle" fill="#6C63FF" x="71" y="138" width="43" height="5" rx="2.5"></rect>
            <path d="M63,62 L220,62" id="Path" stroke="#3F3D56" opacity="0.7" stroke-linecap="round"></path>
            <path d="M63,91 L220,91" id="Path" stroke="#3F3D56" opacity="0.7" stroke-linecap="round"></path>
            <path d="M63,119 L220,119" id="Path" stroke="#3F3D56" opacity="0.7" stroke-linecap="round"></path>
            <path d="M63,150 L220,150" id="Path" stroke="#3F3D56" opacity="0.7" stroke-linecap="round"></path>
            <ellipse id="Oval" fill="#6C63FF" opacity="0.1" cx="190.5" cy="164.5" rx="35.5" ry="2.5"></ellipse>
            <circle id="Oval" fill="#6C63FF" opacity="0.1" cx="17" cy="33" r="5"></circle>
            <circle id="Oval" fill="#6C63FF" opacity="0.1" cx="39" cy="5" r="5"></circle>
            <circle id="Oval" fill="#6C63FF" opacity="0.1" cx="36.5" cy="24.5" r="8.5"></circle>
            <rect id="Rectangle" fill="#3F3D56" x="171" y="72" width="33" height="9" rx="4.5"></rect>
            <rect id="Rectangle" fill="#000000" opacity="0.1" x="173" y="73" width="29" height="6" rx="3"></rect>
            <path d="M174.063878,158.043885 C174.439097,157.988673 174.814317,157.911858 175.182366,157.82544 C175.134266,158.195293 175.027773,158.55508 174.866895,158.891257 C174.501236,159.587398 173.786646,160.007483 173.129415,160.43477 C172.942704,160.259498 172.658967,160.240432 172.450675,160.38916 C171.659607,160.869258 171.028666,161.546195 170.1898,161.959079 C169.895838,162.103108 169.589927,162.218332 169.303135,162.379164 C168.607324,162.805005 168.031444,163.402435 167.630184,164.114716 C167.39119,164.486792 167.197606,164.976491 167.431819,165.346166 C167.521649,165.471253 167.637438,165.575268 167.77119,165.651028 C168.111793,165.88975 168.519949,166.011811 168.935086,165.999099 C169.174079,165.977494 169.413072,165.886276 169.673575,165.845468 C170.000995,165.787856 170.335586,165.816662 170.665396,165.787856 C171.143838,165.725823 171.612701,165.604057 172.061116,165.425382 L173.702999,164.849265 C174.166679,164.698749 174.61812,164.51256 175.05331,164.292352 C175.313812,164.150724 175.559975,163.98509 175.825257,163.855464 C176.123744,163.722464 176.432204,163.613304 176.747771,163.528998 L177.679844,163.255342 C177.813748,163.203845 177.957889,163.184925 178.100472,163.200131 C178.229528,163.224136 178.339465,163.305752 178.470911,163.339359 C178.671578,163.375192 178.878179,163.35527 179.068394,163.281747 L180.148643,162.974485 C180.376721,162.922612 180.594198,162.831664 180.791534,162.70563 C181.28625,162.352759 181.374678,161.651817 181.372288,161.039692 C181.369839,160.112431 181.265647,159.188265 181.061597,158.283933 C180.9233,158.340355 180.802161,158.432231 180.710277,158.550387 C180.599983,158.39422 180.481098,158.244357 180.354177,158.101496 C179.85653,157.520139 179.488959,156.838236 179.276318,156.101891 C179.666454,155.810733 179.992011,155.44123 180.23229,155.01687 C179.661097,152.830027 179.075564,150.609576 177.914057,148.679585 C177.534058,148.050657 177.099091,147.460137 176.719092,146.840811 C175.588654,145.040446 175.356831,142.759983 174.063878,141.079642 C173.811907,140.730172 173.811907,140.257676 174.063878,139.908205 C174.212054,139.711365 174.451047,139.526527 174.405638,139.281678 C174.372179,139.106442 174.190545,138.945609 174.259853,138.782376 C174.293312,138.70316 174.374569,138.659952 174.436707,138.60234 C174.656581,138.395898 174.627902,138.047827 174.649411,137.745366 C174.69721,136.982011 175.148907,136.305074 175.583874,135.690549 C175.672058,135.543527 175.78916,135.416106 175.928025,135.316073 C176.045131,135.244058 176.183747,135.210452 176.300854,135.138437 C176.711922,134.876784 176.683243,134.269461 176.879217,133.818169 C177.13733,133.222848 177.787391,132.922787 178.212799,132.44029 C178.755313,131.825765 178.893929,130.971191 179.465123,130.435883 C179.523713,130.37951 179.586865,130.328122 179.653927,130.282252 C179.406149,131.192893 179.292616,132.135099 179.316947,133.078819 C179.261978,136.326678 180.064995,139.68736 179.689776,142.920816 C179.393425,145.479735 180.94927,148.031453 183.155176,149.310913 C184.018993,149.773519 184.921938,150.158303 185.853409,150.460746 C187.234789,150.957647 188.611389,151.468951 189.96648,152.040266 C190.922453,152.443548 191.865679,152.876436 192.796159,153.33893 C193.944504,153.90241 195.061458,154.528263 196.142062,155.21371 C197.470864,156.070684 198.802055,156.939661 199.746078,158.21912 C200.323723,158.189633 200.878809,157.984533 201.337772,157.631001 C201.701042,157.919059 202.140789,158.137504 202.482549,158.456768 C202.954458,158.950681 203.270429,159.573721 203.390723,160.247532 L203.247327,160.247532 C203.264057,160.566797 203.278397,160.886061 203.295126,161.207727 C203.307694,161.289543 203.295191,161.373264 203.259277,161.447775 C203.224648,161.495371 203.180738,161.535391 203.130221,161.565399 L202.394122,162.067101 C201.858777,162.429574 201.268464,162.888068 201.239785,163.538599 C201.224884,163.727887 201.282118,163.915794 201.399911,164.064306 C201.580038,164.232591 201.809997,164.337119 202.054752,164.361967 C203.335755,164.633222 204.647827,164.897275 205.94556,164.72204 C206.562162,164.638023 207.200274,164.433981 207.601782,163.953884 C207.969831,163.516995 208.079768,162.924075 208.180145,162.35996 C208.340271,161.399766 208.474107,160.417966 208.579264,159.443369 C208.611534,158.780987 208.74535,158.127571 208.975992,157.506175 C208.993844,157.452085 209.030271,157.406136 209.078759,157.376549 C209.133728,157.352544 209.198256,157.376549 209.255614,157.352544 C209.312973,157.328539 209.351212,157.239721 209.370331,157.167707 C209.606969,156.219717 209.721822,155.245202 209.712091,154.267918 C209.723327,154.0141 209.685173,153.760516 209.599764,153.521367 C209.395145,153.115919 209.019305,152.824856 208.576874,152.729206 C208.141369,152.640279 207.699351,152.587291 207.255242,152.570774 C206.884549,152.534944 206.517565,152.467487 206.158264,152.369133 C206.012788,152.313879 205.85652,152.293334 205.701787,152.309121 C205.542801,152.330768 205.424298,152.467238 205.424555,152.628386 C205.432873,152.683783 205.452393,152.736883 205.481913,152.784417 L205.109084,152.710002 C204.807952,152.654791 204.392104,152.522764 203.940407,152.412342 C203.940407,152.335526 203.945187,152.25551 203.954747,152.172293 C203.956772,151.997075 203.858156,151.83635 203.701414,151.759409 L197.387216,148.369922 L196.20659,147.736193 C193.620685,146.346311 190.948742,145.062051 188.355666,143.672169 C188.183591,143.724979 188.040196,143.525739 187.990007,143.348103 C187.939818,143.170467 187.903969,142.959224 187.739064,142.880008 C187.657807,142.8416 187.55026,142.844 187.500071,142.774386 C187.457351,142.712028 187.441019,142.635188 187.454662,142.560743 C187.53831,141.295686 188.439314,140.12905 188.260069,138.875995 C188.183591,138.340687 187.908749,137.81258 188.021076,137.286873 C188.104724,136.924399 188.362836,136.629139 188.499062,136.283469 C188.809753,135.510512 188.499062,134.581524 188.838433,133.825371 C189.064606,133.32838 189.218343,132.801264 189.294909,132.260253 C189.454962,131.182157 189.777304,130.134774 190.250882,129.154023 C190.479713,128.659294 190.779222,128.200767 191.139936,127.792947 C191.328741,127.586505 191.541445,127.401667 191.723079,127.188024 C192.272764,126.52789 192.475908,125.649312 192.631253,124.787537 C192.913265,123.248825 193.109239,121.652501 192.75553,120.125791 C192.636033,119.607286 192.454398,119.091181 192.461568,118.558273 C192.461568,117.919743 192.717291,117.187595 192.40899,116.676291 C192.726571,116.420159 192.938549,116.055043 193.004083,115.651283 C193.008576,115.506005 193.036836,115.362459 193.08773,115.226397 C193.192733,115.078303 193.329022,114.955347 193.486849,114.866324 C193.990028,114.480708 194.229525,113.840162 194.103451,113.217189 C194.430871,113.366019 194.775022,113.032352 194.930367,112.703485 C195.085713,112.374618 195.202819,111.983339 195.53502,111.834509 C195.759673,111.738489 196.013006,111.796101 196.251999,111.733688 C196.631998,111.635268 196.863821,111.253591 197.131494,110.972734 C197.676398,110.382214 198.448346,110.077352 199.162935,109.714878 C201.280414,108.632259 203.005944,106.920712 204.695626,105.23557 C205.576797,104.413723 206.377134,103.508563 207.085557,102.532621 C207.274361,102.251764 207.446436,101.961305 207.608952,101.663645 L207.651971,101.64204 L207.66631,101.694851 C207.692599,101.800473 207.723668,101.906094 207.754738,102.009315 C207.831215,102.249364 207.917253,102.506216 207.993731,102.751065 C208.251843,103.471212 208.531465,104.239367 209.05725,104.784278 C209.218505,104.950472 209.401878,105.093457 209.602154,105.209164 C210.036632,105.443579 210.513833,105.58729 211.005044,105.63165 C211.191459,105.655655 211.380263,105.670058 211.569068,105.67966 C211.757872,105.689262 211.946677,105.696463 212.133091,105.701264 L216,105.804485 C214.671198,103.869692 214.566041,101.353982 214.654469,98.9991042 C214.876732,92.9498768 216.050189,86.8454382 214.96038,80.8922302 C214.828934,80.1720841 214.654469,79.451938 214.217111,78.8734206 C213.643528,78.1172672 212.701895,77.7523932 211.784161,77.5387498 C210.866428,77.3251065 209.912845,77.2218855 209.05486,76.8354071 C208.337881,76.5065404 207.67826,75.9784332 206.903922,75.8055981 C206.333399,75.7095842 205.750192,75.7193473 205.183172,75.834404 C204.485312,75.9384251 203.791435,76.0616501 203.101542,76.204079 L202.934246,76.2400863 L202.941416,76.2400863 L202.8267,76.2664917 L202.79563,76.2664917 L202.692863,76.2904965 L202.654624,76.2904965 L202.559027,76.3169019 L202.516008,76.3289043 L202.427581,76.3577102 L202.377392,76.3745136 L202.296135,76.4009189 L202.243556,76.4225233 L202.167079,76.4513292 L202.10972,76.475334 L202.040412,76.5065404 L201.983054,76.5353462 L201.918526,76.5665525 L201.861167,76.6001594 L201.801419,76.6337662 L201.744061,76.672174 L201.689092,76.7081813 L201.631734,76.7489896 L201.583935,76.7873974 L201.528967,76.8354071 L201.483558,76.8762154 C201.46483,76.8934252 201.447265,76.9118698 201.43098,76.9314266 L201.390351,76.9722349 C201.371515,76.993574 201.353958,77.016018 201.337772,77.0394485 C201.337772,77.0514509 201.316263,77.0634534 201.306703,77.0778563 C201.297144,77.0922592 201.263685,77.140269 201.242175,77.1762763 L201.242175,77.1906792 C201.188254,77.2808706 201.144183,77.3766446 201.110729,77.4763371 C201.093999,77.5267474 201.07727,77.5771576 201.06532,77.6275678 C201.04065,77.7302465 201.023082,77.8345166 201.012742,77.9396311 C201.012742,77.9924419 201.012742,78.0476531 201.000792,78.1004638 C201.000792,78.2060852 201.000792,78.3141071 201.000792,78.4197286 C201.010433,78.5999668 201.030382,78.7794993 201.06054,78.9574377 C199.337583,79.9801628 198.258092,81.8197875 198.201807,83.8291736 C198.145522,85.8385598 199.120327,87.7362371 200.783308,88.8546458 C200.794848,88.9494451 200.801231,89.0448061 200.802428,89.1403038 L200.802428,89.2027165 C200.789046,89.5423011 200.753921,89.8806688 200.697271,90.215722 C199.752609,90.0314677 198.791569,89.9453965 197.829354,89.9588699 C197.25577,89.9588699 196.677407,90.0116806 196.099043,90.0572899 C195.479106,89.3061082 194.901436,88.5207253 194.368733,87.7048125 L193.09251,85.8252312 C192.654238,85.2110722 192.255118,84.5696594 191.897544,83.9048415 C191.584463,83.2951178 191.34069,82.6469863 190.991761,82.0564665 C190.274781,80.8394195 189.103715,79.8048096 188.957929,78.3957237 L188.620949,78.4653378 C188.436924,78.1628764 188.205101,77.8436117 188.119063,77.6683761 C187.657511,76.6683661 187.301849,75.6224128 187.057934,74.5477429 C186.940827,73.9908299 186.8524,73.409912 186.548879,72.9298146 C186.341978,72.6298955 186.091431,72.3628673 185.80561,72.1376539 C185.344629,71.7017769 184.804165,71.3594383 184.213916,71.1294493 C183.681379,70.935016 183.092585,70.9697528 182.586373,71.2254688 C182.508483,71.1891734 182.428703,71.1571205 182.34738,71.1294493 C181.746826,70.8999518 181.072606,70.978779 180.540592,71.3406922 C180.038706,71.7271706 179.823612,72.389705 179.747134,73.0210331 C179.614983,73.8946256 179.764024,74.7877789 180.172542,75.5703504 C180.650528,76.4297248 181.506124,77.0106427 182.213543,77.692381 C182.705872,78.1713819 183.136978,78.7100242 183.496936,79.2959063 C183.607926,80.5926094 183.575061,81.8976865 183.398949,83.1870959 C183.308132,83.7392079 183.159956,84.281718 183.116937,84.838631 C182.942472,86.8502391 183.984482,88.8618473 183.611653,90.8398486 C183.485502,91.4493248 183.756791,92.0722905 184.288004,92.3929638 C184.823348,92.6834227 185.44951,92.7218305 186.037433,92.8730612 C187.19177,93.1707216 188.188371,93.9124721 189.354658,94.1885281 C189.892392,94.3181544 190.451636,94.3421593 190.986981,94.4861885 L191.070628,94.5125939 C190.658219,94.9814089 190.363969,95.5428716 190.212643,96.149726 C189.97365,97.1579306 190.198303,98.2357493 189.95931,99.2439539 C189.763336,100.074522 189.27101,100.799469 188.785854,101.502812 C187.852188,102.859888 186.916928,104.220164 185.980075,105.58364 C185.353999,106.539888 184.663277,107.451818 183.912784,108.312994 C182.624612,109.726881 180.401976,110.847908 179.747134,112.547453 C179.732795,112.506645 179.713675,112.465837 179.699336,112.425028 C178.772043,113.109167 178.425503,114.383826 177.687014,115.269606 C177.326134,115.699293 176.881607,116.047363 176.492048,116.445844 C176.009427,116.960155 175.567539,117.511543 175.170416,118.094979 C174.071048,119.62649 172.96451,121.165202 172.178223,122.88155 C171.767154,123.774531 171.449294,124.70352 171.121873,125.627707 C169.83609,129.269246 167.73773,132.723547 166.865406,136.489911 C166.652702,137.409298 166.095848,138.239866 166.0122,139.180857 C165.918993,140.184261 166.37547,141.149257 166.848676,142.035036 C167.565655,143.388911 168.363892,144.704378 168.999614,146.09666 C169.374833,146.908025 169.699864,147.745795 170.118102,148.537956 C170.574579,149.402131 171.133823,150.203894 171.611809,151.056067 C172.775705,153.24291 173.444886,155.660201 174.063878,158.043885 Z M189.875663,89.2579277 L189.760946,89.200316 C189.332365,89.0141131 188.939949,88.7532433 188.601829,88.4297596 C187.571769,87.3255356 187.129632,85.661998 186.806991,84.1760965 C186.768752,83.9984605 186.735293,83.8232249 186.704224,83.6455889 C187.954158,85.4291508 189.134784,87.2727249 189.875663,89.2627286 L189.875663,89.2579277 Z" id="Shape" fill="url(#linearGradient-1)" fill-rule="nonzero"></path>
            <path d="M185.028848,75.2948822 C184.90044,74.7761355 184.806099,74.237178 184.473287,73.792538 C184.245302,73.5133304 183.96969,73.2650377 183.655668,73.0559626 C183.147295,72.6508814 182.553072,72.3330065 181.905125,72.1195238 C181.246534,71.9076239 180.509177,71.9803385 179.923971,72.3148959 C179.37103,72.674201 179.137799,73.2895109 179.05132,73.8868555 C178.906518,74.6990085 179.070041,75.5295415 179.517782,76.2560232 C180.055,77.0554769 180.982683,77.5899432 181.760993,78.2277097 C182.326262,78.6948622 182.817852,79.2233249 183.223273,79.7996692 C183.408129,80.0985154 183.631391,80.3787167 183.888899,80.6350535 C184.152903,80.8896545 184.540912,81.0234849 184.937128,80.9966042 C185.263913,80.9225491 185.560467,80.77256 185.794056,80.5631925 C186.113765,80.3229072 186.973314,79.8894955 186.999519,79.5144709 C187.020484,79.2068159 186.349617,78.5106624 186.184521,78.2209727 C185.68035,77.2831289 185.292984,76.3023431 185.028848,75.2948822 Z" id="Path" fill="#FBBEBE"></path>
            <path d="M185.028848,75.2948822 C184.90044,74.7761355 184.806099,74.237178 184.473287,73.792538 C184.245302,73.5133304 183.96969,73.2650377 183.655668,73.0559626 C183.147295,72.6508814 182.553072,72.3330065 181.905125,72.1195238 C181.246534,71.9076239 180.509177,71.9803385 179.923971,72.3148959 C179.37103,72.674201 179.137799,73.2895109 179.05132,73.8868555 C178.906518,74.6990085 179.070041,75.5295415 179.517782,76.2560232 C180.055,77.0554769 180.982683,77.5899432 181.760993,78.2277097 C182.326262,78.6948622 182.817852,79.2233249 183.223273,79.7996692 C183.408129,80.0985154 183.631391,80.3787167 183.888899,80.6350535 C184.152903,80.8896545 184.540912,81.0234849 184.937128,80.9966042 C185.263913,80.9225491 185.560467,80.77256 185.794056,80.5631925 C186.113765,80.3229072 186.973314,79.8894955 186.999519,79.5144709 C187.020484,79.2068159 186.349617,78.5106624 186.184521,78.2209727 C185.68035,77.2831289 185.292984,76.3023431 185.028848,75.2948822 Z" id="Path" fill="#000000" opacity="0.1"></path>
            <path d="M202,91.0646079 C200.714612,90.7350874 199.387546,90.5781929 198.056956,90.5984353 C195.836862,90.6287365 193.550969,91.1438573 191.435664,90.4912156 C190.891592,90.3139914 190.362108,90.0981756 189.851623,89.8455664 C189.414128,89.6663673 189.013175,89.4146504 188.667248,89.1020211 C187.61447,88.0368165 187.16119,86.4308518 186.834634,84.9997017 C186.546126,83.5596123 186.379061,82.0996793 186.335052,80.6339948 C185.78673,80.8787355 185.206727,81.1188144 184.604792,81.0698662 C184.002856,81.0209181 183.386299,80.5780541 183.386299,80 C183.476467,81.3565624 183.542266,82.7294409 183.305878,84.0673564 C183.213273,84.5987932 183.062179,85.1232375 183.020751,85.659336 C182.840414,87.6009451 183.905377,89.5402233 183.525207,91.4538621 C183.394455,92.0426444 183.672252,92.6453982 184.214874,92.9502763 C184.760759,93.2323108 185.401686,93.2672737 186.001185,93.416449 C187.178249,93.7031451 188.194473,94.4187202 189.388596,94.6867694 C189.936918,94.8103052 190.50961,94.8336138 191.055495,94.9734656 C191.832893,95.171589 192.542056,95.598137 193.336514,95.7309962 C193.931138,95.8335542 194.555007,95.7636283 195.147195,95.8125764 C195.671147,95.8545319 196.182914,95.9850603 196.709303,95.9990455 C197.996032,96.0293467 199.209651,95.3347494 200.062596,94.4117276 C200.915541,93.4887057 201.458989,92.1764297 202,91.0646079 Z" id="Path" fill="#F86D70"></path>
            <path d="M202,91.0646079 C200.714612,90.7350874 199.387546,90.5781929 198.056956,90.5984353 C195.836862,90.6287365 193.550969,91.1438573 191.435664,90.4912156 C190.891592,90.3139914 190.362108,90.0981756 189.851623,89.8455664 C189.414128,89.6663673 189.013175,89.4146504 188.667248,89.1020211 C187.61447,88.0368165 187.16119,86.4308518 186.834634,84.9997017 C186.546126,83.5596123 186.379061,82.0996793 186.335052,80.6339948 C185.78673,80.8787355 185.206727,81.1188144 184.604792,81.0698662 C184.002856,81.0209181 183.386299,80.5780541 183.386299,80 C183.476467,81.3565624 183.542266,82.7294409 183.305878,84.0673564 C183.213273,84.5987932 183.062179,85.1232375 183.020751,85.659336 C182.840414,87.6009451 183.905377,89.5402233 183.525207,91.4538621 C183.394455,92.0426444 183.672252,92.6453982 184.214874,92.9502763 C184.760759,93.2323108 185.401686,93.2672737 186.001185,93.416449 C187.178249,93.7031451 188.194473,94.4187202 189.388596,94.6867694 C189.936918,94.8103052 190.50961,94.8336138 191.055495,94.9734656 C191.832893,95.171589 192.542056,95.598137 193.336514,95.7309962 C193.931138,95.8335542 194.555007,95.7636283 195.147195,95.8125764 C195.671147,95.8545319 196.182914,95.9850603 196.709303,95.9990455 C197.996032,96.0293467 199.209651,95.3347494 200.062596,94.4117276 C200.915541,93.4887057 201.458989,92.1764297 202,91.0646079 Z" id="Path" fill="#000000" opacity="0.1"></path>
            <path d="M204.961194,152.472822 C205.393257,152.521746 205.812136,152.641364 206.197768,152.825944 C206.700799,153.152557 207.07725,153.616678 207.272818,154.15136 C207.850062,155.45259 207.969218,156.884426 207.995697,158.289658 C208.01688,159.424001 207.974514,160.584949 207.529665,161.644315 C207.408151,161.978562 207.198024,162.280172 206.917999,162.522282 C206.669708,162.700009 206.382572,162.827022 206.075964,162.894753 C205.411339,163.061639 204.643446,163.059221 204.100624,162.672238 C203.496901,162.241719 203.345971,161.479847 203.218871,160.790534 C203.046757,159.861775 202.803149,158.87255 202.045848,158.23161 C201.484491,157.747882 200.679527,157.506017 200.271749,156.920706 C199.784534,156.216881 200.041381,155.297797 200.351187,154.514157 C200.615977,153.834518 201.015811,152.45831 201.794296,152.110026 C202.572781,151.761741 204.153583,152.339797 204.961194,152.472822 Z" id="Path" fill="#FBBEBE"></path>
            <path d="M179.399472,155.354795 C179.60136,156.126452 179.959457,156.840743 180.448198,157.44667 C180.745871,157.815391 181.119107,158.262772 180.963401,158.719986 C180.897814,158.875373 180.801743,159.013724 180.681757,159.125578 C178.469815,161.446061 175.376302,162.566972 172.307977,162.989771 C172.259178,163.00341 172.207939,163.00341 172.15914,162.989771 C172.069838,162.947983 172.04694,162.825076 172.037781,162.719376 C171.987406,162.376537 171.987406,162.027339 172.037781,161.6845 C172.186618,160.880689 172.843789,160.312859 173.487221,159.867936 C174.130654,159.423013 174.833621,158.995297 175.190829,158.270146 C175.637339,157.370468 175.449575,156.197936 175.980808,155.354795 C176.411289,154.668974 177.212718,154.371539 177.975219,154.248632 C178.238546,154.204386 178.799545,153.894661 179.023945,154.037233 C179.248345,154.179805 179.321619,155.072109 179.399472,155.354795 Z" id="Path" fill="#FBBEBE"></path>
            <path d="M205.447046,152.311768 C205.44693,152.156185 205.572812,152.024751 205.740984,152.004864 C205.90483,151.990067 206.070207,152.009134 206.224969,152.060665 C206.605573,152.157805 206.994778,152.223937 207.388053,152.258292 C207.859705,152.273377 208.329215,152.323921 208.791863,152.409419 C209.260581,152.499567 209.659975,152.778899 209.878929,153.169703 C209.969284,153.400574 210.009736,153.64539 209.998025,153.890461 C210.008425,154.830895 209.886636,155.768636 209.635669,156.680493 C209.615398,156.750243 209.58499,156.831619 209.511506,156.857195 C209.438021,156.88277 209.384808,156.857195 209.326527,156.88277 C209.273464,156.909669 209.234257,156.954846 209.217567,157.008321 C208.972222,157.604437 208.829458,158.23195 208.794397,158.868343 C208.682903,159.798353 208.541002,160.742314 208.371227,161.672325 C208.272403,162.216381 208.148239,162.788338 207.758011,163.206842 C207.329773,163.671848 206.653207,163.864825 205.999447,163.946201 C204.620977,164.113603 203.229837,163.860175 201.869105,163.599772 C201.609256,163.576017 201.36478,163.475685 201.172268,163.313794 C201.047309,163.170886 200.986576,162.989572 201.002493,162.806938 C201.0329,162.181506 201.661321,161.739751 202.226392,161.390997 L203.009383,160.909716 C203.063943,160.88191 203.11077,160.842923 203.146217,160.79579 C203.184768,160.723755 203.198047,160.64253 203.184226,160.563287 L203.133547,159.633276 C204.190004,159.650589 205.150712,160.198957 205.634558,161.060843 C205.740984,161.25847 205.844876,161.488648 206.067864,161.565374 C206.369327,161.628636 206.671076,161.460868 206.749497,161.186394 C206.816611,160.920046 206.808763,160.642408 206.726692,160.37961 C206.268046,158.131309 206.377006,155.820233 206.098272,153.548682 C206.080443,153.292833 205.993349,153.045104 205.844876,152.827924 C205.725781,152.672147 205.474919,152.52102 205.447046,152.311768 Z" id="Path" fill="#F86D70"></path>
            <rect id="Rectangle" fill="#6C63FF" transform="translate(179.000000, 75.500000) rotate(180.000000) translate(-179.000000, -75.500000) " x="174" y="73" width="10" height="5" rx="2.5"></rect>
            <circle id="Oval" fill="#FFFFFF" cx="178.5" cy="75.5" r="1.5"></circle>
            <path d="M173.978793,161.525377 C173.871748,161.71303 173.702856,161.858148 173.602947,162.050806 C173.485755,162.240364 173.52036,162.491937 173.683826,162.638785 C173.790832,162.68803 173.909934,162.700294 174.023989,162.673814 C176.321593,162.372057 178.478133,161.344345 180.208787,159.726409 C180.496734,159.471262 180.751826,159.177717 180.967615,158.853196 C181.16981,158.530433 181.341081,158.13511 181.681245,158 C181.888273,158.93954 181.995183,159.900407 182,160.864838 C182,161.500356 181.914364,162.223446 181.421959,162.591247 C181.224259,162.720636 181.007071,162.813706 180.779692,162.866471 L179.704488,163.186732 C179.514082,163.262237 179.307977,163.282966 179.107418,163.246781 C178.981343,163.211753 178.869541,163.126683 178.738708,163.101663 C178.596792,163.085814 178.453324,163.105534 178.320045,163.15921 L177.389947,163.444443 C177.075579,163.530321 176.768472,163.643295 176.471742,163.782218 C176.20532,163.914827 175.960307,164.084965 175.701021,164.232586 C175.267313,164.461352 174.817122,164.653773 174.354638,164.808056 L172.720424,165.406043 C172.272752,165.590045 171.805459,165.716073 171.328845,165.78135 C171.000575,165.811374 170.665168,165.78135 170.339277,165.838897 C170.1014,165.883933 169.863523,165.979011 169.601859,165.999027 C169.188992,166.012475 168.782923,165.886183 168.443399,165.638733 C168.310898,165.559921 168.195775,165.452477 168.105614,165.323476 C167.867737,164.940664 168.07469,164.435251 168.303051,164.047435 C168.705389,163.31066 169.278153,162.692723 169.968189,162.250969 C170.253642,162.085834 170.560503,161.965736 170.853091,161.815614 C171.688039,161.390267 172.318413,160.679687 173.105785,160.194291 C173.850339,159.736417 174.328472,160.919883 173.978793,161.525377 Z" id="Path" fill="#F86D70"></path>
            <path d="M197,94.7843453 C197.914848,95.3779753 198.962514,95.7633829 200.061045,95.9104197 C200.635483,95.9777896 201.214187,96.0072229 201.792952,95.9985058 C204.207737,95.996135 206.618222,95.8058298 209,95.4295169 C208.053493,94.4415235 207.094399,93.3844897 206.734424,92.0965272 C206.556751,91.4136578 206.519152,90.704906 206.623663,90.0086473 C206.768813,89.1190577 206.994523,88.242909 207.298301,87.3898697 C206.282504,87.4402787 205.264095,87.415603 204.25236,87.3160678 C203.675897,87.2589308 202.261171,86.7637438 201.760227,87.1398955 C201.259283,87.5160472 201.64443,88.727827 201.651982,89.2968159 C201.653238,89.3174316 201.653238,89.3380986 201.651982,89.3587143 C201.627516,90.2254414 201.430228,91.0800062 201.070485,91.8775022 C200.350535,93.4154389 198.789805,94.6819749 197,94.7843453 Z" id="Path" fill="#FBBEBE"></path>
            <path d="M202.128136,89.1326569 C203.396057,89.9768348 204.961114,90.2190323 206.417896,89.7965107 C206.543137,88.9696451 206.737888,88.1552728 207,87.3623804 C206.12353,87.4092351 205.244808,87.3862993 204.371843,87.2937822 C203.874448,87.2406739 202.653767,86.780402 202.221533,87.1300316 C201.789299,87.4796612 202.12162,88.6037868 202.128136,89.1326569 Z" id="Path" fill="#000000" opacity="0.1"></path>
            <circle id="Oval" fill="#FBBEBE" cx="204" cy="85" r="6"></circle>
            <path d="M179.000024,114.148839 C178.99599,115.100143 179.492782,115.983377 180.307772,116.473849 C180.753902,116.708225 181.231646,116.876679 181.726101,116.973955 C184.370444,117.613513 187.091713,118.128045 189.815387,117.971762 C190.405797,117.966756 190.989294,117.844152 191.531805,117.611109 C192.079651,117.36833 192.475128,116.874124 192.591947,116.28631 C192.594675,116.142385 192.622329,116.000023 192.673681,115.865548 C192.779389,115.717928 192.916497,115.595578 193.07514,115.507299 C193.581118,115.126261 193.823301,114.488436 193.697763,113.867529 C194.027103,114.016599 194.373272,113.682394 194.529529,113.355402 C194.685785,113.02841 194.805983,112.634095 195.137727,112.492239 C195.363699,112.396064 195.618517,112.453769 195.858912,112.391256 C196.24114,112.292677 196.474323,111.910385 196.743565,111.633884 C197.291665,111.047222 198.072948,110.744273 198.789325,110.381216 C200.92403,109.306469 202.662085,107.601782 204.366484,105.925947 C205.252535,105.109498 206.057596,104.209288 206.770432,103.237879 C206.961386,102.95858 207.137907,102.669678 207.299301,102.372312 C207.812958,101.385179 208.258722,100.364167 208.633492,99.3163773 C208.849847,98.7537584 209.068606,98.1622872 208.97966,97.5660074 C208.97966,97.5131116 208.960429,97.4602158 208.948409,97.4049157 C208.837192,97.0223013 208.658938,96.6624756 208.421944,96.3421911 C207.832977,95.4766236 207.06131,94.6591431 206.046844,94.3898554 C205.032378,94.1205678 204.022719,94.4451556 202.991426,94.6639518 C202.650088,94.7404575 202.30391,94.7934775 201.955324,94.8226392 C200.863932,94.8995785 199.791771,94.6062473 198.729226,94.3153204 L197.580139,93.9979457 C197.005595,93.8392583 196.717121,93.1443999 196.13777,93.0217779 C195.877253,92.9825304 195.611488,92.9964343 195.356487,93.0626519 C194.176148,93.2862568 192.98379,93.5771837 191.942881,94.1782723 C191.710241,94.3113628 191.488397,94.4624992 191.279391,94.6302909 C190.524002,95.1944925 189.980392,95.9964959 189.736056,96.9072143 C189.495661,97.9098301 189.721633,98.982172 189.481238,99.9847878 C189.284114,100.811886 188.786497,101.533192 188.300899,102.230455 L185.469049,106.2866 C184.837713,107.23703 184.142152,108.14318 183.38723,108.998712 C181.863126,110.655312 179.040892,111.900767 179.000024,114.148839 Z" id="Path" fill="#F86D70"></path>
            <path d="M187.028848,75.2948822 C186.90044,74.7761355 186.806099,74.237178 186.473287,73.792538 C186.245302,73.5133304 185.96969,73.2650377 185.655668,73.0559626 C185.147295,72.6508814 184.553072,72.3330065 183.905125,72.1195238 C183.246534,71.9076239 182.509177,71.9803385 181.923971,72.3148959 C181.37103,72.674201 181.137799,73.2895109 181.05132,73.8868555 C180.906518,74.6990085 181.070041,75.5295415 181.517782,76.2560232 C182.041897,77.0554769 182.982683,77.5899432 183.760993,78.2277097 C184.326262,78.6948622 184.817852,79.2233249 185.223273,79.7996692 C185.408129,80.0985154 185.631391,80.3787167 185.888899,80.6350535 C186.152903,80.8896545 186.540912,81.0234849 186.937128,80.9966042 C187.263913,80.9225491 187.560467,80.77256 187.794056,80.5631925 C188.113765,80.3229072 188.973314,79.8894955 188.999519,79.5144709 C189.020484,79.2068159 188.349617,78.5106624 188.184521,78.2209727 C187.68035,77.2831289 187.292984,76.3023431 187.028848,75.2948822 Z" id="Path" fill="#FBBEBE"></path>
            <path d="M166.846162,142.110237 C167.562035,143.441316 168.359041,144.724857 169.005713,146.103476 C169.380354,146.9045 169.704883,147.726917 170.122476,148.50655 C170.578249,149.355113 171.139017,150.144253 171.616266,150.980932 C172.809388,153.096398 173.484696,155.482833 174.102733,157.833615 C175.829834,157.577742 177.491877,156.995233 178.999308,156.117473 C179.100629,156.060457 179.198622,155.997764 179.292816,155.929696 C179.696397,155.642241 180.033295,155.271804 180.280722,154.84344 C179.710409,152.704205 179.125779,150.5103 177.963678,148.611135 C177.584265,147.993133 177.149968,147.422671 176.770555,146.802292 C175.641861,145.031481 175.408009,142.799546 174.11705,141.142827 C173.864049,140.800754 173.864049,140.334467 174.11705,139.992394 C174.264998,139.799863 174.503622,139.616839 174.458284,139.376769 C174.424876,139.203254 174.243521,139.046377 174.312723,138.884745 C174.34613,138.806307 174.427262,138.763522 174.489305,138.706476 C174.708839,138.506814 174.680204,138.162159 174.701681,137.86742 C174.749405,137.116311 175.200406,136.457902 175.637089,135.844655 C175.725814,135.700248 175.842647,135.574982 175.980708,135.476231 C176.097634,135.404923 176.236036,135.371646 176.352962,135.300338 C176.763396,135.046007 176.734761,134.447021 176.93282,134.002535 C177.190534,133.417811 177.839593,133.120695 178.266731,132.647686 C178.808408,132.043947 178.944424,131.204891 179.517123,130.677213 C179.576236,130.622089 179.639235,130.571252 179.705637,130.52509 C179.457328,131.423371 179.343944,132.353331 179.369176,133.284703 C179.314292,136.479294 180.116071,139.783224 179.74143,142.956423 C179.445536,145.471213 181.001368,147.981249 183.206258,149.24102 C184.071035,149.695817 184.974091,150.074399 185.905101,150.372438 C187.284351,150.859708 188.663601,151.36124 190.016602,151.924572 C190.9711,152.319142 191.925598,152.746989 192.846688,153.200982 C193.993293,153.7545 195.10855,154.370258 196.187431,155.045479 C197.51657,155.886911 198.848095,156.742605 199.790662,158 C200.704593,157.976231 201.542165,157.429537 202.119637,156.72359 C202.697108,156.017642 203.057431,155.164325 203.393892,154.320516 C203.6874,153.590799 203.978522,152.842066 203.999998,152.055303 C204.000523,151.882821 203.902374,151.725103 203.747056,151.648849 L197.433051,148.321149 L196.239929,147.698394 C193.655625,146.331661 190.99019,145.067135 188.391569,143.702778 C188.217373,143.752694 188.074198,143.555409 188.024087,143.38427 C187.973976,143.213131 187.938182,142.999208 187.773531,142.923146 C187.690013,142.885115 187.585018,142.885115 187.534907,142.818561 C187.493944,142.757006 187.478547,142.682024 187.491954,142.609392 C187.575473,141.363881 188.477474,140.218202 188.296119,138.984576 C188.219759,138.456898 187.945341,137.938728 188.057494,137.422935 C188.141013,137.064019 188.398727,136.774033 188.534743,136.434133 C188.842569,135.673516 188.534743,134.770283 188.87359,134.016797 C189.099699,133.528114 189.253231,133.009264 189.329363,132.476548 C189.491972,131.415759 189.817951,130.386319 190.295792,129.424572 C190.524368,128.936923 190.823439,128.485264 191.183475,128.083985 C191.374375,127.881946 191.586751,127.698922 191.765719,127.489753 C192.316942,126.840851 192.517386,125.97565 192.674879,125.141348 C192.956456,123.627245 193.152128,122.051342 192.798963,120.556254 C192.679651,120.045214 192.498297,119.538929 192.505455,119.013628 C192.505455,118.321942 192.818053,117.511409 192.336032,117.009877 C192.132731,116.829892 191.8861,116.70542 191.620158,116.648584 C190.497636,116.34708 189.352488,116.136432 188.195897,116.018698 L182.93184,115.33652 C182.323727,115.296546 181.728666,115.142515 181.17795,114.882527 C180.462076,114.490334 179.984827,113.760617 179.698478,113 C178.772615,113.672671 178.424223,114.925312 177.686873,115.795267 C177.32655,116.220737 176.882709,116.563015 176.493751,116.952831 C176.010378,117.458036 175.568311,118.000911 175.171771,118.576273 C174.071712,120.080868 172.964494,121.597348 172.177033,123.28259 C171.768985,124.159677 171.46116,125.074794 171.122313,125.98278 C169.836127,129.564811 167.738617,132.963818 166.867638,136.664695 C166.652876,137.570304 166.096881,138.385591 166.013362,139.312592 C165.915526,140.294264 166.371299,141.245035 166.846162,142.110237 Z" id="Path" fill="#434175"></path>
            <path d="M194.801662,112.079405 C194.932993,112.36253 195.00115,112.678907 194.999985,113 C194.880012,112.310966 194.057338,111.929738 194.005921,111.249176 C193.981437,110.935722 194.030405,110.949841 194.199347,111.116452 C194.456433,111.362132 194.566613,111.80831 194.801662,112.079405 Z" id="Path" fill="#000000" opacity="0.1"></path>
            <path d="M192.517293,114.224253 C192.683545,114.39696 192.808373,114.620936 192.878626,114.872587 C193.01085,115.226516 193.035942,115.625793 192.949476,116 C192.833755,115.934019 192.793607,115.761895 192.758182,115.609852 C192.704728,115.37509 192.62528,115.150231 192.522017,114.941437 C192.42755,114.760706 191.995368,114.330396 192.000091,114.132453 C191.993006,113.834105 192.401572,114.11811 192.517293,114.224253 Z" id="Path" fill="#000000" opacity="0.1"></path>
            <path d="M192,94.6400931 C192.36744,94.9571111 192.771721,95.2280414 193.203977,95.4469416 C194.336852,96.024626 195.590599,96.327791 196.730585,96.879217 C197.29275,97.1668965 197.838691,97.4856666 198.365908,97.8340673 C199.496413,98.5502051 200.624549,99.2663428 201.752684,99.9944162 C202.024344,100.152248 202.275174,100.343932 202.499244,100.564939 C202.90689,101.00417 202.90452,101.758502 203.276615,102.235927 C203.692191,102.71306 204.288948,102.990606 204.919048,102.999807 C205.54305,103.005129 206.163136,102.900093 206.751083,102.689481 C207.107768,102.583146 207.457614,102.454794 207.798637,102.305154 C208.155282,102.153658 208.492646,101.959717 208.803531,101.727469 C209.431157,101.283039 209.857501,100.605417 209.988547,99.8440272 C210.029382,99.3230264 209.960739,98.7992064 209.787095,98.3067182 C209.693071,97.98602 209.572569,97.6738086 209.42685,97.3733521 C209.343372,97.20284 209.246691,97.0392139 209.137706,96.8839913 C208.360335,95.7739778 206.990456,95.2511973 205.665608,94.9910006 C204.966448,94.8549344 204.255439,94.771385 203.553909,94.6520287 C203.217387,94.7279862 202.876093,94.7806263 202.532425,94.809579 C201.45643,94.885967 200.399396,94.5947377 199.351841,94.3058955 L198.218966,93.9907949 C197.652528,93.8332446 197.368124,93.1433652 196.796946,93.0216218 C196.540104,92.9826556 196.278089,92.9964598 196.026685,93.062203 C194.862999,93.2842056 193.687463,93.5730479 192.661239,94.1698293 C192.428695,94.3085209 192.207572,94.46578 192,94.6400931 Z" id="Path" fill="#000000" opacity="0.1"></path>
            <path d="M189.09393,79 C189.239545,80.3759807 190.414013,81.3861346 191.130153,82.5733015 C191.478674,83.1515438 191.722161,83.7840701 192.034875,84.3811938 C192.392261,85.0347139 192.790904,85.6653405 193.228441,86.269332 L194.505556,88.1031862 C195.257502,89.1817851 196.01661,90.2698247 196.976237,91.1714107 C198.647229,91.4522712 200.055636,92.6819212 201.643078,93.2790449 C202.915419,93.7510795 204.299955,93.8218847 205.634361,94.0791435 C206.968768,94.3364023 208.348529,94.85092 209.131508,95.9507604 C209.42422,96.3854524 209.645012,96.8634789 209.785582,97.3668641 C209.960425,97.8529865 210.029566,98.3701118 209.988488,98.8844551 C209.857089,99.6381084 209.427608,100.309025 208.794923,100.748992 C208.166942,101.17922 207.468322,101.498633 206.730054,101.693061 C206.13757,101.900167 205.513212,102.003984 204.884802,101.999883 C204.249591,101.99027 203.647993,101.716009 203.228133,101.244628 C202.855741,100.772593 202.858128,100.019698 202.447541,99.5925069 C202.221854,99.3739953 201.969215,99.1844751 201.695595,99.0284257 L198.284385,96.9042702 C197.753365,96.5598032 197.203485,96.2446324 196.637264,95.9602011 C195.489054,95.4055605 194.226262,95.1058186 193.085213,94.5440975 C191.944164,93.9823764 190.881891,93.0312268 190.657501,91.7874158 C189.962846,87.9662961 187.286872,84.7446604 185,81.5891095 C185.074001,81.5749484 185.052517,81.405016 185.078775,81.3342108 C185.409869,80.593591 186.004498,79.9989583 186.749767,79.6632085 C187.485003,79.2690597 188.301402,79.1675723 189.09393,79 Z" id="Path" fill="#F86D70"></path>
            <path d="M201.010932,78.6972904 C200.968255,78.2740149 201.051132,77.8474606 201.248967,77.4721534 C201.627443,76.835468 202.417719,76.6111811 203.136585,76.4616565 C203.855451,76.3121319 204.517189,76.1963709 205.212251,76.0950801 C205.777786,75.9798931 206.359219,75.9692716 206.928484,76.0637281 C207.704478,76.2373696 208.356694,76.7655291 209.070799,77.0911068 C209.927726,77.4793884 210.879866,77.5734442 211.79392,77.7953195 C212.707975,78.0171947 213.648214,78.3717127 214.221878,79.1265707 C214.657482,79.6981406 214.831248,80.4288818 214.962167,81.1403294 C216.049987,87.0803148 214.878855,93.1722364 214.657482,99.2086891 C214.569409,101.557672 214.674145,104.068239 216,106 L212.141452,105.896297 C211.153606,105.869769 210.09197,105.816712 209.315976,105.19932 C208.630435,104.65669 208.306707,103.781248 208.016304,102.954039 C207.753341,102.311468 207.586467,101.632744 207.521191,100.94028 C207.461682,99.5222085 208.25672,98.130665 207.997261,96.7342982 C207.804453,95.6924494 207.045121,94.8483589 206.254845,94.1658514 C205.464568,93.483344 204.564796,92.8876573 203.91496,92.0556252 C202.76049,90.5724377 202.539117,88.5490322 202.681938,86.6655046 C202.767631,85.5464818 202.96758,84.4250473 202.869986,83.3060245 C202.821179,82.4498089 202.516501,81.6288814 201.996397,80.9522179 C201.389408,80.2094182 201.068061,79.7463743 201.010932,78.6972904 Z" id="Path" fill="#434175"></path>
            <path d="M201.250503,78.0169907 C201.621739,77.3798399 202.392768,77.1494854 203.099545,77 C202.724558,77.1357873 202.402866,77.3939204 202.183353,77.735174 C201.98687,78.1178941 201.904108,78.5516976 201.945381,78.9825192 C201.997735,80.0485215 202.318997,80.5190328 202.932964,81.2738115 C203.454984,81.9603984 203.760568,82.7949915 203.808701,83.6655775 C203.90389,84.8026466 203.706373,85.9397157 203.620703,87.0792354 C203.47554,88.9906878 203.696854,91.049175 204.853397,92.5562817 C205.500681,93.4017317 206.393076,94.0045744 207.192661,94.7005391 C207.992246,95.3965038 208.741858,96.2517562 208.934615,97.3104068 C209.191625,98.726842 208.396799,100.143277 208.458671,101.584218 C208.521657,102.287195 208.687744,102.976282 208.951273,103.628002 C209.243979,104.471001 209.56762,105.360562 210.2506,105.911942 C211.026388,106.539291 212.090122,106.593204 213.077705,106.62016 L215.809623,106.693678 C215.869115,106.796602 215.933368,106.899526 216,107 L212.142476,106.894625 C211.154893,106.867669 210.093538,106.813756 209.31775,106.186407 C208.632391,105.635027 208.308749,104.745466 208.018423,103.904917 C207.755531,103.251983 207.588701,102.562314 207.523442,101.858683 C207.463949,100.417742 208.258775,99.0037576 207.999386,97.5848718 C207.806628,96.5262212 207.047498,95.6685182 206.257432,94.9750041 C205.467365,94.28149 204.567831,93.6761967 203.918168,92.8307466 C202.764004,91.3236399 202.542691,89.2676033 202.685474,87.3537004 C202.771144,86.2166313 202.97104,85.0771116 202.873472,83.9400425 C202.824677,83.0700188 202.52008,82.2358524 202.000115,81.5482764 C201.386147,80.7934978 201.064885,80.3229864 201.010152,79.2569842 C200.969175,78.8282585 201.052833,78.3966627 201.250503,78.0169907 Z" id="Path" fill="#000000" opacity="0.1"></path>
            <path d="M172,138.577426 L179.023585,156 C179.422472,155.709579 179.755452,155.335319 180,154.902534 C179.436321,152.741222 178.858491,150.524677 177.709906,148.605913 C177.334906,147.981534 176.90566,147.405184 176.53066,146.778403 C175.415094,144.989318 175.183962,142.734349 173.908019,141.060533 C173.65796,140.71493 173.65796,140.243831 173.908019,139.898228 C174.054245,139.70371 174.290094,139.518798 174.245283,139.27625 C174.212264,139.100944 174.033019,138.942448 174.101415,138.779149 C174.134434,138.699901 174.214623,138.656674 174.275943,138.599039 C174.492925,138.397317 174.464623,138.049106 174.485849,137.751325 C174.533019,136.992464 174.978774,136.327261 175.410377,135.707685 C175.498071,135.561788 175.613545,135.435229 175.75,135.335459 C175.865566,135.263415 176.002358,135.229795 176.117925,135.157751 C176.523585,134.900795 176.495283,134.295628 176.691038,133.846555 C176.945755,133.255797 177.587264,132.955614 178.009434,132.477724 C178.544811,131.867754 178.679245,131.02004 179.245283,130.486916 L179.294811,130.36204 L178.764151,127 L172,138.577426 Z" id="Path" fill="#000000" opacity="0.1"></path>
            <ellipse id="Oval" fill="#6C63FF" cx="235" cy="157.5" rx="8" ry="1.5"></ellipse>
            <circle id="Oval" fill="#3F3D56" cx="235" cy="157" r="1"></circle>
            <circle id="Oval" fill="#3F3D56" cx="235" cy="156" r="1"></circle>
            <circle id="Oval" fill="#3F3D56" cx="235" cy="154" r="1"></circle>
            <circle id="Oval" fill="#3F3D56" cx="235" cy="153" r="1"></circle>
            <circle id="Oval" fill="#3F3D56" cx="235" cy="151" r="1"></circle>
            <circle id="Oval" fill="#3F3D56" cx="235" cy="149" r="1"></circle>
            <circle id="Oval" fill="#3F3D56" cx="235" cy="148" r="1"></circle>
            <path d="M230.961506,137.247139 C230.833329,137.084733 230.716723,136.913623 230.61254,136.735059 L233.076664,136.33153 L230.410757,136.352768 C229.894959,135.234481 229.864059,133.954639 230.325296,132.813042 L233.902786,134.65606 L230.603044,132.246686 C231.442032,130.791828 233.029676,129.926238 234.71479,130.004946 C236.399904,130.083654 237.898905,131.093414 238.596965,132.620064 C239.295024,134.146715 239.074668,135.933339 238.026277,137.247139 C238.227058,137.498764 238.399039,137.771825 238.539042,138.061276 L235.339005,139.713148 L238.752695,138.575716 C238.909288,139.037268 238.989462,139.521031 238.990086,140.008125 C238.991333,141.010901 238.651696,141.984678 238.026277,142.771471 C239.47509,144.602851 239.264696,147.233569 237.54299,148.814387 C235.821283,150.395204 233.166499,150.395204 231.444793,148.814387 C229.723086,147.233569 229.512693,144.602851 230.961506,142.771471 C229.679639,141.150469 229.679639,138.868141 230.961506,137.247139 Z" id="Path" fill="#6C63FF"></path>
            <path d="M238.999997,141.065166 C239.001245,142.062217 238.661233,143.030435 238.035125,143.812737 C239.485535,145.633662 239.274909,148.249362 237.551305,149.821155 C235.827701,151.392948 233.16999,151.392948 231.446385,149.821155 C229.722781,148.249362 229.512155,145.633662 230.962566,143.812737 C230.358926,143.057213 238.999997,140.567741 238.999997,141.065166 Z" id="Path" fill="#000000" opacity="0.1"></path>
            <ellipse id="Oval" fill="#6C63FF" cx="250.5" cy="140" rx="5.5" ry="1"></ellipse>
            <circle id="Oval" fill="#3F3D56" cx="251" cy="140" r="1"></circle>
            <circle id="Oval" fill="#3F3D56" cx="251" cy="139" r="1"></circle>
            <circle id="Oval" fill="#3F3D56" cx="251" cy="138" r="1"></circle>
            <circle id="Oval" fill="#3F3D56" cx="251" cy="137" r="1"></circle>
            <circle id="Oval" fill="#3F3D56" cx="251" cy="136" r="1"></circle>
            <circle id="Oval" fill="#3F3D56" cx="251" cy="135" r="1"></circle>
            <circle id="Oval" fill="#3F3D56" cx="251" cy="134" r="1"></circle>
            <path d="M248.646035,127.711352 C248.55865,127.606867 248.480094,127.49573 248.41113,127.379019 L250.055468,127.117249 L248.281932,127.130907 C248.100439,126.751451 248.006641,126.338169 248.007093,125.919939 C248.006828,125.547954 248.080191,125.179371 248.223206,124.834165 L250.605146,126.031475 L248.408781,124.467687 C248.964263,123.519041 250.022429,122.953015 251.146842,123.003065 C252.271255,123.053115 253.271413,123.710761 253.734804,124.70476 C254.198196,125.698759 254.046311,126.860702 253.341794,127.711352 C253.474837,127.874839 253.589052,128.05192 253.682407,128.239443 L251.554164,129.31156 L253.82335,128.571777 C254.149857,129.502604 253.968681,130.53028 253.341794,131.303284 C254.309734,132.491528 254.171607,134.201322 253.024642,135.229138 C251.877677,136.256954 250.107803,136.256954 248.960838,135.229138 C247.813873,134.201322 247.675747,132.491528 248.643686,131.303284 C247.788737,130.25268 247.788737,128.771061 248.643686,127.720457 L248.646035,127.711352 Z" id="Path" fill="#6C63FF"></path>
            <path d="M253.995245,129.045855 C253.99571,129.742209 253.770119,130.41849 253.354752,130.965938 C254.32504,132.239529 254.186578,134.07213 253.036831,135.17377 C251.887084,136.27541 250.112916,136.27541 248.963169,135.17377 C247.813422,134.07213 247.67496,132.239529 248.645248,130.965938 C248.24023,130.436512 253.995245,128.69697 253.995245,129.045855 Z" id="Path" fill="#000000" opacity="0.1"></path>
        </g>
    </g>
</svg>