<?xml version="1.0" standalone="no"?>
<!DOCTYPE svg PUBLIC "-//W3C//DTD SVG 1.1//EN" "http://www.w3.org/Graphics/SVG/1.1/DTD/svg11.dtd" >
<!--
2013-9-30: Created.
-->
<svg>
<metadata>
Created by iconfont
</metadata>
<defs>

<font id="iconfont" horiz-adv-x="1024" >
  <font-face
    font-family="iconfont"
    font-weight="500"
    font-stretch="normal"
    units-per-em="1024"
    ascent="896"
    descent="-128"
  />
    <missing-glyph />
    
    <glyph glyph-name="biao" unicode="&#59093;" d="M88 768h96c12.8 0 24-11.2 24-24v-96c0-12.8-11.2-24-24-24h-96c-12.8 0-24 11.2-24 24v96C64 756.8 75.2 768 88 768z m256 0h592c12.8 0 24-11.2 24-24v-96c0-12.8-11.2-24-24-24h-592c-12.8 0-24 11.2-24 24v96c0 12.8 11.2 24 24 24z m-256-312h96c12.8 0 24-11.2 24-24v-96c0-12.8-11.2-24-24-24h-96c-12.8 0-24 11.2-24 24v96c0 12.8 11.2 24 24 24z m256 0h592c12.8 0 24-11.2 24-24v-96c0-12.8-11.2-24-24-24h-592c-12.8 0-24 11.2-24 24v96c0 12.8 11.2 24 24 24zM88 144h96c12.8 0 24-11.2 24-24v-96c0-12.8-11.2-24-24-24h-96c-12.8 0-24 11.2-24 24v96c0 12.8 11.2 24 24 24z m256 0h592c12.8 0 24-11.2 24-24v-96c0-12.8-11.2-24-24-24h-592c-12.8 0-24 11.2-24 24v96c0 12.8 11.2 24 24 24z"  horiz-adv-x="1024" />

    
    <glyph glyph-name="daochu" unicode="&#59094;" d="M128 140.8L430.4 432c19.2 17.6 48 17.6 67.2 0l60.8-60.8c19.2-19.2 49.6-19.2 67.2 0l8 8c19.2 19.2 49.6 19.2 67.2 0l3.2-3.2 192-230.4V704H128v-563.2zM112 768h800c27.2 0 48-20.8 48-48v-672c0-27.2-20.8-48-48-48H112c-27.2 0-48 20.8-48 48V720c0 27.2 20.8 48 48 48z m656-256c-35.2 0-64 28.8-64 64s28.8 64 64 64 64-28.8 64-64-28.8-64-64-64z"  horiz-adv-x="1024" />

    
    <glyph glyph-name="shangchuanshuju" unicode="&#59095;" d="M112 768h259.2c28.8 0 54.4-12.8 73.6-33.6l52.8-62.4c9.6-11.2 22.4-17.6 36.8-17.6H912c27.2 0 48-20.8 48-48v-560c0-27.2-20.8-48-48-48H112c-27.2 0-48 20.8-48 48V720c0 27.2 20.8 48 48 48z m312-456V160c0-22.4 17.6-40 40-40h96c22.4 0 40 17.6 40 40v152h96c12.8 0 24 11.2 24 24 0 6.4-3.2 12.8-8 17.6L528 523.2c-9.6 8-24 8-32 0L312 353.6c-9.6-9.6-9.6-24-1.6-33.6 4.8-4.8 11.2-8 17.6-8h96z"  horiz-adv-x="1024" />

    
    <glyph glyph-name="shezhi" unicode="&#59096;" d="M198.4 609.6L160 542.4l92.8-67.2-8-40c-3.2-16-4.8-33.6-4.8-51.2s1.6-33.6 4.8-51.2l8-40-92.8-67.2 38.4-67.2 105.6 46.4 30.4-25.6c25.6-22.4 56-40 88-51.2l38.4-12.8 12.8-113.6h76.8l12.8 113.6 38.4 12.8c32 11.2 62.4 28.8 88 51.2l30.4 25.6 105.6-46.4 38.4 67.2-92.8 67.2 8 40c3.2 16 4.8 33.6 4.8 51.2s-1.6 33.6-4.8 51.2l-8 40 92.8 67.2-38.4 67.2-105.6-46.4-30.4 25.6c-25.6 22.4-56 40-88 51.2l-38.4 12.8-12.8 115.2h-76.8l-12.8-113.6-38.4-12.8c-32-11.2-62.4-28.8-88-51.2L304 563.2l-105.6 46.4z m94.4 28.8c32 27.2 68.8 49.6 108.8 62.4l11.2 102.4c1.6 16 16 28.8 32 28.8h134.4c16 0 30.4-12.8 32-28.8l11.2-102.4c40-14.4 76.8-35.2 108.8-62.4l94.4 41.6c14.4 6.4 32 1.6 40-12.8l67.2-116.8c8-14.4 4.8-32-8-41.6L841.6 448c3.2-20.8 6.4-41.6 6.4-62.4 0-20.8-1.6-43.2-6.4-62.4l83.2-60.8c12.8-9.6 17.6-27.2 8-41.6l-67.2-116.8c-8-14.4-25.6-19.2-40-12.8l-94.4 41.6c-32-27.2-68.8-49.6-108.8-62.4l-11.2-102.4c-1.6-16-16-28.8-32-28.8h-134.4c-16 0-30.4 12.8-32 28.8l-11.2 102.4c-40 14.4-76.8 35.2-108.8 62.4l-94.4-41.6c-14.4-6.4-32-1.6-40 12.8l-67.2 116.8c-8 14.4-4.8 32 8 41.6l83.2 60.8c-4.8 17.6-6.4 40-6.4 60.8 0 20.8 1.6 43.2 6.4 62.4l-83.2 60.8c-12.8 9.6-17.6 27.2-8 41.6l67.2 116.8c8 14.4 25.6 19.2 40 12.8l94.4-40zM512 240c-80 0-144 64-144 144s64 144 144 144 144-64 144-144-64-144-144-144z m0 64c44.8 0 80 35.2 80 80s-35.2 80-80 80-80-35.2-80-80 35.2-80 80-80z"  horiz-adv-x="1024" />

    
    <glyph glyph-name="shuaxin" unicode="&#59097;" d="M756.8 636.8c-65.6 64-152 99.2-244.8 99.2-195.2 0-352-156.8-352-352s156.8-352 352-352c100.8 0 195.2 43.2 262.4 116.8 11.2 12.8 32 14.4 44.8 3.2 12.8-11.2 14.4-32 3.2-44.8C744 19.2 632-32 512-32 281.6-32 96 153.6 96 384S281.6 800 512 800c110.4 0 214.4-43.2 291.2-118.4l67.2 67.2c3.2 3.2 8 6.4 12.8 6.4 12.8 3.2 25.6-6.4 28.8-19.2l46.4-230.4v-9.6c-3.2-12.8-16-20.8-28.8-19.2l-230.4 46.4c-4.8 1.6-9.6 3.2-12.8 6.4-9.6 9.6-9.6 24 0 33.6l70.4 73.6z"  horiz-adv-x="1024" />

    
    <glyph glyph-name="wode" unicode="&#59098;" d="M195.2 67.2C113.6 148.8 64 260.8 64 384 64 632 264 832 512 832s448-200 448-448c0-123.2-49.6-235.2-131.2-316.8C816 156.8 752 232 662.4 272c-38.4-40-91.2-64-150.4-64s-112 24-150.4 64C272 232 208 156.8 195.2 67.2zM512 288c97.6 0 176 78.4 176 176s-78.4 176-176 176-176-78.4-176-176 78.4-176 176-176z"  horiz-adv-x="1024" />

    
    <glyph glyph-name="xiazai" unicode="&#59099;" d="M432 832h160c17.6 0 32-14.4 32-32v-416h198.4c9.6 0 16-6.4 16-16 0-4.8-1.6-9.6-4.8-11.2L523.2 73.6c-6.4-4.8-16-4.8-20.8 0L190.4 356.8c-6.4 6.4-6.4 16-1.6 22.4 3.2 3.2 8 4.8 11.2 4.8H400V800c0 17.6 14.4 32 32 32zM160 0h704c17.6 0 32-14.4 32-32s-14.4-32-32-32H160c-17.6 0-32 14.4-32 32s14.4 32 32 32z"  horiz-adv-x="1024" />

    
    <glyph glyph-name="wode-copy" unicode="&#59100;" d="M195.2 67.20000000000005C113.6 148.79999999999995 64 260.79999999999995 64 384 64 632 264 832 512 832s448-200 448-448c0-123.2-49.6-235.2-131.2-316.8C816 156.79999999999995 752 232 662.4 272c-38.4-40-91.2-64-150.4-64s-112 24-150.4 64C272 232 208 156.79999999999995 195.2 67.20000000000005zM512 288c97.6 0 176 78.4 176 176s-78.4 176-176 176-176-78.4-176-176 78.4-176 176-176z"  horiz-adv-x="1024" />

    
    <glyph glyph-name="shangchuanshuju-copy" unicode="&#59101;" d="M112 768h259.2c28.8 0 54.4-12.8 73.6-33.6l52.8-62.4c9.6-11.2 22.4-17.6 36.8-17.6H912c27.2 0 48-20.8 48-48v-560c0-27.2-20.8-48-48-48H112c-27.2 0-48 20.8-48 48V720c0 27.2 20.8 48 48 48z m312-456V160c0-22.4 17.6-40 40-40h96c22.4 0 40 17.6 40 40v152h96c12.8 0 24 11.2 24 24 0 6.4-3.2 12.8-8 17.6L528 523.2c-9.6 8-24 8-32 0L312 353.6c-9.6-9.6-9.6-24-1.6-33.6 4.8-4.8 11.2-8 17.6-8h96z"  horiz-adv-x="1024" />

    
    <glyph glyph-name="daochu-copy" unicode="&#59102;" d="M128 140.79999999999995L430.4 432c19.2 17.6 48 17.6 67.2 0l60.8-60.8c19.2-19.2 49.6-19.2 67.2 0l8 8c19.2 19.2 49.6 19.2 67.2 0l3.2-3.2 192-230.4V704H128v-563.2zM112 768h800c27.2 0 48-20.8 48-48v-672c0-27.2-20.8-48-48-48H112c-27.2 0-48 20.8-48 48V720c0 27.2 20.8 48 48 48z m656-256c-35.2 0-64 28.8-64 64s28.8 64 64 64 64-28.8 64-64-28.8-64-64-64z"  horiz-adv-x="1024" />

    
    <glyph glyph-name="qiehuan" unicode="&#59103;" d="M846.4 544L676.8 713.6c-12.8 12.8-12.8 32 0 44.8 12.8 12.8 32 12.8 44.8 0l224-224c20.8-20.8 6.4-54.4-22.4-54.4H96c-17.6 0-32 14.4-32 32s14.4 32 32 32h750.4zM342.4 38.4c12.8-12.8 12.8-32 0-44.8-12.8-12.8-32-12.8-44.8 0l-224 224C52.8 236.8 67.2 272 96 272h827.2c17.6 0 32-14.4 32-32s-14.4-32-32-32H172.8l169.6-169.6z"  horiz-adv-x="1024" />

    
    <glyph glyph-name="yingwen" unicode="&#59104;" d="M832 256v-112c0-27.2-20.8-48-48-48H544l-72-83.2c-11.2-12.8-32-14.4-44.8-3.2-1.6 1.6-3.2 1.6-3.2 3.2L352 96H112c-27.2 0-48 20.8-48 48V560c0 27.2 20.8 48 48 48h80v112c0 27.2 20.8 48 48 48h672c27.2 0 48-20.8 48-48v-416c0-27.2-20.8-48-48-48h-80z m0 64h64V704H256v-96h528c27.2 0 48-20.8 48-48v-240z m-443.2-91.2V272h-137.6v59.2h126.4v46.4h-126.4v52.8h134.4v46.4h-192v-248h195.2z m289.6 0V475.2h-52.8v-137.6c0-16 0-28.8 1.6-36.8v-1.6c-1.6 4.8-4.8 11.2-9.6 19.2-1.6 1.6-3.2 4.8-3.2 6.4l-94.4 152h-60.8v-248H512v136c0 17.6 0 30.4-1.6 41.6l12.8-22.4 97.6-155.2h57.6z"  horiz-adv-x="1024" />

    
    <glyph glyph-name="zhongwen" unicode="&#59105;" d="M832 256v-112c0-27.2-20.8-48-48-48H544l-72-83.2c-11.2-12.8-32-14.4-44.8-3.2-1.6 1.6-3.2 1.6-3.2 3.2L352 96H112c-27.2 0-48 20.8-48 48V560c0 27.2 20.8 48 48 48h80v112c0 27.2 20.8 48 48 48h672c27.2 0 48-20.8 48-48v-416c0-27.2-20.8-48-48-48h-80z m0 64h64V704H256v-96h528c27.2 0 48-20.8 48-48v-240zM417.6 518.4v-56h-121.6V272h59.2v19.2h64v-102.4h59.2v102.4h64V272h57.6V460.8h-121.6v56h-60.8z m124.8-110.4v-64h-64v64h64z m-187.2 0h64v-64h-64v64z"  horiz-adv-x="1024" />

    
    <glyph glyph-name="pdf" unicode="&#59106;" d="M176 832h528v-192h192v-656c0-27.2-20.8-48-48-48H176c-27.2 0-48 20.8-48 48V784c0 27.2 20.8 48 48 48z m547.2-531.2c-3.2-1.6-11.2-3.2-16-3.2-16 0-36.8 8-65.6 19.2 9.6 1.6 19.2 1.6 30.4 1.6 16 0 22.4 0 38.4-3.2 14.4-4.8 14.4-12.8 12.8-14.4z m-288-1.6c6.4 11.2 12.8 22.4 19.2 35.2 12.8 24 24 48 33.6 73.6 14.4-27.2 33.6-51.2 57.6-68.8 3.2-3.2 4.8-4.8 8-6.4-43.2-9.6-83.2-20.8-118.4-33.6z m52.8 288c9.6 0 14.4-22.4 14.4-43.2 0-20.8-4.8-35.2-11.2-46.4-4.8 16-8 41.6-8 57.6 1.6 0 1.6 32 4.8 32zM310.4 182.4c4.8 14.4 25.6 41.6 56 65.6 1.6 1.6 6.4 6.4 11.2 9.6-32-49.6-52.8-68.8-67.2-75.2z m420.8 147.2c-9.6 8-28.8 12.8-60.8 14.4-20.8 0-46.4-1.6-72-4.8-11.2 6.4-24 14.4-33.6 22.4-25.6 24-46.4 56-60.8 92.8 0 3.2 1.6 6.4 1.6 9.6 0 0 14.4 81.6 11.2 108.8 0 3.2-1.6 4.8-1.6 8l-1.6 3.2c-3.2 8-11.2 17.6-24 17.6h-8c-14.4 0-24-6.4-27.2-16-8-32 0-80 17.6-140.8l-4.8-9.6c-11.2-28.8-27.2-56-40-81.6l-1.6-3.2c-11.2-22.4-24-44.8-36.8-67.2l-11.2-6.4c-1.6 0-20.8-11.2-25.6-14.4-40-24-65.6-49.6-70.4-70.4-1.6-6.4 0-16 6.4-19.2l11.2-4.8c4.8-3.2 9.6-3.2 16-3.2 28.8 0 60.8 35.2 105.6 112 51.2 17.6 110.4 30.4 163.2 38.4 40-22.4 88-36.8 118.4-36.8 4.8 0 9.6 0 14.4 1.6 6.4 1.6 11.2 4.8 14.4 9.6 6.4 8 8 20.8 6.4 33.6l-6.4 6.4zM704 832v-192h192z"  horiz-adv-x="1024" />

    
    <glyph glyph-name="fenxi" unicode="&#59107;" d="M339.2 404.8c8 12.8 12.8 27.2 12.8 43.2 0 44.8-35.2 80-80 80s-80-35.2-80-80 35.2-80 80-80c4.8 0 9.6 0 14.4 1.6l78.4-118.4c-8-12.8-12.8-27.2-12.8-43.2 0-44.8 35.2-80 80-80s80 35.2 80 80c0 19.2-6.4 36.8-17.6 49.6L585.6 432h6.4c4.8 0 9.6 0 14.4 1.6l78.4-118.4c-8-12.8-12.8-27.2-12.8-43.2 0-44.8 35.2-80 80-80s80 35.2 80 80-35.2 80-80 80c-4.8 0-9.6 0-14.4-1.6l-78.4 118.4c8 12.8 12.8 27.2 12.8 43.2 0 44.8-35.2 80-80 80s-80-35.2-80-80c0-19.2 6.4-36.8 17.6-49.6L438.4 288H432c-4.8 0-9.6 0-14.4-1.6l-78.4 118.4zM512-64C264-64 64 136 64 384S264 832 512 832s448-200 448-448-200-448-448-448z"  horiz-adv-x="1024" />

    
    <glyph glyph-name="xiugai" unicode="&#59108;" d="M512-64C264-64 64 136 64 384S264 832 512 832s448-200 448-448-200-448-448-448z m-155.2 384l254.4 254.4c22.4 22.4 57.6 22.4 78.4 0l11.2-11.2c22.4-22.4 22.4-57.6 0-78.4L432 212.8l16 16-91.2 91.2z m-27.2-62.4l56-56-75.2-19.2 19.2 75.2zM736 619.2c-46.4 46.4-123.2 46.4-169.6 0L296 348.8c-8-8-14.4-19.2-17.6-30.4l-36.8-147.2c-1.6-8-1.6-16 0-24 6.4-25.6 32-41.6 57.6-35.2l147.2 36.8c11.2 3.2 20.8 8 30.4 17.6l270.4 270.4c46.4 46.4 46.4 123.2 0 169.6l-11.2 12.8z"  horiz-adv-x="1024" />

    
    <glyph glyph-name="tianjia1" unicode="&#59110;" d="M512-64C264-64 64 136 64 384S264 832 512 832s448-200 448-448-200-448-448-448z m-48 496H304c-27.2 0-48-20.8-48-48s20.8-48 48-48h160v-160c0-27.2 20.8-48 48-48s48 20.8 48 48V336h160c27.2 0 48 20.8 48 48s-20.8 48-48 48H560V592c0 27.2-20.8 48-48 48s-48-20.8-48-48v-160z"  horiz-adv-x="1024" />

    
    <glyph glyph-name="zengjia" unicode="&#59109;" d="M464 432V784c0 27.2 20.8 48 48 48s48-20.8 48-48v-352h352c27.2 0 48-20.8 48-48s-20.8-48-48-48H560v-352c0-27.2-20.8-48-48-48s-48 20.8-48 48V336H112c-27.2 0-48 20.8-48 48s20.8 48 48 48h352z"  horiz-adv-x="1024" />

    
    <glyph glyph-name="shouqi" unicode="&#59111;" d="M96 608c-35.2 0-64 28.8-64 64s28.8 64 64 64h832c35.2 0 64-28.8 64-64s-28.8-64-64-64H96zM171.2 49.6c-25.6-24-67.2-22.4-91.2 3.2-24 25.6-22.4 67.2 3.2 91.2l384 352c24 22.4 62.4 22.4 86.4 0l384-352c25.6-24 27.2-64 3.2-91.2-24-25.6-64-27.2-91.2-3.2L512 361.6 171.2 49.6z"  horiz-adv-x="1024" />

    
    <glyph glyph-name="zhankai" unicode="&#59112;" d="M96 160c-35.2 0-64-28.8-64-64s28.8-64 64-64h832c35.2 0 64 28.8 64 64s-28.8 64-64 64H96zM171.2 718.4c-25.6 24-67.2 22.4-91.2-3.2-24-25.6-22.4-67.2 3.2-91.2l384-352c24-22.4 62.4-22.4 86.4 0l384 352c25.6 24 27.2 64 3.2 91.2-24 25.6-64 27.2-91.2 3.2L512 406.4 171.2 718.4z"  horiz-adv-x="1024" />

    
    <glyph glyph-name="baocunjiyin" unicode="&#59113;" d="M512-64C264-64 64 136 64 384S264 832 512 832s448-200 448-448-200-448-448-448z m120 539.2v33.6 28.8c1.6 25.6 6.4 41.6 14.4 49.6 12.8 12.8 12.8 32 0 44.8-12.8 12.8-32 12.8-44.8 0-22.4-22.4-30.4-51.2-33.6-91.2 0-9.6-1.6-20.8-1.6-33.6V470.4c-8 0-14.4 1.6-24 1.6-1.6 0-19.2 1.6-25.6 3.2-20.8 1.6-35.2 1.6-48 0-17.6-1.6-32-8-44.8-20.8-16-16-20.8-36.8-19.2-64 1.6-14.4 9.6-67.2 11.2-75.2h-6.4c-3.2 0-38.4 1.6-48 1.6-19.2 0-33.6 0-46.4-1.6-22.4-3.2-40-11.2-54.4-24-12.8-12.8-12.8-32 0-44.8 12.8-12.8 32-12.8 44.8 0 3.2 3.2 8 4.8 17.6 6.4 12.8 3.2 24 3.2 38.4 3.2 9.6 0 43.2-1.6 46.4-1.6h8c-4.8-27.2-17.6-49.6-41.6-73.6-12.8-12.8-12.8-32 0-44.8 12.8-12.8 32-12.8 44.8 0 36.8 36.8 56 76.8 60.8 120 41.6 4.8 72 19.2 99.2 46.4 28.8 28.8 43.2 60.8 48 107.2 49.6 6.4 92.8 25.6 131.2 65.6 12.8 12.8 12.8 32 0 44.8-12.8 12.8-32 12.8-44.8 0-22.4-25.6-49.6-38.4-81.6-44.8zM481.6 320v4.8c-1.6 11.2-9.6 60.8-11.2 72 0 9.6 0 14.4 1.6 14.4 0 0 1.6 1.6 6.4 1.6 11.2 1.6 75.2-4.8 86.4-4.8-4.8-27.2-12.8-46.4-28.8-60.8-12.8-14.4-30.4-22.4-54.4-27.2z"  horiz-adv-x="1024" />

    
    <glyph glyph-name="biaogeshouqi" unicode="&#59114;" d="M896 736H416c-17.6 0-32-14.4-32-32v-64c0-17.6 14.4-32 32-32h480c17.6 0 32 14.4 32 32v64c0 17.6-14.4 32-32 32z m0-288H528c-17.6 0-32-14.4-32-32v-64c0-17.6 14.4-32 32-32h368c17.6 0 32 14.4 32 32v64c0 17.6-14.4 32-32 32z m0-288H416c-17.6 0-32-14.4-32-32v-64c0-17.6 14.4-32 32-32h480c17.6 0 32 14.4 32 32v64c0 17.6-14.4 32-32 32zM121.6 587.2c-3.2 1.6-6.4 3.2-9.6 3.2-9.6 0-16-6.4-16-16V192c0-3.2 1.6-6.4 3.2-9.6 4.8-6.4 16-8 22.4-3.2L352 358.4l6.4 6.4c11.2 14.4 8 33.6-6.4 44.8L121.6 587.2z"  horiz-adv-x="1024" />

    
    <glyph glyph-name="biaogezhankai" unicode="&#59115;" d="M128 736h480c17.6 0 32-14.4 32-32v-64c0-17.6-14.4-32-32-32H128c-17.6 0-32 14.4-32 32v64c0 17.6 14.4 32 32 32z m0-288h368c17.6 0 32-14.4 32-32v-64c0-17.6-14.4-32-32-32H128c-17.6 0-32 14.4-32 32v64c0 17.6 14.4 32 32 32z m0-288h480c17.6 0 32-14.4 32-32v-64c0-17.6-14.4-32-32-32H128c-17.6 0-32 14.4-32 32v64c0 17.6 14.4 32 32 32z m774.4 427.2c3.2 1.6 6.4 3.2 9.6 3.2 9.6 0 16-6.4 16-16V192c0-3.2-1.6-6.4-3.2-9.6-4.8-6.4-16-8-22.4-3.2L672 358.4l-6.4 6.4c-11.2 14.4-8 33.6 6.4 44.8l230.4 177.6z"  horiz-adv-x="1024" />

    
    <glyph glyph-name="yonghu" unicode="&#59136;" d="M512-64C264-64 64 136 64 384S264 832 512 832s448-200 448-448-200-448-448-448z m0 488c65.6 0 120 54.4 120 120s-54.4 120-120 120-120-54.4-120-120 54.4-120 120-120z m0-320c132.8 0 240 57.6 240 129.6s-107.2 129.6-240 129.6-240-57.6-240-129.6 107.2-129.6 240-129.6z"  horiz-adv-x="1024" />

    
    <glyph glyph-name="yingwenqiehuan" unicode="&#59137;" d="M224 800h576c70.4 0 128-57.6 128-128v-576c0-70.4-57.6-128-128-128H224c-70.4 0-128 57.6-128 128V672c0 70.4 57.6 128 128 128z m241.6-464l46.4 121.6 46.4-121.6h-92.8z m-36.8-96h168l32-81.6c9.6-24 36.8-36.8 62.4-27.2s36.8 36.8 27.2 62.4l-160 416c-16 41.6-73.6 41.6-89.6 0l-160-416c-9.6-24 3.2-52.8 27.2-62.4s52.8 3.2 62.4 27.2l30.4 81.6z"  horiz-adv-x="1024" />

    
    <glyph glyph-name="pdfwenjian" unicode="&#59138;" d="M736 832l160-160v-672c0-35.2-28.8-64-64-64H192c-35.2 0-64 28.8-64 64V768c0 35.2 28.8 64 64 64h544z m-16-16v-112c0-27.2 20.8-48 48-48h112L720 816zM448 464h80c27.2 0 48-20.8 48-48s-20.8-48-48-48h-80v96z m0-192h80c80 0 144 64 144 144s-64 144-144 144h-128c-27.2 0-48-20.8-48-48v-352c0-27.2 20.8-48 48-48s48 20.8 48 48v112z"  horiz-adv-x="1024" />

    
    <glyph glyph-name="zhongwenqiehuan" unicode="&#59139;" d="M224 800h576c70.4 0 128-57.6 128-128v-576c0-70.4-57.6-128-128-128H224c-70.4 0-128 57.6-128 128V672c0 70.4 57.6 128 128 128z m240-432h-112v96h112v-96z m96 0v96h112v-96h-112z m-96 192h-128c-44.8 0-80-35.2-80-80v-128c0-44.8 35.2-80 80-80h128v-96c0-27.2 20.8-48 48-48s48 20.8 48 48v96h128c44.8 0 80 35.2 80 80v128c0 44.8-35.2 80-80 80h-128v32c0 27.2-20.8 48-48 48s-48-20.8-48-48v-32z"  horiz-adv-x="1024" />

    
    <glyph glyph-name="shangchuanwenjian" unicode="&#59140;" d="M512-64C264-64 64 136 64 384S264 832 512 832s448-200 448-448-200-448-448-448z m48 448h152c17.6 0 32 14.4 32 32 0 8-3.2 16-8 20.8l-200 224c-11.2 12.8-32 14.4-44.8 3.2-1.6 0-1.6-1.6-3.2-3.2L288 436.8c-11.2-12.8-11.2-33.6 3.2-44.8 6.4-4.8 12.8-8 20.8-8H464v-112c0-27.2 20.8-48 48-48s48 20.8 48 48v112z m-48-288c27.2 0 48 20.8 48 48s-20.8 48-48 48-48-20.8-48-48 20.8-48 48-48z"  horiz-adv-x="1024" />

    
    <glyph glyph-name="jiyinfenlei" unicode="&#59141;" d="M272 432c-105.6 0-192 86.4-192 192S166.4 816 272 816s192-86.4 192-192v-144c0-27.2-20.8-48-48-48h-144z m96 96v96c0 52.8-43.2 96-96 96s-96-43.2-96-96 43.2-96 96-96h96z m384-96h-144c-27.2 0-48 20.8-48 48v144c0 105.6 86.4 192 192 192s192-86.4 192-192-86.4-192-192-192z m0 96c52.8 0 96 43.2 96 96s-43.2 96-96 96-96-43.2-96-96v-96h96z m0-576c-105.6 0-192 86.4-192 192v144c0 27.2 20.8 48 48 48h144c105.6 0 192-86.4 192-192s-86.4-192-192-192z m-96 192c0-52.8 43.2-96 96-96s96 43.2 96 96-43.2 96-96 96h-96v-96zM272-48c-105.6 0-192 86.4-192 192s86.4 192 192 192h144c27.2 0 48-20.8 48-48v-144c0-105.6-86.4-192-192-192z m0 288c-52.8 0-96-43.2-96-96s43.2-96 96-96 96 43.2 96 96v96h-96z"  horiz-adv-x="1024" />

    
    <glyph glyph-name="jiyinfuji" unicode="&#59142;" d="M96 768c0 27.2 20.8 48 48 48s48-20.8 48-48v-752c0-27.2-20.8-48-48-48s-48 20.8-48 48V768z m192 0h128c27.2 0 48-20.8 48-48v-48c0-27.2-20.8-48-48-48h-128c-27.2 0-48 20.8-48 48v48c0 27.2 20.8 48 48 48z m0-208h592c27.2 0 48-20.8 48-48v-48c0-27.2-20.8-48-48-48H288c-27.2 0-48 20.8-48 48v48c0 27.2 20.8 48 48 48z m0-208h352c27.2 0 48-20.8 48-48v-48c0-27.2-20.8-48-48-48H288c-27.2 0-48 20.8-48 48v48c0 27.2 20.8 48 48 48z m0-208h416c27.2 0 48-20.8 48-48v-48c0-27.2-20.8-48-48-48H288c-27.2 0-48 20.8-48 48v48c0 27.2 20.8 48 48 48z"  horiz-adv-x="1024" />

    
    <glyph glyph-name="fanhui" unicode="&#59143;" d="M227.2 432H912c27.2 0 48-20.8 48-48s-20.8-48-48-48H227.2l270.4-270.4c19.2-19.2 19.2-49.6 0-67.2-19.2-19.2-49.6-19.2-67.2 0l-352 352c-19.2 19.2-19.2 49.6 0 67.2l352 352c19.2 19.2 49.6 19.2 67.2 0 19.2-19.2 19.2-49.6 0-67.2L227.2 432z"  horiz-adv-x="1024" />

    
    <glyph glyph-name="quanping" unicode="&#59149;" d="M224 163.2l190.4 190.4c19.2 19.2 49.6 19.2 67.2 0 19.2-19.2 19.2-49.6 0-67.2L291.2 96H480c27.2 0 48-20.8 48-48s-20.8-48-48-48H176c-27.2 0-48 20.8-48 48V352c0 27.2 20.8 48 48 48s48-20.8 48-48v-188.8zM732.8 672H544c-27.2 0-48 20.8-48 48s20.8 48 48 48h304c27.2 0 48-20.8 48-48v-304c0-27.2-20.8-48-48-48s-48 20.8-48 48V604.8L609.6 414.4c-19.2-19.2-49.6-19.2-67.2 0-19.2 19.2-19.2 49.6 0 67.2L732.8 672z"  horiz-adv-x="1024" />

    
    <glyph glyph-name="chuangkou" unicode="&#59150;" d="M814.4 753.6c19.2 19.2 49.6 19.2 67.2 0 19.2-19.2 19.2-49.6 0-67.2l-272-272c-19.2-19.2-49.6-19.2-67.2 0-19.2 19.2-19.2 49.6 0 67.2l272 272zM624 496h256c27.2 0 48-20.8 48-48s-20.8-48-48-48H576c-27.2 0-48 20.8-48 48V752c0 27.2 20.8 48 48 48s48-20.8 48-48v-256zM144 272c-27.2 0-48 20.8-48 48s20.8 48 48 48h304c27.2 0 48-20.8 48-48v-304c0-27.2-20.8-48-48-48s-48 20.8-48 48V272H144zM414.4 353.6c19.2 19.2 49.6 19.2 67.2 0 19.2-19.2 19.2-49.6 0-67.2l-272-272c-19.2-19.2-49.6-19.2-67.2 0-19.2 19.2-19.2 49.6 0 67.2l272 272z"  horiz-adv-x="1024" />

    
    <glyph glyph-name="En" unicode="&#59163;" d="M224 800h576c70.4 0 128-57.6 128-128v-576c0-70.4-57.6-128-128-128H224c-70.4 0-128 57.6-128 128V672c0 70.4 57.6 128 128 128z m374.4-329.6c-8 11.2-22.4 17.6-38.4 17.6-27.2 0-48-20.8-48-48v-256c0-27.2 20.8-48 48-48s48 20.8 48 48v144c0 35.2 28.8 64 64 64s64-28.8 64-64v-144c0-27.2 20.8-48 48-48s48 20.8 48 48v144c0 88-72 160-160 160-27.2 0-52.8-6.4-73.6-17.6zM288 432v104h128c27.2 0 48 20.8 48 48s-20.8 48-48 48H240c-27.2 0-48-20.8-48-48v-400c0-27.2 20.8-48 48-48h176c27.2 0 48 20.8 48 48s-20.8 48-48 48h-128V336h128c27.2 0 48 20.8 48 48s-20.8 48-48 48h-128z"  horiz-adv-x="1024" />

    
    <glyph glyph-name="Group" unicode="&#59164;" d="M441.6-128c0 64 83.2 121.6 185.6 121.6h38.4c211.2 0 390.4 172.8 390.4 390.4s-185.6 384-396.8 384H441.6V896h512c281.6 0 512-230.4 512-512s-230.4-512-512-512h-512zM441.6 83.20000000000005c0-115.2-147.2-211.2-326.4-211.2H0V716.8C0 819.2 64 896 147.2 896h294.4v-812.8zM550.4 768c-64 0-108.8-38.4-108.8-83.2V768h108.8zM2118.4 83.20000000000005c0-115.2-147.2-211.2-326.4-211.2h-108.8V435.2c0 96 64 179.2 147.2 179.2h294.4v-531.2zM2118.4 505.6c102.4 64 224 96 352 96 83.2 0 160-12.8 236.8-44.8v-211.2c-89.6 57.6-192 96-307.2 96-102.4 0-198.4-25.6-275.2-76.8V505.6zM3852.8 889.6c-83.2 0-147.2-64-147.2-140.8V889.6h147.2zM4096 83.20000000000005c0-115.2-147.2-211.2-326.4-211.2h-108.8V896H4096v-812.8zM3328 896h1094.4c102.4 0 185.6-51.2 185.6-121.6V768H3142.4v6.4C3142.4 844.8 3225.6 896 3328 896zM4204.8 768c-57.6 0-108.8-38.4-108.8-83.2V768h108.8zM5337.6-128C4934.4-128 4608 38.39999999999998 4608 243.20000000000005s326.4 371.2 729.6 371.2c403.2 0 729.6-166.4 729.6-371.2S5740.8-128 5337.6-128z m0 128c160 0 294.4 108.8 294.4 243.2s-128 243.2-294.4 243.2c-160 0-294.4-108.8-294.4-243.2s134.4-243.2 294.4-243.2zM2777.6-6.399999999999977a147.2 121.6 0 1 1 294.4 0 147.2 121.6 0 1 1-294.4 0ZM6438.4 614.4h294.4v-524.8c0-115.2-147.2-211.2-326.4-211.2h-108.8V435.2c-6.4 96 57.6 179.2 140.8 179.2zM7353.6-128h-217.6c-57.6 0-108.8 32-108.8 70.4V614.4l441.6-339.2v-326.4c-6.4-44.8-57.6-76.8-115.2-76.8zM7680 601.6c83.2 0 147.2-64 147.2-140.8V601.6H7680zM8083.2-128c-179.2 0-326.4 96-326.4 211.2V614.4l441.6-345.6V-128h-115.2zM6726.4 524.8c76.8 57.6 179.2 89.6 294.4 89.6 243.2 0 441.6-153.6 441.6-345.6s-198.4-294.4-441.6-294.4v172.8c0 147.2-96 268.8-217.6 268.8-25.6 0-51.2-6.4-70.4-12.8V524.8zM7321.6 204.79999999999995c-6.4 19.2-6.4 38.4-6.4 57.6 0 192 198.4 345.6 441.6 345.6 243.2 0 441.6-153.6 441.6-345.6s-198.4-121.6-441.6-121.6c0 147.2-96 268.8-217.6 268.8-108.8 0-192-83.2-217.6-204.8z"  horiz-adv-x="8198" />

    
    <glyph glyph-name="duozuxueguanlian" unicode="&#59165;" d="M0 896h1024v-1024H0zM512 384m-448 0a448 448 0 1 1 896 0 448 448 0 1 1-896 0ZM449.6 502.4v28.8c0 11.2 9.6 20.8 20.8 20.8s20.8-9.6 20.8-20.8v-28.8h28.8c11.2 0 20.8-9.6 20.8-20.8s-9.6-20.8-20.8-20.8h-28.8V432c0-11.2-9.6-20.8-20.8-20.8s-20.8 9.6-20.8 20.8v28.8h-28.8c-11.2 0-20.8 9.6-20.8 20.8s9.6 20.8 20.8 20.8h28.8z m163.2-236.8c-40 0-73.6 33.6-73.6 73.6s33.6 73.6 73.6 73.6 73.6-33.6 73.6-73.6-32-73.6-73.6-73.6z m-241.6-22.4H672c11.2 0 20.8-9.6 20.8-20.8s-9.6-20.8-20.8-20.8H350.4c-11.2 0-20.8 9.6-20.8 20.8V545.6c0 11.2 9.6 20.8 20.8 20.8s20.8-9.6 20.8-20.8v-302.4z"  horiz-adv-x="1024" />

    
    <glyph glyph-name="danbaiwangluohuzuo" unicode="&#59166;" d="M0 896h1024v-1024H0zM512 384m-448 0a448 448 0 1 1 896 0 448 448 0 1 1-896 0ZM475.2 294.4c9.6-35.2 24-57.6 36.8-57.6s27.2 22.4 36.8 57.6c-12.8-1.6-24-1.6-36.8-1.6s-25.6 0-36.8 1.6z m-46.4 6.4c-62.4 14.4-105.6 43.2-105.6 83.2s43.2 68.8 105.6 83.2c14.4 62.4 43.2 105.6 83.2 105.6s68.8-43.2 83.2-105.6c62.4-14.4 105.6-43.2 105.6-83.2s-43.2-68.8-105.6-83.2c-14.4-62.4-43.2-105.6-83.2-105.6s-68.8 43.2-83.2 105.6z m46.4 172.8c12.8 1.6 24 1.6 36.8 1.6s25.6 0 36.8-1.6c-9.6 35.2-24 57.6-36.8 57.6s-27.2-22.4-36.8-57.6z m-9.6-136c14.4-1.6 30.4-3.2 46.4-3.2s32 1.6 46.4 3.2c1.6 14.4 3.2 30.4 3.2 46.4s-1.6 32-3.2 46.4c-14.4 1.6-30.4 3.2-46.4 3.2s-32-1.6-46.4-3.2c-1.6-14.4-3.2-30.4-3.2-46.4s1.6-32 3.2-46.4z m-43.2 9.6c-1.6 12.8-1.6 24-1.6 36.8s0 25.6 1.6 36.8c-35.2-9.6-57.6-24-57.6-36.8s22.4-27.2 57.6-36.8z m179.2 73.6c1.6-12.8 1.6-24 1.6-36.8s0-25.6-1.6-36.8c35.2 9.6 57.6 24 57.6 36.8s-22.4 27.2-57.6 36.8z"  horiz-adv-x="1024" />

    
    <glyph glyph-name="guanlianjuleiretu" unicode="&#59167;" d="M0 896h1024v-1024H0zM512 384m-448 0a448 448 0 1 1 896 0 448 448 0 1 1-896 0ZM593.6 531.2h44.8c11.2 0 20.8-9.6 20.8-20.8v-44.8c20.8-6.4 35.2-24 35.2-46.4v-168c0-27.2-22.4-49.6-49.6-49.6H476.8c-22.4 0-41.6 14.4-46.4 35.2h-44.8c-11.2 0-20.8 9.6-20.8 20.8v44.8c-20.8 6.4-35.2 24-35.2 46.4V516.8c0 27.2 22.4 49.6 49.6 49.6h168c22.4 0 40-14.4 46.4-35.2z m1.6-41.6v-20.8h20.8v20.8h-20.8zM406.4 299.2v-20.8h20.8v20.8h-20.8z m188.8 126.4v-76.8c0-27.2-22.4-49.6-49.6-49.6h-76.8v-49.6c0-3.2 3.2-6.4 6.4-6.4h168c3.2 0 6.4 3.2 6.4 6.4V419.2c0 3.2-3.2 6.4-6.4 6.4h-48z m-216 97.6c-3.2 0-6.4-3.2-6.4-6.4v-168c0-3.2 3.2-6.4 6.4-6.4h168c3.2 0 6.4 3.2 6.4 6.4V516.8c0 3.2-3.2 6.4-6.4 6.4H379.2z"  horiz-adv-x="1024" />

    
    <glyph glyph-name="jiyinfenlei1" unicode="&#59168;" d="M0 896h1024v-1024H0zM512 384m-448 0a448 448 0 1 1 896 0 448 448 0 1 1-896 0ZM406.4 404.8c-46.4 0-83.2 38.4-83.2 83.2s38.4 83.2 83.2 83.2 83.2-38.4 83.2-83.2v-62.4c0-11.2-9.6-20.8-20.8-20.8h-62.4z m43.2 41.6v43.2c0 22.4-19.2 41.6-41.6 41.6s-43.2-19.2-43.2-41.6S384 448 406.4 448h43.2z m168-41.6h-62.4c-11.2 0-20.8 9.6-20.8 20.8v64c0 46.4 38.4 83.2 83.2 83.2s83.2-38.4 83.2-83.2-36.8-84.8-83.2-84.8z m0 41.6c22.4 0 41.6 19.2 41.6 41.6s-19.2 43.2-41.6 43.2-43.2-19.2-43.2-41.6V448h43.2z m0-251.2c-46.4 0-83.2 38.4-83.2 83.2v62.4c0 11.2 9.6 20.8 20.8 20.8h62.4c46.4 0 83.2-38.4 83.2-84.8s-36.8-81.6-83.2-81.6z m-43.2 83.2c0-22.4 19.2-41.6 41.6-41.6s41.6 19.2 41.6 41.6-19.2 41.6-41.6 41.6h-41.6v-41.6z m-168-83.2c-46.4 0-83.2 38.4-83.2 83.2s38.4 84.8 83.2 84.8h62.4c11.2 0 20.8-9.6 20.8-20.8v-62.4c1.6-48-36.8-84.8-83.2-84.8z m0 126.4c-22.4 0-41.6-19.2-41.6-41.6s19.2-41.6 41.6-41.6 41.6 19.2 41.6 41.6v41.6h-41.6z"  horiz-adv-x="1024" />

    
    <glyph glyph-name="qiafangjianyan" unicode="&#59169;" d="M0 896h1024v-1024H0zM512 384m-448 0a448 448 0 1 1 896 0 448 448 0 1 1-896 0ZM617.6 382.4c0-1.6 0-1.6 0 0v-105.6c0-56-44.8-100.8-100.8-100.8h-6.4c-56 0-100.8 44.8-100.8 100.8V574.4c0 11.2 9.6 20.8 20.8 20.8h41.6c11.2 0 20.8-9.6 20.8-20.8s-9.6-20.8-20.8-20.8h-20.8v-163.2c12.8-14.4 28.8-16 56-6.4 27.2 11.2 51.2 17.6 70.4 19.2v148.8h-20.8c-11.2 0-20.8 9.6-20.8 20.8s9.6 20.8 20.8 20.8h41.6c11.2 0 20.8-9.6 20.8-20.8-1.6 0-1.6-190.4-1.6-190.4z m-168-43.2v-64c0-33.6 27.2-59.2 59.2-59.2h6.4c33.6 0 59.2 27.2 59.2 59.2v84.8c-14.4-1.6-32-8-56-16-25.6-11.2-49.6-12.8-68.8-4.8z"  horiz-adv-x="1024" />

    
    <glyph glyph-name="KDA" unicode="&#59170;" d="M0 896h1024v-1024H0zM512 384m-448 0a448 448 0 1 1 896 0 448 448 0 1 1-896 0ZM449.6 299.2c0-35.2 28.8-62.4 62.4-62.4 17.6 0 33.6 6.4 44.8 19.2 8 8 20.8 8 30.4 0 8-8 8-20.8 0-30.4-19.2-19.2-46.4-30.4-75.2-30.4-51.2 0-94.4 36.8-104 86.4-49.6 9.6-86.4 51.2-86.4 104 0 57.6 46.4 105.6 105.6 105.6 4.8 0 11.2-1.6 14.4-6.4l161.6-161.6c30.4 4.8 54.4 30.4 54.4 62.4 0 35.2-28.8 62.4-62.4 62.4-11.2 0-20.8 9.6-20.8 20.8 0 35.2-28.8 62.4-62.4 62.4-19.2 0-35.2-8-48-22.4-8-8-20.8-9.6-30.4-1.6-8 8-8 20.8-1.6 28.8 19.2 22.4 48 36.8 80 36.8 51.2 0 94.4-36.8 104-86.4 49.6-9.6 86.4-51.2 86.4-104 0-57.6-46.4-105.6-105.6-105.6-6.4 0-11.2 1.6-14.4 6.4L419.2 446.4c-30.4-3.2-54.4-30.4-54.4-62.4 0-35.2 28.8-62.4 62.4-62.4 12.8 0 22.4-9.6 22.4-22.4z"  horiz-adv-x="1024" />

    
    <glyph glyph-name="juleiretu" unicode="&#59171;" d="M0 896h1024v-1024H0zM512 384m-448 0a448 448 0 1 1 896 0 448 448 0 1 1-896 0ZM470.4 321.6v20.8c0 8 6.4 14.4 14.4 14.4h195.2c8 0 14.4-6.4 14.4-14.4v-83.2c0-8-6.4-14.4-14.4-14.4h-76.8V224c0-11.2-9.6-20.8-20.8-20.8s-20.8 9.6-20.8 20.8v20.8h-76.8c-8 0-14.4 6.4-14.4 14.4v20.8h-120c-11.2 0-20.8 9.6-20.8 20.8V467.2c0 11.2 9.6 20.8 20.8 20.8h118.4v22.4c0 8 6.4 14.4 14.4 14.4H560v20.8c0 11.2 9.6 20.8 20.8 20.8s20.8-9.6 20.8-20.8v-20.8h76.8c8 0 14.4-6.4 14.4-14.4v-83.2c0-8-6.4-14.4-14.4-14.4H483.2c-8 0-14.4 6.4-14.4 14.4V448h-97.6v-126.4h99.2z"  horiz-adv-x="1024" />

    
    <glyph glyph-name="zhexiantu" unicode="&#59172;" d="M0 896h1024v-1024H0zM512 384m-448 0a448 448 0 1 1 896 0 448 448 0 1 1-896 0ZM635.2 492.8c-3.2 4.8-3.2 11.2-3.2 17.6 0 22.4 19.2 41.6 41.6 41.6s41.6-19.2 41.6-41.6-19.2-41.6-41.6-41.6h-3.2l-41.6-59.2c3.2-4.8 3.2-11.2 3.2-17.6 0-22.4-19.2-41.6-41.6-41.6s-41.6 19.2-41.6 41.6v1.6l-16 9.6c-6.4-3.2-12.8-4.8-19.2-4.8-4.8 0-8 0-12.8 1.6l-22.4-20.8c0-3.2 1.6-6.4 1.6-9.6 0-22.4-19.2-41.6-41.6-41.6-19.2 0-35.2 12.8-40 30.4l-12.8 3.2c-8-8-17.6-12.8-30.4-12.8-22.4 0-41.6 19.2-41.6 41.6s19.2 41.6 41.6 41.6c19.2 0 35.2-12.8 40-30.4l12.8-3.2c8 8 17.6 12.8 30.4 12.8 4.8 0 8 0 12.8-1.6l22.4 20.8c0 3.2-1.6 6.4-1.6 9.6 0 22.4 19.2 41.6 41.6 41.6s41.6-19.2 41.6-41.6v-1.6l16-9.6c6.4 3.2 12.8 4.8 19.2 4.8h3.2l41.6 59.2zM329.6 216c-11.2 0-20.8 9.6-20.8 20.8s9.6 20.8 20.8 20.8h364.8c11.2 0 20.8-9.6 20.8-20.8s-9.6-20.8-20.8-20.8H329.6z"  horiz-adv-x="1024" />

    
    <glyph glyph-name="kebianjianqie" unicode="&#59173;" d="M0 896h1024v-1024H0zM512 384m-448 0a448 448 0 1 1 896 0 448 448 0 1 1-896 0ZM630.4 272c0 11.2 9.6 20.8 20.8 20.8s20.8-9.6 20.8-20.8v-35.2c0-27.2-22.4-49.6-49.6-49.6H400c-27.2 0-49.6 22.4-49.6 49.6V531.2c0 27.2 22.4 49.6 49.6 49.6h224c27.2 0 49.6-22.4 49.6-49.6V496c0-11.2-9.6-20.8-20.8-20.8s-22.4 9.6-22.4 20.8v35.2c0 3.2-3.2 6.4-6.4 6.4H400c-3.2 0-6.4-3.2-6.4-6.4v-294.4c0-3.2 3.2-6.4 6.4-6.4h224c3.2 0 6.4 3.2 6.4 6.4V272z m-56 91.2c-11.2 0-20.8 9.6-20.8 20.8s9.6 20.8 20.8 20.8h28.8c11.2 0 20.8-9.6 20.8-20.8s-9.6-20.8-20.8-20.8h-28.8z m-83.2 0c-11.2 0-20.8 9.6-20.8 20.8s9.6 20.8 20.8 20.8h28.8c11.2 0 20.8-9.6 20.8-20.8s-9.6-20.8-20.8-20.8h-28.8z m168 0c-11.2 0-20.8 9.6-20.8 20.8s9.6 20.8 20.8 20.8H688c11.2 0 20.8-9.6 20.8-20.8s-9.6-20.8-20.8-20.8h-28.8z"  horiz-adv-x="1024" />

    
    <glyph glyph-name="guanlianwangluotu" unicode="&#59174;" d="M0 896h1024v-1024H0zM512 384m-448 0a448 448 0 1 1 896 0 448 448 0 1 1-896 0ZM555.2 481.6c-17.6 33.6-52.8 56-92.8 56-57.6 0-105.6-46.4-105.6-105.6 0-40 22.4-75.2 56-92.8 3.2 78.4 65.6 140.8 142.4 142.4z m-134.4-188.8c-60.8 19.2-104 75.2-104 140.8 0 81.6 65.6 147.2 147.2 147.2 65.6 0 121.6-43.2 140.8-104 60.8-17.6 104-73.6 104-140.8 0-81.6-65.6-147.2-147.2-147.2-67.2-1.6-123.2 43.2-140.8 104z m140.8-62.4c57.6 0 105.6 46.4 105.6 105.6s-46.4 105.6-105.6 105.6-105.6-46.4-105.6-105.6 46.4-105.6 105.6-105.6z"  horiz-adv-x="1024" />

    
    <glyph glyph-name="jiyinfuji1" unicode="&#59175;" d="M0 896h1024v-1024H0zM512 384m-448 0a448 448 0 1 1 896 0 448 448 0 1 1-896 0ZM329.6 552c0 11.2 9.6 20.8 20.8 20.8s20.8-9.6 20.8-20.8v-329.6c0-11.2-9.6-20.8-20.8-20.8s-20.8 9.6-20.8 20.8V552z m84.8 0h56c11.2 0 20.8-9.6 20.8-20.8v-20.8c0-11.2-9.6-20.8-20.8-20.8h-56c-11.2 0-20.8 9.6-20.8 20.8v20.8c0 11.2 9.6 20.8 20.8 20.8z m0-91.2h259.2c11.2 0 20.8-9.6 20.8-20.8v-20.8c0-11.2-9.6-20.8-20.8-20.8H414.4c-11.2 0-20.8 9.6-20.8 20.8v20.8c0 11.2 9.6 20.8 20.8 20.8z m0-91.2h153.6c11.2 0 20.8-9.6 20.8-20.8v-20.8c0-11.2-9.6-20.8-20.8-20.8h-153.6c-11.2 0-20.8 9.6-20.8 20.8v20.8c0 11.2 9.6 20.8 20.8 20.8z m0-91.2h182.4c11.2 0 20.8-9.6 20.8-20.8v-20.8c0-11.2-9.6-20.8-20.8-20.8H414.4c-11.2 0-20.8 9.6-20.8 20.8v20.8c0 11.2 9.6 20.8 20.8 20.8z"  horiz-adv-x="1024" />

    
    <glyph glyph-name="zhankai1" unicode="&#59176;" d="M132.8 734.4h758.4c38.4 0 68.8-30.4 68.8-68.8 0-14.4-4.8-27.2-11.2-38.4L569.6 64c-20.8-32-64-40-96-19.2-8 4.8-14.4 11.2-19.2 19.2L75.2 627.2c-20.8 32-12.8 73.6 19.2 96 11.2 6.4 24 11.2 38.4 11.2z"  horiz-adv-x="1024" />

    
    <glyph glyph-name="guanbi" unicode="&#59177;" d="M512-64C264-64 64 136 64 384S264 832 512 832s448-200 448-448-200-448-448-448zM321.6 620.8c-72-57.6-113.6-144-113.6-236.8 0-168 136-304 304-304s304 136 304 304c0 92.8-43.2 179.2-113.6 236.8-20.8 16-51.2 12.8-67.2-8s-12.8-51.2 8-67.2C691.2 507.2 720 448 720 384c0-115.2-92.8-208-208-208s-208 92.8-208 208c0 64 28.8 123.2 78.4 161.6 20.8 16 24 46.4 8 67.2-17.6 22.4-48 25.6-68.8 8z m142.4 54.4v-256c0-27.2 20.8-48 48-48s48 20.8 48 48v256c0 27.2-20.8 48-48 48s-48-22.4-48-48z"  horiz-adv-x="1024" />

    
    <glyph glyph-name="sousuo" unicode="&#59178;" d="M656 278.4l289.6-260.8c19.2-19.2 19.2-49.6 0-67.2-19.2-19.2-49.6-19.2-67.2 0L584 214.4C531.2 180.8 467.2 160 400 160 214.4 160 64 310.4 64 496S214.4 832 400 832s336-150.4 336-336c0-83.2-30.4-158.4-80-217.6zM400 256c132.8 0 240 107.2 240 240s-107.2 240-240 240-240-107.2-240-240 107.2-240 240-240z"  horiz-adv-x="1024" />

    
    <glyph glyph-name="shouqi1" unicode="&#59179;" d="M161.6 763.2v-758.4c0-38.4 30.4-68.8 68.8-68.8 14.4 0 27.2 4.8 38.4 11.2L832 326.4c32 20.8 40 64 19.2 96-4.8 8-11.2 14.4-19.2 19.2L268.8 820.8c-32 20.8-73.6 12.8-96-19.2-6.4-11.2-11.2-24-11.2-38.4z"  horiz-adv-x="1024" />

    


  </font>
</defs>
</svg>
